<?xml version="1.0" encoding="UTF-8"?>
<!DOCTYPE svg PUBLIC "-//W3C//DTD SVG 1.1//EN" "http://www.w3.org/Graphics/SVG/1.1/DTD/svg11.dtd">
<!-- Creator: CorelDRAW -->
<svg xmlns="http://www.w3.org/2000/svg" xml:space="preserve" width="1101px" height="1096px" version="1.1" style="shape-rendering:geometricPrecision; text-rendering:geometricPrecision; image-rendering:optimizeQuality; fill-rule:evenodd; clip-rule:evenodd"
viewBox="0 0 71.45 71.13"
 xmlns:xlink="http://www.w3.org/1999/xlink"
 xmlns:xodm="http://www.corel.com/coreldraw/odm/2003">
 <defs>
  <style type="text/css">
   <![CDATA[
    .fil4 {fill:none}
    .fil3 {fill:none;fill-rule:nonzero}
    .fil0 {fill:#94ACFF}
    .fil5 {fill:#CFD5E8}
    .fil7 {fill:#E51A4B}
    .fil11 {fill:#EC5479}
    .fil8 {fill:#F29B9B}
    .fil6 {fill:#F78384}
    .fil1 {fill:white}
    .fil2 {fill:#262749;fill-rule:nonzero}
    .fil10 {fill:#CFD5E8;fill-rule:nonzero}
    .fil9 {fill:white;fill-rule:nonzero}
   ]]>
  </style>
 </defs>
 <g id="Camada_x0020_1">
  <metadata id="CorelCorpID_0Corel-Layer"/>
  <g id="_1622144270096">
   <path class="fil0" d="M70.34 39.21c3.93,12.57 -3,24.51 -14.31,29.82 -11.97,5.6 -24.2,-1.27 -35.12,-5.62 -6.44,-2.57 -14.91,0.26 -19.44,-8.55 -5.07,-9.85 3.99,-29.93 11.99,-35.64 7.97,-5.68 22.48,-11.57 32.1,-7.05 6.33,2.97 11.3,10.78 16.63,15.84 4.33,4.09 5.84,5.43 8.15,11.2z"/>
   <path class="fil1" d="M16.58 11.79c-1.23,0.15 -2.41,0.61 -3.56,1.11 -3.54,1.53 -7.26,3.78 -8.36,7.39 -0.67,2.17 -0.23,4.51 0.73,6.5 0.97,2.03 2.32,3.76 3.81,5.38 1.03,1.12 2.12,2.19 3.2,3.27 -0.23,0.42 -0.51,0.71 -0.85,0.93 -0.17,0.11 -0.35,0.2 -0.55,0.28 -0.56,0.23 -1.22,0.36 -1.94,0.57 -0.35,0.1 -0.68,0.26 -0.99,0.46 -0.99,0.64 -1.71,1.72 -2,2.86 -0.38,1.48 -0.13,3.02 0.36,4.43 1.11,3.2 3.42,5.85 6.11,7.92 0.94,0.73 2.12,1.43 3.31,1.07 0.23,-0.07 0.45,-0.18 0.65,-0.31 0.39,-0.25 0.74,-0.6 1.06,-0.95 0.42,-0.46 0.83,-0.93 1.34,-1.27 0.09,-0.05 0.17,-0.1 0.26,-0.15 0.3,-0.15 0.64,-0.23 0.97,-0.23 0.4,2.58 0.91,5.11 2.34,7.25 2.68,3.99 8.54,5.52 13.15,3.43 1.55,-0.7 2.93,-1.75 4.24,-2.83 1.86,-1.52 3.7,-3.26 4.42,-5.49 1.05,-3.24 -0.52,-6.61 -2.51,-9.24 -1.09,-1.46 -2.32,-2.8 -3.62,-4.08 -0.1,-0.57 0.24,-1.21 0.73,-1.6 0.07,-0.07 0.16,-0.13 0.24,-0.18 0.52,-0.33 1.12,-0.52 1.7,-0.71 0.45,-0.15 0.91,-0.32 1.31,-0.58 0.2,-0.13 0.39,-0.29 0.55,-0.47 0.81,-0.94 0.65,-2.3 0.37,-3.46 -0.8,-3.3 -2.28,-6.49 -4.75,-8.8 -1.08,-1.03 -2.4,-1.88 -3.9,-2.14 -1.16,-0.19 -2.44,0.02 -3.43,0.67 -0.3,0.19 -0.58,0.43 -0.82,0.71 -0.49,0.58 -0.87,1.12 -1.31,1.54 -0.12,0.12 -0.25,0.23 -0.38,0.32 -0.83,-2.88 -1.53,-5.82 -3.03,-8.4 -1.79,-3.1 -5.14,-5.66 -8.85,-5.2z"/>
   <g>
    <g>
     <path class="fil2" d="M42.12 45.73c0.4,0.74 0.71,1.42 0.99,2.22 0.57,1.77 0.71,3.18 0.23,5 -0.39,1.23 -0.91,2.07 -1.73,3.06 -0.79,0.93 -1.59,1.65 -2.52,2.43 -1.37,1.12 -2.5,1.98 -4.12,2.73 -2.52,1.02 -4.66,1.08 -7.27,0.37 -1.61,-0.5 -2.77,-1.12 -4.06,-2.2 -0.21,-0.19 -1.82,-1.83 -1.59,-2.19 0.07,0.01 1.76,1.65 1.97,1.82 1.24,0.98 2.33,1.54 3.85,1.99 2.45,0.63 4.47,0.57 6.82,-0.41 1.55,-0.72 2.65,-1.57 3.95,-2.65 0.9,-0.75 1.67,-1.45 2.43,-2.35 0.75,-0.91 1.23,-1.67 1.58,-2.8 0.44,-1.67 0.29,-2.95 -0.23,-4.57 -0.26,-0.76 -0.56,-1.4 -0.94,-2.1 -0.44,-0.78 -0.89,-1.46 -1.43,-2.18 -2.46,-3.18 -4.96,-5.47 -7.95,-8.11 -2.62,-2.53 -3.67,-5.68 -4.81,-9.05 -0.64,-1.96 -1.16,-3.94 -1.79,-5.9 -0.34,-1.03 -0.7,-1.99 -1.11,-3 -0.2,-0.53 -0.28,-0.71 -0.38,-1.24 -0.08,-0.43 0.62,0.76 0.78,1.05 0.63,1.18 1.06,2.35 1.49,3.62 0.58,1.74 1.07,3.5 1.67,5.24 1.11,3.2 2.15,6.32 4.65,8.72 3.04,2.67 5.55,4.99 8.04,8.23 0.56,0.74 1.03,1.45 1.48,2.27z"/>
     <path class="fil2" d="M17.49 42.56c-0.09,-0.22 -0.21,-0.52 -0.33,-0.72 -2.23,-4.1 -4.88,-6.33 -7.92,-9.68 -0.08,-0.09 -0.77,-0.91 -0.59,-1.05 0.16,-0.11 0.9,0.61 0.99,0.71 3.23,3.24 5.9,5.58 8.17,9.69 0.12,0.25 0.24,0.5 0.35,0.76 1.81,4.14 1.51,8.86 3.23,12.99 0.21,0.5 0.68,1.32 0.64,1.86 -0.07,0.48 -1.17,-1.56 -1.31,-1.88 -1.77,-4.01 -1.5,-8.66 -3.23,-12.68z"/>
     <path class="fil2" d="M7.74 13.99c1.32,-0.88 2.55,-1.5 4,-2.12 1.22,-0.51 2.2,-0.88 3.52,-1.04 1,-0.08 1.77,0 2.74,0.27 0.95,0.29 1.65,0.64 2.48,1.18 1.2,0.84 2.02,1.66 2.88,2.84 0.11,0.15 0.81,1.22 0.61,1.41 -0.15,0.07 -0.96,-1.01 -1.04,-1.12 -0.86,-1.07 -1.66,-1.83 -2.8,-2.6 -0.77,-0.49 -1.44,-0.81 -2.32,-1.07 -0.88,-0.23 -1.57,-0.3 -2.48,-0.22 -1.24,0.16 -2.18,0.53 -3.31,1.01 -1.4,0.6 -2.6,1.21 -3.87,2.07 -0.3,0.21 -0.59,0.42 -0.87,0.65 -1.45,1.22 -2.36,2.32 -2.91,4.15 -0.29,1.11 -0.31,1.98 -0.15,3.1 0.18,1.14 0.48,2.02 0.96,3.05 0.61,1.26 1.25,2.26 2.07,3.38 0.4,0.53 1.25,1.49 1.37,2.15 0.07,0.53 -1.96,-1.93 -2.08,-2.07 -0.79,-1.04 -1.39,-1.98 -1.99,-3.15 -0.53,-1.1 -0.85,-2.03 -1.06,-3.25 -0.18,-1.23 -0.16,-2.19 0.16,-3.41 0.6,-1.99 1.58,-3.2 3.16,-4.52 0.05,-0.07 0.81,-0.61 0.93,-0.69z"/>
    </g>
   </g>
   <path class="fil3" d="M23.96 16.54c0.23,0.39 0.44,0.79 0.63,1.2 1.36,2.81 2.03,5.92 3.04,8.88 1.01,2.98 2.33,6.78 4.72,8.89 2.87,2.51 5.7,5.11 7.99,8.17 1.98,2.64 3.57,6 2.64,9.16 -0.65,2.18 -2.39,3.85 -4.13,5.31 -1.25,1.03 -2.55,2.03 -4.03,2.68 -4.4,1.95 -10.08,0.31 -12.76,-3.69m0 0c-3.01,-4.49 -2.12,-10.64 -4.57,-15.47 -2.11,-4.19 -5.75,-7.16 -8.83,-10.57m0 0c-1.47,-1.63 -2.81,-3.37 -3.8,-5.39 -0.97,-1.98 -1.45,-4.29 -0.86,-6.41 0.98,-3.53 4.52,-5.66 7.89,-7.08 1.1,-0.46 2.22,-0.9 3.4,-1.02 3.57,-0.36 6.86,2.24 8.67,5.34"/>
   <g>
    <path class="fil2" d="M40.09 27.62c-0.64,-1.14 -1.26,-2.01 -2.15,-2.96 -1.06,-1.1 -2.03,-1.86 -3.52,-2.28 -0.55,-0.13 -1.01,-0.16 -1.57,-0.11 -0.56,0.07 -0.99,0.2 -1.48,0.46 -0.29,0.17 -0.5,0.33 -0.74,0.57 -0.31,0.33 -0.6,0.68 -0.91,1 -0.15,0.16 -0.29,0.28 -0.47,0.4 -0.07,0.06 -0.56,0.32 -0.63,0.17 -0.04,-0.08 0.29,-0.43 0.35,-0.49 0.11,-0.15 0.25,-0.3 0.37,-0.45 0.29,-0.33 0.57,-0.68 0.86,-1.02 0.27,-0.3 0.52,-0.5 0.86,-0.71 0.57,-0.33 1.06,-0.48 1.71,-0.57 0.65,-0.08 1.17,-0.05 1.81,0.09 1.64,0.45 2.71,1.25 3.88,2.45 0.93,1 1.59,1.91 2.27,3.09 1.11,2.04 1.72,3.8 2.21,6.06 0.14,0.66 0.21,1.22 0.18,1.9 -0.03,0.35 -0.08,0.63 -0.2,0.96 -0.13,0.34 -0.28,0.58 -0.52,0.85 -0.2,0.21 -0.38,0.34 -0.63,0.48 -0.46,0.26 -0.86,0.38 -1.36,0.51 -0.56,0.14 -1.07,0.25 -1.58,0.52 -0.04,0.01 -0.13,0.07 -0.17,0.1 -0.01,0.01 -0.03,0.02 -0.05,0.03 -0.25,0.19 -0.42,0.38 -0.57,0.66 -0.07,0.13 -0.12,0.25 -0.16,0.4 -0.05,0.17 -0.1,0.29 -0.14,0.44 -0.08,0.27 -0.25,-0.35 -0.26,-0.46 -0.01,-0.21 0.02,-0.38 0.09,-0.57 0.15,-0.41 0.36,-0.68 0.69,-0.95 0.02,-0.04 0.21,-0.14 0.26,-0.18 0.02,-0.01 0.05,-0.03 0.07,-0.04 0.56,-0.31 1.05,-0.43 1.65,-0.6 0.43,-0.12 0.79,-0.24 1.18,-0.46 0.18,-0.11 0.31,-0.21 0.45,-0.37 0.18,-0.19 0.28,-0.37 0.37,-0.61 0.09,-0.26 0.12,-0.48 0.14,-0.76 0.03,-0.6 -0.05,-1.11 -0.17,-1.7 -0.48,-2.17 -1.06,-3.88 -2.12,-5.85z"/>
   </g>
   <path class="fil4" d="M37.76 40.2c-0.25,-0.63 0.12,-1.37 0.67,-1.78 0.08,-0.05 0.16,-0.11 0.24,-0.16 0.5,-0.29 1.09,-0.42 1.65,-0.58 0.44,-0.11 0.88,-0.25 1.27,-0.48 0.2,-0.11 0.38,-0.25 0.54,-0.42 0.8,-0.87 0.68,-2.22 0.44,-3.38 -0.69,-3.31 -2.04,-6.55 -4.35,-9 -1.03,-1.08 -2.27,-2.02 -3.71,-2.38 -1.11,-0.27 -2.34,-0.14 -3.31,0.42 -0.3,0.17 -0.57,0.39 -0.81,0.65 -0.48,0.53 -0.87,1.04 -1.3,1.43 -0.15,0.13 -0.3,0.25 -0.47,0.34"/>
   <g>
    <path class="fil2" d="M7.95 47.95c0.33,0.6 0.67,1.15 1.07,1.71 1.45,1.93 2.86,3.23 5.13,4.12 0.3,0.1 0.57,0.18 0.9,0.2 0.23,0.01 0.4,-0.02 0.61,-0.12 0.53,-0.26 0.93,-0.77 1.3,-1.22 0.28,-0.35 0.56,-0.78 0.89,-1.09 0.03,-0.02 0.07,-0.06 0.1,-0.08 0.16,-0.12 0.3,-0.19 0.48,-0.25 0.11,-0.05 0.86,-0.1 0.86,0.06 -0.02,0.1 -0.56,0.32 -0.68,0.38 -0.09,0.03 -0.27,0.17 -0.34,0.23 -0.01,0.01 -0.04,0.04 -0.05,0.05 -0.18,0.12 -0.62,0.86 -0.8,1.06 -0.44,0.57 -0.84,1.1 -1.48,1.44 -0.31,0.15 -0.56,0.2 -0.91,0.2 -0.4,-0.02 -0.72,-0.1 -1.1,-0.23 -2.43,-0.92 -3.94,-2.28 -5.49,-4.33 -0.42,-0.59 -0.78,-1.15 -1.13,-1.78 -0.84,-1.55 -1.38,-2.92 -1.82,-4.63 -0.31,-1.5 -0.06,-2.91 0.51,-4.31 0.33,-0.72 0.66,-1.27 1.24,-1.83 0.28,-0.25 0.53,-0.42 0.87,-0.58 0.36,-0.16 0.65,-0.23 1.04,-0.24 0.37,-0.02 0.75,-0.04 1.12,-0.13 0.73,-0.23 1.05,-0.61 1.77,-0.67 0.41,-0.01 -1.16,1.11 -1.89,1.33 -0.33,0.06 -0.64,0.09 -0.97,0.11 -0.3,0.02 -0.51,0.08 -0.78,0.2 -0.27,0.14 -0.46,0.28 -0.68,0.49 -0.49,0.49 -0.78,0.98 -1.05,1.61 -0.49,1.23 -0.72,2.53 -0.45,3.84 0.42,1.65 0.93,2.96 1.73,4.46z"/>
   </g>
   <path class="fil4" d="M12.07 35.87c-1.29,0.82 -1.28,1.09 -2.91,1.17 -2.56,0.12 -3.84,4.29 -3.3,6.54 1.03,4.27 3.86,9.01 8.17,10.54 1.55,0.56 2.15,0.03 3.18,-1.28 0.76,-0.96 0.8,-1.38 2.08,-1.55"/>
   <g>
    <path class="fil5" d="M17.27 18.57c-0.03,0.01 -0.33,-0.02 -0.73,0.22 -0.01,0.14 -0.15,1.23 0.72,1.11 0.77,-0.11 0.56,-0.85 0.01,-1.33z"/>
    <path class="fil5" d="M23.02 36.28c0.36,0.02 0.56,0.2 0.83,-0.21 0.15,-0.24 0.13,-0.63 -0.19,-0.9 -0.49,-0.41 -1.45,-0.07 -0.64,1.11z"/>
    <path class="fil5" d="M26.85 34.2c0.61,-0.77 -0.19,-1.49 -0.75,-1.16 -0.56,0.34 -0.24,1.51 0.75,1.16z"/>
    <path class="fil5" d="M33.74 45.22c-0.49,0.91 0.72,1.39 1.05,0.79 0.4,-0.72 -0.69,-1.46 -1.05,-0.79z"/>
    <path class="fil5" d="M24.39 30.84c-0.47,0.75 0.68,1.45 1.06,0.79 0.4,-0.69 -0.64,-1.48 -1.06,-0.79z"/>
    <path class="fil5" d="M13.68 21.9c0.32,0.01 0.61,0.13 0.83,-0.21 0.14,-0.23 0.13,-0.63 -0.19,-0.9 -0.51,-0.44 -1.45,-0.07 -0.64,1.11z"/>
    <path class="fil5" d="M13.17 18.17l-1.81 0.84c1.12,0.86 1.83,0.55 1.81,-0.84z"/>
    <path class="fil5" d="M33.09 43.81c0.21,-0.36 0.15,-0.31 0.25,-0.67 -0.44,-0.68 -0.62,-0.71 -1.24,-0.35 0,0.76 0.06,1.27 0.99,1.02z"/>
    <path class="fil5" d="M21.08 33.28c0.42,0.74 0.65,0.8 1.25,0.43 0.02,-0.36 0.18,-0.76 -0.41,-1.02 -0.57,-0.25 -0.69,0.14 -0.84,0.59z"/>
    <path class="fil5" d="M23.29 28.13l-0.58 0.32c0.1,1.2 0.73,1.15 1.02,0.94 0.6,-0.43 0.07,-1.03 -0.44,-1.26z"/>
    <path class="fil5" d="M26.79 47.9c0.36,-0.55 0.31,-0.58 -0.16,-1.21 -0.31,-0.02 -0.98,-0.03 -0.86,0.6 0.15,0.73 0.6,0.71 1.02,0.61z"/>
    <path class="fil5" d="M24.16 51.85c0.71,1.13 1.41,0.34 1.22,-0.23 -0.24,-0.74 -1.07,-0.81 -1.22,0.23z"/>
    <path class="fil5" d="M19.93 31.48c1.32,0.19 0.92,-0.98 0.41,-1.22 -0.3,-0.15 -0.5,0.05 -0.76,0.22 0.05,0.53 -0.1,0.44 0.35,1z"/>
    <path class="fil5" d="M18.38 35.96c0.67,-0.04 0.64,0.04 0.9,-0.62 -0.33,-0.53 -0.58,-0.9 -1.04,-0.61 -0.53,0.33 -0.18,0.77 0.14,1.23z"/>
    <path class="fil5" d="M21.72 25.74c-1.68,0.89 0.82,2.06 0.69,0.72 -0.05,-0.49 -0.42,-0.6 -0.69,-0.72z"/>
    <path class="fil5" d="M24.45 37.49c-0.14,0.29 -0.34,0.47 -0.09,0.89 0.24,0.4 0.6,0.46 0.92,0.2 0.51,-0.41 0.12,-1.3 -0.83,-1.09z"/>
    <path class="fil5" d="M28.14 36.71l0.46 -0.3c0.04,-0.27 0.1,-0.59 -0.2,-0.85 -0.72,-0.63 -1.78,0.7 -0.26,1.15z"/>
    <path class="fil5" d="M17.71 32.94c-0.22,-0.37 -0.38,-0.71 -0.74,-0.69 -0.44,0.03 -0.63,0.4 -0.5,0.76 0.34,0.96 1,0.62 1.24,-0.07z"/>
    <path class="fil5" d="M31.05 40.13c-1,0.5 -0.46,1.33 0.13,1.34 0.37,0 0.6,-0.3 0.56,-0.64 -0.05,-0.48 -0.4,-0.58 -0.69,-0.7z"/>
    <path class="fil5" d="M18.31 21.03c-0.68,0.8 0.19,1.54 0.75,1.15 0.57,-0.4 0.18,-1.26 -0.75,-1.15z"/>
    <path class="fil5" d="M34.07 53.13c1.09,-0.1 0.87,-1.09 0.27,-1.28 -0.6,-0.19 -1.22,0.57 -0.27,1.28z"/>
    <path class="fil5" d="M27.34 42.91l0.34 0.56c0.51,0.06 0.61,0.05 0.95,-0.35 -0.09,-0.77 -0.46,-1.21 -1.2,-0.65l-0.09 0.44z"/>
    <path class="fil5" d="M29.26 45.88l0.73 -0.01c0.3,-0.66 0.21,-1.04 -0.55,-1.29 -0.67,0.29 -0.64,0.67 -0.18,1.3z"/>
    <path class="fil5" d="M36.2 47.53c-0.5,-0.21 -0.48,-0.25 -0.94,0.03 -0.35,1.66 1.81,1.32 0.94,-0.03z"/>
    <path class="fil5" d="M32.35 50.66l0.43 0.08 0.47 -0.29c0.12,-1.58 -1.93,-1.29 -0.9,0.21z"/>
    <path class="fil5" d="M24.63 45.56c0.59,0 0.69,-0.04 0.86,-0.6 -0.26,-0.51 -0.5,-0.91 -1,-0.61 -0.54,0.31 -0.25,0.69 0.14,1.21z"/>
    <path class="fil5" d="M19.24 28.8c0.09,-0.88 -0.48,-1.28 -1.2,-0.66 -0.01,0.87 0.46,1.39 1.2,0.66z"/>
    <path class="fil5" d="M31.14 53.83c-1.23,0.26 -0.58,1.26 -0.11,1.34 0.61,0.12 1.01,-0.68 0.11,-1.34z"/>
    <path class="fil5" d="M10.15 23.26l0.39 0.63c0.78,0.23 0.68,0.08 0.95,-0.56l-0.36 -0.55c-0.59,-0.21 -0.74,-0.12 -0.98,0.48z"/>
    <path class="fil5" d="M23.93 42.7c-0.29,-1.23 -1.21,-0.9 -1.28,-0.37 -0.08,0.58 0.67,1.3 1.28,0.37z"/>
    <path class="fil5" d="M30.43 47.67c0.62,1.17 1.37,0.56 1.26,-0.06 -0.12,-0.62 -0.96,-0.99 -1.26,0.06z"/>
    <path class="fil5" d="M14.95 30.23c-0.34,0.76 0.89,1.4 1.15,0.51 0.16,-0.53 -0.77,-1.36 -1.15,-0.51z"/>
    <path class="fil5" d="M11.75 25.69c0.67,1.37 1.33,0.4 1.27,0.04 -0.26,-0.45 -0.36,-0.72 -0.78,-0.66 -0.35,0.04 -0.43,0.29 -0.49,0.62z"/>
    <path class="fil5" d="M21.04 40.05c0.44,0.76 0.6,0.98 1.25,0.44l0.06 -0.38 -0.39 -0.62c-0.56,-0.07 -0.67,-0.02 -0.92,0.56z"/>
    <path class="fil5" d="M19.49 37.64l0.46 0.71c0.65,0.01 0.75,0.07 0.83,-0.67l-0.38 -0.58 -0.47 -0.05c-0.3,0.23 -0.31,0.28 -0.44,0.59z"/>
    <path class="fil5" d="M27.72 50.36c0.66,0 0.68,-0.11 0.89,-0.64 -0.85,-1.41 -1.28,-0.33 -1.26,-0.1 0.02,0.32 0.18,0.45 0.37,0.74z"/>
    <path class="fil5" d="M37.47 51.1c0.59,-0.36 0.44,-0.21 0.53,-0.77 -0.89,-1.39 -2.09,0.26 -0.53,0.77z"/>
    <path class="fil5" d="M20.85 24.38c-0.11,-0.93 -0.32,-1.33 -1.26,-0.67 0.17,0.9 0.36,1.34 1.26,0.67z"/>
    <path class="fil5" d="M16.76 26.61l0.38 0.13 0.57 -0.33c-0.01,-0.59 -0.12,-0.76 -0.62,-1.03 -0.69,0.31 -0.89,0.51 -0.33,1.23z"/>
    <path class="fil5" d="M28.95 38.55c0.43,0.7 0.64,0.65 1.23,0.21 -0.04,-0.79 -0.39,-1.38 -1.18,-0.67l-0.05 0.46z"/>
    <path class="fil5" d="M35.63 55.62l0.89 -0.76c-0.72,-1.29 -2.1,-0.46 -0.89,0.76z"/>
    <path class="fil5" d="M15.25 24.27l0.38 0.09c0.96,-0.56 0.46,-1.33 -0.42,-1.31 -0.4,0.38 -0.43,0.63 0.04,1.22z"/>
    <path class="fil5" d="M28.83 52.02c0.81,1.49 1.33,0.36 1.29,0.12l-0.38 -0.66c-0.14,0 -0.33,-0.02 -0.48,-0.05 -0.26,0.22 -0.35,0.36 -0.43,0.59z"/>
    <path class="fil5" d="M23.3 50.09c1.01,-0.26 0.56,-1.91 -0.74,-1.18l0.42 0.9c0.33,0.49 0.11,0.17 0.32,0.28z"/>
    <path class="fil5" d="M13.87 28.82c0.3,-0.08 0.56,-0.25 0.7,-0.51 -0.29,-1.61 -2.15,-0.6 -0.7,0.51z"/>
    <path class="fil5" d="M26.1 40.99c0.49,0.16 0.26,0.19 0.95,-0.2 -0.06,-0.64 -0.04,-0.7 -0.62,-1.01 -0.68,0.28 -0.84,0.55 -0.33,1.21z"/>
    <path class="fil5" d="M25.63 53.93c0.22,0.38 0.48,0.73 0.88,0.92l0.45 -0.31c0.03,-0.86 -0.45,-1.51 -1.33,-0.61z"/>
    <path class="fil5" d="M35.53 50.6l0.05 -0.45c-0.16,-0.7 -1.17,-0.66 -1.17,-0.03 -0.01,0.66 0.61,0.93 1.12,0.48z"/>
    <path class="fil5" d="M18.93 32.75c-0.42,0.63 0.53,1.35 0.97,0.71 0.35,-0.51 -0.49,-1.44 -0.97,-0.71z"/>
    <path class="fil5" d="M35.01 42.77c-1.05,0.33 -0.41,1.26 0.06,1.24 0.66,-0.02 0.85,-0.87 -0.06,-1.24z"/>
    <path class="fil5" d="M20.51 28.32c-0.37,0.75 0.65,1.32 1.01,0.65 0.31,-0.58 -0.65,-1.36 -1.01,-0.65z"/>
    <path class="fil5" d="M29.86 42.7c-0.4,0.76 0.64,1.33 1.01,0.65 0.29,-0.55 -0.64,-1.35 -1.01,-0.65z"/>
    <path class="fil5" d="M28.71 46.86c-1.06,0.35 -0.39,1.24 0.06,1.24 0.65,0 0.84,-0.9 -0.06,-1.24z"/>
    <path class="fil5" d="M23.57 40.02c-0.31,0.75 0.77,1.26 1.05,0.56 0.23,-0.55 -0.71,-1.4 -1.05,-0.56z"/>
    <path class="fil5" d="M33.52 54.08c-0.95,0 -0.84,0.91 -0.26,1.19 0.43,0.19 1.24,-0.36 0.26,-1.19z"/>
    <path class="fil5" d="M26.7 44.78c-0.04,0.11 -0.29,0.57 0.32,0.87 0.28,0.13 0.65,-0.05 0.73,-0.38 0.14,-0.58 -0.76,-1.19 -1.05,-0.49z"/>
    <path class="fil5" d="M34.05 47.81c-0.65,-1.15 -1.35,-0.35 -1.15,0.16 0.29,0.74 0.98,0.64 1.15,-0.16z"/>
    <path class="fil5" d="M28.44 54.85c0.75,0.22 1.2,-0.43 0.54,-1.01 -0.39,-0.33 -1.35,0.03 -0.54,1.01z"/>
    <path class="fil5" d="M20.84 22.41c1.07,0.04 0.98,-0.89 0.11,-1.25l-0.51 0.3c0.03,0.48 0.03,0.59 0.4,0.95z"/>
    <path class="fil5" d="M22.46 37.26c-1.05,0.4 -0.31,1.3 0.16,1.23 0.67,-0.09 0.65,-0.93 -0.16,-1.23z"/>
    <path class="fil5" d="M33.63 40.42c-0.79,-0.07 -0.99,0.64 -0.45,1.06 0.47,0.36 1.45,-0.15 0.45,-1.06z"/>
    <path class="fil5" d="M19.76 18.91l-0.38 -0.11c-0.69,0.29 -0.61,0.99 -0.05,1.19 0.6,0.21 0.97,-0.38 0.43,-1.08z"/>
    <path class="fil5" d="M17.82 23.21l-0.53 0.32c0.01,1.88 2.25,0.45 0.53,-0.32z"/>
    <path class="fil5" d="M18.83 26.27c0.5,0.92 1.03,0.75 1.21,-0.04 -0.23,-0.44 -0.4,-0.51 -0.72,-0.61 -0.37,0.18 -0.44,0.31 -0.49,0.65z"/>
    <path class="fil5" d="M23.11 24.58c0.14,-0.93 -0.66,-1.26 -1.01,-0.75 -0.3,0.43 0.15,1.39 1.01,0.75z"/>
    <path class="fil5" d="M25.09 49.3c-0.25,0.84 0.82,1.14 1.06,0.48 0.2,-0.58 -0.79,-1.35 -1.06,-0.48z"/>
    <path class="fil5" d="M24.05 34.07c0.45,-0.1 0.36,-0.06 0.65,-0.42 -0.31,-1.7 -2.03,-0.37 -0.65,0.42z"/>
    <path class="fil5" d="M28.16 40.65c0.5,0.95 1.02,0.75 1.21,-0.04 -0.31,-0.57 -0.34,-0.47 -0.75,-0.59 -0.32,0.18 -0.38,0.31 -0.46,0.63z"/>
    <path class="fil5" d="M14.54 26.49c0.97,0.06 1.1,-0.74 0.11,-1.25 -0.64,0.35 -0.69,0.6 -0.11,1.25z"/>
    <path class="fil5" d="M36.28 46.3c0.68,0.23 0.75,0.15 0.9,-0.55 -0.58,-1.09 -1.61,-0.44 -0.9,0.55z"/>
    <path class="fil5" d="M18.4 30.58c-0.6,-0.98 -1.25,-0.32 -1.11,0.18 0.2,0.71 1.06,0.84 1.11,-0.18z"/>
    <path class="fil5" d="M20.43 35.34c-0.13,0.86 1,1.02 1.1,0.31 0.09,-0.71 -0.97,-1.14 -1.1,-0.31z"/>
    <path class="fil5" d="M32.47 45.68c-0.07,-0.63 -0.1,-0.67 -0.64,-0.87 -1.17,0.51 -0.11,1.84 0.64,0.87z"/>
    <path class="fil5" d="M22.32 31.6l0.28 0.08 0.52 -0.29c0,-0.77 -0.56,-1.41 -1.15,-0.57 0.02,0.46 -0.04,0.36 0.35,0.78z"/>
    <path class="fil5" d="M13.03 24.1c0.93,-0.06 0.88,-0.87 0.33,-1.15 -0.49,-0.25 -1.25,0.31 -0.33,1.15z"/>
    <path class="fil5" d="M14.71 19.69c0.45,-0.1 0.37,-0.05 0.65,-0.42 -0.2,-1.62 -2.08,-0.45 -0.65,0.42z"/>
    <path class="fil5" d="M36.61 53.28c0.65,-0.25 0.71,-0.63 0.17,-1.19l-0.3 -0.07c-0.86,0.32 -0.52,0.98 0.13,1.26z"/>
    <path class="fil5" d="M25.41 36.4c1,0.22 1.19,-0.81 0.17,-1.18 -0.62,0.27 -0.64,0.58 -0.17,1.18z"/>
    <path class="fil5" d="M14.1 32.79c0.22,0.38 0.36,0.47 0.63,0.6 0.68,-0.29 0.72,-0.6 0.17,-1.22 -0.56,-0.08 -0.71,0.02 -0.8,0.62z"/>
    <path class="fil5" d="M25.45 43.28c0.81,0.03 1.05,-0.73 0.39,-1.11 -0.6,-0.35 -1.16,0.3 -0.39,1.11z"/>
    <path class="fil5" d="M26.98 38.8l0.37 0.07c0.42,-0.22 0.38,-0.29 0.47,-0.68l-0.35 -0.5 -0.32 -0.06c-0.61,0.22 -0.66,0.62 -0.17,1.17z"/>
    <path class="fil5" d="M11.28 28.46c1.54,0.43 0.81,-1.87 -0.27,-0.82 -0.01,0.3 0.02,0.46 0.27,0.82z"/>
    <path class="fil5" d="M13.23 30.98c0.66,-0.31 0.6,-0.58 0.15,-1.19 -0.37,-0.05 -0.43,-0.1 -0.79,0.2 -0.05,0.6 0.07,0.8 0.64,0.99z"/>
    <path class="fil5" d="M31.23 52.19c0.36,0.84 0.92,0.95 1.22,0.23 -0.34,-1.07 -1.04,-0.89 -1.22,-0.23z"/>
    <path class="fil5" d="M24.72 26.94c-0.03,-0.4 0.02,-0.43 -0.3,-0.84 -1.44,-0.39 -0.93,1.77 0.3,0.84z"/>
    <path class="fil5" d="M22.19 45.25l0.37 0.11c0.38,-0.17 0.43,-0.31 0.52,-0.58 -0.55,-1.26 -1.68,-0.57 -0.89,0.47z"/>
    <path class="fil5" d="M24.06 47.78c0.31,-0.14 0.47,-0.28 0.6,-0.5l-0.4 -0.74c-1.01,-0.09 -1.11,0.77 -0.2,1.24z"/>
    <path class="fil5" d="M30.11 50.48c0.26,0.01 0.39,0.01 0.67,-0.16 0.45,-1.53 -1.93,-1.25 -0.67,0.16z"/>
    <path class="fil5" d="M27.3 52.56c0.59,-0.34 0.48,-0.82 -0.05,-1.26 -0.25,0.03 -0.44,0.12 -0.69,0.34 0.04,0.58 0.12,0.79 0.74,0.92z"/>
    <path class="fil5" d="M16.12 28.9c0.93,-0.01 1.1,-0.95 0.02,-1.23 -0.56,0.31 -0.56,0.67 -0.02,1.23z"/>
    <path class="fil5" d="M38.66 48.59c0.05,-0.32 0.07,-0.52 -0.27,-0.95 -0.29,-0.04 -0.46,-0.06 -0.76,0.19 -0.11,0.73 0.32,1.29 1.03,0.76z"/>
    <path class="fil5" d="M9.45 25.61c0.62,1.11 1.65,0.37 0.78,-0.63 -0.71,-0.08 -0.76,0.2 -0.78,0.63z"/>
    <path class="fil5" d="M16.28 22.11c0.89,-0.25 0.77,-0.96 -0.03,-1.28l-0.49 0.29c-0.01,0.49 0.02,0.62 0.52,0.99z"/>
    <path class="fil5" d="M12.21 21.35c-0.08,-0.52 -0.14,-0.61 -0.58,-0.89 -1.22,0.46 -0.32,1.83 0.58,0.89z"/>
    <path class="fil5" d="M25.1 29.05c0.32,0.61 0.61,0.64 1.12,0.47 -0.02,-0.4 -0.2,-0.82 -0.52,-1.24 -0.46,0.27 -0.57,0.26 -0.6,0.77z"/>
    <path class="fil5" d="M16.46 35.93c0.48,-0.27 0.47,-0.8 0.01,-1.35 -0.34,-0.07 -0.6,0.04 -0.95,0.12l0.94 1.23z"/>
    <path class="fil5" d="M20.42 41.71c0.12,0.5 0.08,0.38 0.46,0.65 -0.15,0.3 -0.13,0.01 -0.11,0.34 0.01,0.21 0.13,0.39 0.25,0.61 1.16,-1.38 -0.28,-1.72 -0.41,-1.7 -0.02,0 -0.05,0.01 -0.07,0.01l-0.12 0.09z"/>
   </g>
   <path class="fil5" d="M9.96 16.51c-1.88,1.5 -3.36,3.17 -3.47,5.57 -0.11,2.33 0.79,4.65 2.44,7.04 2.75,4 8.48,8.63 9.95,12.99 1.46,4.33 1.63,6.59 3.21,10.24 0.8,1.85 0.62,1.84 2.09,3.24 2.24,2.13 1.43,1.71 4.19,2.71 2.94,1.07 1.7,0.61 4.81,0.26 1.54,-0.18 2.33,-0.77 3.64,-1.79 1.53,-1.2 3.81,-3.54 3.93,-5.46 0.55,-8.62 -8.82,-12.85 -11.99,-19.19 -3.22,-6.43 -2.99,-12.25 -8.96,-16.61 -1.23,-0.89 -1.92,-0.8 -3.07,-1.07 -1.26,-0.3 -1.69,-0.27 -3.21,0.28 -0.78,0.28 -2.94,1.28 -3.56,1.79zm0.67 1.23c-1.64,1.35 -3.01,2.78 -2.84,5.25 0.46,6.5 10.26,12.49 12.3,18.52 1.14,3.38 2.73,10.89 4.49,12.65 0.72,0.72 1.62,1.79 2.47,2.21 0.61,0.29 2.15,0.84 2.84,1.04 0.84,0.23 1.94,-0.03 2.94,-0.16 2.65,-0.34 6.66,-3.93 6.6,-6.84 -0.05,-2.51 -0.84,-4.24 -2.5,-6.53 -3.04,-4.18 -7.03,-6.54 -9.35,-11.16 -2.59,-5.17 -3.33,-12.37 -7.96,-15.69 -1.88,-1.35 -3.49,-1.88 -5.76,-1 -0.76,0.3 -2.64,1.22 -3.23,1.71z"/>
   <path class="fil6" d="M48.43 11.47c-0.42,1.24 -0.58,3.03 -0.71,4.29 -0.15,1.61 -0.22,3.01 0.12,4.61 0.3,1.19 0.69,1.96 1.43,2.92 0.9,1.11 1.87,1.93 2.98,2.81 0.17,0.14 0.26,0.26 0.34,0.46 0.09,0.25 0.1,0.46 0.1,0.72 -0.04,0.82 -0.27,1.7 -0.47,2.5 -0.22,0.82 -0.43,1.64 -0.64,2.46 -0.1,0.39 -0.15,0.71 -0.14,1.11 0.01,0.38 0.06,0.67 0.2,1.03 0.15,0.34 0.32,0.57 0.6,0.82 0.33,0.27 0.62,0.39 1.02,0.5 0.35,0.07 0.62,0.07 0.97,-0.03 0.1,-0.03 0.18,-0.06 0.28,-0.11 0.19,-0.1 0.33,-0.21 0.49,-0.36 0.47,-0.49 0.7,-1.01 0.84,-1.68 0.31,-1.63 0.62,-3.27 0.94,-4.91 0.12,-0.59 0.3,-1.02 0.71,-1.46 0.41,-0.4 0.81,-0.58 1.37,-0.67 1.4,-0.22 2.42,-0.55 3.61,-1.33 1.08,-0.75 1.73,-1.49 2.44,-2.59 1.13,-1.84 1.76,-3.65 2.44,-5.68 0.04,-0.14 0.51,-1.62 0.59,-2.16 0.05,0.01 0.09,0.02 0.14,0.03 0.3,0.05 0.53,0.04 0.82,-0.06 0.09,-0.03 0.16,-0.07 0.24,-0.12 0.19,-0.13 0.31,-0.26 0.44,-0.46 0.23,-0.38 0.33,-0.74 0.42,-1.17 0.07,-0.35 0.07,-0.62 -0.02,-0.97 -0.08,-0.33 -0.2,-0.55 -0.4,-0.82 -0.44,-0.56 -0.92,-0.87 -1.53,-1.21 -1.23,-0.61 -2.33,-0.91 -3.6,-1.34 -0.99,-0.34 -1.94,-0.62 -2.95,-0.87 -3.74,-0.85 -6.73,-1.07 -10.54,-0.91 -0.46,0.02 -0.89,0.05 -1.35,0.11 -0.13,0.02 -0.72,0.12 -1.03,0.25l-1 0.24c0,-0.01 0,-0.02 -0.02,-0.03 -0.35,-0.1 -0.57,-0.02 -0.91,0.11 -0.26,0.13 -0.44,0.25 -0.62,0.48 -0.01,0 -0.04,0.05 -0.05,0.06 -0.14,0.22 -0.19,0.4 -0.21,0.66 -0.02,0.33 0.03,0.58 0.13,0.89 0.12,0.35 0.27,0.58 0.52,0.84 0.27,0.26 0.52,0.43 0.84,0.6 0.4,0.19 0.78,0.33 1.17,0.44z"/>
   <g>
    <path class="fil2" d="M54.06 34.24c0.13,-0.07 0.23,-0.15 0.34,-0.25 0.38,-0.4 0.56,-0.83 0.67,-1.36 0.32,-1.64 0.63,-3.27 0.95,-4.91 0.15,-0.71 0.37,-1.23 0.88,-1.77 0.51,-0.49 1,-0.71 1.7,-0.83 1.31,-0.2 2.26,-0.5 3.38,-1.22 1.01,-0.7 1.62,-1.39 2.3,-2.41 1.12,-1.79 1.78,-3.59 2.48,-5.57 0.05,-0.13 0.82,-2.28 1,-2.18 0.17,0.09 -0.48,2.2 -0.54,2.37 -0.67,2.04 -1.3,3.86 -2.43,5.71 -0.72,1.1 -1.37,1.85 -2.45,2.61 -1.21,0.79 -2.23,1.12 -3.64,1.34 -0.55,0.09 -0.93,0.26 -1.33,0.65 -0.4,0.43 -0.58,0.85 -0.69,1.43 -0.32,1.63 -0.63,3.27 -0.94,4.91 -0.14,0.68 -0.37,1.21 -0.86,1.72 -0.17,0.16 -0.31,0.26 -0.51,0.37 -0.1,0.05 -0.19,0.09 -0.3,0.12 -0.36,0.1 -0.64,0.11 -1,0.02 -0.42,-0.1 -0.72,-0.24 -1.05,-0.51 -0.3,-0.25 -0.47,-0.49 -0.63,-0.85 -0.14,-0.37 -0.2,-0.67 -0.21,-1.06 0,-0.4 0.04,-0.73 0.14,-1.13 0.21,-0.82 0.43,-1.64 0.64,-2.46 0.2,-0.79 0.43,-1.67 0.47,-2.48 0,-0.25 -0.01,-0.46 -0.1,-0.69 -0.07,-0.18 -0.15,-0.29 -0.3,-0.42 -1.12,-0.89 -2.09,-1.71 -3,-2.82 -0.75,-0.98 -1.14,-1.76 -1.44,-2.96 -0.34,-1.61 -0.26,-3.01 -0.12,-4.64 0.14,-1.27 0.31,-3.19 0.82,-4.39 0.28,-0.57 -0.23,4.17 -0.29,4.96 -0.07,1.38 -0.08,2.57 0.23,3.92 0.28,1.09 0.65,1.79 1.34,2.68 0.87,1.06 1.82,1.86 2.89,2.7 0.26,0.21 0.41,0.41 0.53,0.72 0.12,0.33 0.14,0.6 0.14,0.95 -0.03,0.9 -0.27,1.78 -0.49,2.64 -0.21,0.83 -0.43,1.65 -0.64,2.47 -0.08,0.33 -0.12,0.6 -0.12,0.94 0.01,0.29 0.05,0.53 0.15,0.8 0.11,0.25 0.23,0.41 0.43,0.59 0.25,0.2 0.47,0.29 0.77,0.37 0.24,0.05 0.41,0.06 0.64,-0.01 0.03,0 0.16,-0.06 0.19,-0.07z"/>
   </g>
   <path class="fil4" d="M48.3 10.49c-1.17,8.63 -1.16,10.61 3.94,14.62 0.79,0.62 0.63,1.78 0.06,3.95l-0.64 2.47c-0.37,1.42 0,2.78 1.49,3.14 1.2,0.29 2.04,-0.77 2.27,-1.97l0.95 -4.91c0.25,-1.31 1.07,-2.15 2.28,-2.32 5.66,-0.79 7.06,-5.43 9.12,-11.73"/>
   <g>
    <g>
     <path class="fil2" d="M46.31 8.66c0.15,0.38 0.38,0.6 0.7,0.83 0.37,0.25 0.73,0.42 1.13,0.6 0.12,0.05 0.21,0.19 0.17,0.32 -0.04,0.13 -0.2,0.18 -0.32,0.15 -0.5,-0.11 -0.9,-0.25 -1.34,-0.53 -0.47,-0.31 -0.76,-0.61 -0.99,-1.13 0,-0.01 -0.02,-0.06 -0.02,-0.06 -0.11,-0.32 -0.18,-0.59 -0.17,-0.93 0.02,-0.31 0.09,-0.53 0.27,-0.79 0.2,-0.25 0.39,-0.38 0.67,-0.52 0.06,-0.04 0.4,-0.14 0.48,-0.16 0.28,-0.05 0.38,-0.06 0.51,0.17 0.12,0.18 -0.27,0.34 -0.37,0.39 -0.12,0.05 -0.22,0.11 -0.32,0.17 -0.17,0.1 -0.29,0.2 -0.4,0.36 -0.09,0.14 -0.13,0.25 -0.14,0.42 0,0.24 0.05,0.44 0.12,0.67 0.01,0.01 0.02,0.03 0.02,0.04z"/>
     <path class="fil2" d="M58.74 11.25c2.41,0.41 4.87,0.97 7.18,1.77 0.12,0.04 0.62,0.25 0.56,0.44 -0.06,0.17 -0.6,0.06 -0.71,0.03 -2.38,-0.6 -4.72,-1.18 -7.14,-1.56 -1.67,-0.26 -3.3,-0.45 -4.98,-0.61 -0.65,-0.07 -1.27,-0.18 -1.91,-0.25 -0.49,-0.06 -1.05,-0.06 -1.46,-0.38 -0.31,-0.23 1.66,-0.18 1.66,-0.18 0.59,0.03 1.17,0.09 1.76,0.13 1.72,0.13 3.34,0.33 5.04,0.61z"/>
     <path class="fil2" d="M61.18 7.54c-3.69,-0.86 -6.62,-1.05 -10.38,-1 -0.45,0 -0.88,0.02 -1.34,0.05 -0.11,0.01 -1.21,0.12 -1.24,-0.05 0.04,-0.24 1.02,-0.41 1.21,-0.44 0.46,-0.06 0.89,-0.09 1.35,-0.12 3.82,-0.17 6.82,0.05 10.56,0.9 1.02,0.25 1.97,0.52 2.96,0.86 1.28,0.43 2.38,0.73 3.61,1.35 0.63,0.34 1.11,0.66 1.56,1.23 0.2,0.28 0.33,0.51 0.42,0.85 0.08,0.36 0.08,0.64 0.01,1 -0.09,0.44 -0.2,0.81 -0.43,1.2 -0.14,0.2 -0.26,0.35 -0.47,0.48 -0.08,0.05 -0.16,0.09 -0.25,0.13 -0.3,0.1 -0.54,0.1 -0.85,0.05 -0.38,-0.1 -0.55,-0.15 -0.78,-0.45 -0.12,-0.18 0.74,-0.03 0.84,-0.03 0.21,0.01 0.38,0 0.59,-0.09 0.11,-0.05 0.19,-0.11 0.27,-0.21 0.06,-0.06 0.1,-0.12 0.14,-0.19 0.18,-0.32 0.26,-0.65 0.32,-1 0.05,-0.27 0.04,-0.47 -0.03,-0.73 -0.07,-0.24 -0.16,-0.41 -0.31,-0.61 -0.38,-0.46 -0.83,-0.74 -1.35,-1.02 -1.18,-0.58 -2.29,-0.87 -3.52,-1.29 -0.97,-0.34 -1.9,-0.62 -2.89,-0.87z"/>
    </g>
   </g>
   <path class="fil4" d="M47.41 6.6c-1.33,0.32 -1.86,0.91 -1.45,2.13 0.29,0.87 1.21,1.38 2.34,1.69m1.95 0.28c2.09,0.07 2.21,0.17 3.42,0.27 4.47,0.37 8.52,1.19 12.8,2.5m0.62 0.11c1.19,0.37 2.13,0.46 2.49,-1.47 0.47,-2.48 -3.56,-3.39 -5.4,-4.04 -4.39,-1.54 -8.72,-2.01 -13.39,-1.84 -0.55,0.02 -1.53,0.05 -2.57,0.3"/>
   <path class="fil7" d="M59.63 18.81c-4.18,0.16 -3.27,0.46 -7.44,-0.95 -1.93,-0.65 -3.45,-1.06 -2.27,1.71 1.05,2.49 2.68,3.66 5.29,4.21 2.67,0.57 5.93,-0.59 7.3,-3.04 1.15,-2.06 -1.64,-1.95 -2.88,-1.93z"/>
   <path class="fil8" d="M52.94 29.69c1.25,-1.6 1.25,2.62 0.35,3.24 -1.39,0.97 -1.47,-1.82 -0.35,-3.24z"/>
   <g>
    <path class="fil2" d="M52.76 8.32c1.98,0.16 4.43,0.35 6.36,0.87 0.11,0.03 0.42,0.15 0.37,0.3 -0.03,0.12 -0.36,0.08 -0.46,0.07 -2.07,-0.36 -4.2,-0.57 -6.29,-0.71 -1.87,-0.13 -3.8,-0.19 -5.66,-0.36 -0.27,-0.03 -0.41,-0.02 -0.5,-0.25 -0.08,-0.19 0.5,-0.18 0.58,-0.18 1.82,-0.02 3.78,0.12 5.6,0.26z"/>
   </g>
   <path class="fil4" d="M46.57 8.25c2.18,0.08 9.46,0.38 12.92,1.24"/>
   <g>
    <path class="fil2" d="M64.82 10.28c1.2,0.36 2.48,0.81 3.57,1.38 0.11,0.06 0.27,0.2 0.21,0.31 -0.06,0.11 -0.28,0.06 -0.38,0.03 -1.19,-0.43 -2.34,-0.88 -3.56,-1.23 -1.2,-0.34 -2.38,-0.6 -3.59,-0.87 -0.27,-0.06 -0.42,-0.08 -0.5,-0.31 -0.08,-0.19 0.56,-0.12 0.64,-0.11 1.2,0.13 2.45,0.44 3.61,0.8z"/>
   </g>
   <path class="fil4" d="M60.56 9.6c2.66,0.35 5.52,1.26 8.03,2.38"/>
   <path class="fil1" d="M57.83 49.73c-1.29,-1.07 -1.9,-1.34 -3.28,-2.18 -1.08,-0.65 -0.07,-0.95 0.8,-1.89 2.52,-2.73 8.65,-12.54 11.85,-12.76 1.72,-0.12 3.88,1.57 3.26,3.67 -1.27,4.25 -5.28,9.07 -8.64,11.83 -0.27,0.22 -2.86,2.64 -3.13,2.22 -0.28,-0.44 -0.45,-0.53 -0.86,-0.89z"/>
   <g>
    <path class="fil9" d="M53.7 55.73c-0.15,0.31 -0.28,0.53 -0.5,0.78 -0.4,0.44 -0.78,0.69 -1.32,0.93 -0.73,0.31 -1.83,0.68 -2.43,1.18 -0.26,0.24 -0.38,0.44 -0.47,0.78 -0.11,0.42 -0.11,0.79 -0.08,1.22 0,0.08 0.01,0.27 0,0.35 0,0.04 0,0.15 -0.06,0.13 -0.02,-0.01 -0.03,-0.02 -0.06,-0.03 -0.03,-0.01 -0.06,-0.02 -0.09,-0.01 -0.01,0.01 -0.03,0.02 -0.02,0.04 0,0.02 0.09,0.07 0.11,0.09 0.03,0.04 0.02,0.09 0,0.13 -0.03,0.03 -0.05,0.05 -0.08,0.06 -0.05,0 -0.08,0 -0.12,-0.02 -0.03,-0.02 -0.06,-0.03 -0.08,-0.06 -0.07,-0.08 -0.09,-0.15 -0.13,-0.24 -0.03,-0.02 -0.09,-0.34 -0.1,-0.38 -0.08,-0.51 -0.11,-0.93 -0.02,-1.44 0.12,-0.51 0.29,-0.84 0.66,-1.21 0.73,-0.65 1.74,-0.98 2.62,-1.37 0.42,-0.19 0.72,-0.37 1.02,-0.72 0.15,-0.19 0.25,-0.35 0.35,-0.57 0.05,-0.11 0.09,-0.22 0.12,-0.34 0.25,-0.83 0.32,-1.75 0.53,-2.62 0.27,-1.04 0.51,-1.95 1.19,-2.8 0.36,-0.43 0.71,-0.69 1.16,-1.01 0.42,-0.27 0.83,-0.6 1.33,-0.46 0.34,0.08 -0.98,1.11 -1.02,1.14 -0.31,0.27 -0.57,0.51 -0.82,0.84 -0.53,0.76 -0.75,1.62 -0.97,2.5 -0.21,0.91 -0.29,1.81 -0.56,2.69 -0.04,0.13 -0.1,0.29 -0.16,0.42z"/>
   </g>
   <path class="fil4" d="M57.24 48.11c-2.11,1.47 -2.58,1.76 -3.25,4.41 -0.5,1.96 -0.22,3.6 -2.3,4.51 -2.16,0.94 -3.57,1.1 -3.09,3.99 0.02,0.15 0.03,0.31 0.19,0.18"/>
   <g>
    <path class="fil10" d="M64.24 43.08c-1.33,1.68 -2.95,3.62 -4.64,4.95 -0.09,0.08 -0.41,0.28 -0.52,0.14 -0.09,-0.12 0.17,-0.4 0.24,-0.47 1.6,-1.55 3.08,-3.24 4.45,-4.99 1.4,-1.79 2.69,-3.63 3.98,-5.5 0.19,-0.27 0.33,-0.57 0.66,-0.58 0.27,-0.01 -0.29,0.92 -0.3,0.95 -1.11,1.9 -2.5,3.79 -3.87,5.5z"/>
   </g>
   <path class="fil4" d="M68.41 36.61c-2.07,3.48 -6.23,8.97 -9.33,11.56"/>
   <g>
    <path class="fil10" d="M63.19 41.49c-1.34,1.61 -2.81,3.33 -4.29,4.76 -0.18,0.18 -0.45,0.33 -0.54,0.19 -0.07,-0.12 0.12,-0.43 0.27,-0.61 1.37,-1.6 2.73,-3.15 4.06,-4.8 1.3,-1.62 2.59,-3.29 3.93,-4.86 0.38,-0.43 0.51,-0.6 0.84,-0.59 0.27,0 -0.35,0.86 -0.47,1.03 -1.19,1.65 -2.5,3.31 -3.8,4.88z"/>
   </g>
   <path class="fil4" d="M67.46 35.56c-3,3.86 -5.74,7.31 -9.1,10.88"/>
   <g>
    <path class="fil10" d="M61.2 40.93c-0.88,1.13 -2.71,3.52 -3.86,4.32 -0.02,0.01 -0.12,0.08 -0.14,0.09 -0.09,0.07 -0.46,0.28 -0.56,0.14 -0.09,-0.12 0.22,-0.42 0.3,-0.49 0.01,-0.01 0.12,-0.1 0.12,-0.1 1.25,-1.17 2.62,-2.98 3.66,-4.33 1.32,-1.75 2.59,-3.52 3.84,-5.31 0.16,-0.24 0.22,-0.36 0.49,-0.32 0.24,0.03 -0.07,0.58 -0.11,0.66 -1.01,1.78 -2.49,3.71 -3.74,5.34z"/>
   </g>
   <path class="fil4" d="M65.04 34.92c-0.93,1.8 -6.27,8.93 -7.86,10.13 -0.18,0.14 -0.36,0.28 -0.55,0.43"/>
   <g>
    <path class="fil2" d="M70.79 36.48c-0.09,0.3 -0.2,0.53 -0.35,0.79 -2.41,3.79 -7.4,9.9 -10.8,12.8 -0.21,0.17 -0.42,0.33 -0.66,0.45 -0.11,0.06 -0.21,0.09 -0.33,0.11 -0.09,0 -0.15,0 -0.23,-0.03 -0.09,-0.04 -0.15,-0.09 -0.21,-0.18 -0.57,-0.84 -1.58,-1.49 -2.43,-2.04 -0.1,-0.07 -1.58,-0.99 -1.44,-1.19 0.13,-0.17 1.62,0.69 1.74,0.77 0.97,0.58 1.97,1.21 2.63,2.14 -0.02,-0.03 -0.04,-0.05 -0.07,-0.06 -0.01,-0.01 -0.04,-0.01 -0.05,-0.01 0.05,-0.01 0.08,-0.03 0.12,-0.05 0.19,-0.1 0.37,-0.25 0.54,-0.39 3.3,-2.94 8.22,-8.93 10.57,-12.68 0.12,-0.21 0.21,-0.4 0.28,-0.63 0.01,-0.06 0.03,-0.12 0.04,-0.18 0.05,-0.27 0.05,-0.48 0.01,-0.74 -0.1,-0.53 -0.31,-0.9 -0.66,-1.3 -0.37,-0.4 -0.73,-0.66 -1.22,-0.9 -0.41,-0.18 -0.79,-0.3 -1.24,-0.27 -0.36,0.03 -0.65,0.15 -0.96,0.31 -0.45,0.25 -0.79,0.51 -1.17,0.85 -3.32,3.2 -5.85,6.83 -8.78,10.33 -0.28,0.33 -0.58,0.67 -0.9,0.96 -0.42,0.39 -0.64,0.62 -1.16,0.8 -0.38,0.11 0.72,-1.04 0.8,-1.13 0.34,-0.43 0.69,-0.86 1.03,-1.3 2.74,-3.51 5.29,-7.1 8.52,-10.2 0.42,-0.38 0.81,-0.68 1.31,-0.96 0.42,-0.22 0.78,-0.36 1.26,-0.4 0.59,-0.02 1.06,0.11 1.6,0.35 0.59,0.28 1.01,0.59 1.46,1.08 0.45,0.52 0.7,0.98 0.83,1.66 0.05,0.36 0.04,0.64 -0.03,1 0,0.04 -0.04,0.19 -0.05,0.24z"/>
   </g>
   <path class="fil4" d="M54.04 46.18c0.22,-0.28 0.61,-0.59 0.99,-1.01 1.99,-2.15 6.22,-8.28 9.62,-11.39 0.85,-0.77 1.68,-1.21 2.35,-1.26 1.72,-0.12 4.6,2.07 3.12,4.57 -1.69,2.83 -7.87,10.4 -10.69,12.72 -0.45,0.36 -0.84,0.6 -0.94,0.44 -0.74,-1.15 -2.97,-2.36 -4.14,-3.07"/>
   <path class="fil7" d="M35.68 1.19c-0.13,-0.27 -0.27,0.16 -0.61,0.62 -3.28,4.53 -7.44,11.14 -1.39,13.97 3.37,1.57 7.15,-1.31 6.26,-5.8 -0.67,-3.38 -2.62,-5.79 -4.12,-8.54l-0.14 -0.25z"/>
   <g>
    <path class="fil2" d="M35.51 14.75c0.1,-0.01 0.21,-0.02 0.31,-0.03 0.77,-0.13 1.35,-0.38 2.01,-0.93 0.62,-0.56 0.97,-1.1 1.26,-1.93 0.3,-1.01 0.29,-1.81 0.12,-2.78 -0.72,-3.15 -2.01,-4.94 -3.47,-7.52 -0.16,-0.28 -0.38,-0.72 -0.45,-1.05 -0.02,-0.06 -0.08,-0.31 -0.01,-0.36 0.08,-0.05 0.24,0.16 0.25,0.16 0.25,0.26 0.46,0.59 0.66,0.91 1.6,2.57 2.91,4.36 3.66,7.59 0.21,1.13 0.22,2.04 -0.13,3.22 -0.34,1 -0.77,1.67 -1.53,2.36 -0.78,0.66 -1.47,0.95 -2.38,1.11 -0.03,0.01 -0.31,0.04 -0.36,0.04 -0.89,0.05 -1.55,-0.09 -2.33,-0.43 -0.74,-0.35 -1.3,-0.7 -1.9,-1.28 -0.48,-0.5 -0.79,-0.94 -1.06,-1.63 -0.23,-0.64 -0.32,-1.16 -0.32,-1.88 0.02,-0.72 0.12,-1.29 0.31,-2 0.73,-2.43 1.9,-4.31 3.33,-6.35 0.33,-0.47 0.67,-0.92 1.03,-1.36 0.12,-0.14 0.31,-0.41 0.46,-0.51 0.03,-0.03 0.06,-0.05 0.11,-0.07 0.03,-0.02 0.06,-0.03 0.1,-0.03 0.01,0 0.04,0.01 0.05,0.02 0,0 0.02,0.03 0.02,0.04 0.01,0.01 0.01,0.04 0.01,0.05 0,0.12 -0.06,0.05 -0.09,0.08 0,0 0,0.01 0.01,0.01 0,0.01 0.02,0.01 0.02,0.01 0.01,0 0.02,0 0.02,0.01 0,0 -0.04,0.06 -0.04,0.06 -0.09,0.23 -0.2,0.43 -0.34,0.63 0,0.02 -1.06,1.62 -1.14,1.74 -1.22,1.88 -2.26,3.62 -2.89,5.8 -0.16,0.63 -0.24,1.13 -0.25,1.76 0,0.61 0.07,1.05 0.26,1.58 0.24,0.59 0.5,0.97 0.91,1.4 0.55,0.52 1.07,0.84 1.74,1.16 0.68,0.31 1.26,0.44 2.04,0.4z"/>
   </g>
   <path class="fil4" d="M35.29 0.14c-0.13,-0.26 -0.27,0.17 -0.61,0.62 -3.28,4.54 -7.44,11.15 -1.39,13.97 3.37,1.58 7.16,-1.31 6.27,-5.8 -0.67,-3.37 -2.62,-5.79 -4.13,-8.54l-0.14 -0.25z"/>
   <path class="fil11" d="M32.06 11.04c0.49,1.2 2.03,2.79 1.49,-0.24 -0.11,-0.62 -0.46,-3.51 -1.41,-1.68 -0.35,0.66 -0.31,1.22 -0.08,1.92z"/>
   <g>
    <path class="fil10" d="M11.51 45.99c0.6,0.89 1.19,1.53 2.01,2.21 0.72,0.57 1.36,0.97 2.19,1.35 0.13,0.06 0.41,0.24 0.36,0.42 -0.06,0.17 -0.43,0.11 -0.55,0.07 -0.94,-0.3 -1.64,-0.71 -2.43,-1.3 -0.9,-0.72 -1.54,-1.4 -2.19,-2.35 -0.03,-0.04 -0.09,-0.15 -0.12,-0.18 -0.64,-1.04 -1,-1.94 -1.14,-3.16 -0.07,-0.88 0.01,-1.56 0.33,-2.39 0.15,-0.35 0.27,-0.69 0.67,-0.7 0.23,0.01 -0.1,0.87 -0.14,1.01 -0.18,0.71 -0.21,1.27 -0.13,2.01 0.14,1.09 0.47,1.9 1.03,2.84 0.01,0.02 0.09,0.14 0.11,0.17z"/>
   </g>
   <path class="fil4" d="M10.63 39.94c-2.21,3.95 1.61,8.92 5.43,10.04"/>
   <g>
    <path class="fil10" d="M36.91 29.72c0.61,1.38 1.2,3.02 1.08,4.55 0,0 -0.01,0.03 -0.01,0.03 0,0 -0.09,0.55 -0.1,0.6 -0.03,0.14 -0.15,0.45 -0.34,0.42 -0.17,-0.02 -0.19,-0.36 -0.19,-0.49 0.01,-0.2 0.02,-0.41 0.04,-0.61l0 0.01c-0.04,-1.46 -0.54,-2.89 -1.14,-4.2 -0.16,-0.32 -0.32,-0.61 -0.49,-0.92 -0.48,-0.79 -0.96,-1.46 -1.68,-2.05 -0.29,-0.22 -0.54,-0.37 -0.89,-0.48 -0.03,-0.02 -0.2,-0.05 -0.24,-0.06 -0.36,-0.05 -0.5,0.01 -0.75,-0.23 -0.26,-0.27 0.77,-0.37 0.93,-0.36 0.03,0 0.2,0.03 0.21,0.03 0.46,0.1 0.78,0.26 1.16,0.53 0.84,0.62 1.38,1.36 1.9,2.25 0.19,0.33 0.35,0.64 0.51,0.98z"/>
   </g>
   <path class="fil4" d="M32.19 26.31c2.92,-0.99 5.63,5.34 5.47,7.94l-0.13 1.07"/>
  </g>
 </g>
</svg>
