<?xml version="1.0" encoding="UTF-8"?>
<!DOCTYPE svg PUBLIC "-//W3C//DTD SVG 1.1//EN" "http://www.w3.org/Graphics/SVG/1.1/DTD/svg11.dtd">
<!-- Creator: CorelDRAW -->
<svg xmlns="http://www.w3.org/2000/svg" xml:space="preserve" width="1309px" height="1188px" version="1.1" style="shape-rendering:geometricPrecision; text-rendering:geometricPrecision; image-rendering:optimizeQuality; fill-rule:evenodd; clip-rule:evenodd"
viewBox="0 0 102.33 92.86"
 xmlns:xlink="http://www.w3.org/1999/xlink"
 xmlns:xodm="http://www.corel.com/coreldraw/odm/2003">
 <defs>
  <style type="text/css">
   <![CDATA[
    .fil2 {fill:none}
    .fil4 {fill:none;fill-rule:nonzero}
    .fil0 {fill:#94ACFF}
    .fil5 {fill:#CFD5E8}
    .fil3 {fill:#262749;fill-rule:nonzero}
    .fil1 {fill:#CFD5E8;fill-rule:nonzero}
   ]]>
  </style>
 </defs>
 <g id="Camada_x0020_1">
  <metadata id="CorelCorpID_0Corel-Layer"/>
  <g id="_1622991398752">
   <path class="fil0" d="M94.87 31.38c8.43,18.64 -1.82,23.65 -10.5,39.04 -8.18,14.5 -11.66,23.04 -31.43,22.4 -13.05,-0.42 -31.64,-3.46 -40.16,-13.6 -13.27,-15.8 -1.5,-21.38 -1.82,-37.61 -0.23,-11.53 -7.05,-24.79 5.82,-33.13 5.52,-3.59 30.03,-8.39 37.07,-8.48 15.68,-0.19 28.84,6.63 35.52,20.22 1.87,3.79 3.52,7.38 5.5,11.16z"/>
   <g>
    <path class="fil1" d="M34.25 18.45c-1.07,-0.22 -1.93,-0.29 -3.03,-0.2 -1.82,0.21 -3.07,0.73 -4.58,1.76 -1.67,1.22 -2.75,2.48 -3.95,4.14 -0.76,1.05 -1.46,1.82 -2.56,2.5 -0.86,0.5 -1.54,0.71 -2.52,0.8 -2.18,0.12 -4.03,-0.48 -6.06,-1.17 -2.17,-0.76 -4.22,-1.59 -6.55,-1.67 -1.24,0 -2.15,0.22 -3.18,0.93 -0.01,0.01 -0.09,0.07 -0.09,0.07 -0.91,0.83 -2.03,3.09 -0.8,3.69 0.57,0.08 1.76,-1.02 2.42,-1.39 0.01,0 0.06,-0.03 0.07,-0.03 0.49,-0.25 0.91,-0.27 1.45,-0.22 1.75,0.23 3.84,1.19 5.49,1.85 2.61,1.01 4.67,1.7 7.52,1.61 1.6,-0.12 2.74,-0.46 4.15,-1.24 1.62,-0.97 2.64,-2.02 3.76,-3.53 0.92,-1.26 1.8,-2.29 3.07,-3.2 0.91,-0.6 1.64,-0.91 2.73,-1.02 0.67,-0.04 1.19,0.02 1.85,0.16 0.43,0.1 0.82,0.23 1.23,0.38 1.46,0.57 2.68,1.28 3.99,2.13 2.72,1.79 5.05,3.57 8.34,4.08 1.86,0.17 3.18,-0.14 4.86,-0.94 2.01,-1.05 3.43,-2.33 5.01,-3.95 0.43,-0.48 1.97,-1.14 2.58,-1.39 1.57,-0.65 3.16,-1.2 4.78,-1.73 0.5,-0.16 1.01,-0.32 1.52,-0.48 0.92,-0.29 2.03,-0.63 2.88,-1.1 0.5,-0.23 1.05,-0.48 1.28,-1.02 0.16,-0.23 0.21,-0.41 0.26,-0.69 0.01,-0.01 0.03,-0.07 0.04,-0.09 0.01,-0.04 0.01,-0.07 0.01,-0.1 0.02,-0.03 -0.01,-0.08 -0.01,-0.09 -0.07,-0.08 -0.1,0.04 -0.05,-0.13 0.01,-0.03 -0.01,-0.05 -0.02,-0.08 -0.03,-0.06 -0.06,-0.08 -0.12,-0.11 -0.13,-0.11 -0.29,-0.13 -0.45,-0.15 -0.46,-0.14 -1.08,-0.08 -1.55,-0.03 -1.28,0.06 -2.67,0.36 -3.92,0.65 -0.26,0.06 -0.52,0.13 -0.79,0.19 -1.77,0.43 -3.47,0.91 -5.2,1.51 -1.43,0.54 -2.86,1.11 -3.99,2.15 -1.24,1.21 -2.47,2.3 -4.03,3.08 -0.93,0.43 -1.62,0.61 -2.64,0.51 -2.24,-0.37 -4.74,-2.23 -6.63,-3.45 -1.6,-1.02 -3.03,-1.82 -4.81,-2.49 -0.59,-0.21 -1.14,-0.37 -1.76,-0.5z"/>
   </g>
   <path class="fil2" d="M70.3 17.52c0.02,0.06 -12.53,2.72 -14.84,5.09 -6.77,6.91 -9.94,4.25 -15.73,0.53 -6.28,-4.04 -10.77,-4.33 -15.38,2.18 -8.11,11.46 -19.98,-5.51 -23.36,4.01"/>
   <g>
    <path class="fil1" d="M43.33 71.56c-2.5,-0.73 -4.51,-0.78 -7.08,-0.52 -2.07,0.24 -7.21,1.17 -9.11,0.84 -2.31,-0.59 -6.45,-4.01 -8.37,-5.47 -2.87,-2.16 -5.4,-4.08 -8.91,-5.04 -1.75,-0.41 -3.07,-0.45 -4.84,-0.21 -0.56,0.1 -1.08,0.21 -1.62,0.35 -0.89,0.28 -3.67,1.42 -3.33,2.73 0.36,0.8 3.36,0.33 4.02,0.22 0.44,-0.07 0.85,-0.12 1.29,-0.15 1.32,-0.08 2.28,0.01 3.55,0.39 2.82,0.99 5.17,2.94 7.49,4.76 2.79,2.18 6.42,5.43 9.86,6.37 2.97,0.56 7.34,-0.34 10.43,-0.68 1.94,-0.18 3.51,-0.16 5.38,0.42 0.65,0.21 1.17,0.45 1.75,0.78 1.75,1.05 2.85,2.27 4.35,3.59 0.9,0.77 1.63,1.3 2.71,1.81 1.3,0.56 2.32,0.73 3.73,0.67 1.68,-0.13 2.96,-0.56 4.49,-1.23 2.04,-0.95 3.74,-2.04 5.57,-3.33 4.35,-3.11 8.53,-6.49 13.16,-9.18 2.29,-1.32 4.79,-2.34 5.78,-4.77 0.6,-1.86 -7.85,1.92 -8.11,2.04 -4.93,2.41 -8.77,5.34 -13.26,8.46 -1.6,1.09 -3.13,2.07 -4.91,2.87 -0.99,0.43 -1.91,0.77 -2.99,0.84 -0.66,0.03 -1.11,-0.04 -1.72,-0.3 -0.64,-0.3 -1.13,-0.68 -1.67,-1.14 -1.83,-1.6 -2.89,-2.75 -5.07,-4.03 -0.87,-0.47 -1.63,-0.79 -2.57,-1.09z"/>
   </g>
   <path class="fil2" d="M83.81 63.9c-10.91,4.86 -10.92,5.55 -20.36,12.2 -16.33,11.51 -11.69,-4.61 -26.96,-2.91 -10.89,1.22 -8.93,2.62 -19,-5.12 -6.34,-4.87 -9.58,-6.83 -17.4,-3.77"/>
   <g>
    <path class="fil1" d="M52.35 48.2c-2.08,-1.39 -4.06,-2.88 -6.09,-4.34 -2.11,-1.48 -4.02,-2.65 -6.44,-3.56 -1.85,-0.64 -3.34,-0.93 -5.29,-0.69 -1.65,0.28 -2.77,0.79 -4.08,1.81 -1.13,0.94 -1.86,1.84 -2.69,3.04 -1.24,1.89 -2.29,4.06 -3.65,5.81 -0.48,0.58 -0.93,1.04 -1.62,1.36 -0.75,0.32 -1.35,0.29 -2.14,0.12 -0.01,0 0.13,0.04 0.16,0.06 0,0 -0.85,-0.31 -1.23,-0.45 -0.29,-0.11 -0.58,-0.2 -0.89,-0.28 -0.01,0 0.18,0.08 0.19,0.1 -0.69,-0.27 -2.4,-0.88 -2.96,-0.09 -0.36,0.67 1.14,2.06 1.59,2.37 0.06,0.04 0.11,0.06 0.17,0.09 0.02,0.03 0.78,0.41 0.87,0.45 0.38,0.17 0.76,0.36 1.13,0.53 0.02,0 0.15,0.04 0.15,0.05 1.48,0.43 2.62,0.51 4.1,0.02 1.29,-0.49 2.09,-1.14 3.01,-2.15 1.62,-1.87 2.67,-3.92 4.08,-5.94 0.62,-0.85 1.19,-1.55 2.02,-2.21 0.76,-0.57 1.37,-0.85 2.31,-0.99 1.26,-0.13 2.29,0.13 3.48,0.55 2.05,0.8 3.71,1.87 5.49,3.14 2.06,1.51 4.06,3.03 6.16,4.48 2.35,1.58 4.43,2.81 7.09,3.81 2.79,0.96 5.02,1.29 7.93,0.57 1.53,-0.45 2.59,-1.02 3.85,-2 1.4,-1.15 2.31,-2.25 3.3,-3.76 2.23,-3.39 4.04,-5.71 7.42,-7.98 1.52,-0.97 2.94,-1.66 4.6,-2.37 2.17,-0.93 4.65,-1.56 5.62,-3.7 0.62,-1.71 -7.32,0.86 -7.57,0.94 -1.63,0.59 -3.01,1.18 -4.53,2.03 -4.06,2.42 -6.24,5.03 -8.87,8.92 -0.74,1.11 -1.43,1.95 -2.47,2.78 -0.8,0.62 -1.47,0.98 -2.44,1.26 -2,0.49 -3.59,0.18 -5.51,-0.46 -2.32,-0.86 -4.19,-1.97 -6.25,-3.32z"/>
   </g>
   <path class="fil2" d="M90.13 36.07c-9.67,3 -14.06,4.56 -19.47,12.93 -7.23,11.17 -18.19,1.78 -25.58,-3.48 -18.39,-13.12 -15.09,10.69 -25.19,7.8l-2.08 -0.86 -2.22 -1.32"/>
   <path class="fil2" d="M70.25 17.33c0.02,0.05 -12.53,2.71 -14.85,5.08 -6.76,6.91 -9.93,4.26 -15.72,0.53 -6.29,-4.04 -10.78,-4.33 -15.39,2.19 -8.1,11.45 -19.97,-5.51 -23.35,4"/>
   <g>
    <g>
     <path class="fil3" d="M28.03 74.87c3.02,0.02 5.75,-0.52 8.72,-0.88 -0.08,0.01 0.03,0 -0.05,0 2.11,-0.18 3.41,-0.19 5.47,0.39 0,0 0.01,0 0.01,0 0.66,0.23 1.16,0.44 1.77,0.77 0.05,0.03 -0.01,0 -0.02,-0.01 1.78,1.09 2.88,2.21 4.42,3.56 0,0 0.02,0.01 0.02,0.01 0.92,0.76 1.57,1.22 2.66,1.72 0,0 0.02,0.01 0.02,0.01 0.41,0.16 0.78,0.29 1.22,0.4 0.32,0.06 2.26,0.29 2.36,-0.25 -0.09,-0.18 -1.87,-0.52 -2.18,-0.6 -0.36,-0.11 -0.69,-0.24 -1.04,-0.39 0.01,0 0.01,0 0,0 -0.98,-0.5 -1.57,-0.95 -2.4,-1.66 0,0 0,-0.01 0,-0.01 -1.59,-1.44 -2.64,-2.57 -4.51,-3.74 0,0 -0.04,-0.02 -0.04,-0.02 -0.65,-0.37 -1.24,-0.62 -1.95,-0.86 0,0 -0.01,-0.01 -0.01,-0.01 -2.19,-0.63 -3.62,-0.66 -5.87,-0.47 0.06,0 -0.06,0 0.03,0 -2.91,0.33 -5.64,0.87 -8.59,0.83 -0.51,-0.02 -0.98,-0.06 -1.49,-0.15 0,0 0.04,0.01 0.04,0.01 -3.59,-1.18 -6.47,-3.83 -9.39,-6.13 -2.65,-2.05 -4.7,-3.72 -7.92,-4.84 0,0 -0.02,-0.01 -0.03,-0.01 -1.3,-0.35 -2.47,-0.65 -3.82,-0.72 -0.3,-0.01 -0.56,0 -0.85,0.03 -0.47,0.05 -0.9,0.13 -1.37,0.24 -0.77,0.28 -0.94,0.29 -1.6,0.74 -0.52,0.33 1.75,0.08 1.75,0.08 0.43,-0.05 0.86,-0.09 1.3,-0.12 0.39,-0.02 0.85,0.03 1.24,0.08 1.06,0.16 2.02,0.42 3.05,0.73 0,0 -0.03,-0.01 -0.03,-0.01 3.02,1.13 5.03,2.81 7.52,4.77 3.08,2.44 6.04,5.11 9.84,6.33 0.01,0.01 0.04,0.01 0.05,0.01 0.57,0.11 1.1,0.15 1.67,0.17z"/>
     <path class="fil3" d="M56.26 76.76c-0.65,0.21 -1.17,0.33 -1.85,0.39 0.03,0 0.03,0 0,0 -0.73,0.02 -1.1,-0.03 -1.77,-0.31 -0.08,-0.03 0.02,0.01 0.04,0.02 -0.72,-0.35 -1.14,-0.67 -1.74,-1.18 -0.02,-0.02 -0.04,-0.03 -0.01,-0.01 -1.8,-1.58 -2.93,-2.73 -5.03,-3.99 -0.01,-0.01 -0.01,-0.01 -0.01,-0.01 -0.88,-0.47 -1.6,-0.78 -2.54,-1.09 0,0 -0.01,0 -0.02,0 -2.63,-0.72 -4.31,-0.76 -7.01,-0.51 0,0 0.1,-0.01 -0.05,0.01 -2.61,0.33 -6.62,1.13 -9.13,0.83 0,0 0.03,0.01 0.03,0.01 -2.84,-0.92 -6.04,-3.66 -8.44,-5.5 -3.03,-2.27 -5.16,-3.91 -8.85,-5.02 0,0 -0.03,-0.01 -0.03,-0.01 -1.82,-0.4 -2.93,-0.44 -4.77,-0.2 0,0 -0.03,0 0.01,-0.01 0,0 -0.81,0.15 -0.89,0.17 -0.25,0.05 -0.5,0.13 -0.74,0.18 0,0 -0.03,0 -0.04,0.01 -0.71,0.25 -1.39,0.54 -2.04,0.91 -0.39,0.23 -0.75,0.46 -1.05,0.8 -0.13,0.15 -0.23,0.28 -0.29,0.47 -0.04,0.06 -0.03,0.17 -0.04,0.24 0,0.04 0.04,0.23 0.11,0.21 0.02,-0.01 0.09,-0.15 0.09,-0.17 0.01,-0.02 0.08,-0.12 0.1,-0.14 0.09,-0.1 0.21,-0.19 0.33,-0.27 0.34,-0.22 0.68,-0.38 1.05,-0.54 0.62,-0.27 1.34,-0.54 1.99,-0.7 0.03,-0.01 0,0 -0.01,0 0,0 0.63,-0.13 0.79,-0.17 0.25,-0.04 0.5,-0.07 0.75,-0.12 -0.04,0.01 0.03,0 -0.02,0 1.73,-0.18 2.74,-0.14 4.45,0.27 -0.02,-0.01 0,0 0,0 3.52,1.12 5.58,2.75 8.46,4.94 2.61,2.04 5.65,4.72 8.81,5.74 0.01,0 0.04,0.01 0.04,0.01 2.78,0.35 6.65,-0.44 9.5,-0.8 0,0 0.04,0 0.04,0 2.53,-0.22 4.05,-0.2 6.52,0.49l0 0c0.86,0.28 1.52,0.56 2.32,0.99l-0.01 0c2.02,1.21 3.13,2.35 4.85,3.88 0.01,0.01 0.05,0.04 0.01,0.01 0.68,0.57 1.18,0.95 1.98,1.34 0,0 0.02,0.01 0.04,0.01 0.84,0.35 1.39,0.43 2.29,0.41 0,0 0.02,-0.01 0.02,-0.01 0.79,-0.06 1.4,-0.2 2.15,-0.44 0.44,-0.15 0.86,-0.33 1.29,-0.51 0,0 0.05,-0.02 0.05,-0.02 1.86,-0.87 3.38,-1.83 5.07,-2.98 4.42,-3.1 8.24,-5.95 13.07,-8.46 0.42,-0.25 4.19,-1.8 4.19,-1.8 0.85,-0.34 1.76,-0.69 2.65,-0.92l0.51 -0.08c-0.05,-0.01 -0.08,-0.03 -0.13,-0.06 -0.09,-0.06 -0.15,-0.14 -0.19,-0.24 -0.03,-0.09 -0.04,-0.17 -0.02,-0.26 0,-0.01 0.01,-0.04 0.02,-0.05 -0.01,0 0.01,-0.03 0.02,-0.03 -0.71,1 -1.55,1.6 -2.58,2.23 -1.08,0.64 -2.18,1.18 -3.27,1.77 -4.85,2.81 -8.84,5.95 -13.33,9.23 -0.56,0.4 -1.13,0.8 -1.71,1.18 -1.2,0.79 -2.33,1.46 -3.61,2.1 -0.05,0.02 0.04,-0.02 0.03,-0.01 -1.29,0.59 -2.6,1.07 -3.92,1.59 -1.13,0.46 2.81,-0.25 4.24,-0.8 0,0 0.03,-0.02 0.03,-0.02 1.75,-0.77 3.21,-1.64 4.8,-2.7 0.25,-0.17 0.49,-0.33 0.74,-0.5 4.47,-3.17 8.5,-6.28 13.3,-9.03 1.12,-0.6 2.23,-1.13 3.32,-1.78 1.21,-0.74 2.13,-1.41 2.97,-2.58 0,-0.01 0.02,-0.04 0.02,-0.05 0.06,-0.1 0.09,-0.18 0.12,-0.29 0.03,-0.15 0.02,-0.27 -0.03,-0.42 -0.06,-0.16 -0.14,-0.26 -0.29,-0.36 -0.1,-0.06 -0.19,-0.1 -0.31,-0.12 -0.35,-0.05 -0.68,0.02 -1.02,0.1 -0.96,0.24 -1.9,0.6 -2.82,0.96 -1.44,0.58 -2.85,1.19 -4.27,1.83 -4.91,2.55 -8.74,5.42 -13.22,8.57 -1.66,1.13 -3.1,2.04 -4.92,2.9l0.05 -0.03c-0.42,0.18 -0.81,0.35 -1.24,0.5z"/>
    </g>
   </g>
   <path class="fil4" d="M1.54 62.83c0.81,-0.12 1.57,-0.28 1.78,-0.31 0.45,-0.08 0.87,-0.14 1.33,-0.18 1.39,-0.11 3.13,0.36 4.48,0.75 2.91,0.97 5.32,2.93 7.71,4.79 2.66,2.07 6.36,5.34 9.63,6.21 2.8,0.53 7.29,-0.39 10.21,-0.72 2.05,-0.19 3.69,-0.17 5.67,0.43 0.7,0.22 1.26,0.47 1.89,0.83 1.83,1.08 2.92,2.28 4.48,3.65 0.84,0.71 1.53,1.22 2.53,1.69 1.18,0.51 2.1,0.66 3.38,0.6m0 0c1.58,-0.12 2.79,-0.53 4.23,-1.17 1.99,-0.92 3.66,-1.99 5.45,-3.25 4.45,-3.17 8.54,-6.45 13.31,-9.12 2.02,-1.11 4.76,-2.24 6.07,-4.2 0.84,-1.46 -7.82,2.54 -7.84,2.55 -4.82,2.44 -8.71,5.43 -13.13,8.52 -1.64,1.13 -3.2,2.12 -5.01,2.95 -1.09,0.48 -2.06,0.83 -3.25,0.92 -0.8,0.03 -1.34,-0.05 -2.07,-0.36 -0.72,-0.34 -1.25,-0.75 -1.85,-1.26 -1.78,-1.55 -2.84,-2.7 -4.96,-3.94 -0.82,-0.44 -1.53,-0.75 -2.42,-1.03 -2.39,-0.69 -4.32,-0.73 -6.78,-0.49 -2.25,0.26 -7.25,1.2 -9.35,0.82 -2.54,-0.65 -6.56,-4.02 -8.65,-5.62 -2.77,-2.09 -5.27,-4.02 -8.65,-4.98 -1.65,-0.4 -2.91,-0.45 -4.59,-0.24 -0.54,0.08 -1.04,0.19 -1.57,0.32 -0.62,0.17 -3.62,1.22 -3.44,2.18"/>
   <g>
    <g>
     <path class="fil3" d="M40 43.49c1.48,0.73 2.68,1.53 4.03,2.48 2.05,1.5 4.07,3.01 6.17,4.45 2.45,1.61 4.35,2.72 7.11,3.76 0.01,0 0.04,0.01 0.04,0.01 1.95,0.63 3.41,0.96 5.48,0.84 0.3,-0.03 2.26,-0.33 2.27,-0.79 -0.16,-0.19 -2.06,-0.03 -2.35,-0.02 -1.94,0.03 -3.29,-0.33 -5.11,-0.96 -0.02,-0.01 0,0 0.01,0.01 -2.65,-1.06 -4.5,-2.16 -6.85,-3.74 -2.08,-1.44 -4.09,-2.96 -6.13,-4.46 -1.35,-0.96 -2.69,-1.86 -4.18,-2.6 -0.51,-0.25 -1.01,-0.47 -1.54,-0.68 0,0 -0.04,-0.02 -0.04,-0.02 -1.44,-0.5 -2.41,-0.72 -3.94,-0.59 -0.01,-0.01 -0.03,0 -0.04,0 -1.18,0.2 -1.82,0.49 -2.78,1.19 0,0 -0.02,0.02 -0.03,0.03 -0.93,0.77 -1.49,1.45 -2.19,2.42 0,0 -0.01,0.01 -0.01,0.01 -1.36,2 -2.43,4 -3.97,5.89 -0.02,0.01 0.04,-0.05 0.02,-0.02 -0.87,0.94 -1.42,1.43 -2.62,1.94 0.01,0 0.03,-0.01 0.02,-0.01 -0.96,0.3 -1.7,0.24 -2.65,-0.04 -0.04,0 -0.5,-0.17 -0.57,-0.19 -0.78,-0.32 -1.43,-0.68 -2.17,-1.07 -0.51,-0.21 -0.66,-0.34 -1.23,-0.52 -0.51,-0.15 0.83,1.11 0.83,1.11 0.9,0.68 1.7,1.15 2.75,1.55 0.03,0.01 0.07,0.02 0.09,0.03 1.17,0.38 2.08,0.46 3.28,0.11 0,0 0.03,-0.01 0.03,-0.01 1.36,-0.54 2.04,-1.09 3.04,-2.16 0,0 0.02,-0.02 0.02,-0.02 1.61,-1.91 2.68,-3.9 4.08,-5.94 0,0 0,0 0,0 0.65,-0.89 1.14,-1.49 1.99,-2.19 0.04,-0.04 -0.02,0.01 -0.03,0.02 0.82,-0.6 1.28,-0.83 2.28,-0.99 0.02,-0.01 -0.01,0 -0.02,0 1.36,-0.12 2.19,0.1 3.46,0.53 0.05,0.02 -0.03,-0.01 -0.04,-0.01 0.52,0.2 0.99,0.4 1.49,0.65z"/>
     <path class="fil3" d="M65.62 50.25c-0.5,0.28 -0.92,0.44 -1.48,0.61 -0.01,0 0.03,-0.01 0.03,-0.01 -2.16,0.48 -3.45,0.22 -5.52,-0.45 0.03,0.01 -0.03,-0.02 0.01,0 -2.4,-0.92 -4.1,-1.92 -6.25,-3.31 -2.07,-1.4 -4.06,-2.88 -6.09,-4.34 -2.21,-1.53 -3.91,-2.58 -6.44,-3.56 0.04,0.02 -0.04,-0.01 -0.04,-0.01 -1.94,-0.65 -3.2,-0.89 -5.25,-0.67 0.03,0 -0.05,0.01 -0.02,0 -1.74,0.32 -2.67,0.74 -4.07,1.81 0,0 -0.01,0.01 -0.01,0.01 -1.16,1 -1.81,1.79 -2.67,3.04 0.01,-0.01 -0.06,0.08 0.02,-0.03 -1.27,1.96 -2.27,3.98 -3.68,5.86 -0.03,0.03 0.01,-0.02 0.01,-0.02 -0.53,0.63 -0.89,1.01 -1.65,1.37 0,0.01 0.02,-0.01 0.03,0 -0.6,0.22 -1.14,0.19 -1.76,0.1 -0.04,0 -0.43,-0.09 -0.49,-0.1 -0.54,-0.13 -1.06,-0.29 -1.59,-0.45 -0.61,-0.2 -1.26,-0.42 -1.9,-0.5 -0.26,-0.04 -0.49,-0.06 -0.74,0.01 -0.11,0.03 -0.2,0.06 -0.29,0.13 -0.05,0.02 -0.21,0.21 -0.13,0.25 0.03,0.01 0.18,-0.04 0.22,-0.05 0.03,-0.01 0.19,-0.01 0.22,-0.01 0.19,0.02 0.43,0.1 0.61,0.15 0.58,0.19 1.18,0.51 1.77,0.71 0.57,0.23 1.11,0.42 1.72,0.57 0.15,0.04 0.3,0.07 0.46,0.1 0.79,0.13 1.44,0.16 2.21,-0.11 0,0 0.02,-0.01 0.02,-0.01 0.89,-0.42 1.33,-0.85 1.97,-1.58 0,0 0.01,-0.01 0.01,-0.02 1.45,-1.86 2.48,-3.86 3.76,-5.82 0.05,-0.06 -0.02,0.03 -0.02,0.03 0.83,-1.17 1.42,-1.9 2.53,-2.84 -0.01,0.01 -0.01,0.01 0,0 1.26,-0.95 2.05,-1.3 3.6,-1.58 -0.01,0 -0.02,0.01 -0.03,0.01 1.91,-0.2 3.01,0.04 4.82,0.65 0.04,0.01 -0.05,-0.02 -0.01,-0.01 2.43,0.96 4.06,1.97 6.18,3.45 2.04,1.47 4.04,2.96 6.12,4.37 2.22,1.45 3.98,2.48 6.47,3.44 0.01,0.01 0.02,0.01 0,0 2.29,0.76 3.75,1.03 6.15,0.51 0,0 0.03,-0.01 0.04,-0.01 0.63,-0.19 1.13,-0.39 1.71,-0.71 0.39,-0.23 0.73,-0.46 1.09,-0.74 0,0.01 0.01,0 0,0 1.2,-0.98 1.85,-1.77 2.72,-3.04 2.69,-3.94 4.4,-6.04 8.5,-8.61 -0.04,0.02 -0.03,0.02 0,0 1.47,-0.83 2.77,-1.4 4.34,-1.99 0.4,-0.18 3.95,-1.18 3.95,-1.17 0.81,-0.2 1.66,-0.42 2.49,-0.51l0.47 0c-0.03,-0.01 -0.06,-0.03 -0.08,-0.05 -0.06,-0.05 -0.09,-0.11 -0.12,-0.18 -0.02,-0.07 -0.03,-0.13 -0.02,-0.2 0,-0.01 0.02,-0.06 0.02,-0.06l0.02 -0.03c-0.63,0.88 -1.44,1.34 -2.39,1.79 -1.04,0.47 -2.08,0.82 -3.13,1.25 -1.74,0.73 -3.17,1.42 -4.78,2.42 -0.04,0.01 -0.04,0.02 0.01,-0.01 -3.74,2.58 -5.3,4.6 -7.74,8.33 -0.14,0.21 -0.28,0.42 -0.43,0.63 -0.83,1.2 -1.52,1.98 -2.61,2.94 -0.02,0.02 0.01,0 0.02,-0.01 -1.11,0.87 -2.11,1.47 -3.26,2.2 -0.8,0.53 2.2,-0.5 3.73,-1.56 0,0 0.02,-0.02 0.02,-0.02 1.46,-1.16 2.27,-2.13 3.31,-3.66l0.26 -0.39c2.32,-3.38 3.82,-5.21 7.27,-7.55 -0.01,0.01 0.04,-0.02 -0.02,0.01 1.57,-0.95 2.95,-1.61 4.64,-2.31 1.07,-0.42 2.12,-0.77 3.18,-1.25 1.18,-0.55 2.09,-1.1 2.87,-2.18 0,0 0.03,-0.05 0.03,-0.05 0.05,-0.1 0.08,-0.18 0.1,-0.28 0.03,-0.14 0.02,-0.24 -0.02,-0.37 -0.05,-0.14 -0.11,-0.23 -0.21,-0.32 -0.09,-0.07 -0.16,-0.11 -0.27,-0.15 -0.33,-0.12 -0.64,-0.1 -0.98,-0.07 -0.9,0.09 -1.79,0.31 -2.66,0.53 -1.37,0.36 -2.71,0.76 -4.06,1.2 -1.64,0.61 -2.99,1.21 -4.53,2.07 0,0 -0.01,0.01 -0.01,0.01 -4.26,2.67 -6.07,4.86 -8.86,8.96 -0.79,1.17 -1.38,1.89 -2.46,2.79 0.03,-0.02 0,0 0.01,-0.01 -0.32,0.25 -0.62,0.46 -0.97,0.66z"/>
    </g>
   </g>
   <path class="fil4" d="M16.7 50.74c0.43,0.41 0.92,0.79 1.08,0.89 1.73,1.15 3.78,2.17 5.76,1.51 1.21,-0.48 1.97,-1.1 2.84,-2.06 1.58,-1.85 2.64,-3.92 4.02,-5.92 0.64,-0.9 1.23,-1.63 2.1,-2.32 0.83,-0.63 1.5,-0.94 2.53,-1.1 1.36,-0.14 2.44,0.12 3.72,0.57 2.09,0.81 3.79,1.89 5.62,3.18 2.05,1.5 4.05,3.02 6.15,4.45 2.32,1.54 4.36,2.75 6.98,3.74 2.68,0.91 4.81,1.23 7.6,0.54m0 0c1.45,-0.43 2.45,-0.97 3.65,-1.9 1.35,-1.1 2.23,-2.17 3.18,-3.62 2.28,-3.46 4.14,-5.83 7.62,-8.12 1.56,-0.98 3.01,-1.66 4.7,-2.37 1.89,-0.76 4.62,-1.48 5.8,-3.24 0.76,-1.38 -7.37,1.32 -7.42,1.34 -1.6,0.59 -2.95,1.19 -4.44,2.03 -3.97,2.4 -6.1,4.97 -8.67,8.8 -0.77,1.16 -1.49,2.03 -2.58,2.92 -0.86,0.66 -1.59,1.05 -2.63,1.36 -2.13,0.52 -3.81,0.21 -5.85,-0.47 -2.37,-0.88 -4.27,-2 -6.37,-3.38 -2.09,-1.39 -4.07,-2.88 -6.11,-4.35 -2.06,-1.44 -3.93,-2.6 -6.3,-3.49 -1.75,-0.6 -3.17,-0.89 -5.03,-0.66 -1.54,0.25 -2.58,0.73 -3.81,1.69 -1.08,0.9 -1.78,1.76 -2.58,2.92 -1.26,1.9 -2.32,4.06 -3.72,5.82 -0.54,0.65 -1.04,1.14 -1.82,1.49 -2.39,0.95 -6.31,-1.97 -7.06,-0.99"/>
   <g>
    <g>
     <path class="fil3" d="M48.27 27.64c1.41,-0.07 2.31,-0.38 3.59,-0.97 0,0 0.02,-0.01 0.03,-0.02 2.1,-1.14 3.34,-2.25 5,-3.93 0.62,-0.57 1.79,-1.04 2.58,-1.37 1.6,-0.64 3.17,-1.16 4.8,-1.68 0.48,-0.17 1.03,-0.32 1.52,-0.47 1.03,-0.31 2,-0.59 2.99,-1.03 0,0 -0.02,0.01 -0.03,0.01 0.28,-0.11 0.53,-0.21 0.79,-0.36 0.35,-0.19 0.58,-0.37 0.81,-0.7 0.01,-0.01 -0.05,0.06 -0.06,0.08 0.22,-0.24 0.32,-0.41 0.42,-0.73 -0.02,0.05 -0.04,0.09 -0.06,0.13 -0.01,0.01 0.05,-0.09 0.07,-0.12 0.04,-0.09 0.07,-0.16 0.08,-0.25 0,-0.01 -0.01,0.06 -0.02,0.08 0.04,-0.13 0.04,-0.23 0.01,-0.35 -0.03,-0.13 0.01,0.06 0.01,0.17 -0.09,-0.32 -0.04,-0.38 -0.24,-0.53 -0.07,-0.06 -0.13,-0.09 -0.22,-0.11 -0.15,-0.03 -0.38,0.01 -0.22,-0.01 0.11,-0.02 0.2,0 0.3,0.05 0.19,0.1 0.3,0.22 0.33,0.45 0.01,0.02 0,0.12 0,0.16 0,0.02 0,-0.05 0.01,-0.05 0,-0.24 0.01,-0.35 -0.16,-0.55 0,0 0.03,0.03 0.03,0.04 -0.11,-0.14 -0.22,-0.22 -0.39,-0.28 -0.02,-0.01 0.07,0.03 0.09,0.04 -0.25,-0.12 -0.43,-0.14 -0.69,-0.15 -0.01,0 0.04,0.01 0.06,0.01 -0.58,-0.08 -1.1,0 -1.67,0.08 -0.01,0 0.02,-0.01 0.02,-0.01 -1.38,0.15 -2.62,0.44 -3.96,0.77 -0.26,0.06 -0.52,0.13 -0.78,0.19 -1.79,0.47 -3.46,0.97 -5.2,1.59 -0.01,0.01 0.13,-0.05 -0.04,0.02 -1.51,0.58 -2.69,1.07 -3.92,2.16 0,0 -0.01,0.01 -0.01,0.01 -1.05,1.04 -1.94,1.87 -3.18,2.68 -0.27,0.18 -0.54,0.34 -0.82,0.49 0.02,-0.01 -0.03,0.02 0.01,0 -0.21,0.1 -2.75,0.92 -2.76,0.94 0.39,0.6 2.56,-0.03 3.08,-0.24 0.01,-0.01 0.02,-0.01 0,0 0,0.02 0.87,-0.46 0.98,-0.53 1.29,-0.81 2.22,-1.65 3.32,-2.7 0,0 0,0 0,0 1.14,-0.98 2.28,-1.41 3.67,-1.93 0.01,0 -0.04,0.02 0.03,-0.01 1.71,-0.58 3.33,-1.05 5.08,-1.49 0.26,-0.06 0.52,-0.13 0.78,-0.19 1.29,-0.31 2.49,-0.58 3.82,-0.72 0,0 0.02,0 0.03,0 0.43,-0.06 0.92,-0.13 1.36,-0.07 0.01,0 0.06,0 0.08,0l0.19 0.02c0.04,0.02 0.07,0.04 0.11,0.05 -0.06,-0.02 -0.1,-0.06 -0.14,-0.11 0,0 0.03,0.04 0.04,0.05 -0.06,-0.06 -0.09,-0.14 -0.11,-0.22 -0.01,-0.04 0.03,-0.25 0,-0.08 -0.02,0.07 -0.02,0.11 0,0.18 -0.01,-0.02 0.03,0.21 0.23,0.34 0.11,0.05 0.18,0.07 0.3,0.06 0.14,-0.02 -0.04,0.01 -0.16,-0.02 -0.06,-0.01 -0.11,-0.03 -0.16,-0.07 -0.03,-0.02 -0.06,-0.06 -0.08,-0.08 -0.19,-0.52 -0.05,-0.07 -0.07,-0.15 -0.02,-0.08 -0.02,-0.16 0.01,-0.24 0,-0.01 -0.02,0.08 -0.03,0.11 0.01,-0.04 0.02,-0.07 0.03,-0.1 0,0.01 -0.01,0.03 0,0.02 -0.04,0.05 -0.06,0.1 -0.08,0.16 -0.05,0.14 -0.07,0.19 -0.17,0.3 -0.03,0.03 -0.06,0.06 -0.08,0.09 -0.1,0.16 -0.26,0.25 -0.42,0.34 -0.07,0.07 -0.55,0.24 -0.67,0.29 -0.01,0.01 -0.02,0.01 -0.03,0.02 -0.93,0.41 -1.87,0.68 -2.85,0.97 -0.51,0.15 -1.02,0.31 -1.53,0.46 -1.67,0.53 -3.26,1.06 -4.89,1.7 -1.02,0.42 -2.14,0.87 -2.96,1.62 -1.58,1.59 -2.74,2.64 -4.74,3.72 -0.02,0.01 0.02,-0.01 0.02,-0.01 -1.12,0.52 -1.91,0.79 -3.15,0.86 -0.38,0.01 -0.74,-0.01 -1.12,-0.04 0,0 0.03,0 0.03,0 -3.26,-0.62 -5.18,-2.12 -7.87,-3.91 -1.44,-0.92 -2.61,-1.6 -4.21,-2.24 0,0 -0.01,0 -0.01,0 -0.46,-0.17 -0.89,-0.3 -1.37,-0.41 0,0 -0.01,-0.01 -0.01,-0.01 -0.8,-0.16 -1.35,-0.22 -2.17,-0.17l-0.01 0c-1.37,0.16 -2.1,0.47 -3.24,1.22 0,0 -0.03,0.02 -0.01,0.01 -1.46,1.08 -2.26,2.01 -3.32,3.46 -1.1,1.47 -1.86,2.27 -3.43,3.25l0.01 0c-1.35,0.73 -2.18,0.98 -3.7,1.13 -0.01,0 0.01,-0.01 0.02,-0.01 -2.86,0.06 -4.49,-0.49 -7.13,-1.47 -1.01,-0.38 -2,-0.79 -3.02,-1.14 -0.93,-0.31 -1.76,-0.54 -2.73,-0.64 -0.01,0 -0.03,0 -0.03,0 -0.82,0.01 -1.55,0.25 -2.26,0.64 -0.36,0.21 -0.67,0.43 -0.94,0.75 -0.23,0.29 -0.32,0.47 -0.34,0.83 0,0.33 0.38,-0.23 0.66,-0.46 0.3,-0.22 0.58,-0.37 0.91,-0.52 0.61,-0.25 1.26,-0.44 1.92,-0.4 -0.01,-0.01 -0.01,-0.01 -0.02,-0.01 1.23,0.2 2.31,0.6 3.46,1.05 0.68,0.27 1.36,0.55 2.03,0.82 2.78,1.08 4.49,1.66 7.52,1.63 0,0 0.03,0 0.04,0 1.69,-0.15 2.66,-0.43 4.15,-1.23l0.01 -0.01c1.72,-1.05 2.58,-1.94 3.79,-3.54 0.98,-1.33 1.72,-2.2 3.06,-3.19 -0.01,0 0.01,-0.01 0,0 0.96,-0.63 1.54,-0.88 2.69,-1.02 0.01,0 -0.02,0 -0.02,0 0.71,-0.04 1.16,0.01 1.86,0.15 -0.04,-0.01 -0.07,-0.01 0,0 0.43,0.1 0.81,0.22 1.22,0.37 -0.03,-0.01 -0.05,-0.02 0,0 1.51,0.6 2.63,1.25 3.99,2.12 2.89,1.91 4.82,3.41 8.33,4.07 0,0 0.03,0 0.04,0 0.38,0.05 0.87,0.06 1.26,0.04z"/>
     <path class="fil3" d="M22.56 23c-0.78,1.04 -1.35,1.64 -2.45,2.34 -0.03,0.02 0.01,0 0.02,-0.01 -0.93,0.52 -1.49,0.69 -2.54,0.8 0.01,0 0.03,0 0.04,0 -2.37,0.06 -3.88,-0.45 -6.08,-1.2 -2.29,-0.82 -4.06,-1.54 -6.55,-1.68 0.02,0 -0.04,0 -0.02,0 -1.32,0.03 -2.08,0.21 -3.19,0.95l-0.01 0c-0.09,0.07 -0.16,0.11 0.04,0.01 -0.57,0.4 -0.93,1.01 -1.24,1.62 -0.06,0.14 -0.11,0.27 -0.16,0.4 -0.14,0.39 -0.22,0.74 -0.16,1.15 0.04,0.19 0.08,0.33 0.2,0.48 0.06,0.11 0.41,0.31 0.48,0.17 0.01,-0.05 -0.08,-0.26 -0.09,-0.36 -0.02,-0.04 0,-0.26 0.01,-0.31 0.06,-0.29 0.16,-0.55 0.28,-0.83 0.02,-0.07 0.14,-0.28 0.19,-0.36 0.24,-0.43 0.53,-0.88 0.91,-1.21 -0.1,0.08 0.03,-0.02 0.05,-0.03 -0.02,0.01 -0.01,0.01 -0.01,0 0.96,-0.6 1.57,-0.71 2.69,-0.71 0.02,-0.01 -0.02,-0.01 -0.02,-0.01 2.34,0.19 4.09,0.93 6.25,1.72 2.35,0.82 3.93,1.35 6.47,1.29 -0.03,0 0.04,0 0.02,0 1.22,-0.12 1.91,-0.33 2.98,-0.92 0,0 0.02,-0.02 0.03,-0.02 1.23,-0.78 1.89,-1.46 2.76,-2.61 0.03,-0.03 0.11,-0.15 0.13,-0.17 1.2,-1.62 2.08,-2.65 3.71,-3.86 -0.03,0.02 0.01,-0.01 -0.02,0.01 1.45,-0.96 2.33,-1.33 4.05,-1.55 0.05,-0.01 -0.07,0 -0.01,0 1.02,-0.08 1.69,-0.02 2.7,0.17 -0.04,-0.01 -0.08,-0.02 -0.01,0 0.57,0.12 1.07,0.27 1.61,0.46l0 0c1.75,0.66 3.02,1.36 4.61,2.34 1.17,0.75 2.28,1.49 3.51,2.17 0.92,0.47 2.52,1.37 3.59,0.87 0.22,-0.13 -3,-1.6 -3.59,-1.96 -1.01,-0.63 -1.96,-1.3 -2.95,-1.96 -1.64,-1.06 -2.95,-1.8 -4.78,-2.52 0,0 0,0 0,0 -0.6,-0.21 -1.14,-0.37 -1.75,-0.51 0,0 -0.01,0 -0.01,0 -1.12,-0.23 -1.88,-0.29 -3.03,-0.21 0,0 -0.04,0.01 -0.04,0.01 -1.9,0.24 -2.96,0.68 -4.54,1.73 -0.01,0.01 -0.02,0.01 0,0 -1.75,1.31 -2.69,2.4 -3.97,4.15 -0.02,0.03 -0.08,0.12 -0.11,0.16z"/>
    </g>
   </g>
   <path class="fil4" d="M1.32 27.87c0.33,-1.08 2.43,-1.95 3.56,-1.89 1.82,0.21 3.92,1.16 5.63,1.83 2.53,0.97 4.56,1.64 7.33,1.55 1.52,-0.12 2.61,-0.44 3.94,-1.19 1.56,-0.93 2.54,-1.94 3.61,-3.4 0.96,-1.31 1.85,-2.37 3.18,-3.32 0.99,-0.66 1.78,-1.01 2.97,-1.13 0.72,-0.05 1.3,0.01 2.01,0.16 0.45,0.11 0.86,0.23 1.3,0.39 1.51,0.58 2.75,1.3 4.1,2.18 2.62,1.71 4.96,3.49 8.11,3.97 1.74,0.16 2.98,-0.13 4.55,-0.87 1.94,-1.02 3.34,-2.28 4.86,-3.84 0.59,-0.59 2.02,-1.18 2.78,-1.5 1.6,-0.64 3.2,-1.18 4.85,-1.7 0.5,-0.15 1.01,-0.31 1.52,-0.46 0.95,-0.29 2.03,-0.6 2.92,-1.01 0.45,-0.18 1.06,-0.4 1.33,-0.84 0.16,-0.16 0.23,-0.3 0.29,-0.52 0.02,-0.01 0.04,-0.05 0.05,-0.07 0.01,-0.03 0.02,-0.05 0.02,-0.08 0.02,-0.02 0,-0.05 0,-0.06 -0.05,-0.07 -0.06,0.04 -0.04,-0.1 0,-0.02 0,-0.03 -0.02,-0.05 -0.03,-0.04 -0.06,-0.06 -0.12,-0.07 -0.12,-0.08 -0.29,-0.08 -0.43,-0.09 -0.45,-0.07 -1.07,0.02 -1.52,0.08 -1.29,0.13 -2.63,0.44 -3.88,0.74 -0.26,0.06 -0.53,0.13 -0.79,0.19 -1.75,0.45 -3.44,0.94 -5.14,1.55 -1.35,0.51 -2.73,1.06 -3.8,2.05 -1.29,1.26 -2.54,2.38 -4.16,3.2 -1.03,0.48 -1.81,0.68 -2.94,0.57m0 0c-2.41,-0.39 -4.86,-2.22 -6.87,-3.53 -1.57,-0.99 -2.96,-1.78 -4.7,-2.42 -0.57,-0.21 -1.1,-0.36 -1.68,-0.49 -1.02,-0.2 -1.83,-0.27 -2.87,-0.18 -1.71,0.2 -2.89,0.68 -4.31,1.65 -1.6,1.18 -2.66,2.4 -3.81,4.01 -0.81,1.12 -1.56,1.93 -2.74,2.66 -0.94,0.54 -1.69,0.77 -2.77,0.87 -2.28,0.12 -4.15,-0.5 -6.27,-1.24 -2.1,-0.74 -4.15,-1.59 -6.39,-1.69 -1.14,0 -1.97,0.19 -2.92,0.83 -0.01,0 -0.08,0.06 -0.08,0.06 -0.76,0.67 -1.98,2.83 -1.03,3.34"/>
   <path class="fil5" d="M82.91 59.49c-6.83,0.88 -8.96,2.89 -8.97,9.45 -0.01,3.47 5.38,3.84 7.85,2.13 5.67,-3.91 6.38,-12.16 4.93,-11.23 -0.53,0.34 0.25,-0.33 -1.16,-0.34 -0.88,-0.01 -1.77,-0.02 -2.65,-0.01z"/>
   <g>
    <path class="fil3" d="M87.76 61.34c0.02,-0.09 0.04,-0.18 0.06,-0.27 0.1,-0.58 0.18,-1.22 0,-1.8 -0.08,-0.24 -0.17,-0.41 -0.32,-0.61 -0.12,-0.16 -0.23,-0.26 -0.4,-0.37 -0.38,-0.22 -0.73,-0.27 -1.17,-0.28 -1.08,0 -2.07,0.27 -3.13,0.49 -1.91,0.39 -3.63,0.82 -5.36,1.76 -0.78,0.46 -1.37,0.91 -1.88,1.67 -0.22,0.36 -0.35,0.66 -0.44,1.08 -0.04,0.07 -0.07,0.4 -0.07,0.5 -0.02,0.28 -0.02,0.56 -0.02,0.85l-0.01 -0.02c0.01,0.2 0.04,0.72 -0.15,0.85 0,0 -0.02,0 -0.02,0 -0.01,0.01 -0.01,0.01 -0.02,0.01 -0.16,0.02 -0.44,-0.59 -0.47,-0.7 0,0 -0.01,-0.02 -0.01,-0.02 -0.11,-0.35 -0.15,-0.67 -0.15,-1.03 0,-0.21 0.02,-0.4 0.05,-0.6 0.09,-0.54 0.24,-0.93 0.51,-1.41 0.57,-0.94 1.23,-1.49 2.16,-2.07 1.84,-1.05 3.61,-1.53 5.66,-1.97 1.18,-0.25 2.15,-0.53 3.38,-0.54 0.66,0.03 1.16,0.12 1.74,0.45 0.29,0.18 0.49,0.36 0.72,0.64 0.23,0.31 0.37,0.58 0.5,0.94 0.26,0.81 0.19,1.57 0.05,2.39 0,0.03 -0.05,0.27 -0.06,0.31 -0.21,0.94 -0.48,1.74 -0.85,2.62 -0.98,2.22 -2.09,4.01 -3.8,5.74 -0.8,0.77 -1.52,1.32 -2.55,1.77 -0.49,0.19 -0.88,0.3 -1.4,0.35 -0.53,0.03 -0.93,-0.01 -1.43,-0.16 -0.54,-0.17 -0.91,-0.38 -1.36,-0.73 -0.49,-0.4 -0.83,-0.8 -1.2,-1.32 -0.32,-0.47 -0.56,-0.91 -0.8,-1.42 -0.41,-0.93 -0.99,-2.16 -0.66,-3.18 0.17,-0.4 1.63,2.94 1.7,3.07 0.19,0.32 0.38,0.62 0.61,0.92 0.32,0.42 0.61,0.74 1.03,1.07 0.33,0.24 0.61,0.39 1,0.51 0.36,0.1 0.64,0.12 1.01,0.09 0.39,-0.05 0.68,-0.14 1.05,-0.28 0.86,-0.39 1.49,-0.89 2.17,-1.55 1.57,-1.61 2.62,-3.3 3.53,-5.35 0.34,-0.8 0.61,-1.55 0.8,-2.4z"/>
   </g>
   <path class="fil2" d="M74.83 65.2c4.49,15.46 15.01,-1.91 13.57,-6.13 -0.87,-2.52 -3.77,-1.55 -5.72,-1.16 -3.25,0.65 -8.82,2.14 -8.03,6.52l0.18 0.77z"/>
   <path class="fil5" d="M95.2 39.46c6.56,-4.04 5.31,-6.13 4.94,-5.59 -0.1,0.14 -0.14,-0.59 -1.08,-1.17 -2.72,-1.68 -8.08,-3.52 -11.15,-1.59 -4.88,3.08 -4.7,8.97 1.97,9.44 1.93,0.13 3.6,-0.25 5.32,-1.09z"/>
   <g>
    <path class="fil3" d="M95.96 39.96c1.65,-0.86 2.99,-1.83 4.19,-3.25 0.44,-0.55 0.79,-1.07 0.98,-1.74 0.07,-0.24 0.09,-0.43 0.07,-0.68 -0.02,-0.21 -0.07,-0.35 -0.18,-0.53 -0.45,-0.66 -0.98,-1.04 -1.66,-1.44 -0.84,-0.46 -1.62,-0.74 -2.53,-1.01 -1.32,-0.37 -2.55,-0.59 -3.9,-0.76 -0.33,-0.05 -1.22,-0.15 -1.39,-0.49 0,-0.02 -0.01,-0.03 -0.01,-0.05 0,-0.02 0,-0.03 0.01,-0.04 0.22,-0.32 1.17,-0.28 1.49,-0.26 1.42,0.09 2.68,0.28 4.06,0.62 1.02,0.27 1.86,0.56 2.79,1.05 0.87,0.48 1.49,0.95 2.06,1.77 0.22,0.34 0.32,0.62 0.37,1.02 0.04,0.4 0.01,0.71 -0.09,1.09 -0.24,0.86 -0.64,1.48 -1.18,2.17 -1.31,1.57 -2.75,2.62 -4.55,3.58 -0.08,0.04 -0.15,0.08 -0.23,0.12 -0.99,0.47 -1.86,0.8 -2.94,1.03 -1.03,0.2 -1.85,0.25 -2.89,0.06 -1.03,-0.23 -1.72,-0.59 -2.46,-1.34 -0.82,-0.91 -1.17,-1.79 -1.42,-2.98 -0.2,-1.01 -0.28,-1.85 -0.22,-2.88 0.07,-0.96 0.23,-1.68 0.65,-2.54 0.43,-0.81 0.88,-1.33 1.63,-1.86 0.01,-0.01 0.07,-0.05 0.08,-0.06 0.8,-0.46 1.88,-1.01 2.79,-0.54 0.26,0.16 -1.8,1.03 -2.24,1.33 -0.05,0.03 -0.3,0.24 -0.35,0.29 -0.43,0.41 -0.69,0.77 -0.95,1.3 -0.32,0.73 -0.44,1.35 -0.48,2.14 -0.03,0.92 0.06,1.69 0.24,2.59 0.21,0.94 0.49,1.67 1.14,2.39 0.56,0.55 1.07,0.81 1.83,0.98 0.86,0.16 1.56,0.11 2.42,-0.05 0.97,-0.21 1.76,-0.5 2.66,-0.92 0.07,-0.04 0.14,-0.07 0.21,-0.11z"/>
   </g>
   <path class="fil2" d="M91.53 29.99c-4.17,0.71 -5.17,3.96 -4.39,7.79 1.91,9.43 16.95,-0.43 14.38,-4.35 -1.71,-2.6 -7.1,-3.35 -9.99,-3.44z"/>
   <path class="fil5" d="M78.71 16.63c-3.95,5.7 -12.43,8.64 -13.69,-0.9 -0.91,-6.85 15.16,-5.66 14.47,-0.65l-0.78 1.55z"/>
   <path class="fil5" d="M65.35 15.07c-0.01,-0.12 1.53,3.11 1.3,3.49 -0.34,0.55 0.17,1.62 0.05,1.66 -2.79,1.06 -10.18,1.57 -6.69,-2.63 0.85,-1.01 6.05,-3.43 5.34,-2.52z"/>
   <path class="fil5" d="M85.19 34.04c-0.01,-0.12 1.52,3.11 1.29,3.49 -0.34,0.55 0.17,1.62 0.05,1.66 -2.79,1.05 -10.18,1.57 -6.68,-2.63 0.84,-1.01 6.04,-3.43 5.34,-2.52z"/>
   <path class="fil5" d="M76.55 71.17c0.1,0.12 -1.32,-4.13 -1.86,-4.27 -0.78,-0.2 -1.25,-1.61 -1.4,-1.55 -3.44,1.47 -10.56,7.43 -3.75,8.18 1.64,0.19 8.44,-2.15 7.01,-2.36z"/>
   <g>
    <path class="fil3" d="M66.84 14.9c0.06,-0.25 0.14,-0.45 0.27,-0.67 0.35,-0.59 0.77,-0.93 1.35,-1.27 1.55,-0.82 3.13,-1.01 4.86,-1.01 1.78,0.06 3.36,0.3 4.98,1.04 0.58,0.3 1.05,0.59 1.47,1.1 0.16,0.2 0.26,0.37 0.35,0.61 0.07,0.25 0.09,0.44 0.07,0.69 0,0 0.02,-0.09 0.04,-0.12 0,0 -0.05,0.1 -0.07,0.15 -0.14,0.33 -0.53,1.21 -0.34,1.56 0,0 0.04,0.04 0.04,0.04 0.02,0.01 0.03,0.01 0.05,0.01 0.37,-0.08 0.86,-0.95 1.02,-1.25 0.02,-0.04 0.05,-0.08 0.07,-0.12 0.02,-0.05 0.04,-0.1 0.05,-0.16 0.05,-0.38 0.04,-0.67 -0.06,-1.05 -0.1,-0.36 -0.24,-0.63 -0.46,-0.94 -0.5,-0.66 -1.05,-1.04 -1.77,-1.43 -1.76,-0.87 -3.47,-1.17 -5.42,-1.24 -1.97,-0.02 -3.68,0.2 -5.45,1.11 -0.79,0.46 -1.32,0.91 -1.8,1.7 -0.19,0.33 -0.3,0.61 -0.39,0.97 -0.14,0.56 -0.15,1.01 -0.08,1.58 0.15,1.15 0.36,2.09 0.81,3.17 0.39,0.87 0.78,1.49 1.46,2.16 0.62,0.57 1.17,0.89 1.97,1.15 0.79,0.23 1.41,0.28 2.22,0.21 1.75,-0.22 3.04,-0.82 4.48,-1.8 0.71,-0.5 1.29,-1 1.9,-1.61 0.57,-0.61 1.5,-1.5 1.38,-2.42 -0.09,-0.39 -2.24,1.88 -2.33,1.97 -0.51,0.44 -0.99,0.81 -1.55,1.17 -1.29,0.82 -2.45,1.35 -3.98,1.51 -0.65,0.05 -1.15,0.01 -1.77,-0.17 -0.61,-0.2 -1.02,-0.45 -1.49,-0.89 -0.55,-0.54 -0.87,-1.06 -1.19,-1.76 -0.4,-0.96 -0.59,-1.82 -0.74,-2.85 -0.05,-0.41 -0.04,-0.73 0.05,-1.14z"/>
   </g>
   <path class="fil2" d="M79.88 17.03c-3.94,5.69 -12.42,8.63 -13.69,-0.91 -0.91,-6.84 15.17,-5.66 14.48,-0.65l-0.79 1.56z"/>
   <g>
    <path class="fil3" d="M60.79 19.88c0.01,-0.09 0.04,-0.18 0.07,-0.26 0.18,-0.47 0.48,-0.87 0.8,-1.25 0.22,-0.25 0.73,-0.51 1.02,-0.67 0.57,-0.28 1.14,-0.52 1.73,-0.74 0.45,-0.16 0.9,-0.3 1.37,-0.4 0.01,-0.01 0.04,-0.01 0.05,-0.01 0.04,0 0.05,0 0.08,-0.02 0.02,-0.01 -0.06,-0.08 -0.05,-0.09 -0.03,-0.04 -0.04,-0.08 -0.05,-0.13 -0.01,-0.03 0.01,-0.07 0.03,-0.1 0.1,-0.03 0.13,0.13 0.23,0.2 0.13,0.08 0.26,0 0.34,-0.12 0.02,-0.06 0.02,-0.12 0.01,-0.19 -0.01,-0.07 -0.04,-0.12 -0.09,-0.18 -0.08,-0.09 -0.16,-0.14 -0.28,-0.18 -0.04,-0.02 -0.19,-0.04 -0.23,-0.04 -0.01,0 -0.07,0 -0.08,0 -0.56,-0.01 -1.12,0.14 -1.65,0.29 -0.66,0.2 -1.27,0.42 -1.9,0.72 -0.51,0.24 -1.03,0.51 -1.41,0.93 -0.42,0.5 -0.77,0.97 -1.02,1.58 -0.05,0.08 -0.12,0.4 -0.14,0.51 -0.01,0.07 -0.01,0.13 -0.02,0.2 0,0.25 0.04,0.44 0.14,0.68 0.11,0.22 0.22,0.36 0.41,0.52 0.18,0.14 0.34,0.23 0.56,0.32 0.45,0.17 0.84,0.22 1.32,0.25 1.65,0.04 3.3,-0.29 4.82,-0.91 0.48,-0.22 0.71,-0.31 0.63,-0.82 -0.05,-0.39 -0.87,-0.12 -1.07,-0.07 -1.42,0.36 -2.86,0.64 -4.32,0.6 -0.33,-0.02 -0.64,-0.06 -0.95,-0.17 -0.09,-0.02 -0.17,-0.09 -0.24,-0.13 -0.04,-0.03 -0.07,-0.06 -0.09,-0.11 -0.03,-0.03 -0.02,-0.11 -0.03,-0.14 0,-0.01 0.01,-0.06 0.01,-0.07z"/>
   </g>
   <path class="fil2" d="M67.5 19.99c-2.34,1.12 -10.06,2.5 -6.31,-2.01 0.84,-1.01 5.65,-2.61 4.89,-1.55"/>
   <g>
    <path class="fil3" d="M79.59 38.28c-0.02,-0.31 0.04,-0.55 0.16,-0.84 0.21,-0.45 0.48,-0.76 0.85,-1.08 0.48,-0.39 0.91,-0.63 1.49,-0.84 0.87,-0.3 1.63,-0.54 2.54,-0.67 0.19,-0.02 0.61,-0.13 0.62,-0.37 0.01,-0.25 -0.49,-0.33 -0.66,-0.33 -1.02,0.02 -1.82,0.22 -2.79,0.52 -0.7,0.23 -1.22,0.5 -1.8,0.96 -0.5,0.43 -0.84,0.82 -1.13,1.42 -0.2,0.45 -0.28,0.81 -0.26,1.31 0.01,0.12 0.03,0.23 0.05,0.35 0.07,0.31 0.17,0.54 0.34,0.81 0.19,0.29 0.38,0.48 0.65,0.7 0.11,0.08 0.21,0.12 0.35,0.16 0.06,0.03 0.26,0.03 0.34,0.04 0.22,0.03 0.54,-0.03 0.76,-0.04 0.66,-0.09 1.29,-0.23 1.94,-0.39 0.91,-0.22 1.8,-0.48 2.69,-0.76 0.44,-0.15 0.66,-0.17 0.7,-0.61 0.04,-0.4 -0.89,-0.17 -1.05,-0.14 -0.85,0.17 -1.7,0.39 -2.56,0.57 -0.61,0.13 -1.22,0.26 -1.84,0.33 -0.2,0.04 -0.4,0.03 -0.6,0.04 -0.05,0 -0.1,-0.01 -0.15,-0.02 -0.03,-0.01 0.01,0.01 0.03,0.02 -0.17,-0.14 -0.3,-0.27 -0.43,-0.45 -0.11,-0.16 -0.16,-0.3 -0.21,-0.48 -0.01,-0.03 -0.03,-0.17 -0.03,-0.21z"/>
   </g>
   <path class="fil2" d="M86.44 38.63c-1.34,0.28 -5.87,1.67 -6.48,1.19 -1.84,-1.41 -0.61,-3.89 1.98,-4.76 1.05,-0.36 2.19,-0.67 3.31,-0.6"/>
   <g>
    <path class="fil3" d="M68.09 71.19c0.12,0.26 0.27,0.44 0.46,0.64 0.17,0.17 0.34,0.24 0.56,0.3 0.32,0.07 0.59,0.07 0.91,0.05 0.84,-0.09 1.57,-0.31 2.36,-0.6 1.17,-0.46 2.16,-0.95 3.25,-1.55 0.08,-0.05 0.14,-0.06 0.23,-0.02 -0.01,0.02 -0.02,0.05 -0.02,0.07 0,0.02 0.01,0.04 0.02,0.05 0.05,-0.06 0.11,-0.12 0.19,-0.13 0.06,0 0.15,0.07 0.17,0.12 0.02,0.04 0.02,0.07 0.01,0.12 -0.01,0.05 -0.03,0.08 -0.06,0.12 0.02,0.08 -0.08,0.2 -0.14,0.25 -0.92,0.72 -2.26,1.36 -3.33,1.81 -0.87,0.35 -1.66,0.6 -2.6,0.7 -0.44,0.04 -0.79,0.04 -1.22,-0.06 -0.42,-0.1 -0.71,-0.25 -1.02,-0.55 -0.29,-0.3 -0.49,-0.55 -0.66,-0.92 -0.07,-0.16 -0.12,-0.3 -0.16,-0.46 -0.11,-0.52 -0.05,-0.91 0.15,-1.4 0.46,-0.97 1.21,-1.57 2.09,-2.17 1.44,-0.91 2.86,-1.54 4.45,-2.14 0.46,-0.16 0.73,-0.32 1.08,0 0.3,0.28 -0.8,0.77 -0.91,0.82 -1.42,0.69 -2.73,1.28 -4.07,2.15 -0.67,0.47 -1.36,0.99 -1.73,1.75 -0.12,0.27 -0.15,0.48 -0.1,0.78 0,0.03 0.07,0.23 0.09,0.27z"/>
   </g>
   <path class="fil2" d="M74.81 65.4c-2.11,1 -9.68,3.63 -6.62,6.79 1.77,1.83 7.86,-1.81 7.89,-2.02l-0.01 -0.17"/>
  </g>
 </g>
</svg>
