<?xml version="1.0" encoding="UTF-8"?>
<!DOCTYPE svg PUBLIC "-//W3C//DTD SVG 1.1//EN" "http://www.w3.org/Graphics/SVG/1.1/DTD/svg11.dtd">
<!-- Creator: CorelDRAW -->
<svg xmlns="http://www.w3.org/2000/svg" xml:space="preserve" width="988px" height="1357px" version="1.1" style="shape-rendering:geometricPrecision; text-rendering:geometricPrecision; image-rendering:optimizeQuality; fill-rule:evenodd; clip-rule:evenodd"
viewBox="0 0 71.13 97.72"
 xmlns:xlink="http://www.w3.org/1999/xlink"
 xmlns:xodm="http://www.corel.com/coreldraw/odm/2003">
 <defs>
  <style type="text/css">
   <![CDATA[
    .fil3 {fill:none}
    .fil0 {fill:#EBBFBE}
    .fil1 {fill:#F78384}
    .fil4 {fill:#FDD4D4}
    .fil5 {fill:#262749;fill-rule:nonzero}
    .fil2 {fill:#FDD4D4;fill-rule:nonzero}
   ]]>
  </style>
 </defs>
 <g id="Camada_x0020_1">
  <metadata id="CorelCorpID_0Corel-Layer"/>
  <g id="_1658533429584">
   <path class="fil0" d="M60.75 47.74c9.81,15.26 15.73,21.36 2.96,37.96 -9.76,11.51 -24.08,14.66 -38.17,9.85 -28.36,-10.81 -25.85,-35.19 -25.17,-60.87 0.73,-18.95 5.78,-37.91 29.33,-34.21 22.26,3.49 21.13,29.34 29.73,44.89l1.32 2.38z"/>
   <path class="fil1" d="M58.11 52.48c6.94,9.12 10.17,15.91 5.08,27.28 -12.02,26.83 -48.69,12.85 -57.7,-9.54 -6.17,-18.05 -2.05,-29.46 2.18,-47.1 4.34,-16.29 15.8,-19.85 30.14,-12.09 14.36,7.76 9.18,25.89 18.88,39.52 0.46,0.65 0.94,1.29 1.42,1.93z"/>
   <g>
    <path class="fil2" d="M67.9 44.42c0.14,-0.49 0.21,-0.88 0.22,-1.38 -0.02,-0.71 -0.14,-1.23 -0.45,-1.87 -0.34,-0.67 -0.72,-1.12 -1.29,-1.62 -0.68,-0.56 -1.29,-0.89 -2.1,-1.22 -1.45,-0.55 -2.78,-0.92 -4.12,-1.74 -0.77,-0.51 -1.27,-0.97 -1.79,-1.73 -0.58,-0.88 -0.85,-1.64 -1.09,-2.66 -0.19,-0.91 -0.2,-1.61 0,-2.51 0.21,-0.82 0.48,-1.4 0.96,-2.1 0.4,-0.56 0.78,-0.97 1.3,-1.43 0.55,-0.43 1.9,-1.24 2.49,-0.43 0.31,0.57 -0.65,1.66 -0.99,2.03 -0.32,0.37 -0.57,0.69 -0.81,1.11 -0.25,0.45 -0.4,0.82 -0.48,1.33 -0.07,0.5 -0.04,0.88 0.09,1.37 0.18,0.65 0.38,1.17 0.78,1.72 0.31,0.41 0.59,0.65 1.03,0.91 1.07,0.6 2.5,0.99 3.67,1.41 1.15,0.44 2,0.91 2.97,1.69 0.9,0.78 1.49,1.49 2.05,2.54 0.54,1.09 0.76,1.99 0.79,3.2 0,0.83 -0.1,1.48 -0.32,2.27 -0.13,0.43 -0.28,0.81 -0.46,1.22 -0.77,1.59 -1.58,2.65 -3.07,3.62 -1.35,0.79 -2.48,1.08 -4.03,1.18 -2.86,0.07 -5.11,-0.56 -7.81,-1.34 -0.85,-0.23 -1.54,-0.33 -2.4,-0.21 -0.73,0.13 -1.21,0.36 -1.82,0.77 -0.52,0.37 -0.93,0.75 -1.38,1.21 -1.08,1.14 -1.69,2.2 -3.22,2.09 -1.3,-0.18 1.46,-3.89 1.65,-4.14 0.42,-0.49 0.81,-0.89 1.3,-1.31 0.94,-0.75 1.73,-1.16 2.9,-1.44 1.36,-0.28 2.41,-0.19 3.75,0.13 2.3,0.58 4.48,1.2 6.88,1.13 0.98,-0.07 1.71,-0.23 2.57,-0.72 0.93,-0.61 1.42,-1.29 1.92,-2.28 0.12,-0.27 0.22,-0.52 0.31,-0.8z"/>
   </g>
   <path class="fil3" d="M46.62 53.94c2.43,-3.48 4.49,-6.71 9.22,-5.44 4.66,1.28 10.51,2.97 13.16,-2.61 1.86,-3.91 -0.26,-7.54 -4.16,-9.02 -3.01,-1.15 -5.26,-1.39 -6.16,-5.02 -0.64,-2.62 1.28,-4.81 3.37,-6.08"/>
   <path class="fil4" d="M48.36 41.02c0.51,-1.02 1.22,-2.99 0.66,-4.69 -0.73,-2.23 -2.19,-2.48 -3.58,-3.31 0.01,-0.7 0.31,-1.42 0.41,-2.27 1.49,-12.23 -16.04,-23.09 -27.16,-16.34 -5.21,3.16 -9.27,8.6 -7.2,15.09 0.72,2.28 0.76,5.06 0.7,7.39 -0.13,5.32 -3.9,6.15 -5.66,12.98 -2.79,11.4 3.65,24.79 13.17,33.1 10,8.72 28,10.91 34.35,-5.33 1.46,-3.75 0.34,0.9 4.11,0.87 3.88,-0.03 5.31,-6.27 5.1,-9.25 -0.51,-6.93 -5.23,-5.31 -8.87,-10.43 -1.24,-1.74 -5.47,-8 -6.85,-8.78 -0.63,-0.35 -2.47,-1.19 -3.24,-1.31 -0.72,-0.1 -0.97,0.02 -1.71,-0.27 2.03,-6.56 3.85,-4.05 5.54,-7.04l0.23 -0.41z"/>
   <g>
    <g>
     <path class="fil5" d="M19.58 79.84c0.5,0.43 1.01,0.84 1.53,1.24 3.54,2.65 6.65,4.36 10.94,5.46 2.28,0.52 3.98,0.69 6.31,0.42 2.52,-0.38 4.42,-1.12 6.72,-2.2 2.09,-1.02 3.77,-2.02 5.39,-3.7 0.67,-0.74 1.13,-1.38 1.56,-2.28 0.4,-0.9 0.58,-1.62 0.65,-2.61 0.02,-0.42 0.03,-0.82 0.02,-1.25 -0.02,-0.4 -0.34,-3.5 -0.06,-3.67 0.63,0.18 1.03,3.17 1.07,3.69 0.03,0.43 0.03,0.84 0.02,1.28 -0.05,1.13 -0.24,1.97 -0.68,3.02 -0.46,1.03 -0.96,1.77 -1.7,2.61 -1.72,1.85 -3.48,2.95 -5.72,4.06 -2.42,1.16 -4.42,1.95 -7.09,2.36 -2.51,0.32 -4.34,0.14 -6.8,-0.41 -4.51,-1.14 -7.77,-2.91 -11.48,-5.67 -0.55,-0.41 -1.07,-0.84 -1.6,-1.28 -3.17,-2.75 -5.44,-5.31 -7.8,-8.77 -2.67,-4.11 -4.32,-7.65 -5.43,-12.44 -0.91,-4.63 -0.91,-8.26 0.54,-12.78 0.67,-1.92 1.05,-2.63 2.23,-4.26 0.26,-0.36 0.52,-0.72 0.78,-1.07 0.62,-0.84 1.25,-1.55 1.94,-2.31 0.46,-0.54 0.99,-1.16 1.44,-1.71 0.57,-0.67 -0.29,1.59 -0.72,2.25 -0.56,0.82 -1.18,1.59 -1.74,2.41 -0.42,0.61 -0.84,1.21 -1.24,1.83 -0.75,1.17 -1.05,1.94 -1.49,3.26 -1.29,4.29 -1.24,7.72 -0.36,12.08 1.09,4.59 2.69,8 5.25,11.94 2.28,3.35 4.47,5.84 7.52,8.5z"/>
     <path class="fil5" d="M50.29 54.22c-0.64,-0.67 -1.23,-1.15 -2.01,-1.64 -1.03,-0.6 -1.86,-0.92 -3.03,-1.11 -0.26,-0.04 -0.53,-0.26 -0.54,-0.54 -0.01,-0.3 0.32,-0.46 0.58,-0.48 1.4,-0.04 2.46,0.31 3.67,0.98 0.92,0.53 1.61,1.08 2.36,1.82 0.3,0.31 0.56,0.61 0.82,0.94 1.07,1.45 1.71,2.93 2.25,4.64 0.16,0.58 0.23,0.81 -0.22,1.18 -0.36,0.31 -0.83,-0.69 -0.93,-0.88 -0.69,-1.42 -1.33,-2.8 -2.26,-4.09 -0.22,-0.29 -0.44,-0.55 -0.69,-0.82z"/>
     <path class="fil5" d="M36.64 52.85c-0.45,0.41 -0.89,0.83 -1.33,1.26 -0.09,0.09 -0.18,0.14 -0.3,0.18 -0.13,0.04 -0.23,0.05 -0.36,0.03 -0.12,-0.02 -0.22,-0.05 -0.33,-0.12 -0.11,-0.08 -0.17,-0.15 -0.24,-0.26 -0.62,-0.98 -1.94,-1.82 -2.93,-2.4 -1.07,-0.61 -2.1,-1.1 -3.27,-1.49 -0.27,-0.09 -0.63,-0.32 -0.58,-0.65 0.04,-0.35 0.56,-0.38 0.82,-0.34 1.32,0.25 2.47,0.74 3.66,1.36 1.31,0.71 2.66,1.56 3.49,2.83 -0.05,-0.08 -0.1,-0.14 -0.18,-0.19 -0.08,-0.06 -0.15,-0.08 -0.24,-0.1 -0.1,-0.01 -0.17,-0.01 -0.27,0.02 -0.09,0.03 -0.15,0.07 -0.22,0.14 -0.01,0 0.98,-0.97 1.32,-1.3 1.36,-1.29 2.61,-2.37 4.25,-3.3 1.13,-0.6 2.11,-0.98 3.41,-0.98 0.64,0.03 1.11,0.14 1.68,0.42 0.02,0 0.12,0.06 0.14,0.07 0.58,0.37 1.12,0.74 0.88,1.45 -0.14,0.34 -1.16,-0.32 -1.5,-0.45 0,0 -0.04,-0.02 -0.05,-0.02 -0.41,-0.14 -0.72,-0.18 -1.15,-0.16 -1.02,0.07 -1.83,0.43 -2.72,0.92 -1.5,0.88 -2.7,1.91 -3.98,3.08z"/>
     <path class="fil5" d="M32.13 45.21c0.03,-0.02 0.05,-0.04 0.07,-0.07 0.11,-0.16 0.15,-0.34 0.17,-0.53 0.07,-0.55 0.15,-1.08 0.44,-1.57 0.14,-0.23 0.28,-0.37 0.51,-0.51 0.21,-0.12 0.38,-0.17 0.62,-0.19 0.57,-0.03 1.18,0.12 1.78,0.14 0.26,0.01 0.59,0.18 0.64,0.45 0.06,0.3 -0.3,0.52 -0.55,0.56 -0.62,0.1 -1.25,0.04 -1.73,0.13 -0.02,0.01 -0.08,0.02 -0.09,0.04 0,0 -0.04,0.06 -0.04,0.06 -0.13,0.3 -0.18,0.74 -0.21,1.06 -0.06,0.45 -0.16,0.79 -0.41,1.18 -0.02,0.05 -0.21,0.25 -0.25,0.3 -0.17,0.15 -0.31,0.24 -0.51,0.34 -0.52,0.21 -1.37,0.19 -0.75,0.15 -0.13,0.04 -0.27,0.08 -0.39,0.16 -0.06,0.04 -0.09,0.06 -0.13,0.12 -0.08,0.07 -0.27,0.59 -0.35,0.72 -0.06,0.12 -0.13,0.19 -0.24,0.28 -0.11,0.07 -0.21,0.11 -0.34,0.14 -0.77,0.09 -1.38,0.05 -2.14,-0.12 -0.53,-0.15 -0.64,-0.24 -0.67,-0.75 -0.02,-0.42 0.66,-0.4 0.93,-0.4 0.59,0.01 1.08,-0.01 1.66,-0.12 -0.1,0.02 -0.18,0.05 -0.27,0.11 -0.09,0.06 -0.14,0.13 -0.19,0.22 0.16,-0.35 0.23,-0.6 0.45,-0.93 0.16,-0.22 0.31,-0.36 0.53,-0.5 0.26,-0.16 0.49,-0.24 0.79,-0.32 0.13,-0.01 0.39,-0.01 0.55,-0.07 0.04,-0.02 0.09,-0.04 0.12,-0.08z"/>
     <path class="fil5" d="M27.08 12.6c-1.35,-0.31 -2.49,-0.47 -3.88,-0.46 -2.24,0.06 -3.86,0.48 -5.79,1.63 -1.92,1.24 -3.21,2.37 -4.51,4.25 -1.08,1.68 -1.6,3.07 -2.06,4.99 -0.54,2.82 -0.01,4.57 0.89,7.2 0.49,1.41 0.92,2.65 1.18,4.13 0.05,0.45 0.16,3.08 -0.53,3.13 -0.14,-0.11 -0.41,-2.63 -0.48,-3 -0.29,-1.38 -0.76,-2.56 -1.25,-3.87 -1.06,-2.87 -1.63,-4.76 -1.06,-7.87 0.48,-2.1 1.04,-3.61 2.2,-5.44 1.4,-2.07 2.81,-3.31 4.89,-4.67 2.17,-1.31 3.98,-1.79 6.5,-1.87 1.52,-0.01 2.76,0.15 4.23,0.49 0.85,0.2 1.63,0.44 2.45,0.74 4.03,1.57 7.43,3.72 10.25,7.03 1.72,2.2 2.71,4.11 3.18,6.88 0.32,2.48 0.06,4.34 -0.84,6.66 -1.12,2.59 -1.63,3.1 -3.53,4.96 -0.08,0.07 -0.15,0.15 -0.22,0.23 -0.35,0.42 -0.53,0.73 -0.69,1.25 -0.35,1.21 -0.32,2.07 -0.74,3.29 -0.38,1 -0.4,-2.98 -0.3,-3.57 0.22,-0.86 0.51,-1.35 1.1,-2.01 0.01,-0.02 0.14,-0.16 0.17,-0.18 1.6,-1.65 2.06,-2.24 2.99,-4.46 0.77,-2.09 0.98,-3.75 0.67,-5.96 -0.45,-2.49 -1.35,-4.2 -2.91,-6.19 -2.64,-3.08 -5.87,-5.12 -9.62,-6.6 -0.77,-0.28 -1.5,-0.51 -2.29,-0.71z"/>
    </g>
   </g>
   <path class="fil3" d="M12.36 37.47c-0.27,1.45 -1.62,2.63 -2.9,4.45 -1.63,2.31 -2.05,2.77 -2.87,5.21 -5.29,15.8 9.84,36.46 25.29,40.12 4.7,1.11 8.32,0.63 13.5,-1.86 4.53,-2.18 7.71,-5.14 7.88,-9.19 0.08,-1.68 -0.17,-3.33 -0.6,-4.96m1.54 -11.22c-0.77,-2.06 -1.63,-4.05 -2.63,-5.41 -1.44,-1.95 -4.06,-3.88 -6.86,-3.7m1.37 -1.42c-3.28,-3.65 -8.52,1.44 -11.33,4.15 -0.9,-1.7 -5.14,-4.02 -7.45,-4.26m0.25 -2.06c0.9,0.19 1.85,0.28 2.74,0.13 0.34,-0.66 0.32,-1.13 1.35,-1.39 0,0 1.26,0.19 1.45,-1.36 0.32,-2.57 1.06,-1.28 3.28,-1.75m0.94 -0.55c-0.49,-6.7 2.1,-4.1 4.51,-10.1 1.59,-3.98 1.2,-8.55 -2.28,-12.84 -4.07,-5.02 -14.88,-11.1 -22.52,-6.3 -4.27,2.68 -6.03,6 -6.86,9.7 -1.28,5.74 3.14,9.57 2.2,14.61"/>
   <g>
    <path class="fil5" d="M29.54 54.53c0.46,0.22 0.85,0.38 1.35,0.48 0.38,0.06 0.67,0.08 1.04,0.02 0.37,-0.06 0.63,-0.17 0.95,-0.36 0.48,-0.32 0.98,-0.61 1.47,-0.92 0.22,-0.14 0.59,-0.16 0.77,0.05 0.19,0.22 0.04,0.57 -0.14,0.75 -0.44,0.43 -0.88,0.77 -1.38,1.15 -0.46,0.34 -0.86,0.52 -1.43,0.65 -0.55,0.1 -0.98,0.09 -1.53,0 -0.64,-0.11 -1.14,-0.29 -1.73,-0.56 -0.43,-0.2 -0.81,-0.41 -1.21,-0.67 -1.48,-0.98 -2.73,-2.11 -3.83,-3.5 -0.31,-0.44 -0.32,-0.55 -0.05,-0.96 0.25,-0.37 0.75,0.04 0.97,0.23 1.26,1.09 2.3,2.08 3.7,3.03 0.35,0.23 0.68,0.43 1.05,0.61z"/>
   </g>
   <path class="fil3" d="M23.8 50.67c1.9,2.02 6.39,6.74 9.48,4.56 0.72,-0.51 1.19,-0.81 1.86,-1.41"/>
   <g>
    <path class="fil5" d="M26.69 64.27c1.95,1.03 3.92,1.95 6.13,2.21 0.8,0.07 1.45,0.04 2.2,-0.28 0.33,-0.15 0.56,-0.31 0.83,-0.57 0.04,-0.02 0.19,-0.19 0.23,-0.24 0.16,-0.18 0.63,-0.67 0.92,-0.53 0.35,0.22 0.04,0.89 -0.11,1.15 -0.08,0.12 -0.16,0.22 -0.26,0.34 -0.33,0.39 -0.64,0.64 -1.08,0.89 -0.95,0.49 -1.78,0.59 -2.83,0.54 -2.44,-0.21 -4.55,-1.17 -6.7,-2.28 0,0 -0.02,-0.01 -0.02,-0.01 -3.34,-1.82 -6.96,-4.25 -9.7,-6.91 -0.42,-0.44 -0.55,-0.58 -0.27,-1.08 0.23,-0.44 0.93,0.12 1.15,0.29 3.23,2.41 5.93,4.46 9.49,6.47 0.01,0 0.02,0 0.02,0.01z"/>
   </g>
   <path class="fil3" d="M16 57.51c2.71,2.48 17.82,14.76 21.02,7.35"/>
   <g>
    <path class="fil5" d="M37.21 60.52c0.06,-0.2 0.14,-0.41 0.19,-0.6 0.85,-2.55 1.77,-5.04 3.37,-7.21 0.67,-0.87 1.31,-1.52 2.31,-1.99 0.47,-0.21 0.85,-0.3 1.36,-0.31 0.02,0 0.13,0 0.16,0 0.32,0.04 1.2,0.26 1.06,0.75 -0.1,0.23 -0.86,0.25 -1.07,0.27 -0.02,0 -0.09,0.01 -0.1,0.01 -0.35,0.04 -0.6,0.13 -0.92,0.29 -0.76,0.44 -1.26,1.03 -1.78,1.73 -1.42,2.12 -2.28,4.47 -3.05,6.89 -0.07,0.2 -0.13,0.39 -0.19,0.59 -1.23,4.22 -1.98,8.35 -3.12,12.5 -0.19,0.61 -0.24,0.88 -0.84,0.91 -0.52,0.04 -0.3,-1.1 -0.27,-1.33 0.67,-4.23 1.65,-8.41 2.89,-12.5z"/>
   </g>
   <path class="fil3" d="M34.61 74.37c1.09,-4.55 4.52,-25.66 11.05,-23.19"/>
   <g>
    <path class="fil5" d="M40.7 45.06c0.36,-0.93 0.81,-2.09 1.52,-2.81 0.15,-0.15 0.46,-0.03 0.6,0.07 0.13,0.09 0.32,0.3 0.26,0.47 -0.34,0.94 -0.76,1.82 -1.07,2.78 -0.3,0.93 -0.64,2.04 -1.18,2.86 -0.21,0.34 -0.43,0.26 -0.75,0.17 -0.33,-0.08 -0.37,-0.37 -0.31,-0.67 0.21,-0.95 0.57,-1.97 0.93,-2.87z"/>
   </g>
   <path class="fil3" d="M40.1 48.62c0.88,-2.02 1.51,-4.45 2.74,-6.29"/>
   <g>
    <path class="fil5" d="M45.52 38.88c0.03,-0.39 0.04,-0.77 0.05,-1.15 0.05,-0.89 0.24,-1.59 0.79,-2.29 0.13,-0.17 0.28,-0.34 0.44,-0.48 0.01,-0.01 0.02,-0.02 0.04,-0.03 0.03,-0.03 0.06,-0.02 0.09,0 0.2,0.09 0.24,0.05 0.44,-0.01 0.23,-0.06 0.34,0.06 0.37,0.27 0.03,0.06 -0.01,0.2 -0.03,0.26 -0.01,0.01 -0.03,0.06 -0.04,0.07 -0.09,0.2 -0.2,0.39 -0.3,0.58 -0.29,0.61 -0.41,0.98 -0.43,1.67 0,0.41 0,0.81 -0.02,1.22 -0.02,0.64 -0.08,1.14 -0.39,1.72 -0.28,0.47 -0.58,0.74 -1.07,0.99 -0.34,0.16 -0.64,0.24 -1.01,0.3 -0.5,0.06 -0.6,-0.03 -0.79,-0.44 -0.18,-0.34 0.28,-0.59 0.53,-0.71 0.22,-0.1 0.42,-0.21 0.61,-0.34 0.22,-0.15 0.36,-0.27 0.48,-0.51 0.17,-0.35 0.21,-0.74 0.24,-1.12z"/>
   </g>
   <path class="fil3" d="M43.65 41.59c2.54,-0.56 2.57,-1.45 2.65,-3.84 0.05,-1.82 1.23,-2.43 1.1,-2.84"/>
   <g>
    <path class="fil5" d="M45.33 33.61c0.33,-0.22 0.74,-0.44 1.15,-0.45 0.1,0 0.21,0.24 0.23,0.32 0.03,0.07 0.08,0.28 0.01,0.34 -0.27,0.23 -0.59,0.38 -0.86,0.61 -0.27,0.22 -0.55,0.47 -0.87,0.62 -0.17,0.08 -0.31,-0.08 -0.43,-0.18 -0.14,-0.12 -0.2,-0.26 -0.1,-0.43 0.21,-0.34 0.54,-0.62 0.87,-0.83z"/>
   </g>
   <path class="fil3" d="M44.57 34.88c0.7,-0.68 1.26,-1.07 2.15,-1.39"/>
   <g>
    <path class="fil5" d="M43.7 32.57c0.41,-0.28 0.86,-0.56 1.35,-0.67 0.13,-0.03 0.27,0.17 0.32,0.26 0.04,0.09 0.1,0.28 0.01,0.36 -0.36,0.32 -0.77,0.55 -1.13,0.85 -0.36,0.3 -0.71,0.6 -1.12,0.81 -0.2,0.11 -0.32,-0.02 -0.47,-0.15 -0.17,-0.14 -0.15,-0.31 -0.03,-0.48 0.29,-0.39 0.67,-0.71 1.07,-0.98z"/>
   </g>
   <path class="fil3" d="M42.67 34.04c1,-0.89 1.51,-1.24 2.7,-1.87"/>
   <g>
    <path class="fil5" d="M53.88 73.72c-0.03,-0.07 -0.07,-0.16 -0.11,-0.23 -0.6,-1.12 -1.29,-2.15 -1.81,-3.3 -0.61,-1.46 -0.69,-2.5 -0.42,-4.06 0.04,-0.25 0.06,-0.47 -0.02,-0.71 -0.07,-0.19 -0.18,-0.32 -0.3,-0.48 -0.23,-0.31 -0.36,-0.51 -0.47,-0.89 -0.12,-0.51 -0.06,-0.9 0.11,-1.39 0.13,-0.36 0.27,-0.62 0.5,-0.91 0.22,-0.26 0.42,-0.42 0.73,-0.57 0.28,-0.12 0.51,-0.17 0.82,-0.16 0.3,0.02 0.52,0.08 0.78,0.21 0.26,0.13 0.43,0.27 0.63,0.48 0.19,0.23 0.31,0.43 0.42,0.7 0.01,0.02 0.03,0.11 0.04,0.14 0.08,0.25 0.1,0.45 0.07,0.72 0.01,0.2 -0.29,0.89 -0.58,0.78 -0.17,-0.09 -0.24,-0.57 -0.29,-0.75 0,-0.08 -0.11,-0.36 -0.14,-0.44 -0.01,-0.02 -0.03,-0.05 -0.03,-0.06 -0.07,-0.15 -0.15,-0.25 -0.26,-0.37 -0.1,-0.1 -0.2,-0.16 -0.33,-0.22 -0.11,-0.05 -0.21,-0.07 -0.33,-0.07 -0.12,0.01 -0.2,0.03 -0.31,0.08 -0.12,0.07 -0.21,0.15 -0.3,0.27 -0.13,0.18 -0.2,0.35 -0.27,0.56 -0.07,0.22 -0.13,0.45 -0.06,0.67 0.06,0.17 0.17,0.31 0.27,0.44 0.23,0.29 0.37,0.48 0.51,0.82 0.17,0.49 0.17,0.88 0.09,1.39 -0.21,1.28 -0.14,2.09 0.37,3.29 0.51,1.09 1.21,2.12 1.79,3.19 0.05,0.1 0.1,0.19 0.15,0.29 0.44,0.93 0.76,1.84 1.32,2.72 0.22,0.32 0.47,0.64 0.83,0.81 0.13,0.05 0.23,0.07 0.37,0.05 0.2,-0.02 0.37,-0.09 0.55,-0.19 0.67,-0.42 1.01,-0.92 1.34,-1.63 0.37,-0.88 0.53,-1.69 0.64,-2.64 0.12,-1.21 0.13,-2.33 0.1,-3.54 -0.02,-0.76 -0.19,-1.61 0.41,-2.07 0.5,-0.41 0.75,2.25 0.75,2.32 0.1,1.18 0.13,2.23 0.05,3.41 -0.1,1.12 -0.26,2.03 -0.68,3.07 -0.45,1.03 -0.95,1.71 -1.91,2.3 -0.38,0.21 -0.69,0.33 -1.12,0.38 -0.4,0.03 -0.7,-0.01 -1.07,-0.17 -0.66,-0.31 -1.04,-0.74 -1.44,-1.34 -0.61,-0.97 -0.92,-1.87 -1.39,-2.9z"/>
   </g>
   <path class="fil3" d="M60.67 66.62c0.33,2.88 0.87,8.82 -2.12,10.52 -2.41,1.39 -3.36,-2.47 -4.15,-3.98 -1.3,-2.48 -2.74,-3.89 -2.17,-6.9 0.35,-1.88 -1.34,-1.64 -0.74,-3.39 0.81,-2.36 3.44,-0.96 2.76,1.17"/>
   <g>
    <path class="fil5" d="M56.2 61.83c0.17,0.27 0.28,0.5 0.32,0.81 0.02,0.17 0.01,0.31 -0.05,0.48 -0.01,0.07 -0.13,0.22 -0.18,0.27 -0.11,0.1 -0.31,-0.05 -0.39,-0.12 -0.04,-0.03 -0.21,-0.22 -0.22,-0.26 0,-0.03 -0.01,-0.06 -0.02,-0.09 0,0 -0.05,-0.13 -0.05,-0.13 -0.08,-0.17 -0.12,-0.27 -0.25,-0.42 0,0 0,0 0,0 -0.18,-0.24 -0.54,-0.55 -0.65,-0.82 -0.05,-0.11 0.12,-0.32 0.19,-0.41 0.08,-0.12 0.2,-0.27 0.36,-0.21 0.4,0.17 0.7,0.55 0.94,0.9 0,0 0,0 0,0z"/>
   </g>
   <path class="fil3" d="M54.88 61.15c0.47,0.35 1.56,1.5 1.01,2.11"/>
   <g>
    <path class="fil5" d="M58.69 62.69c0.09,0.32 0.12,0.58 0.05,0.92 -0.05,0.18 -0.11,0.31 -0.22,0.45 -0.04,0.07 -0.21,0.2 -0.29,0.24 -0.11,0.06 -0.29,-0.13 -0.35,-0.21 -0.04,-0.05 -0.16,-0.25 -0.13,-0.32 0.02,-0.05 0.03,-0.1 0.04,-0.16 0.02,-0.03 0.03,-0.15 0.03,-0.19 0.02,-0.13 -0.04,-0.35 -0.09,-0.47 0,0 0,0 0,-0.01 -0.15,-0.33 -0.36,-0.67 -0.47,-1.01 -0.04,-0.16 0.16,-0.3 0.26,-0.4 0.12,-0.11 0.28,-0.19 0.43,-0.07 0.37,0.32 0.6,0.75 0.74,1.21 0,0.01 0,0.01 0,0.02z"/>
   </g>
   <path class="fil3" d="M57.51 61.54c0.5,0.64 1.2,1.91 0.36,2.54"/>
   <g>
    <path class="fil5" d="M60.23 63.72c-0.07,0.38 -0.27,0.77 -0.6,0.98 -0.08,0.06 -0.31,-0.08 -0.38,-0.13 -0.06,-0.05 -0.23,-0.2 -0.2,-0.29 0.05,-0.19 0.22,-0.55 0.2,-0.72 0,-0.01 -0.01,-0.02 -0.01,-0.02 0.01,-0.03 -0.04,-0.23 -0.04,-0.27 -0.03,-0.13 -0.04,-0.24 -0.04,-0.37 0,-0.16 0.23,-0.26 0.34,-0.32 0.14,-0.08 0.31,-0.12 0.43,0.02 0.14,0.15 0.17,0.26 0.25,0.44 0.07,0.23 0.08,0.4 0.05,0.64 0,0.01 0,0.03 0,0.04z"/>
   </g>
   <path class="fil3" d="M59.49 62.58c0.4,0.87 0.31,1.22 -0.25,1.98"/>
   <g>
    <path class="fil5" d="M60.79 64.7c-0.03,-0.12 -0.05,-0.17 -0.11,-0.28 -0.01,-0.02 -0.01,-0.03 -0.01,-0.06 0,-0.03 -0.02,-0.05 -0.03,-0.07 -0.03,-0.04 -0.07,-0.33 -0.07,-0.39 -0.01,-0.09 0,-0.31 0.11,-0.33 0.12,-0.02 0.21,-0.02 0.33,0.01 0.16,0.05 0.27,0.12 0.39,0.24 0.19,0.2 0.28,0.4 0.36,0.66 0.01,0.01 0.02,0.07 0.03,0.08 0.07,0.26 0.09,0.5 0.04,0.77 0,0.11 -0.1,0.34 -0.16,0.43 -0.12,0.17 -0.34,0.04 -0.47,-0.03 -0.07,-0.04 -0.3,-0.16 -0.32,-0.24 -0.02,-0.08 -0.02,-0.17 -0.02,-0.25 -0.02,-0.17 -0.03,-0.33 -0.06,-0.5 0,-0.01 -0.01,-0.03 -0.01,-0.04z"/>
   </g>
   <path class="fil3" d="M61.21 65.74c0.23,-0.38 0.24,-1.92 -0.64,-1.85"/>
   <g>
    <path class="fil5" d="M50.54 67.84c0.64,0.55 1.15,0.83 1.8,1.29 0.03,0.02 0.04,0.04 0.05,0.07 0.03,0.04 -0.07,0.1 -0.07,0.11 -0.04,0.03 -0.07,0.06 -0.09,0.11 -0.05,0.11 0.05,0.18 0.13,0.23 0.08,0.06 0.12,0.12 0.07,0.22 -0.03,0.05 -0.06,0.08 -0.11,0.11 -0.03,0.02 -0.17,0.07 -0.18,0.07 -0.03,0.02 -0.06,0.03 -0.1,0.02 -0.88,-0.07 -1.74,-0.67 -2.41,-1.19 -0.02,-0.02 -0.11,-0.09 -0.12,-0.1 -0.64,-0.53 -1.21,-1.11 -1.59,-1.85 -0.15,-0.29 0.06,-0.46 0.25,-0.65 0.2,-0.22 0.43,-0.23 0.66,-0.04 0.57,0.45 1.08,1.02 1.61,1.51 0.03,0.03 0.07,0.07 0.1,0.09z"/>
   </g>
   <path class="fil3" d="M48.15 66.29c1.04,1.27 2.43,2.9 4.1,3.39 0.04,0.01 0.1,0.03 0.12,-0.02"/>
   <g>
    <path class="fil5" d="M15.75 29.82c-0.13,0.56 -0.15,1.01 -0.08,1.59 0.12,0.75 0.33,1.32 0.75,1.96 0.42,0.59 0.82,0.98 1.46,1.31 0.47,0.21 0.85,0.3 1.36,0.32 0.26,0 0.74,0.1 0.81,0.4 0.06,0.38 -0.46,0.56 -0.74,0.61 -0.7,0.08 -1.24,0.02 -1.9,-0.22 -0.91,-0.38 -1.49,-0.88 -2.08,-1.66 -0.57,-0.82 -0.85,-1.55 -1.02,-2.54 -0.11,-0.77 -0.09,-1.37 0.08,-2.12 0.06,-0.24 0.12,-0.45 0.21,-0.68 0.36,-0.87 0.79,-1.47 1.48,-2.11 0.68,-0.59 1.3,-0.94 2.2,-1.1 0.45,-0.06 0.79,-0.05 1.23,0.06 0.46,0.13 0.78,0.31 1.14,0.61 0.39,0.36 0.63,0.69 0.86,1.16 0.03,0.04 0.1,0.23 0.12,0.29 0.22,0.61 0.37,1.05 -0.15,1.47 -0.33,0.24 -0.82,-0.86 -0.97,-1.1 -0.01,-0.02 -0.04,-0.06 -0.05,-0.08 -0.19,-0.29 -0.37,-0.51 -0.64,-0.72 -0.21,-0.15 -0.39,-0.24 -0.64,-0.29 -0.24,-0.05 -0.43,-0.05 -0.68,0 -0.59,0.12 -1.02,0.39 -1.47,0.78 -0.51,0.48 -0.84,0.93 -1.12,1.57 -0.03,0.05 -0.14,0.4 -0.16,0.49z"/>
   </g>
   <path class="fil3" d="M21.51 29.19c-1.12,-4.74 -5.11,-2.94 -6.27,-0.14 -1.29,3.12 1.26,7.38 4.82,6.37"/>
   <g>
    <path class="fil5" d="M32.53 37.9c0.28,0.19 0.52,0.3 0.85,0.39 0.35,0.09 0.68,0.13 1.04,0.18 0.16,0.02 0.27,0.29 0.29,0.42 0.03,0.16 -0.01,0.39 -0.18,0.44 -0.5,0.15 -0.91,0.16 -1.42,0.07 -0.49,-0.1 -0.84,-0.25 -1.26,-0.5 -0.06,-0.03 -0.11,-0.06 -0.16,-0.1 -0.74,-0.53 -1.23,-1.15 -1.49,-2.03 -0.09,-0.33 0.1,-0.41 0.34,-0.55 0.24,-0.15 0.44,-0.04 0.59,0.17 0.42,0.56 0.73,1 1.29,1.44 0,0 0.09,0.06 0.11,0.07z"/>
   </g>
   <path class="fil3" d="M30.52 36.22c0.65,1.62 2.02,3.1 4.2,2.69"/>
   <g>
    <path class="fil5" d="M23.32 46.4c0.64,0.33 1.27,0.6 1.95,0.86 0.58,0.21 1.07,0.35 1.66,0.49 0.09,0 0.16,0.01 0.24,0.02 0.06,0.01 0.14,0.04 0.16,0.1 0.02,0.02 -0.04,0.1 -0.04,0.11 -0.05,0.15 0.07,0.21 0.16,0.31 0.09,0.11 0.09,0.22 -0.02,0.33 -0.06,0.06 -0.12,0.08 -0.2,0.11 -0.03,0.02 -0.11,0.05 -0.15,0.05 -0.02,0 -0.08,0.01 -0.1,0.02 -0.73,0.11 -1.46,-0.08 -2.15,-0.29 -0.76,-0.24 -1.44,-0.53 -2.16,-0.86 -0.13,-0.07 -0.26,-0.13 -0.39,-0.19 -0.85,-0.44 -1.59,-0.88 -2.32,-1.5 -0.41,-0.36 -0.75,-0.69 -1.04,-1.16 -0.24,-0.44 -0.17,-0.57 0.2,-0.83 0.28,-0.21 0.54,-0.04 0.76,0.16 0.3,0.27 0.61,0.51 0.94,0.75 0.7,0.49 1.39,0.91 2.14,1.33 0.12,0.06 0.24,0.12 0.36,0.19z"/>
   </g>
   <path class="fil3" d="M19.09 43.97c0.84,1.76 5.93,4.45 7.87,4.36 0.29,-0.01 0.38,0.08 0.5,-0.03"/>
  </g>
 </g>
</svg>
