<?xml version="1.0" encoding="UTF-8"?>
<!DOCTYPE svg PUBLIC "-//W3C//DTD SVG 1.1//EN" "http://www.w3.org/Graphics/SVG/1.1/DTD/svg11.dtd">
<!-- Creator: CorelDRAW -->
<svg xmlns="http://www.w3.org/2000/svg" xml:space="preserve" width="1317px" height="839px" version="1.1" style="shape-rendering:geometricPrecision; text-rendering:geometricPrecision; image-rendering:optimizeQuality; fill-rule:evenodd; clip-rule:evenodd"
viewBox="0 0 100.63 64.09"
 xmlns:xlink="http://www.w3.org/1999/xlink"
 xmlns:xodm="http://www.corel.com/coreldraw/odm/2003">
 <defs>
  <style type="text/css">
   <![CDATA[
    .fil4 {fill:none}
    .fil2 {fill:none;fill-rule:nonzero}
    .fil3 {fill:#F78384}
    .fil1 {fill:#262749;fill-rule:nonzero}
    .fil0 {fill:#E51A4B;fill-rule:nonzero}
   ]]>
  </style>
 </defs>
 <g id="Camada_x0020_1">
  <metadata id="CorelCorpID_0Corel-Layer"/>
  <g id="_1802760587120">
   <path class="fil0" d="M61.65 12.15c-8.1,-5.97 -15.1,-4.68 -21.55,0 1.22,-16.25 22.09,-13.52 21.55,0z"/>
   <g>
    <path class="fil1" d="M41.1 5.31c0.68,-1.09 1.33,-1.86 2.31,-2.7 1.24,-1.02 2.32,-1.61 3.85,-2.1 1.5,-0.44 2.7,-0.57 4.25,-0.49 3.11,0.29 5.41,1.27 7.67,3.44 1.12,1.17 1.8,2.21 2.39,3.72 0.32,0.88 0.5,1.62 0.62,2.56 0.07,0.72 0.07,1.57 -0.29,2.22 -0.02,0.09 -0.04,0.14 -0.1,0.21 -0.05,0.05 -0.1,0.08 -0.17,0.09 -0.07,0.01 -0.12,0.01 -0.18,-0.02 -0.07,-0.04 -0.11,-0.11 -0.06,-0.18 0.03,-0.03 0.07,-0.05 0.08,-0.09 0.01,-0.02 -0.01,-0.04 -0.02,-0.05 -0.01,-0.02 -0.03,-0.01 -0.05,-0.01 -0.01,0 -0.04,0.04 -0.04,0.04 -0.25,-0.55 -0.4,-1.44 -0.51,-2.05 -0.16,-0.78 -0.36,-1.42 -0.67,-2.16 -0.57,-1.26 -1.17,-2.13 -2.16,-3.1 -1.99,-1.8 -3.96,-2.61 -6.62,-2.83 -1.32,-0.05 -2.34,0.06 -3.6,0.44 -1.27,0.42 -2.17,0.91 -3.2,1.77 -0.8,0.71 -1.34,1.36 -1.9,2.27 -0.19,0.31 -0.34,0.6 -0.5,0.92 -0.74,1.64 -1.04,3.02 -1.21,4.8 0.01,-0.17 -0.01,-0.31 -0.09,-0.47 -0.08,-0.15 -0.18,-0.24 -0.32,-0.34 -0.16,-0.08 -0.29,-0.12 -0.48,-0.11 -0.17,0.01 -0.31,0.05 -0.45,0.15 3.41,-2.38 6.31,-3.77 10.52,-4.03 2.13,-0.05 3.73,0.23 5.74,0.92 0.85,0.31 1.59,0.65 2.39,1.07 1.12,0.63 2.75,1.43 3.03,2.82 0.08,0.66 -4,-1.56 -4.19,-1.64 -0.58,-0.25 -1.15,-0.46 -1.76,-0.66 -1.81,-0.54 -3.24,-0.74 -5.13,-0.66 -3.79,0.3 -6.4,1.6 -9.49,3.75 -0.18,0.12 -0.34,0.18 -0.57,0.2 -0.22,0 -0.39,-0.04 -0.59,-0.15 -0.18,-0.12 -0.3,-0.24 -0.4,-0.43 -0.1,-0.2 -0.14,-0.37 -0.12,-0.59 0.2,-2.03 0.56,-3.59 1.42,-5.45 0.19,-0.38 0.38,-0.72 0.6,-1.08z"/>
   </g>
   <path class="fil2" d="M61.57 12.15c-8.1,-5.97 -15.1,-4.68 -21.55,0 1.22,-16.25 22.09,-13.52 21.55,0z"/>
   <path class="fil0" d="M61.65 12.15c-8.1,-5.97 -15.1,-4.68 -21.55,0 1.22,-16.25 22.09,-13.52 21.55,0z"/>
   <path class="fil0" d="M39.71 12.9c0.29,-4.37 3.05,-9.85 6.81,-11.06 -2.87,7.83 2.39,19.06 8.54,29.91 6.14,10.85 13.85,20.88 17.45,25.73l-5.55 0.22 -1.54 5.56c-2.8,-4.19 -9.63,-13.39 -15.42,-23.13 -5.79,-9.73 -10.77,-20.01 -10.29,-27.23l0 0z"/>
   <g>
    <path class="fil1" d="M72.16 55.68c0.26,0.36 0.53,0.71 0.79,1.06 0.12,0.18 0.18,0.33 0.21,0.54 0.01,0.21 -0.02,0.37 -0.1,0.57 -0.1,0.19 -0.21,0.31 -0.38,0.43 -0.18,0.11 -0.34,0.16 -0.55,0.18 -1.76,0.06 -3.52,0.13 -5.28,0.2 0.2,-0.01 0.34,-0.06 0.5,-0.18 0.15,-0.13 0.24,-0.26 0.3,-0.45 0,0 -1.04,3.77 -1.46,5.27 -0.06,0.21 -0.15,0.36 -0.31,0.51 -0.17,0.15 -0.33,0.22 -0.55,0.26 -0.22,0.03 -0.39,0.01 -0.6,-0.07 -0.2,-0.09 -0.33,-0.2 -0.46,-0.39 -5.31,-7.76 -10.42,-14.86 -15.31,-23 -2.85,-4.86 -5.34,-9.48 -7.46,-14.72 -1.03,-2.63 -1.81,-5 -2.35,-7.78 -0.09,-0.56 -0.62,-5 0.31,-5.21 0.27,0.18 0.93,4.52 1.04,5.04 0.59,2.62 1.39,4.9 2.41,7.38 2.18,5.1 4.7,9.65 7.54,14.41 4.9,8.06 10.03,15.15 15.34,22.86 -0.09,-0.13 -0.18,-0.21 -0.33,-0.28 -0.14,-0.06 -0.27,-0.07 -0.43,-0.05 -0.15,0.03 -0.26,0.08 -0.38,0.18 -0.12,0.11 -0.18,0.22 -0.23,0.37 0,0 1.02,-3.76 1.44,-5.28 0.07,-0.21 0.16,-0.36 0.34,-0.51 0.18,-0.13 0.35,-0.2 0.57,-0.21 1.76,-0.07 3.53,-0.15 5.29,-0.22 -0.16,0.01 -0.28,0.04 -0.41,0.13 -0.13,0.09 -0.21,0.18 -0.28,0.32 -0.07,0.14 -0.09,0.26 -0.08,0.42 0.02,0.16 0.06,0.27 0.16,0.4 0,0 -0.59,-0.78 -0.8,-1.05 -6.14,-8.13 -11.54,-15.73 -16.66,-24.58 -3,-5.33 -5.63,-10.33 -7.65,-16.13 -0.85,-2.59 -1.41,-4.83 -1.66,-7.55 -0.18,-2.48 -0.05,-4.41 0.75,-6.78 -0.04,0.14 -0.05,0.26 -0.02,0.41 0.04,0.15 0.1,0.25 0.21,0.36 0.11,0.1 0.21,0.16 0.35,0.19 0.15,0.03 0.27,0.02 0.41,-0.03 -0.91,0.35 -1.54,0.8 -2.25,1.47 -0.06,0.03 -0.31,0.31 -0.37,0.37 -0.63,0.69 -1.1,1.34 -1.58,2.13 -1.27,2.31 -1.63,4.09 -2.71,6.08 -0.88,1.47 0.38,-4.53 1.45,-6.79 0.62,-1.13 1.22,-1.98 2.11,-2.91 0.21,-0.21 0.42,-0.4 0.65,-0.59 0.7,-0.58 1.3,-0.95 2.15,-1.28 0.17,-0.06 0.31,-0.07 0.49,-0.04 0.18,0.04 0.3,0.11 0.43,0.23 0.13,0.14 0.2,0.26 0.25,0.44 0.04,0.18 0.03,0.32 -0.03,0.49 -0.67,2.14 -0.74,3.88 -0.56,6.1 0.28,2.55 0.84,4.68 1.66,7.11 2.02,5.65 4.65,10.57 7.59,15.77 5.09,8.77 10.45,16.32 16.5,24.4z"/>
   </g>
   <path class="fil2" d="M39.49 12.9c0.29,-4.37 3.04,-9.85 6.81,-11.06 -2.88,7.83 2.39,19.06 8.54,29.91 6.14,10.85 13.85,20.88 17.45,25.73l-5.56 0.22 -1.53 5.56c-2.81,-4.19 -9.64,-13.39 -15.43,-23.13 -5.79,-9.73 -10.76,-20.01 -10.28,-27.23l0 0z"/>
   <path class="fil0" d="M39.71 12.9c0.29,-4.37 3.05,-9.85 6.81,-11.06 -2.87,7.83 2.39,19.06 8.54,29.91 6.14,10.85 13.85,20.88 17.45,25.73l-5.55 0.22 -1.54 5.56c-2.8,-4.19 -9.63,-13.39 -15.42,-23.13 -5.79,-9.73 -10.77,-20.01 -10.29,-27.23l0 0z"/>
   <path class="fil0" d="M62.24 12.9c-0.29,-4.37 -3.04,-9.85 -6.81,-11.06 2.88,7.83 -2.39,19.06 -8.53,29.91 -6.15,10.85 -13.85,20.88 -17.46,25.73l5.56 0.22 1.53 5.56c2.81,-4.19 9.64,-13.39 15.43,-23.13 5.79,-9.73 10.76,-20.01 10.28,-27.23l0 0z"/>
   <g>
    <path class="fil1" d="M31 56.84c-0.27,0.36 -0.53,0.71 -0.79,1.06 0.1,-0.14 0.15,-0.26 0.17,-0.43 0.01,-0.17 -0.01,-0.3 -0.09,-0.46 -0.07,-0.15 -0.16,-0.25 -0.3,-0.35 -0.15,-0.09 -0.27,-0.13 -0.44,-0.14 0,0 3.72,0.14 5.28,0.21 0.25,0.01 0.43,0.08 0.63,0.23 0.19,0.16 0.29,0.32 0.36,0.55 0.49,1.76 0.97,3.52 1.46,5.27 -0.05,-0.17 -0.13,-0.29 -0.26,-0.41 -0.13,-0.12 -0.26,-0.18 -0.44,-0.21 -0.18,-0.03 -0.31,-0.01 -0.48,0.06 -0.16,0.07 -0.27,0.16 -0.38,0.31 5.28,-7.72 10.41,-14.82 15.3,-22.88 2.83,-4.75 5.34,-9.3 7.52,-14.39 1.03,-2.51 1.84,-4.8 2.43,-7.44 0.1,-0.5 0.75,-4.78 1.11,-4.91 0.85,0.4 0.31,4.59 0.2,5.26 -0.54,2.73 -1.32,5.07 -2.33,7.66 -2.12,5.23 -4.61,9.84 -7.45,14.7 -4.87,8.14 -9.99,15.24 -15.25,23.03 -0.12,0.16 -0.24,0.26 -0.42,0.35 -0.19,0.07 -0.34,0.09 -0.55,0.06 -0.19,-0.03 -0.33,-0.1 -0.49,-0.23 -0.14,-0.14 -0.23,-0.28 -0.28,-0.47 -0.49,-1.75 -0.98,-3.51 -1.47,-5.26 0.05,0.17 0.13,0.28 0.26,0.4 0.15,0.11 0.28,0.16 0.46,0.17 0,0 -3.81,-0.14 -5.29,-0.19 -0.19,-0.01 -0.34,-0.06 -0.51,-0.17 -0.16,-0.11 -0.26,-0.22 -0.35,-0.4 -0.09,-0.18 -0.11,-0.33 -0.1,-0.53 0.02,-0.2 0.08,-0.34 0.19,-0.5 0.01,-0.03 0.72,-0.97 0.79,-1.07 6.01,-8.12 11.36,-15.66 16.43,-24.45 2.93,-5.21 5.55,-10.13 7.56,-15.78 0.82,-2.42 1.38,-4.55 1.66,-7.1 0.18,-2.21 0.1,-3.94 -0.57,-6.07 -0.06,-0.18 -0.06,-0.33 -0.02,-0.52 0.05,-0.19 0.12,-0.33 0.26,-0.47 0.14,-0.13 0.27,-0.2 0.46,-0.24 0.19,-0.04 0.34,-0.03 0.52,0.03 1.16,0.46 1.94,1.03 2.82,1.89 0.06,0.05 0.35,0.38 0.42,0.46 0.7,0.8 1.19,1.53 1.7,2.46 0.98,2.03 2.12,4.54 1.34,6.82 -0.18,0.43 -1.82,-4.67 -2.6,-6.11 -0.59,-0.96 -1.15,-1.72 -1.96,-2.51 -0.18,-0.18 -0.36,-0.34 -0.56,-0.5 -0.56,-0.44 -1.04,-0.73 -1.71,-0.98 0.13,0.05 0.24,0.05 0.38,0.03 0.13,-0.04 0.23,-0.08 0.33,-0.18 0.1,-0.1 0.15,-0.2 0.19,-0.33 0.02,-0.14 0.02,-0.25 -0.02,-0.38 0.79,2.36 0.92,4.28 0.75,6.76 -0.25,2.71 -0.81,4.95 -1.66,7.53 -2,5.8 -4.63,10.8 -7.62,16.14 -5.11,8.86 -10.5,16.46 -16.59,24.62z"/>
   </g>
   <path class="fil2" d="M62.11 12.9c-0.29,-4.37 -3.04,-9.85 -6.81,-11.06 2.88,7.83 -2.39,19.06 -8.53,29.91 -6.15,10.85 -13.85,20.88 -17.46,25.73l5.56 0.22 1.53 5.56c2.81,-4.19 9.64,-13.39 15.43,-23.13 5.79,-9.73 10.76,-20.01 10.28,-27.23l0 0z"/>
   <path class="fil0" d="M62.24 12.9c-0.29,-4.37 -3.04,-9.85 -6.81,-11.06 2.88,7.83 -2.39,19.06 -8.53,29.91 -6.15,10.85 -13.85,20.88 -17.46,25.73l5.56 0.22 1.53 5.56c2.81,-4.19 9.64,-13.39 15.43,-23.13 5.79,-9.73 10.76,-20.01 10.28,-27.23l0 0z"/>
   <path class="fil3" d="M17.03 26.05c-0.21,-0.61 -0.63,-1.34 -1.18,-1.88 -0.41,-0.38 -0.88,-0.67 -1.38,-0.77 -0.88,-0.16 -1.55,0.07 -2.3,0.5 -1.6,0.91 -2.41,2.47 -2.81,4.23 -0.19,0.87 -0.28,1.79 -0.33,2.68 -0.26,-0.52 -0.61,-0.99 -1.13,-1.37 -0.84,-0.61 -2.07,-0.76 -3.25,-0.53 -1.16,0.22 -2.26,0.81 -2.87,1.6 -1.2,1.54 -0.69,3.53 0.61,5.5 1.76,2.67 4.94,5.31 6.18,6.55 0.44,0.44 1.85,2.32 2.65,3.01 0.21,0.18 0.39,0.28 0.54,0.32 0.13,0.05 0.26,0.05 0.37,0.03 0.11,-0.02 0.26,-0.09 0.41,-0.24 0.11,-0.14 0.27,-0.4 0.44,-0.75 0.8,-1.7 2.07,-5.84 2.19,-6.33 0.51,-1.85 1.3,-3.93 1.8,-6.06 0.53,-2.2 0.74,-4.44 0.06,-6.49z"/>
   <path class="fil3" d="M66.51 23.07c0.27,-0.59 0.76,-1.28 1.37,-1.75 0.44,-0.35 0.94,-0.59 1.44,-0.63 0.89,-0.08 1.54,0.22 2.24,0.72 1.5,1.06 2.15,2.7 2.37,4.49 0.11,0.88 0.11,1.8 0.07,2.7 0.3,-0.49 0.7,-0.93 1.25,-1.25 0.9,-0.53 2.14,-0.55 3.29,-0.21 1.14,0.35 2.17,1.04 2.7,1.88 1.04,1.66 0.34,3.58 -1.16,5.42 -2.01,2.48 -5.44,4.79 -6.81,5.9 -0.47,0.39 -2.07,2.12 -2.93,2.72 -0.23,0.16 -0.41,0.25 -0.57,0.28 -0.14,0.03 -0.27,0.02 -0.37,-0.01 -0.11,-0.03 -0.25,-0.12 -0.38,-0.29 -0.1,-0.15 -0.24,-0.42 -0.37,-0.79 -0.62,-1.77 -1.47,-6.02 -1.55,-6.51 -0.31,-1.89 -0.89,-4.05 -1.18,-6.21 -0.3,-2.24 -0.29,-4.5 0.59,-6.46z"/>
   <g>
    <path class="fil1" d="M5.08 38.7c1.04,1.02 2.13,1.97 3.16,2.99 0.9,0.96 1.64,2.08 2.62,2.98 0.09,0.08 0.24,0.2 0.36,0.23 0,0 0.04,0.02 0.04,0.02 0.06,0.01 0.08,0.01 0.14,0.01 0,0 0.04,-0.02 0.04,-0.02 0.05,-0.03 0.08,-0.06 0.11,-0.1 0.02,-0.01 -0.01,0.02 -0.01,0.02 0.15,-0.18 0.28,-0.44 0.38,-0.65 0.84,-1.88 1.59,-4.25 2.18,-6.25 0.58,-2.03 1.3,-3.97 1.83,-6.03 0.33,-1.25 0.55,-2.73 0.52,-4.02 -0.01,-0.25 -0.21,-2.28 -0.08,-2.38 0.43,0.11 0.68,2.06 0.71,2.4 0.05,1.49 -0.12,2.71 -0.45,4.16 -0.49,2.09 -1.19,4.03 -1.76,6.08 -0.53,1.97 -1.38,4.55 -2.19,6.4 -0.14,0.29 -0.29,0.58 -0.5,0.83 0,0 -0.02,0.03 -0.02,0.03 -0.09,0.1 -0.19,0.17 -0.3,0.24 -0.11,0.06 -0.19,0.09 -0.31,0.11 -0.21,0.04 -0.37,0.03 -0.58,-0.04 0,0 0.04,0.01 0.02,0.01 -0.27,-0.09 -0.46,-0.23 -0.68,-0.41 -1.04,-0.94 -1.74,-2.03 -2.68,-3.01 -1.03,-1.01 -2.12,-1.96 -3.16,-2.99 -1.17,-1.16 -2.17,-2.25 -3.1,-3.61 -0.65,-1.01 -1.11,-1.9 -1.32,-3.09 -0.07,-0.55 -0.07,-0.98 0.05,-1.53 0.13,-0.55 0.32,-0.94 0.67,-1.4 0.4,-0.51 0.81,-0.82 1.37,-1.13 0.59,-0.32 1.11,-0.5 1.77,-0.64 0.68,-0.12 1.23,-0.14 1.91,-0.05 0.65,0.11 1.14,0.28 1.69,0.66 0.49,0.37 0.79,0.72 1.1,1.24 -0.04,-0.07 -0.09,-0.11 -0.17,-0.15 -0.07,-0.03 -0.14,-0.03 -0.22,-0.02 -0.08,0.02 -0.13,0.06 -0.18,0.12 -0.06,0.06 -0.08,0.12 -0.09,0.2 0.06,-0.84 0.15,-1.6 0.34,-2.43 0.23,-0.97 0.5,-1.71 1.02,-2.56 0.57,-0.87 1.12,-1.4 2.01,-1.92 0.41,-0.23 0.75,-0.38 1.21,-0.5 0.18,-0.07 0.65,-0.09 0.85,-0.08 0.18,0.01 0.33,0.03 0.51,0.07 0.63,0.16 1.07,0.44 1.53,0.89 0.51,0.6 1.01,1.25 0.92,2.06 -0.04,0.24 -1.03,-1.28 -1.36,-1.61 -0.38,-0.32 -0.73,-0.54 -1.23,-0.65 -0.33,-0.05 -0.58,-0.05 -0.91,0.01 -0.02,0 -0.12,0.03 -0.14,0.03 -0.37,0.1 -0.66,0.25 -1,0.44 -0.77,0.47 -1.23,0.93 -1.71,1.69 -0.45,0.77 -0.68,1.44 -0.88,2.31 -0.17,0.79 -0.24,1.51 -0.3,2.31 -0.01,0.12 -0.04,0.2 -0.12,0.3 -0.07,0.09 -0.15,0.13 -0.27,0.16 -0.11,0.03 -0.21,0.02 -0.32,-0.02 -0.11,-0.05 -0.18,-0.11 -0.24,-0.22 -0.25,-0.4 -0.48,-0.67 -0.86,-0.96 -0.43,-0.29 -0.81,-0.42 -1.32,-0.5 -0.57,-0.07 -1.03,-0.05 -1.6,0.05 -0.56,0.12 -1.01,0.28 -1.51,0.55 -0.44,0.25 -0.78,0.5 -1.1,0.9 -0.26,0.34 -0.4,0.63 -0.5,1.06 -0.1,0.42 -0.09,0.76 -0.04,1.19 0.19,1.04 0.61,1.85 1.18,2.73 0.89,1.31 1.86,2.37 2.97,3.49z"/>
   </g>
   <path class="fil4" d="M16.38 25.5c-0.21,-0.62 -0.63,-1.35 -1.19,-1.88 -0.4,-0.39 -0.88,-0.67 -1.37,-0.77 -0.88,-0.17 -1.55,0.07 -2.3,0.49 -1.6,0.91 -2.41,2.47 -2.81,4.23 -0.2,0.87 -0.29,1.79 -0.33,2.69 -0.26,-0.52 -0.62,-1 -1.13,-1.37 -0.84,-0.62 -2.08,-0.76 -3.25,-0.54 -1.17,0.23 -2.26,0.81 -2.88,1.6 -1.19,1.54 -0.69,3.53 0.62,5.51 1.75,2.67 4.94,5.3 6.18,6.55 0.44,0.43 1.85,2.31 2.65,3 0.21,0.18 0.38,0.29 0.53,0.33 0.14,0.05 0.27,0.05 0.38,0.03 0.11,-0.02 0.25,-0.09 0.4,-0.25 0.12,-0.14 0.28,-0.39 0.45,-0.75 0.8,-1.7 2.06,-5.84 2.19,-6.32 0.5,-1.85 1.29,-3.94 1.8,-6.06 0.52,-2.2 0.74,-4.45 0.06,-6.49z"/>
   <g>
    <path class="fil1" d="M77.13 36.84c-1.13,0.92 -2.31,1.76 -3.44,2.66 -0.99,0.87 -1.83,1.91 -2.91,2.71 -0.09,0.06 -0.25,0.17 -0.37,0.19 0,0 -0.05,0.01 -0.05,0.01 -0.05,0.01 -0.08,0.01 -0.13,0 -0.01,0 -0.04,-0.03 -0.04,-0.03 -0.05,-0.03 -0.07,-0.06 -0.11,-0.1 -0.01,-0.02 0.01,0.02 0.02,0.02 -0.13,-0.19 -0.24,-0.47 -0.32,-0.69 -0.64,-1.95 -1.16,-4.39 -1.54,-6.43 -0.38,-2.08 -0.9,-4.09 -1.22,-6.19 -0.2,-1.27 -0.27,-2.76 -0.11,-4.04 0.03,-0.25 0.43,-2.26 0.32,-2.36 -0.45,0.06 -0.89,1.97 -0.95,2.31 -0.21,1.48 -0.15,2.71 0.02,4.19 0.29,2.12 0.79,4.12 1.15,6.22 0.33,2.01 0.92,4.66 1.54,6.58 0.11,0.31 0.23,0.61 0.41,0.88 0,0 0.02,0.03 0.02,0.03 0.09,0.11 0.17,0.19 0.28,0.27 0.1,0.07 0.18,0.11 0.3,0.15 0.2,0.05 0.36,0.06 0.57,0.01 0.01,0 -0.03,0.01 -0.02,0 0.28,-0.05 0.49,-0.17 0.72,-0.33 1.13,-0.84 1.94,-1.85 2.97,-2.73 1.13,-0.9 2.31,-1.74 3.44,-2.65 1.28,-1.04 2.39,-2.03 3.45,-3.29 0.75,-0.94 1.29,-1.78 1.62,-2.94 0.13,-0.54 0.17,-0.97 0.11,-1.52 -0.08,-0.57 -0.23,-0.98 -0.53,-1.47 -0.35,-0.54 -0.73,-0.89 -1.25,-1.26 -0.56,-0.38 -1.06,-0.61 -1.7,-0.81 -0.66,-0.19 -1.21,-0.27 -1.89,-0.25 -0.67,0.05 -1.17,0.17 -1.76,0.5 -0.52,0.32 -0.85,0.63 -1.21,1.11 0.05,-0.06 0.1,-0.1 0.18,-0.12 0.08,-0.03 0.14,-0.03 0.22,0 0.08,0.03 0.13,0.07 0.17,0.13 0.05,0.07 0.07,0.13 0.07,0.21 0.02,-0.84 0.01,-1.61 -0.09,-2.45 -0.14,-0.99 -0.33,-1.75 -0.76,-2.65 -0.48,-0.92 -0.97,-1.5 -1.82,-2.11 -0.38,-0.27 -0.7,-0.46 -1.15,-0.62 -0.17,-0.08 -0.64,-0.15 -0.83,-0.16 -0.18,-0.01 -0.34,0 -0.52,0.01 -0.65,0.1 -1.1,0.33 -1.61,0.74 -0.57,0.54 -1.13,1.14 -1.13,1.96 0.02,0.24 1.17,-1.18 1.52,-1.47 0.41,-0.29 0.78,-0.47 1.29,-0.52 0.33,-0.02 0.58,0 0.9,0.09 0.03,0.01 0.12,0.05 0.14,0.05 0.36,0.14 0.64,0.32 0.95,0.54 0.72,0.54 1.13,1.05 1.53,1.85 0.38,0.81 0.54,1.5 0.65,2.39 0.09,0.8 0.09,1.52 0.06,2.32 0,0.12 0.03,0.21 0.09,0.31 0.07,0.1 0.15,0.15 0.26,0.2 0.11,0.03 0.2,0.03 0.32,0 0.11,-0.04 0.19,-0.09 0.26,-0.19 0.29,-0.38 0.55,-0.62 0.96,-0.87 0.45,-0.25 0.84,-0.33 1.35,-0.36 0.58,-0.02 1.04,0.05 1.59,0.21 0.55,0.17 0.98,0.37 1.45,0.69 0.42,0.3 0.72,0.58 1,1 0.23,0.38 0.34,0.68 0.4,1.11 0.05,0.43 0.01,0.77 -0.09,1.19 -0.28,1.02 -0.79,1.78 -1.44,2.6 -1.02,1.21 -2.09,2.17 -3.31,3.17z"/>
   </g>
   <path class="fil4" d="M67.21 22.58c0.27,-0.59 0.77,-1.28 1.37,-1.75 0.44,-0.34 0.94,-0.58 1.45,-0.63 0.89,-0.08 1.53,0.22 2.24,0.72 1.5,1.07 2.15,2.7 2.37,4.49 0.11,0.88 0.1,1.81 0.06,2.71 0.31,-0.5 0.71,-0.93 1.26,-1.26 0.9,-0.52 2.14,-0.55 3.29,-0.2 1.13,0.34 2.17,1.03 2.7,1.88 1.03,1.65 0.33,3.58 -1.16,5.41 -2.02,2.48 -5.45,4.79 -6.81,5.9 -0.48,0.39 -2.07,2.12 -2.94,2.73 -0.22,0.15 -0.41,0.24 -0.56,0.27 -0.14,0.03 -0.27,0.02 -0.38,-0.01 -0.1,-0.03 -0.24,-0.11 -0.37,-0.29 -0.11,-0.15 -0.24,-0.42 -0.37,-0.79 -0.63,-1.77 -1.47,-6.02 -1.55,-6.51 -0.32,-1.89 -0.9,-4.04 -1.19,-6.21 -0.3,-2.24 -0.29,-4.49 0.59,-6.46z"/>
   <path class="fil3" d="M21.56 21.09c-0.44,2.4 -0.33,5.07 -0.53,7.15 -0.08,0.83 -0.13,1.67 -0.19,2.49 0,0.07 -0.07,0.23 -0.11,0.4 -0.05,0.19 -0.08,0.37 -0.07,0.51 0.01,0.22 0.09,0.39 0.2,0.5 0.1,0.11 0.25,0.18 0.44,0.18 0.22,0 0.58,-0.18 0.68,-0.23 1.42,-0.86 3.08,-1.4 4.64,-2.02 1.7,-0.68 3.4,-1.52 5.02,-2.41 1.02,-0.56 2,-1.15 2.88,-1.91 1.05,-0.91 1.88,-1.95 2.03,-3.39 0.08,-0.81 -0.12,-1.37 -0.49,-1.76 -0.5,-0.54 -1.39,-0.75 -2.44,-0.65 -1.25,0.1 -2.77,0.64 -3.96,1.3 0.26,-0.83 0.27,-1.84 0.2,-2.63 -0.33,-3.25 -4.23,-4.22 -6.34,-1.96 -1.08,1.18 -1.66,2.74 -1.96,4.43z"/>
   <path class="fil3" d="M87 28.55c-0.55,2.14 -0.63,4.66 -0.94,6.55 -0.13,0.76 -0.23,1.54 -0.34,2.28 -0.01,0.08 -0.08,0.21 -0.13,0.36 -0.06,0.16 -0.1,0.32 -0.1,0.46 0,0.2 0.06,0.38 0.15,0.51 0.09,0.13 0.22,0.24 0.39,0.29 0.2,0.05 0.55,-0.02 0.64,-0.04 1.35,-0.43 2.9,-0.5 4.36,-0.66 1.6,-0.19 3.2,-0.53 4.74,-0.93 0.96,-0.26 1.89,-0.56 2.74,-1.04 1.02,-0.58 1.84,-1.33 2.08,-2.64 0.12,-0.74 -0.03,-1.31 -0.34,-1.78 -0.42,-0.63 -1.22,-1.07 -2.18,-1.25 -1.15,-0.23 -2.56,-0.13 -3.69,0.18 0.28,-0.71 0.37,-1.65 0.35,-2.41 -0.09,-3.13 -3.58,-5.07 -5.65,-3.51 -1.06,0.82 -1.69,2.13 -2.08,3.63z"/>
   <g>
    <path class="fil1" d="M34.69 23.67c0.05,-0.07 0.1,-0.14 0.15,-0.22 0.36,-0.57 0.53,-1.03 0.61,-1.7 0.03,-0.31 0.02,-0.56 -0.06,-0.85 -0.07,-0.23 -0.16,-0.38 -0.31,-0.55 -0.24,-0.24 -0.49,-0.35 -0.8,-0.43 -0.44,-0.11 -0.82,-0.12 -1.27,-0.08 -1.31,0.14 -2.45,0.56 -3.61,1.15 -0.1,0.05 -0.19,0.07 -0.3,0.06 -0.11,-0.01 -0.19,-0.05 -0.28,-0.11 -0.09,-0.08 -0.14,-0.15 -0.18,-0.25 -0.04,-0.11 -0.04,-0.2 -0.01,-0.31 0.18,-0.78 0.2,-1.48 0.13,-2.27 -0.08,-0.7 -0.27,-1.2 -0.72,-1.75 -0.43,-0.48 -0.84,-0.74 -1.45,-0.93 -0.64,-0.17 -1.15,-0.18 -1.78,-0.03 -0.69,0.19 -1.15,0.47 -1.65,0.98 -0.64,0.68 -1,1.31 -1.36,2.16 -0.09,0.23 -0.67,1.97 -0.88,2 -0.3,-0.25 0.21,-1.96 0.31,-2.26 0.36,-0.94 0.74,-1.62 1.41,-2.38 0.59,-0.63 1.15,-0.98 1.97,-1.22 0.79,-0.2 1.41,-0.2 2.19,0 0.77,0.23 1.3,0.56 1.85,1.15 0.57,0.69 0.81,1.32 0.92,2.2 0.09,0.89 0.07,1.68 -0.14,2.56 0.02,-0.06 0.02,-0.11 0,-0.17 -0.02,-0.06 -0.05,-0.1 -0.1,-0.14 -0.05,-0.03 -0.09,-0.05 -0.15,-0.06 -0.07,0 -0.11,0.01 -0.17,0.03 1.27,-0.65 2.49,-1.1 3.92,-1.26 0.56,-0.04 1.01,-0.03 1.56,0.1 0.49,0.14 0.85,0.31 1.21,0.67 0.26,0.28 0.39,0.53 0.51,0.89 0.12,0.42 0.14,0.76 0.1,1.19 -0.1,0.82 -0.31,1.39 -0.74,2.08 -0.01,0.04 -0.15,0.23 -0.18,0.27 -0.38,0.52 -0.76,0.9 -1.24,1.32 -0.96,0.82 -1.85,1.37 -2.95,1.98 -1.68,0.93 -3.29,1.72 -5.07,2.45 -1.59,0.62 -3.08,1.11 -4.57,1.97 0,0 -0.02,0.01 -0.03,0.02 -0.29,0.14 -0.56,0.26 -0.88,0.27 -0.16,0 -0.28,-0.02 -0.42,-0.08 -0.14,-0.06 -0.23,-0.12 -0.34,-0.23 -0.11,-0.11 -0.17,-0.2 -0.23,-0.34 -0.06,-0.15 -0.08,-0.28 -0.09,-0.44 0,0 0,0.04 0,-0.02 -0.01,-0.2 0.03,-0.43 0.08,-0.62 0,0.01 0,0 0,0 0,-0.01 0.11,-0.42 0.1,-0.3 0,0.01 0,-0.04 0,-0.04 0.08,-0.83 0.13,-1.66 0.22,-2.49 0.12,-1.09 0.14,-2.2 0.2,-3.3 0.07,-1.03 0.09,-2.85 0.74,-3.74 0.26,-0.31 -0.02,3.75 -0.03,4.3 -0.02,0.95 -0.04,1.88 -0.12,2.82 -0.06,0.82 -0.11,1.65 -0.17,2.48 0,0 0,-0.02 0,-0.03 -0.01,0.2 -0.07,0.31 -0.12,0.5 0,0 0,0.01 0,0.01 -0.03,0.12 -0.06,0.26 -0.05,0.38 0,0.06 0,-0.05 0,0.03 0,-0.02 0.01,0.07 0.03,0.13 0,0.03 0.03,0.05 0.05,0.07 0.01,0.02 0.04,0.03 0.05,0.04 0.03,0.01 0.07,0.01 0.1,0.01 0.06,0.01 0.49,-0.17 0.49,-0.18 0,0 -0.03,0.01 -0.03,0.01 1.54,-0.91 3.04,-1.41 4.69,-2.06 1.74,-0.71 3.32,-1.49 4.97,-2.4 1.04,-0.57 1.89,-1.09 2.8,-1.86 0.43,-0.38 0.77,-0.72 1.12,-1.18z"/>
   </g>
   <path class="fil4" d="M20.9 20.54c-0.43,2.4 -0.32,5.07 -0.52,7.14 -0.08,0.83 -0.13,1.67 -0.2,2.49 0,0.08 -0.07,0.24 -0.11,0.41 -0.05,0.18 -0.08,0.36 -0.07,0.51 0.01,0.22 0.09,0.38 0.2,0.49 0.11,0.11 0.26,0.18 0.45,0.18 0.21,0 0.58,-0.18 0.68,-0.23 1.42,-0.86 3.08,-1.4 4.63,-2.01 1.71,-0.68 3.41,-1.52 5.03,-2.41 1.02,-0.57 2,-1.16 2.88,-1.92 1.04,-0.91 1.87,-1.95 2.03,-3.39 0.08,-0.81 -0.13,-1.36 -0.49,-1.76 -0.51,-0.53 -1.4,-0.75 -2.44,-0.65 -1.26,0.11 -2.77,0.64 -3.97,1.3 0.26,-0.83 0.28,-1.83 0.2,-2.62 -0.32,-3.26 -4.23,-4.22 -6.33,-1.96 -1.09,1.18 -1.66,2.74 -1.97,4.43z"/>
   <g>
    <path class="fil1" d="M98.8 34.43c0.05,-0.05 0.1,-0.11 0.15,-0.17 0.37,-0.44 0.55,-0.82 0.67,-1.43 0.05,-0.28 0.06,-0.51 0,-0.81 -0.05,-0.23 -0.12,-0.39 -0.25,-0.6 -0.2,-0.28 -0.41,-0.45 -0.7,-0.62 -0.39,-0.21 -0.74,-0.32 -1.15,-0.4 -1.2,-0.21 -2.26,-0.13 -3.36,0.12 -0.1,0.03 -0.18,0.02 -0.28,-0.02 -0.1,-0.04 -0.17,-0.09 -0.25,-0.18 -0.08,-0.09 -0.12,-0.17 -0.15,-0.28 -0.02,-0.11 -0.02,-0.19 0.01,-0.29 0.22,-0.68 0.28,-1.33 0.27,-2.09 -0.03,-0.68 -0.16,-1.2 -0.54,-1.83 -0.36,-0.56 -0.72,-0.91 -1.27,-1.25 -0.56,-0.33 -1.02,-0.47 -1.61,-0.5 -0.64,0 -1.08,0.14 -1.57,0.48 -0.62,0.48 -0.99,0.96 -1.38,1.67 -0.09,0.19 -0.74,1.67 -0.94,1.63 -0.25,-0.31 0.33,-1.78 0.44,-2.02 0.39,-0.79 0.78,-1.33 1.44,-1.87 0.58,-0.43 1.11,-0.61 1.88,-0.62 0.72,0.02 1.29,0.19 1.99,0.58 0.69,0.42 1.15,0.86 1.61,1.57 0.47,0.79 0.66,1.44 0.7,2.3 0.02,0.86 -0.05,1.58 -0.3,2.36 0.02,-0.06 0.02,-0.1 0.01,-0.16 -0.02,-0.06 -0.04,-0.11 -0.08,-0.16 -0.04,-0.04 -0.08,-0.07 -0.14,-0.09 -0.05,-0.02 -0.1,-0.03 -0.15,-0.02 1.2,-0.28 2.34,-0.37 3.66,-0.14 0.51,0.1 0.92,0.23 1.41,0.5 0.44,0.25 0.75,0.51 1.06,0.95 0.21,0.33 0.32,0.59 0.41,0.96 0.08,0.42 0.07,0.75 0.01,1.14 -0.14,0.74 -0.37,1.22 -0.81,1.76 -0.01,0.03 -0.15,0.17 -0.18,0.2 -0.38,0.38 -0.76,0.64 -1.22,0.91 -0.93,0.52 -1.78,0.8 -2.81,1.08 -1.6,0.42 -3.12,0.74 -4.79,0.95 -1.49,0.16 -2.88,0.24 -4.29,0.65 0,0 -0.02,0 -0.03,0.01 -0.27,0.05 -0.53,0.09 -0.82,0.02 -0.15,-0.05 -0.25,-0.1 -0.38,-0.19 -0.12,-0.09 -0.2,-0.18 -0.29,-0.3 -0.09,-0.13 -0.14,-0.24 -0.19,-0.39 -0.04,-0.15 -0.06,-0.27 -0.06,-0.43 0,0 0,0.04 0.01,-0.02 0,-0.19 0.06,-0.39 0.11,-0.56 0,0.01 0,0 0,0 0.01,0 0.13,-0.36 0.11,-0.26 0,0.02 0.01,-0.03 0.01,-0.03 0.12,-0.76 0.23,-1.52 0.36,-2.27 0.17,-0.99 0.27,-2.03 0.4,-3.04 0.13,-0.95 0.26,-2.65 0.91,-3.31 0.27,-0.22 -0.26,3.51 -0.3,4.02 -0.09,0.88 -0.16,1.75 -0.29,2.61 -0.12,0.76 -0.22,1.52 -0.33,2.28 0,0 0,-0.02 0.01,-0.03 -0.03,0.19 -0.09,0.27 -0.14,0.44 0,0 0,0 0,0 -0.04,0.11 -0.08,0.23 -0.08,0.35 0,0.05 0,-0.05 0,0.03 0,-0.02 0,0.07 0.02,0.12 0,0.03 0.03,0.06 0.04,0.08 0.01,0.02 0.04,0.04 0.05,0.05 0.02,0.03 0.06,0.03 0.08,0.04 0.06,0.03 0.46,-0.03 0.46,-0.04 0,0 -0.03,0.01 -0.03,0.01 1.47,-0.45 2.87,-0.53 4.42,-0.7 1.63,-0.21 3.12,-0.52 4.69,-0.93 0.98,-0.27 1.79,-0.53 2.67,-1.01 0.41,-0.24 0.75,-0.47 1.09,-0.81z"/>
   </g>
   <path class="fil4" d="M86.44 27.86c-0.55,2.13 -0.63,4.66 -0.94,6.55 -0.13,0.76 -0.23,1.53 -0.34,2.28 -0.01,0.08 -0.08,0.21 -0.13,0.35 -0.06,0.17 -0.1,0.33 -0.1,0.47 0,0.2 0.06,0.38 0.15,0.51 0.09,0.13 0.22,0.24 0.39,0.29 0.2,0.05 0.55,-0.02 0.64,-0.04 1.35,-0.43 2.9,-0.5 4.36,-0.66 1.6,-0.19 3.2,-0.53 4.74,-0.94 0.96,-0.26 1.89,-0.55 2.74,-1.03 1.02,-0.58 1.84,-1.33 2.08,-2.64 0.12,-0.74 -0.03,-1.31 -0.34,-1.78 -0.42,-0.63 -1.22,-1.07 -2.18,-1.25 -1.15,-0.23 -2.56,-0.13 -3.69,0.17 0.28,-0.71 0.37,-1.64 0.35,-2.41 -0.09,-3.13 -3.58,-5.06 -5.65,-3.5 -1.06,0.82 -1.69,2.13 -2.08,3.63z"/>
   <path class="fil3" d="M27.99 34c-0.85,0.58 -1.65,1.54 -2.16,2.44 -0.03,0.07 -0.07,0.15 -0.11,0.21 -0.07,-0.32 -0.16,-0.64 -0.3,-0.83 -1.43,-1.97 -4.38,-1.97 -5.37,0.32 -0.43,1.01 -0.11,2.16 0.57,3.25 0.89,1.44 2.4,2.82 3.13,3.68 0.74,0.87 1.23,1.89 1.9,2.78 0.02,0.07 0.07,0.19 0.11,0.24 0.07,0.11 0.17,0.19 0.28,0.23 0.14,0.05 0.33,0.08 0.57,-0.08 0.41,-0.28 1.07,-1.17 1.76,-2.33 1.54,-2.59 3.32,-6.58 3.41,-7.7 0.05,-0.63 -0.19,-1.64 -0.61,-2.12 -0.88,-1.01 -2.06,-0.86 -3.18,-0.09z"/>
   <path class="fil3" d="M78.78 14.56c0.98,0.33 2.01,1.02 2.75,1.74 0.06,0.06 0.12,0.12 0.17,0.18 -0.02,-0.33 -0.03,-0.66 0.06,-0.88 0.82,-2.3 3.64,-3.12 5.23,-1.2 0.7,0.85 0.72,2.04 0.37,3.28 -0.45,1.64 -1.51,3.38 -1.98,4.41 -0.46,1.04 -0.64,2.15 -1.04,3.2 0,0.08 -0.01,0.2 -0.04,0.26 -0.04,0.13 -0.11,0.23 -0.21,0.3 -0.12,0.09 -0.29,0.17 -0.56,0.08 -0.48,-0.15 -1.36,-0.82 -2.35,-1.74 -2.19,-2.06 -5.03,-5.39 -5.43,-6.44 -0.22,-0.59 -0.27,-1.63 0,-2.21 0.56,-1.21 1.74,-1.4 3.03,-0.98z"/>
   <g>
    <path class="fil1" d="M24.58 43.85c0.23,0.38 0.49,0.83 0.76,1.17 0.04,0.05 0.07,0.1 0.09,0.16 0.01,0.04 0.06,0.12 0.03,0.08 0.01,0.02 0,0.01 -0.01,0 0.03,0.03 0.06,0.06 0.09,0.08 0.01,0.01 0.05,0.01 0.06,0.01 0.03,0.01 0.08,-0.03 0.1,-0.04 0.55,-0.41 1.28,-1.6 1.63,-2.19 0.97,-1.67 3.05,-5.64 3.38,-7.5 0.03,-0.33 -0.02,-0.65 -0.1,-0.98 -0.08,-0.3 -0.19,-0.6 -0.39,-0.85 -0.17,-0.21 -0.33,-0.35 -0.57,-0.47 -0.22,-0.1 -0.39,-0.14 -0.63,-0.15 -0.02,0 -0.15,0.01 -0.17,0.01 -0.29,0.03 -1.41,0.36 -1.51,0.27 -0.06,-0.4 1.12,-0.84 1.46,-0.9 0.03,0 0.2,-0.01 0.21,-0.01 0.35,-0.01 0.6,0.04 0.92,0.17 0.34,0.16 0.57,0.34 0.82,0.61 0.29,0.34 0.44,0.71 0.57,1.13 0.11,0.42 0.17,0.8 0.15,1.23 -0.27,2.03 -2.38,6.06 -3.41,7.87 -0.47,0.78 -1.15,1.92 -1.88,2.47 -0.17,0.11 -0.32,0.17 -0.52,0.19 -0.15,0.01 -0.27,-0.01 -0.41,-0.06 -0.21,-0.08 -0.34,-0.19 -0.48,-0.37 0.02,0.02 -0.01,-0.01 0.01,0.01 -0.08,-0.11 -0.14,-0.22 -0.18,-0.35 0.01,0.03 0.03,0.06 0.05,0.09 0.03,0.07 -0.6,-0.88 -0.82,-1.22 -0.34,-0.55 -0.65,-1.01 -1.06,-1.52 -1.17,-1.31 -2.2,-2.2 -3.19,-3.72 -0.37,-0.6 -0.61,-1.11 -0.76,-1.8 -0.12,-0.69 -0.09,-1.21 0.17,-1.86 0.3,-0.65 0.63,-1.08 1.22,-1.49 0.55,-0.35 1.04,-0.49 1.69,-0.53 0.66,0 1.15,0.11 1.75,0.4 0.62,0.32 1.02,0.68 1.44,1.25 0.16,0.23 0.23,0.46 0.29,0.73 -0.01,-0.06 -0.04,-0.1 -0.09,-0.14 -0.05,-0.04 -0.09,-0.07 -0.16,-0.07 -0.06,-0.01 -0.11,0 -0.16,0.03 -0.06,0.03 -0.1,0.06 -0.13,0.11l0 0c0.06,-0.09 -0.04,0.08 0.01,-0.02 0,0 0.26,-0.4 0.29,-0.44 0.46,-0.63 1.27,-1.77 2.17,-1.76 0.19,0.02 -1.43,1.93 -1.76,2.47 -0.01,0.01 -0.05,0.1 -0.06,0.11 -0.01,0.01 -0.02,0.02 -0.02,0.04 0.03,-0.06 0.03,-0.06 0.02,-0.03 -0.05,0.08 -0.11,0.13 -0.19,0.18 -0.09,0.04 -0.17,0.05 -0.26,0.04 -0.1,-0.01 -0.17,-0.04 -0.24,-0.11 -0.07,-0.06 -0.11,-0.13 -0.14,-0.22 -0.04,-0.15 -0.1,-0.34 -0.19,-0.47 -0.35,-0.45 -0.68,-0.72 -1.18,-0.97 -0.46,-0.21 -0.85,-0.3 -1.36,-0.28 -0.48,0.03 -0.83,0.14 -1.24,0.4 -0.44,0.31 -0.68,0.63 -0.89,1.12 -0.19,0.47 -0.2,0.84 -0.11,1.33 0.13,0.58 0.35,1.01 0.65,1.51 0.94,1.45 1.99,2.36 3.1,3.62 0.44,0.53 0.77,1.05 1.14,1.63z"/>
   </g>
   <path class="fil4" d="M27.33 33.44c-0.84,0.58 -1.65,1.54 -2.15,2.44 -0.04,0.07 -0.08,0.15 -0.12,0.22 -0.07,-0.33 -0.16,-0.64 -0.29,-0.83 -1.44,-1.98 -4.38,-1.98 -5.37,0.32 -0.43,1 -0.12,2.15 0.56,3.25 0.89,1.44 2.41,2.81 3.14,3.67 0.74,0.87 1.22,1.89 1.89,2.79 0.02,0.07 0.07,0.19 0.11,0.24 0.08,0.11 0.18,0.18 0.29,0.22 0.14,0.05 0.32,0.08 0.56,-0.08 0.42,-0.27 1.08,-1.16 1.77,-2.33 1.53,-2.59 3.32,-6.58 3.41,-7.7 0.05,-0.63 -0.19,-1.64 -0.61,-2.12 -0.88,-1.01 -2.07,-0.86 -3.19,-0.09z"/>
   <g>
    <path class="fil1" d="M84.81 23.07c-0.12,0.43 -0.25,0.93 -0.41,1.34 -0.02,0.06 -0.03,0.11 -0.04,0.17 0,0.04 -0.02,0.14 0,0.09 -0.01,0.02 -0.01,0.01 0,0 -0.01,0.03 -0.03,0.08 -0.06,0.1 -0.01,0.01 -0.04,0.02 -0.06,0.03 -0.02,0.01 -0.08,-0.01 -0.1,-0.01 -0.64,-0.24 -1.68,-1.18 -2.18,-1.65 -1.39,-1.34 -4.5,-4.57 -5.34,-6.25 -0.12,-0.32 -0.16,-0.64 -0.18,-0.97 0,-0.32 0.01,-0.64 0.13,-0.93 0.12,-0.25 0.23,-0.42 0.42,-0.61 0.18,-0.16 0.34,-0.24 0.57,-0.32 0.01,-0.01 0.14,-0.03 0.16,-0.04 0.29,-0.05 1.45,-0.04 1.52,-0.16 -0.04,-0.4 -1.31,-0.49 -1.65,-0.45 -0.03,0 -0.19,0.04 -0.2,0.04 -0.33,0.09 -0.57,0.21 -0.84,0.42 -0.28,0.25 -0.45,0.48 -0.61,0.82 -0.19,0.41 -0.23,0.8 -0.23,1.24 0.01,0.43 0.05,0.81 0.2,1.23 0.83,1.86 3.97,5.15 5.47,6.6 0.67,0.62 1.64,1.52 2.5,1.84 0.2,0.06 0.35,0.08 0.55,0.04 0.15,-0.04 0.25,-0.09 0.38,-0.17 0.18,-0.14 0.27,-0.28 0.35,-0.49 -0.01,0.02 0.01,-0.02 0,0.01 0.05,-0.13 0.06,-0.25 0.07,-0.39 0,0.04 -0.01,0.07 -0.02,0.11 -0.01,0.07 0.33,-1.02 0.44,-1.4 0.18,-0.63 0.35,-1.16 0.6,-1.76 0.75,-1.58 1.49,-2.73 2.02,-4.46 0.18,-0.68 0.27,-1.24 0.22,-1.95 -0.07,-0.7 -0.24,-1.19 -0.68,-1.74 -0.46,-0.54 -0.9,-0.86 -1.58,-1.08 -0.64,-0.18 -1.14,-0.19 -1.78,-0.04 -0.63,0.18 -1.07,0.43 -1.56,0.87 -0.51,0.49 -0.8,0.94 -1.04,1.6 -0.08,0.27 -0.09,0.51 -0.07,0.79 0,-0.06 0.01,-0.11 0.04,-0.16 0.04,-0.06 0.08,-0.09 0.13,-0.12 0.06,-0.02 0.11,-0.03 0.17,-0.02 0.07,0.02 0.11,0.04 0.16,0.08l-0.01 0c-0.07,-0.07 0.07,0.07 -0.01,-0.01 0,0 -0.36,-0.32 -0.39,-0.35 -0.63,-0.47 -1.72,-1.34 -2.58,-1.08 -0.19,0.07 1.91,1.45 2.37,1.87 0.02,0.02 0.08,0.09 0.09,0.09 0.01,0.01 0.03,0.03 0.04,0.03 -0.05,-0.04 -0.05,-0.04 -0.03,-0.02 0.07,0.07 0.14,0.1 0.23,0.12 0.1,0.02 0.17,0.01 0.26,-0.03 0.09,-0.04 0.15,-0.09 0.2,-0.17 0.05,-0.08 0.07,-0.16 0.07,-0.25 0,-0.16 0,-0.36 0.06,-0.51 0.2,-0.52 0.44,-0.88 0.85,-1.26 0.39,-0.33 0.74,-0.52 1.23,-0.65 0.47,-0.1 0.84,-0.1 1.31,0.04 0.5,0.18 0.82,0.42 1.16,0.82 0.31,0.4 0.43,0.76 0.48,1.26 0.03,0.58 -0.05,1.06 -0.2,1.63 -0.5,1.65 -1.25,2.82 -1.96,4.34 -0.28,0.63 -0.45,1.22 -0.64,1.88z"/>
   </g>
   <path class="fil4" d="M79.25 13.85c0.98,0.32 2.02,1.02 2.75,1.74 0.06,0.05 0.12,0.12 0.18,0.17 -0.03,-0.33 -0.03,-0.66 0.05,-0.88 0.82,-2.29 3.65,-3.12 5.24,-1.19 0.7,0.84 0.71,2.03 0.37,3.28 -0.45,1.63 -1.52,3.37 -1.98,4.4 -0.47,1.04 -0.65,2.16 -1.05,3.21 0.01,0.07 -0.01,0.2 -0.03,0.26 -0.05,0.12 -0.12,0.23 -0.21,0.29 -0.12,0.09 -0.3,0.17 -0.57,0.09 -0.47,-0.15 -1.36,-0.82 -2.35,-1.75 -2.19,-2.06 -5.03,-5.39 -5.42,-6.44 -0.23,-0.59 -0.28,-1.62 -0.01,-2.21 0.56,-1.21 1.74,-1.4 3.03,-0.97z"/>
  </g>
 </g>
</svg>
