<?xml version="1.0" encoding="UTF-8"?>
<!DOCTYPE svg PUBLIC "-//W3C//DTD SVG 1.1//EN" "http://www.w3.org/Graphics/SVG/1.1/DTD/svg11.dtd">
<!-- Creator: CorelDRAW -->
<svg xmlns="http://www.w3.org/2000/svg" xml:space="preserve" width="1224px" height="1467px" version="1.1" style="shape-rendering:geometricPrecision; text-rendering:geometricPrecision; image-rendering:optimizeQuality; fill-rule:evenodd; clip-rule:evenodd"
viewBox="0 0 316.93 379.88"
 xmlns:xlink="http://www.w3.org/1999/xlink"
 xmlns:xodm="http://www.corel.com/coreldraw/odm/2003">
 <defs>
  <style type="text/css">
   <![CDATA[
    .str1 {stroke:#94ACFF;stroke-width:3.06;stroke-miterlimit:22.9256}
    .str0 {stroke:#E51A4B;stroke-width:0.61;stroke-miterlimit:22.9256}
    .str3 {stroke:#F78384;stroke-width:3.06;stroke-linecap:round;stroke-linejoin:round;stroke-miterlimit:22.9256}
    .str4 {stroke:#A86668;stroke-width:0.61;stroke-linecap:round;stroke-linejoin:round;stroke-miterlimit:22.9256}
    .str2 {stroke:#E48767;stroke-width:0.61;stroke-linecap:round;stroke-linejoin:round;stroke-miterlimit:22.9256}
    .fil9 {fill:none}
    .fil10 {fill:#262749}
    .fil6 {fill:#6C76A8}
    .fil3 {fill:#94ACFF}
    .fil7 {fill:#A86668}
    .fil4 {fill:#E48767}
    .fil1 {fill:#E51A4B}
    .fil0 {fill:#E7D0CF}
    .fil5 {fill:#F78384}
    .fil2 {fill:#FDD4D4}
    .fil8 {fill:#262749;fill-rule:nonzero}
   ]]>
  </style>
 </defs>
 <g id="Camada_x0020_1">
  <metadata id="CorelCorpID_0Corel-Layer"/>
  <g id="_1802376926416">
   <path class="fil0" d="M198.79 370.81c72.87,-38.34 148.61,-157.75 105.62,-236.84 -31.51,-57.97 -92.04,-36.58 -144.32,-70.76 -36.04,-23.55 -96.85,-80.24 -137.81,-33.75 -41.23,46.8 -16.38,160.63 3.92,212.85 25.68,66.11 87.34,168.71 172.59,128.5z"/>
   <g>
    <path class="fil1 str0" d="M92.46 59.78c-0.71,-0.87 -1.08,-1.62 -1.34,-2.71 -0.26,-1.3 -0.19,-2.32 0.07,-3.61 0.38,-1.65 0.95,-2.99 1.71,-4.5 0.63,-1.19 1.24,-2.09 2.26,-2.98 0.89,-0.71 1.65,-1.08 2.77,-1.23 1,-0.09 1.74,0.04 2.66,0.43 0.83,0.38 1.42,0.81 2.08,1.44 1.12,1.15 1.9,2.36 2.24,3.95 0.01,0.03 0.05,0.38 0.06,0.43 0.02,0.21 0.02,0.39 -0.01,0.61 0,0.02 0,0.04 0,0.06 0.07,-0.02 0.13,-0.04 0.18,-0.05 4.85,-1.64 8.83,-3.76 13.13,-6.54 0.06,-0.03 0.52,-0.35 0.62,-0.42 4.3,-2.92 8.11,-6.32 11.5,-10.26 0.38,-0.43 1.04,-0.63 1.54,-0.32 0.02,0.01 0.03,0.02 0.04,0.03 0.58,-0.37 1.63,0.57 1.96,0.95 2.57,3.07 4.24,5.74 5.4,9.59 0.22,0.84 0.38,1.62 0.49,2.37 1.77,-0.91 4.67,-2.36 6.52,-4.01 2.48,-2.55 3.87,-4.99 4.74,-8.46 0.07,-0.14 0.25,-1.51 0.27,-1.75 0.1,-1.09 0.09,-2 -0.04,-3.08 -0.27,-1.83 -0.73,-3.16 -1.61,-4.78 -1.08,-1.85 -2.19,-3.09 -3.82,-4.48 -2.1,-1.7 -4.02,-2.77 -6.5,-3.86 -4.62,-2.19 -9.37,-6.57 -14.43,-9.37 -3.41,-1.76 -6.13,-2.71 -9.96,-3.21 -4.71,-0.46 -8.22,0.14 -12.7,1.66 -11.25,4.78 -9.52,13.66 -31.55,22.96 -2.9,1.14 -5.29,2.26 -7.81,4.11 -1.77,1.36 -2.94,2.56 -4.12,4.46 -1.17,2.04 -1.67,3.72 -2.1,6.01 -0.28,1.54 -0.45,3.06 -0.63,4.62 -0.56,5.05 -1.02,8.45 -3.19,13.17 -3.3,6.46 -7.61,10.17 -13.58,14.16 -2.76,1.81 -5.21,3.56 -7.55,5.9 -1.37,1.43 -2.46,2.76 -3.21,4.61 -0.44,1.25 -0.57,2.19 -0.34,3.51 0.26,1.23 0.7,2.13 1.36,3.2 1.45,2.26 3.24,4.12 4.49,6.48 0.66,1.36 0.93,2.44 0.71,3.95 -0.16,0.81 -0.41,1.39 -0.85,2.09 -0.5,0.77 -1.02,1.31 -1.7,1.93 -2.27,2 -4.33,3.95 -6.24,6.32 -1.07,1.4 -1.99,2.74 -2.5,4.45 -0.27,1.07 -0.3,1.85 0.09,2.89 0.45,1.06 1.09,1.75 1.93,2.52 5.86,4.87 11.2,5.86 15.8,12.86 0.41,0.69 0.82,1.13 1.49,1.56 0.7,0.42 1.3,0.61 2.1,0.74 1.98,0.25 3.66,-0.1 5.53,-0.72 0.03,-0.01 0.27,-0.1 0.32,-0.12 1.91,-0.73 3.43,-1.53 5.09,-2.7 0.75,-0.55 1.39,-1.08 2.05,-1.73 0.22,-0.24 1.4,-1.74 1.62,-1.71 0.06,0.05 0.1,0.13 0.12,0.22l0.55 -0.97c-0.29,-6.34 -0.46,-12.64 -0.54,-18.61 -0.02,-3.34 0.01,-6.62 0.18,-9.95 0.26,-4.04 0.61,-7.76 1.84,-11.63 0.52,-1.51 1.05,-2.69 1.94,-4.02 0.85,-1.21 1.62,-2.01 2.85,-2.84 1.24,-0.8 2.29,-1.2 3.73,-1.52 1.57,-0.3 2.89,-0.34 4.48,-0.26 1.64,0.13 3.12,0.37 4.73,0.72 2.01,0.48 4.77,0.93 6.15,2.66l2.77 0.4c0.06,-0.16 0.14,-0.34 0.26,-0.54 0.24,-0.4 0.74,-0.18 1.25,0.23l2.44 -1.24c0.61,-1.28 3.26,-4.14 3.3,-4.19 4.04,-4.42 3.02,-8.71 3.8,-15.3 0.02,-0.03 0,-0.12 -0.01,-0.16 0,-0.04 -0.06,-0.1 -0.07,-0.13 -0.22,-0.26 -0.57,-0.46 -0.86,-0.63 -1.12,-0.59 -2.27,-1.04 -3.4,-1.65 -0.17,-0.1 -0.33,-0.2 -0.49,-0.29 -0.82,-0.52 -1.42,-0.98 -2.06,-1.72z"/>
    <path class="fil2" d="M96.44 59.23c1.09,0.59 2.35,1 3.41,1.61 0.71,0.39 1.24,0.75 1.77,1.39 0.29,0.37 0.46,0.69 0.6,1.14 0.14,0.49 0.16,0.87 0.1,1.38 -0.98,8.32 0.4,11.76 -5.43,17.02 -1.38,1.22 -2.65,2.62 -4.49,2.7 -0.33,0.03 -0.33,-0.22 -0.15,-0.62l-2.44 1.24c0.63,0.49 1.27,1.26 1.41,1.43 3.54,4 6.54,7.31 11.24,10.04 0.03,0.03 0.29,0.15 0.34,0.18 2.47,1.24 4.43,1.8 7.2,1.91 1.99,0.01 3.62,-0.24 5.33,-0.7 -1.07,-0.9 -2.02,-1.79 -2.71,-2.61 -1.72,-2.27 -2.3,-4.35 -2.98,-7.08 -0.44,-1.93 -1.14,-4.25 -0.58,-6.24 -1.3,-0.68 -2.5,-1.45 -3.79,-2.38 -1.12,-0.85 -1.95,-1.35 -1.74,-2.74 0.12,-1.03 3.07,0.72 3.37,0.89 1.93,1.04 3.71,1.91 5.79,2.61 1.87,0.6 3.4,0.91 5.37,0.61 7.61,-2.85 7.58,-7.57 14.58,-9.32 4.03,-1.01 2.97,-1.74 2.68,-5.6 -0.57,-7.67 2.57,-11.8 1.28,-20.72 -0.96,-3.48 -2.43,-6.05 -4.37,-9.06 -0.08,-0.11 -0.16,-0.26 -0.25,-0.44 -2.47,4.28 -7.5,8.41 -11.45,11.22 -0.1,0.07 -0.58,0.38 -0.64,0.45 -4.41,2.96 -9.17,5.66 -14.49,6.52 -1.15,0.11 -1.63,0.13 -2.06,-0.76 -0.29,-0.03 -0.57,-0.14 -0.61,-0.46 0.01,-0.27 0.23,-0.44 0.28,-0.74 0.03,-0.05 -0.02,-0.21 -0.02,-0.26 -0.01,-0.04 -0.05,-0.24 -0.06,-0.29 -0.02,-0.1 -0.04,-0.2 -0.06,-0.29 -0.01,-0.06 -0.03,-0.15 -0.05,-0.2 -0.36,-1.06 -1.01,-1.9 -1.82,-2.65 -0.45,-0.38 -0.85,-0.65 -1.4,-0.87 -0.47,-0.17 -0.84,-0.24 -1.34,-0.17 -0.55,0.1 -0.91,0.32 -1.34,0.68 -0.69,0.64 -1.12,1.34 -1.54,2.17 -0.62,1.28 -1.11,2.44 -1.41,3.84 -0.16,0.84 -0.22,1.55 -0.04,2.4 0.15,0.59 0.35,0.98 0.74,1.45 0.43,0.47 0.84,0.77 1.38,1.1 0.07,0.05 0.3,0.17 0.39,0.22z"/>
    <path class="fil2" d="M89.17 144.8c-0.69,-7.79 -1,-15.64 -1.56,-23.44 -0.21,-2.94 -0.43,-5.89 -0.62,-8.84 -0.08,-0.03 -0.15,-0.07 -0.22,-0.1 -3.38,-1.83 -7.22,-3.94 -11.14,-4.04 -0.04,0 -0.25,0 -0.26,-0.01 -3.84,0.05 -7.56,1.14 -11.29,1.96 -0.63,0.12 -1.1,0.23 -1.51,0.2 -0.01,0.43 -0.01,0.87 -0.01,1.31 0.11,14.68 1.27,28.73 1.74,43.26 0.01,0.33 -0.03,0.86 -0.21,1.29l0.4 0.92 0.26 0.61c1.5,0.38 4.7,2.21 4.75,2.25 6.04,3.36 12.27,7.04 18.73,9.5 7.03,2.58 14.82,4.37 22.06,6.52 0.5,0.15 2.97,1.06 2.72,1.86 -0.04,0.11 -0.13,0.19 -0.26,0.25 0.05,0.05 0.11,0.1 0.18,0.15 0.04,-0.1 0.08,-0.21 0.14,-0.31 0.27,-0.55 1,0.29 1.68,1.3 0.35,-0.11 0.74,-0.62 1.39,-0.9 0.09,-0.47 0.44,-0.62 0.98,-0.86 0.49,-0.23 0.86,0.02 1.13,0.38 0.15,-0.09 0.35,-0.22 0.65,-0.4 0.68,-0.41 1.15,-0.45 1.49,-0.42 0.16,-0.37 0.53,-0.48 0.99,-0.66 0.18,-0.08 0.35,-0.1 0.49,-0.07 0.86,-0.64 1.91,-0.36 2.9,-1.05 0.16,-0.12 1.08,-0.38 1.73,-0.53 0.01,-0.02 0.02,-0.04 0.03,-0.06 0.21,-0.38 0.9,-0.32 1.24,-0.2 0.03,0.01 0.06,0.02 0.1,0.03 0,0 0.01,0 0.02,0 0,-0.02 0,-0.03 -0.01,-0.05 -0.12,-0.53 0.63,-0.59 1.48,-0.51 -0.41,-0.46 -0.78,-0.96 -1.2,-1.44 -0.63,-0.71 -1.28,-1.51 -1.63,-2.4 -0.18,-0.46 0.33,-0.94 0.6,-1.26 0.32,-0.39 0.76,-0.63 1.25,-0.34 0.93,0.57 1.6,1.47 2.21,2.36 0.6,0.89 1.31,1.83 1.66,2.85 0.06,0.19 -0.16,0.49 -0.38,0.73 1.97,0.53 3.77,1.15 5.47,1.89 0.06,-0.6 -0.05,-1.32 -0.28,-1.72 -0.01,0.01 -0.03,0.02 -0.04,0.04 -0.45,0.38 -1.08,0.17 -1.45,-0.21 -2.27,-2.35 -3.82,-5.3 -6.1,-7.6 -0.58,-0.59 -1.35,-1.24 -2.02,-1.73 -1.16,-0.82 -2.06,-1.29 -3.45,-1.61 -2.27,-0.44 -4.28,-0.16 -6.54,0.22 -1.29,0.21 -1.82,0.38 -2.63,-0.57 -0.28,-0.31 -0.06,-0.63 0.34,-0.93 -3.98,-1.52 -7.76,-3.76 -11.41,-5.94 -3.63,-2.17 -7.31,-4.61 -10.6,-7.28 -0.95,-0.81 -1.28,-1.08 -0.97,-2.22 0.03,-0.14 0.1,-0.23 0.19,-0.29l-1.21 -1.1c-0.13,0.62 -0.42,1.29 -0.94,1.29 -0.72,0 -1.01,-1.58 -1.06,-2.08z"/>
    <path class="fil3 str1" d="M90.54 121.19c0.43,7.79 0.94,15.78 0.75,23.57 -0.01,0.19 -0.04,0.51 -0.12,0.83l1.21 1.1c0.56,-0.39 2.04,0.45 2.39,0.65 3.61,2.04 7.06,4.44 10.57,6.67 3.6,2.3 7.34,4.33 10.94,6.59 0.33,0.2 0.61,0.56 0.67,0.95 0.1,-0.03 0.17,-0.06 0.21,-0.07 2.62,-0.82 4.77,-1.21 7.51,-0.71 1.85,0.44 3.06,1.08 4.57,2.23 0.81,0.63 1.52,1.28 2.25,2.01 2.19,2.33 4.06,5.58 5.74,8.33 0.29,0.47 0.23,1.09 -0.17,1.47 0.23,0.4 0.34,1.12 0.28,1.72 3.52,1.54 6.6,3.58 9.83,6.33 0.89,0.77 1.76,1.54 2.62,2.35 0.42,0.41 0.72,0.8 0.96,1.27l1.45 -0.24c0.22,-0.26 1.56,-0.42 3.18,-0.51 2.88,-0.18 6.65,-0.16 6.65,-0.16 1.54,-0.01 3.07,-0.02 4.61,-0.05l0.39 -2.45c-0.64,-0.17 -0.78,-1.73 -0.78,-2.21 -0.02,-6.28 -0.21,-12.65 -2.39,-18.61 -0.03,-0.1 -0.18,-0.44 -0.19,-0.51 -2.35,-5.85 -5.42,-10.28 -8.91,-15.46 -0.52,-0.79 -1.04,-1.45 -1.22,-2.17 -1.12,1.8 -2.26,3.49 -3.56,5.19 -0.36,0.46 -1.11,0.9 -1.67,0.52 -0.46,-0.3 -0.38,-1.01 -0.19,-1.49 -0.24,-0.02 -0.44,-0.04 -0.49,-0.07 -0.05,-0.04 -5.88,-1.17 -5.9,-1.16 -0.87,0.11 -2.42,-0.79 -3.45,-1.33 -0.03,0.06 -0.06,0.12 -0.1,0.18 -0.22,0.34 -0.91,0.24 -1.23,0.14 -0.32,-0.11 -0.82,-0.42 -0.78,-0.81 0.03,-0.25 0.07,-0.51 0.11,-0.77 -0.68,-0.66 -1.17,-1.44 -1.61,-2.06 -0.27,0.24 -0.79,0.23 -1.1,0.16 -0.36,-0.09 -0.84,-0.4 -0.81,-0.83 0.11,-2.31 0.8,-4.86 1.25,-7.14 0.42,-2.16 0.93,-4.63 1.77,-6.69 -1.22,-0.49 -2.46,-1.34 -3.59,-1.97 -1,-0.56 -2.15,-1.25 -3.05,-2.07 -2.62,2.85 -5.43,4.47 -9.22,5.72 -3.66,1.04 -6.58,1.24 -10.34,0.73 -0.64,-0.12 -3.02,-0.67 -2.91,-1.66 0.19,-0.64 2.72,-0.47 3.2,-0.44 3.38,0.2 6.01,-0.1 9.24,-1.14 3.52,-1.26 6.1,-2.84 8.51,-5.74 0.98,-1.28 1.6,-2.38 2.11,-3.93 0.43,-1.49 0.54,-2.65 0.35,-4.19 0.02,-0.29 -0.34,-1.55 -0.45,-1.87 -0.33,-0.91 -0.69,-1.63 -1.2,-2.45 -1.19,-1.78 -2.42,-2.97 -4.1,-4.29 -1.82,-1.38 -4.45,-3.17 -6.86,-5.01 -2.46,1.16 -4.64,1.7 -7.5,1.78 -3.26,-0.04 -5.6,-0.69 -8.52,-2.08 -0.06,-0.03 -0.36,-0.19 -0.39,-0.2 -5.23,-2.89 -8.67,-6.54 -12,-11.43 -0.59,-0.95 -1.02,-1.51 -0.76,-2.31l-2.77 -0.4c0.06,0.07 0.12,0.15 0.17,0.23 0.61,1.07 -7.36,-0.61 -7.59,-0.64 -1.21,-0.17 -2.36,-0.28 -3.58,-0.31 -1.33,-0.02 -2.46,0.04 -3.76,0.33 -1.05,0.26 -1.83,0.57 -2.73,1.18 -0.87,0.62 -1.42,1.22 -2.03,2.1 -0.7,1.09 -1.12,2.08 -1.53,3.31 -1.1,3.58 -1.43,7.14 -1.68,10.87 -0.11,2.11 -0.18,4.19 -0.21,6.29 0.5,-0.24 0.98,-0.42 1.12,-0.47 4.02,-1.46 7.48,-2.55 11.8,-2.45 0.06,-0.01 0.25,0.01 0.31,0.01 4.07,0.28 7.73,2.04 10.99,4.37 -0.24,-3.94 -0.43,-7.88 -0.49,-11.8 -0.01,-1.51 -0.21,-2.78 1.05,-3.63 0.96,-0.68 1.39,3.72 1.42,3.97 0.86,7.56 1.32,15.24 1.75,22.83z"/>
    <path class="fil3 str1" d="M109.72 178.22c-7.41,-1.59 -15.38,-3.26 -22.53,-5.81 -6.93,-2.47 -13.39,-6.48 -19.52,-10.5 -1.41,-0.95 -3.35,-1.93 -3.67,-3.75 -0.07,-0.33 0.24,-0.37 0.75,-0.24l-0.26 -0.61 -0.95 1.17c0.86,0.08 -7.52,12.55 -7.95,13.22 -5.76,9.35 -6.09,15.14 -6.71,26.09 -0.03,14.16 7.44,22.03 7.88,40.37 -0.25,9.77 -2.12,17.76 -4.98,27.08 -6.94,21.19 -14.65,36.82 -17.42,59.33 -0.04,0.41 -0.49,4.81 -1.04,6.84l0.52 1.16c0.94,-0.04 3.73,1.87 4.11,2.14 0.43,0.31 0.87,0.64 1.31,0.94 6.33,4.2 14.02,5.68 21.4,6.85 9.4,1.31 18.36,1.76 27.84,1.9 1.11,0.01 2.22,0.02 3.32,0.02 17.46,-0.02 34.46,-1.07 51.83,-1.47 1.28,-0.02 3.1,-0.22 4.48,0.25l0.79 -0.38c-0.23,-1.13 -0.26,-2.75 -0.26,-3.08 0.32,-20.07 2.42,-40.65 4.41,-60.63 2.05,-20.39 4.34,-40.99 7.37,-61.26 0.31,-1.95 0.49,-5.23 1.98,-6.78l0.06 -0.36c-3.17,-0.73 -6.32,-1.53 -9.43,-2.42 -1.39,-0.43 -2.61,-0.57 -2.83,-1.96l-3.25 -0.78c-0.48,0.43 -1.75,0.53 -2.16,0.52 -4.15,-0.09 -7.69,-0.41 -11.71,-1.5 -3.51,-1.07 -5.88,-2.24 -8.68,-4.63 -0.04,-0.04 -0.26,-0.25 -0.3,-0.27 -4.98,-4.85 -7.63,-10.99 -10.39,-17.27 -0.58,-1.37 -1.32,-2.64 -0.8,-3.95 -0.07,-0.05 -0.13,-0.1 -0.18,-0.15 -0.72,0.33 -2.62,0.01 -3.03,-0.08z"/>
    <path class="fil2" d="M141.85 134.81c-0.26,1.85 -0.92,3.82 -1.5,5.6 -0.56,1.7 -1.15,3.8 -2.07,5.36 1.03,0.54 2.58,1.44 3.45,1.33 0.02,-0.01 5.85,1.12 5.9,1.16 0.05,0.03 0.25,0.05 0.49,0.07 0.03,-0.07 0.06,-0.13 0.09,-0.18 1,-1.94 2.11,-3.91 3.2,-5.8 1.07,-1.98 1.76,-3.74 1.63,-6.02 0.03,-0.15 -0.18,-1.08 -0.23,-1.27 -0.38,-1.24 -0.89,-2.07 -1.73,-3.05 -2.42,-2.58 -5.27,-3.97 -8.45,-5.37 -0.81,-0.36 -1.32,-0.55 -1.61,-1l-3.59 0.89c0.01,0.13 -0.03,0.29 -0.09,0.44 0.02,0 0.03,0 0.05,0.01 0.78,0.04 0.89,0.77 0.84,1.41 -0.19,2.28 -0.82,4.73 -1.38,6.95 -0.55,2.2 -1.09,4.9 -2.04,6.94 -0.03,0.07 -0.08,0.13 -0.14,0.17 0.44,0.62 0.93,1.39 1.61,2.06 0.28,-1.67 0.87,-3.41 1.29,-5.02 0.47,-1.82 1.07,-3.92 2,-5.56 0.39,-0.68 0.86,-0.54 1.51,-0.43 0.7,0.12 0.86,0.67 0.77,1.31zm2.6 0.22c0.45,-0.62 0.92,-0.41 1.52,-0.24 0.66,0.18 0.8,0.71 0.66,1.34 -0.41,1.73 -1.22,3.54 -1.94,5.16 -0.72,1.62 -1.52,3.65 -2.61,5.04 -0.24,0.31 -0.94,0.12 -1.23,-0.01 -0.29,-0.13 -0.77,-0.49 -0.7,-0.86 0.35,-1.77 1.23,-3.65 1.86,-5.36 0.61,-1.68 1.38,-3.62 2.44,-5.07zm3.09 3.9c0.37,-0.49 0.88,-0.27 1.36,-0.13 0.54,0.15 0.81,0.51 0.71,1.08 -0.21,1.33 -0.8,2.76 -1.32,4 -0.5,1.24 -1.07,2.85 -1.93,3.88 -0.2,0.24 -0.88,0.04 -1.12,-0.06 -0.23,-0.09 -0.74,-0.4 -0.7,-0.7 0.16,-1.36 0.8,-2.85 1.22,-4.16 0.41,-1.29 0.96,-2.82 1.78,-3.91z"/>
   </g>
   <g>
    <path class="fil4 str2" d="M144.15 186.48c-4.85,-3.98 -9.06,-6.11 -14.86,-8.35 -0.78,-0.31 -1.42,-0.5 -1.88,-0.9 -0.02,0.53 -0.04,1.07 0.04,1.57 0.08,0.48 0.21,0.74 0.53,1.11 0.01,0.02 0.17,0.17 0.2,0.19 1.23,1.09 2.35,1.93 3.37,3.26 0.54,0.7 0.28,1.04 -0.13,1.66 -0.4,0.62 -1.09,0.39 -1.61,0.06 -1.28,-0.81 -2.86,-1.92 -3.84,-3.06 -0.11,-0.12 -0.21,-0.27 -0.31,-0.38 -0.64,-0.89 -0.92,-1.61 -0.97,-2.71 0.01,-1 0.23,-1.75 0.69,-2.62 -0.65,0.16 -1.57,0.42 -1.73,0.54 -0.99,0.69 -2.04,0.4 -2.9,1.04 0.4,0.06 0.67,0.41 0.85,0.85 0.79,1.86 1.24,3.64 2.25,5.45 0.76,1.34 1.58,2.39 2.57,3.56 0.68,0.81 1.29,1.58 1.84,2.48 0.23,0.4 -0.14,0.96 -0.43,1.22 -0.28,0.25 -0.8,0.46 -1.15,0.19 -0.82,-0.64 -1.54,-1.32 -2.28,-2.05 -1.25,-1.3 -2.16,-2.46 -3.11,-3.98 -1.19,-1.91 -2.03,-4.2 -2.1,-6.47 0,-0.21 0.03,-0.38 0.08,-0.51 -0.34,-0.03 -0.8,0.01 -1.49,0.42 -0.3,0.17 -0.5,0.3 -0.65,0.4 0.11,0.14 0.2,0.31 0.28,0.47 0.81,1.7 1.58,3.32 2.54,4.95 0.96,1.63 2.16,3.26 2.67,5.1 0.12,0.42 -0.42,0.86 -0.74,1.02 -0.3,0.15 -0.87,0.27 -1.12,-0.02 -1.2,-1.41 -2.3,-3.09 -3.33,-4.62 -1.22,-1.78 -2.16,-3.73 -2.41,-5.9 -0.02,-0.21 -0.02,-0.38 0,-0.53 -0.65,0.29 -1.04,0.8 -1.39,0.91 0.71,1.05 1.37,2.3 1.42,2.39 2.92,5.39 5.62,11.31 9.98,15.71 0.03,0.04 0.2,0.18 0.25,0.23 2.41,2.13 4.47,3.14 7.51,4.12 3.7,1.1 7.26,1.59 11.07,2.07 0.3,0.04 0.92,0.17 1.42,0.41l1 -1.66c-0.41,-0.26 -0.49,-0.87 -0.43,-1.33 0.37,-2.48 1.04,-4.93 1.43,-7.42 0.22,-1.46 0.38,-2.83 0.27,-4.31 -0.04,-0.53 -0.12,-1.01 -0.3,-1.51 -0.07,-0.3 -0.34,-0.61 -0.54,-0.83 -0.84,-0.76 -1.69,-1.5 -2.56,-2.22z"/>
    <path class="fil5 str3" d="M149.93 188.56c0.27,0.79 0.38,1.46 0.44,2.29 0.09,1.75 -0.1,3.26 -0.43,4.98 -0.52,2.57 -1.21,4.95 -2.03,7.44 -0.19,0.57 -0.7,1.06 -1.35,0.94 -0.11,-0.02 -0.2,-0.06 -0.28,-0.11l-1 1.66c0.43,0.2 0.77,0.48 0.75,0.84 -0.02,0.13 -0.08,0.24 -0.18,0.34l3.25 0.78c0,-0.03 0,-0.06 -0.01,-0.1 -0.17,-1.2 3.63,-0.25 3.99,-0.18 5.2,1.07 10.38,2.19 15.59,3.21 4.77,0.91 12.91,2.56 17.63,2.29 0.18,-0.02 0.35,-0.04 0.53,-0.08 3.22,-0.98 10.73,-6.35 13.68,-8.42 4.24,-3.01 8.45,-6.16 12.73,-9.09 0.54,-0.36 1.52,-0.8 2.02,-0.14 0.46,0.61 -0.32,1.46 -0.75,1.83 -3.94,3.37 -8.23,6.57 -12.41,9.63 -3.49,2.52 -10.32,7.57 -14.41,8.96l0.47 2.58c0,0 0,0 0.01,-0.01 1.15,-0.74 1.74,6.79 1.77,7 0.52,4.3 1.08,8.57 1.74,12.86 0.61,3.85 1.29,7.63 2.23,11.42 0.51,1.99 1.32,5.1 2.56,6.75 1.45,1.71 3.35,2.82 5.31,3.84 2.75,1.36 5.38,2.32 8.31,3.22 1.52,0.46 3.02,0.86 4.56,1.23 3.95,0.91 7.91,1.63 11.97,1.72 7.43,0.08 14.92,0.31 22.19,-1.47 5.59,-1.58 9.26,-3.75 13.98,-7.06 0.29,-0.21 2.56,-1.8 3.99,-2.44l-0.29 -1.89c-0.75,0.1 -1.63,-2.65 -1.77,-3.12 -3.57,-12.53 -6.67,-25.24 -9.95,-37.86 -3.26,-12.54 -6.52,-25.17 -9.27,-37.84 -0.35,-1.67 -1.12,-4 -0.32,-5.64l-1.6 -2.44c-1.09,-0.22 -3.27,-1.56 -3.62,-1.79 -3.59,-2.29 -5.61,-3.28 -9.94,-3.67 -14.85,-0.93 -18.22,-0.26 -30.42,8.56 -0.06,0.01 -1.69,1.25 -1.88,1.4 -5.65,4.37 -14.72,13.57 -19.32,16.55 -2.95,1.68 -5.49,1.9 -8.82,2.04 -3.25,0.08 -6.51,-0.06 -9.76,-0.19 -2.57,-0.13 -6.39,-0.03 -8.61,-1.49 -0.16,-0.1 -0.19,-0.18 -0.13,-0.26l-1.45 0.23c0.11,0.22 0.21,0.45 0.3,0.7z"/>
    <path class="fil6" d="M209.23 266.13c-2.41,-0.73 -4.61,-1.5 -6.84,-2.47 -0.66,1.38 -2.91,3.91 -2.96,3.97 -8.03,9.37 -15.09,17.51 -21.87,27.98 -0.76,1.2 -1.48,2.41 -2.19,3.64 -2.9,5.16 -4.98,9.67 -6.5,15.41 -1.51,6.58 -1.68,11.64 0.64,18.04 0.02,0.34 1.11,2.2 1.36,2.57 0.26,0.4 1.7,2.64 1.28,3.29 0.71,-0.52 4.2,-0.2 4.67,-0.14 12.49,1.44 25.62,3.08 38.18,1.88 12.15,-1.16 24.37,-4.69 36.16,-7.78 1.8,-0.46 4.38,-1.35 6.47,-1.17l0.23 -0.32c-0.01,-0.02 -0.01,-0.04 -0.02,-0.05 -1.46,-3.04 -2.52,-6.43 -3.71,-9.59 -1.17,-3.12 -2.39,-6.49 -3.07,-9.75 -0.18,-1.02 -0.11,-1.28 0.59,-1.75l-1.44 -3 -0.65 -1.33c-0.59,0.15 -1.3,0.18 -1.58,0.18 -7.81,-0.15 -15.57,-0.48 -23.38,-0.32 -7.67,0.16 -15.35,0.55 -23.02,0.6 -1.58,0 -3.09,0.2 -4.04,-1.08 -0.76,-0.95 4.26,-1.36 4.46,-1.38 7.49,-0.71 15.06,-1.05 22.59,-1.07 3.37,-0.01 6.75,0.02 10.12,0.14 0.3,-0.48 0.75,-0.95 0.94,-1.13 1.46,-1.34 2.99,-2.64 4.44,-3.98 5.21,-4.51 10.92,-9.01 15.51,-14.13 0.97,-1.14 1.83,-2.23 2.67,-3.46 2.08,-3.15 3.17,-5.67 4.12,-9.31 0.75,-3.06 1.1,-5.83 1.35,-8.97 0.05,-0.72 0.06,-1.45 0.16,-2.13 -4.79,3.67 -8.55,6.03 -14.39,7.81 -7.59,2.02 -15.13,1.82 -22.93,1.77 -4.29,-0.08 -8.42,-0.79 -12.61,-1.73 -1.6,-0.37 -3.16,-0.78 -4.74,-1.24z"/>
    <path class="fil7 str4" d="M257.5 305.57c-1.2,0.03 -2.06,0.18 -2.81,-0.4l-4.48 1.72 1.44 3c0.05,-0.04 0.1,-0.07 0.16,-0.11 0.76,-0.5 1.4,0.78 1.63,1.29 1.37,3 2.43,6.27 3.47,9.39 1.01,3.01 2.22,6.28 2.85,9.41l2.36 1.01c-0.02,-0.24 0.02,-0.51 0.12,-0.84 0.31,-1.1 2.84,0.96 3.12,1.19 0.21,0.17 0.42,0.34 0.63,0.51 0.06,-0.41 0.14,-0.82 0.21,-1.23 0.12,-0.89 0.34,-1.94 0.91,-2.65 0.28,-0.35 0.99,-0.12 1.36,-0.05 0.42,0.09 0.93,0.29 0.98,0.77 0.08,0.87 -0.2,1.88 -0.43,2.72 -0.16,0.58 -0.31,1.1 -0.51,1.66 -0.07,0.2 -0.18,0.41 -0.31,0.61 0.24,0.19 0.48,0.39 0.73,0.59 0.35,-0.94 0.89,-1.89 1.37,-2.71 0.6,-1.04 1.3,-2.42 2.22,-3.18 0.23,-0.19 0.94,0.15 1.15,0.27 0.2,0.12 0.74,0.51 0.68,0.79 -0.24,1.19 -1,2.47 -1.51,3.58 -0.45,0.99 -1.03,2.14 -1.79,2.97 0.75,0.58 1.52,1.16 2.31,1.73 -0.01,-0.03 -0.01,-0.06 -0.01,-0.09 0.03,-0.9 0.42,-1.89 0.76,-2.72 0.34,-0.83 0.7,-1.93 1.39,-2.54 0.18,-0.16 0.95,0.11 1.14,0.19 0.19,0.08 0.81,0.38 0.82,0.61 0.03,0.91 -0.4,1.96 -0.64,2.85 -0.23,0.88 -0.57,1.93 -1.23,2.58 -0.19,0.2 -0.51,0.17 -0.82,0.09 2,1.27 3.8,2.22 6.14,2.75 0.19,0.08 1.06,0.16 1.3,0.18 0.57,0.04 1.06,0.02 1.63,-0.05 1.08,-0.16 1.85,-0.43 2.81,-0.96 0.95,-0.55 2.22,-1.29 2.92,-2.17 0.14,-0.19 0.23,-0.34 0.27,-0.58 0.05,-0.27 0.01,-0.52 -0.05,-0.78 0.04,-0.48 -2.58,-6.1 -2.91,-6.93 -0.2,-0.48 -0.8,-2.53 -0.02,-2.82 0.02,-0.01 0.04,-0.01 0.06,-0.02l-0.97 -2.19c-0.6,0.14 -1.52,-0.73 -1.81,-1.08 -3.7,-4.49 -7.19,-9.94 -11.39,-13.8 -0.21,-0.18 -0.42,-0.36 -0.64,-0.54 -2.31,-1.83 -4.14,-2.76 -7.01,-3.46 -2.65,-0.56 -4.91,-0.64 -7.6,-0.56z"/>
    <path class="fil7" d="M240.89 149.8c0.77,-0.23 1.33,-0.5 1.98,-0.99 0.71,-0.56 1.14,-1.09 1.61,-1.87 0.21,-0.37 0.42,-0.74 0.63,-1.12 4.17,-8.44 -1.83,-5.51 6.09,-14.07 1.32,-1.4 2.32,-2.65 3.2,-4.37 0.63,-1.3 0.96,-2.35 1.1,-3.79 0.14,-2.67 -0.53,-4.55 -1.66,-6.93 -1.16,-2.33 -2.53,-4.49 -3.62,-6.85 -0.55,-1.24 -0.91,-2.26 -1.12,-3.61 -0.18,-1.42 -0.1,-2.49 0.35,-3.85 1.28,-3.42 3.08,-5.73 4.18,-8.58 0.39,-1.21 0.41,-2.03 0.14,-3.28 0,-0.05 -0.13,-0.51 -0.15,-0.58 -0.24,-0.76 -1.96,-4.95 -1.63,-5.37 0.05,0 0.11,0.01 0.16,0.02l-0.06 -0.1c-0.01,0.01 -0.02,0.02 -0.03,0.03 -0.5,0.14 -2.45,-1.55 -2.9,-1.89 -0.35,-0.25 -0.68,-0.45 -1.06,-0.64 -1.24,-0.61 -2.31,-0.84 -3.66,-1.08 -4.5,-0.74 -6.62,-1.15 -10.71,-3.55 -3.34,-2.03 -6.71,-3.88 -10.63,-4.43 -2.48,-0.24 -4,0.09 -6.23,1.14 -0.1,0.02 -1.06,0.55 -1.22,0.64 -1.66,0.92 -3.12,1.8 -4.86,2.6 -3.2,1.32 -5.59,1.61 -9.04,1.3 -2.78,-0.26 -5.39,-0.33 -8.04,0.62 -0.85,0.35 -1.46,0.7 -2.14,1.32 -0.56,0.56 -0.9,1.06 -1.2,1.8 -0.66,1.83 -0.5,3.48 -0.09,5.35 -0.01,0.17 0.52,1.78 0.62,2.05 0.62,1.65 1.88,3.77 1.58,5.52 -0.02,0.12 -0.07,0.19 -0.13,0.23l0.06 0.12c0.81,-0.65 1.68,-1.25 2.64,-1.8 1.11,-0.6 1.89,-1.13 2.9,-0.33 0.01,0.01 0.02,0.02 0.03,0.03 0,-0.01 0,-0.03 0,-0.04 0,-0.68 1.17,-0.94 1.63,-0.98 2.03,-0.19 3.9,-0.27 5.95,-0.17 2.83,0.21 5.19,0.64 7.58,2.38 1.53,1.2 3.73,2.71 4.79,4.38 0.45,0.82 0.58,1.47 0.58,2.42 0,0.02 -0.01,0.15 -0.01,0.16 -0.05,1.07 -0.29,2.03 -0.54,3.06 -0.85,3.24 -3.41,10.39 -3.87,13.02 0,0.08 -0.03,0.02 0.01,0.08 0.04,0.14 0.71,0.54 0.75,0.59 0.02,0.04 1.28,0.87 1.41,0.96 1.02,0.72 2.03,1.33 2.35,2.47l0.12 0c0.51,-1.55 6.04,-4.56 6.5,-4.79 0.95,-0.36 1.71,-0.56 2.73,-0.59 0.06,-0.01 0.35,0.01 0.43,0.02 0.92,0.08 1.57,0.29 2.36,0.77 1.04,0.72 1.61,1.5 2.17,2.61 0.7,1.49 1,2.85 1.23,4.47 0.24,1.92 0.24,3.44 -0.35,5.3 -0.54,1.49 -1.19,2.46 -2.35,3.54 -2.06,1.75 -3.9,2.36 -6.35,3.33 -0.72,0.3 -1.49,0.61 -2.12,1.08 -0.16,0.13 -0.3,0.26 -0.41,0.43 -0.08,0.14 -0.11,0.24 -0.12,0.39 -0.01,0.28 0.06,0.53 0.15,0.79 0.19,0.51 0.43,0.94 0.72,1.4 1.09,1.65 2.44,3.1 3.81,4.51 2.42,2.33 5.56,3.85 8.8,4.67 1.74,0.37 3.21,0.5 4.96,0.05z"/>
    <path class="fil4 str2" d="M219.97 140.09c-0.22,-0.65 -0.32,-1.17 -0.29,-1.86 0.04,-0.65 0.19,-1.12 0.52,-1.68 0.32,-0.51 0.63,-0.83 1.1,-1.19 0.9,-0.66 1.77,-1.02 2.79,-1.43 2.03,-0.79 3.87,-1.37 5.58,-2.78 0.81,-0.74 1.26,-1.38 1.65,-2.4 0.47,-1.42 0.47,-2.64 0.31,-4.11 -0.17,-1.33 -0.39,-2.52 -0.92,-3.75 -0.33,-0.69 -0.66,-1.23 -1.28,-1.69 -0.49,-0.33 -0.89,-0.44 -1.48,-0.46 -0.08,-0.03 -0.65,0.03 -0.76,0.05 -0.42,0.06 -0.79,0.16 -1.2,0.3 -1.82,0.79 -6.13,3.98 -7.18,3.25 -0.13,-0.14 -0.15,-0.32 -0.08,-0.52l-0.12 0c0.05,0.18 0.09,0.37 0.1,0.57 0,0.96 -3.51,-1.09 -3.85,-1.26 -0.36,-0.18 -0.84,-0.39 -1.17,-0.61 -0.52,-0.29 -0.94,-0.55 -1.36,-0.99 -0.46,-0.53 -0.65,-1 -0.7,-1.72 -0.01,-1.88 3.19,-11.58 3.8,-13.85 0.2,-0.79 0.43,-1.66 0.49,-2.48 0,-0.02 0,-0.07 0,-0.09 0.01,-0.38 -0.02,-0.62 -0.2,-0.95 -0.65,-1.06 -3.1,-2.86 -4.09,-3.66 -1.88,-1.41 -4.01,-1.79 -6.26,-2.05 -0.4,-0.17 -4.9,-0.26 -5.73,-0.29 -0.43,-0.01 -1.3,-0.18 -1.57,-0.66 -0.09,0.71 -1.88,1.91 -2.18,2.14 -4.22,3.28 -6.85,7.3 -10.15,11.48 -2.36,2.99 -4.39,5.24 -7.26,7.7 -0.37,0.31 -0.8,0.67 -1.1,1.07 0.46,0.45 2.34,1.76 2.47,1.85 0.38,0.28 1.57,1.39 1.17,2 -0.1,0.15 -0.29,0.2 -0.52,0.2l1.51 1.7c0.14,-0.43 0.33,-0.77 0.62,-0.77 0.66,0 0.95,2.12 0.98,2.58 0.35,4.54 0.39,9.06 0.64,13.6 0.1,1.66 0.22,3.22 0.59,4.84 0.28,1.08 0.57,1.93 1.28,2.78 0.03,0.06 0.34,0.35 0.41,0.41 0.64,0.53 1.23,0.78 2,1.02 1.55,0.42 3.04,0.48 4.63,0.5 4.48,-0.04 9.08,-0.52 13.56,-0.88 1.53,-0.11 3.27,-0.46 4.4,0.67 0.89,0.83 -4.65,1.65 -4.73,1.67 -1.11,0.17 -2.22,0.34 -3.33,0.49 0.02,0.07 0.03,0.14 0.05,0.2 0.55,2.27 0.77,4.78 0.98,7.1 0.19,2.09 0.51,4.5 0.4,6.65 6.5,-3.95 11.01,-5 18.84,-4.75 -0.42,-1.64 -0.55,-3.49 -0.79,-5.14 -0.27,-1.79 -0.53,-3.89 -0.3,-5.7 0.1,-0.76 0.61,-0.8 1.23,-0.95 0.11,-0.03 0.22,-0.04 0.31,-0.03l0.04 -0.54c-1.04,-1.13 -2.01,-2.29 -2.86,-3.6 -0.41,-0.66 -0.72,-1.25 -0.99,-1.98z"/>
    <path class="fil6" d="M175.71 248.44c-4.25,0.57 -12.05,1.71 -16.22,1.14 -0.96,-0.17 -1.02,-0.57 -0.93,-1.39l-0.02 0c-1.25,10.87 -2.52,21.74 -3.67,32.62 -1.42,13.36 -2.68,26.73 -3.75,40.11 2.23,0.48 4.81,1.41 6.96,2.13 2.07,0.7 4.99,1.55 7.16,2.59 -0.42,-3.72 -0.02,-7.41 0.92,-11.65 1.53,-6.04 3.67,-10.75 6.66,-16.19 0.72,-1.28 1.46,-2.52 2.23,-3.77 1.82,-2.85 3.68,-5.56 5.59,-8.18 -1.4,0.07 -5.85,-0.63 -6.83,-0.74 -1.69,-0.2 -6.06,-0.63 -7.54,-1.19 -0.34,-0.21 -0.29,-0.95 -0.33,-1.31 -0.07,-0.51 -0.05,-1.02 0.57,-1.12 1.76,-0.3 5.92,0.44 7.75,0.72 1.21,0.19 6.27,0.85 7.14,1.53 0.18,0.15 -0.01,0.95 -0.06,1.14 -0.01,0.02 -0.01,0.03 -0.01,0.05 5.1,-6.86 10.58,-13.08 16.8,-19.49 0.81,-0.82 1.72,-1.95 2.82,-2.44 -0.17,-0.09 -0.35,-0.17 -0.53,-0.26 -2.42,-1.25 -4.51,-2.52 -6.29,-4.63 -1.65,-2.22 -2.44,-5.27 -3.1,-7.92 -0.31,-1.3 -0.59,-2.6 -0.84,-3.9 -4.2,0.98 -10.37,1.59 -14.48,2.15z"/>
   </g>
   <g>
    <path class="fil8" d="M59.83 110.93c0.11,14.68 1.27,28.73 1.74,43.26 0.02,0.61 -0.13,1.89 -0.96,1.94 -0.77,0.05 -1.08,-1.26 -1.15,-1.8 -1.74,-13.82 -2.36,-29.49 -2.56,-43.4 -0.02,-3.34 0.01,-6.62 0.19,-9.95 0.25,-4.04 0.61,-7.76 1.83,-11.63 0.52,-1.5 1.05,-2.69 1.94,-4.02 0.85,-1.21 1.63,-2.01 2.85,-2.84 1.25,-0.79 2.29,-1.2 3.73,-1.51 1.57,-0.31 2.89,-0.35 4.48,-0.26 1.64,0.12 3.12,0.36 4.73,0.71 2.1,0.5 5.02,0.98 6.32,2.89 0.61,1.07 -7.36,-0.61 -7.59,-0.64 -1.21,-0.17 -2.35,-0.28 -3.58,-0.31 -1.33,-0.02 -2.46,0.04 -3.76,0.33 -1.05,0.26 -1.83,0.57 -2.73,1.18 -0.87,0.62 -1.42,1.22 -2.02,2.1 -0.71,1.09 -1.13,2.08 -1.54,3.31 -1.1,3.58 -1.43,7.15 -1.67,10.87 -0.19,3.27 -0.24,6.5 -0.25,9.77z"/>
   </g>
   <path class="fil9" d="M83.11 84.31c-17.96,-5.25 -23.4,-1.92 -24.54,16.76 -1,16.5 1.27,47.15 1.99,55.07"/>
   <g>
    <path class="fil8" d="M85.51 168.76c7.02,2.58 14.82,4.37 22.06,6.52 0.49,0.15 2.96,1.06 2.71,1.86 -0.22,0.71 -2.8,0.28 -3.28,0.17 -7.42,-1.59 -15.39,-3.26 -22.54,-5.81 -6.93,-2.47 -13.39,-6.48 -19.52,-10.5 -1.41,-0.95 -3.35,-1.93 -3.67,-3.75 -0.28,-1.32 5.43,1.96 5.51,2.01 6.04,3.36 12.26,7.04 18.73,9.5z"/>
   </g>
   <path class="fil9" d="M61.17 157.24c23.39,14.27 22.45,13.09 49.1,19.94"/>
   <g>
    <path class="fil8" d="M102.61 153.1c3.6,2.3 7.34,4.33 10.94,6.59 0.5,0.31 0.88,0.97 0.59,1.54 -0.26,0.54 -1.04,0.53 -1.53,0.35 -4.04,-1.53 -7.88,-3.8 -11.58,-6.01 -3.63,-2.17 -7.31,-4.61 -10.6,-7.28 -0.94,-0.81 -1.28,-1.08 -0.97,-2.22 0.24,-0.97 2.17,0.13 2.58,0.36 3.61,2.04 7.07,4.44 10.57,6.67z"/>
   </g>
   <path class="fil9" d="M89.4 146.09c8.67,5.79 15.33,10.73 24.73,15.18"/>
   <g>
    <path class="fil8" d="M87.81 120.28c0.43,7.79 0.94,15.78 0.75,23.57 -0.02,0.56 -0.26,2.12 -1.06,2.12 -0.72,0 -1.01,-1.58 -1.06,-2.08 -0.69,-7.79 -1,-15.64 -1.56,-23.44 -0.55,-7.75 -1.16,-15.58 -1.29,-23.34 -0.01,-1.51 -0.21,-2.78 1.05,-3.62 0.96,-0.69 1.39,3.71 1.42,3.96 0.86,7.56 1.33,15.24 1.75,22.83z"/>
   </g>
   <path class="fil9" d="M84.59 93.43c1.23,17.83 2.27,34.69 2.86,52.55"/>
   <g>
    <path class="fil8" d="M73.09 104.54c4.55,0.31 8.57,2.47 12.12,5.2 0.46,0.36 1.08,1.21 0.67,1.79 -0.38,0.53 -1.39,0.22 -1.83,-0.02 -3.38,-1.83 -7.23,-3.93 -11.15,-4.04 -0.04,0 -0.25,0 -0.26,-0.01 -3.84,0.05 -7.56,1.14 -11.29,1.96 -1.3,0.25 -1.92,0.45 -2.73,-0.54 -0.69,-0.79 2,-1.76 2.36,-1.9 4.02,-1.46 7.48,-2.55 11.81,-2.45 0.05,-0.01 0.24,0.01 0.3,0.01z"/>
   </g>
   <path class="fil9" d="M58.59 108.94c12.5,-3.75 16.07,-4.87 27.26,2.63"/>
   <g>
    <path class="fil8" d="M129.68 109.55c0.27,0.83 0.44,1.56 0.56,2.43 0.22,1.99 0.07,3.51 -0.51,5.43 -0.64,1.9 -1.4,3.26 -2.64,4.83 -2.83,3.32 -5.78,5.12 -9.9,6.48 -3.65,1.04 -6.58,1.24 -10.34,0.73 -0.64,-0.12 -3.02,-0.67 -2.91,-1.66 0.19,-0.64 2.72,-0.47 3.2,-0.44 3.38,0.2 6.01,-0.1 9.24,-1.14 3.53,-1.26 6.1,-2.84 8.51,-5.74 0.99,-1.28 1.61,-2.38 2.11,-3.93 0.43,-1.49 0.54,-2.65 0.35,-4.19 0.03,-0.29 -0.34,-1.55 -0.45,-1.87 -0.33,-0.91 -0.69,-1.63 -1.2,-2.45 -1.19,-1.78 -2.42,-2.97 -4.1,-4.29 -3.27,-2.48 -9.18,-6.31 -11.7,-9.31 -1.72,-2.27 -2.31,-4.35 -2.99,-7.08 -0.48,-2.14 -1.29,-4.76 -0.35,-6.87 0.64,-1.2 2.82,6.68 2.9,6.92 0.68,2.01 1.26,3.58 2.63,5.23 2.34,2.54 8.41,6.5 11.34,8.74 1.99,1.56 3.4,2.97 4.77,5.09 0.65,1.04 1.08,1.94 1.48,3.09z"/>
   </g>
   <path class="fil9" d="M106.48 80.36c3.57,15.38 3.21,12.28 16.04,22.2 15.52,12 -0.28,29.56 -18.57,25.19"/>
   <g>
    <path class="fil8" d="M100.08 95.83c2.47,1.24 4.43,1.8 7.19,1.91 2.82,0.01 4.89,-0.48 7.53,-1.4 0.53,-0.19 1.63,-0.33 1.94,0.3 0.32,0.62 -0.63,1.39 -1.09,1.64 -2.84,1.47 -5.2,2.14 -8.41,2.23 -3.25,-0.04 -5.59,-0.68 -8.52,-2.08 -0.06,-0.03 -0.36,-0.19 -0.39,-0.2 -5.22,-2.89 -8.67,-6.54 -11.99,-11.43 -0.73,-1.15 -1.2,-1.72 -0.5,-2.85 0.52,-0.9 2.39,1.36 2.66,1.66 3.53,4.01 6.54,7.32 11.23,10.04 0.04,0.03 0.29,0.15 0.35,0.18z"/>
   </g>
   <path class="fil9" d="M85.77 83.94c7.57,10.5 17.41,20.02 31,12.74"/>
   <g>
    <path class="fil8" d="M118.01 79.1c0.43,-0.25 0.8,-0.5 1.2,-0.79 1.37,-1.03 2.56,-2.18 3.83,-3.33 0.95,-0.78 1.74,-2.09 2.66,-2.96 0.63,-0.61 1.15,-1.01 1.94,-1.39 0.94,-0.42 1.71,-0.56 2.74,-0.6 0.69,0 1.38,0.01 2.07,0.03 0.59,0.01 1.53,0.32 1.55,1.04 0.03,0.65 -0.94,1 -1.45,1.07 -0.67,0.09 -1.35,0.17 -2.03,0.24 -0.66,0.08 -1.15,0.21 -1.73,0.52 -0.48,0.28 -0.79,0.56 -1.16,0.96 -0.97,1.09 -1.6,2.1 -2.69,3.16 -1.33,1.26 -2.56,2.47 -4.02,3.6 -0.39,0.33 -1.01,0.72 -1.45,0.99 -1.23,0.72 -2.23,1.12 -3.63,1.4 -2.53,0.42 -4.46,0.07 -6.87,-0.75 -2.4,-0.92 -4.26,-2.02 -6.35,-3.51 -1.13,-0.86 -2.01,-1.38 -1.82,-2.79 0.11,-1.04 3.17,0.78 3.46,0.94 1.89,1.02 3.65,1.88 5.7,2.57 1.87,0.6 3.41,0.91 5.37,0.6 1.03,-0.2 1.77,-0.49 2.68,-1z"/>
   </g>
   <path class="fil9" d="M100.73 76c13.87,9.87 17.98,4.99 23.33,0.09 2.21,-2.02 2.84,-4.53 6.4,-4.74l3.55 -0.21"/>
   <g>
    <path class="fil8" d="M54.03 237.25c-0.25,9.78 -2.11,17.76 -4.98,27.08 -6.94,21.19 -14.64,36.82 -17.42,59.33 -0.06,0.54 -0.8,7.98 -1.58,7.85 -0.92,-0.62 -0.58,-7.14 -0.51,-8.17 2.19,-23.05 9.79,-38.31 16.78,-59.88 2.75,-9.01 4.58,-16.79 4.78,-26.24 -0.49,-17.94 -8.01,-25.51 -7.88,-40.49 0.79,-12.56 1.34,-18.21 8.46,-28.57 2.33,-3.24 5.57,-8.09 8.85,-10.45 2.26,-1.72 -7.21,12.37 -7.66,13.08 -5.77,9.35 -6.1,15.15 -6.72,26.09 -0.03,14.16 7.44,22.03 7.88,40.37z"/>
   </g>
   <path class="fil9" d="M60.65 157.45c-11.48,16.98 -14.84,18.02 -15.93,39.36 -0.99,19.24 15.83,26.15 2.89,67.06 -8.28,26.18 -16.87,40.13 -17.61,67.64"/>
   <g>
    <path class="fil8" d="M85.72 346.42c-9.61,-0.21 -18.7,-0.67 -28.21,-2.11 -7.76,-1.3 -15.87,-3 -22.29,-7.81 -0.13,-0.06 -1.14,-0.9 -1.33,-1.06 -0.39,-0.31 -3.6,-3.01 -3.02,-3.68 0.52,-0.59 3.93,1.74 4.35,2.04 0.43,0.31 0.88,0.65 1.32,0.94 6.32,4.2 14.01,5.68 21.39,6.85 9.4,1.31 18.36,1.76 27.84,1.9 1.11,0.01 2.22,0.02 3.33,0.03 17.46,-0.03 34.45,-1.08 51.82,-1.48 1.74,-0.02 4.46,-0.39 5.75,1.05 0.98,1.02 -6.52,1.43 -6.54,1.43 -17.12,1.24 -33.88,2 -51.06,1.95 -1.1,0.01 -2.25,-0.03 -3.35,-0.05z"/>
   </g>
   <path class="fil9" d="M146.76 343.04c-24.99,0.88 -91.88,6.74 -110.81,-7.52l-5.05 -3.8"/>
   <g>
    <path class="fil8" d="M126.51 162.09c0.82,0.63 1.52,1.28 2.25,2.01 2.19,2.33 4.07,5.58 5.75,8.33 0.29,0.48 0.22,1.13 -0.22,1.51 -0.45,0.38 -1.08,0.17 -1.45,-0.21 -2.27,-2.35 -3.82,-5.29 -6.1,-7.6 -0.58,-0.59 -1.35,-1.24 -2.02,-1.73 -1.16,-0.82 -2.06,-1.29 -3.44,-1.61 -2.27,-0.43 -4.29,-0.16 -6.55,0.22 -1.28,0.21 -1.81,0.38 -2.63,-0.57 -0.73,-0.8 1.97,-1.75 2.33,-1.87 2.62,-0.82 4.78,-1.21 7.51,-0.71 1.85,0.44 3.06,1.08 4.57,2.23z"/>
   </g>
   <path class="fil9" d="M112.07 162.5c8.54,-2.81 11.69,-1.24 15.63,2.67 1.96,1.95 4.31,6.25 6.55,8.8"/>
   <g>
    <path class="fil8" d="M127.86 170.15c0.6,0.89 1.31,1.83 1.66,2.85 0.09,0.28 -0.46,0.83 -0.65,0.99 -0.19,0.16 -0.73,0.52 -0.98,0.36 -1.04,-0.68 -1.67,-1.65 -2.46,-2.56 -0.63,-0.71 -1.27,-1.51 -1.63,-2.4 -0.18,-0.46 0.33,-0.94 0.6,-1.26 0.32,-0.39 0.76,-0.63 1.25,-0.34 0.93,0.57 1.6,1.47 2.21,2.36z"/>
   </g>
   <path class="fil9" d="M124.36 168.16c1.88,1.9 2.48,3.52 4.48,5.86"/>
   <g>
    <path class="fil8" d="M123.67 196.87c2.41,2.12 4.47,3.14 7.51,4.11 3.7,1.1 7.26,1.59 11.08,2.08 0.54,0.06 2.22,0.46 2.16,1.24 -0.06,0.73 -1.84,0.87 -2.34,0.86 -4.14,-0.09 -7.69,-0.41 -11.71,-1.5 -3.51,-1.07 -5.87,-2.24 -8.67,-4.63 -0.05,-0.04 -0.27,-0.25 -0.31,-0.27 -4.98,-4.85 -7.62,-10.99 -10.39,-17.27 -0.62,-1.47 -1.44,-2.84 -0.66,-4.26 0.56,-1.11 3.01,3.53 3.1,3.69 2.92,5.4 5.63,11.31 9.98,15.71 0.03,0.05 0.2,0.19 0.25,0.24z"/>
   </g>
   <path class="fil9" d="M110.27 177.18c9.77,19.59 11.13,26.14 34.15,27.17"/>
   <g>
    <path class="fil8" d="M144.44 181.95c0.89,0.77 1.76,1.55 2.62,2.35 0.62,0.6 0.96,1.16 1.26,1.97 0.27,0.79 0.38,1.45 0.44,2.28 0.09,1.75 -0.1,3.27 -0.43,4.98 -0.52,2.58 -1.21,4.95 -2.03,7.44 -0.19,0.58 -0.7,1.07 -1.35,0.94 -0.65,-0.12 -0.79,-0.89 -0.7,-1.44 0.36,-2.47 1.03,-4.92 1.42,-7.41 0.22,-1.46 0.38,-2.84 0.27,-4.32 -0.04,-0.53 -0.12,-1 -0.3,-1.5 -0.07,-0.31 -0.34,-0.62 -0.54,-0.84 -0.84,-0.76 -1.69,-1.5 -2.56,-2.22 -4.85,-3.98 -9.06,-6.11 -14.86,-8.34 -1.32,-0.53 -2.24,-0.72 -2.53,-2.1 -0.26,-1.11 3.38,-0.18 3.67,-0.1 6.2,1.62 10.75,4.16 15.62,8.31z"/>
   </g>
   <path class="fil9" d="M125.09 173.77c9.06,2.51 13.92,5.08 20.94,11.63 3.1,2.9 -0.45,12.6 -1.13,16.51"/>
   <g>
    <path class="fil8" d="M118.34 182.57c0.96,1.63 2.16,3.26 2.67,5.11 0.12,0.41 -0.42,0.85 -0.74,1.01 -0.3,0.15 -0.87,0.28 -1.12,-0.02 -1.2,-1.4 -2.29,-3.08 -3.33,-4.61 -1.22,-1.79 -2.16,-3.73 -2.41,-5.9 -0.1,-0.92 0.27,-1.08 0.98,-1.39 0.69,-0.31 1.14,0.3 1.41,0.85 0.81,1.7 1.58,3.32 2.54,4.95z"/>
   </g>
   <path class="fil9" d="M114.34 176.76c1.28,5.41 3.74,7.78 5.89,11.95"/>
   <g>
    <path class="fil8" d="M122.24 181.89c0.76,1.34 1.58,2.4 2.58,3.56 0.67,0.81 1.28,1.58 1.83,2.49 0.23,0.39 -0.13,0.95 -0.43,1.21 -0.28,0.26 -0.8,0.46 -1.14,0.2 -0.83,-0.65 -1.55,-1.32 -2.29,-2.06 -1.25,-1.3 -2.15,-2.45 -3.11,-3.97 -1.19,-1.92 -2.03,-4.2 -2.09,-6.47 -0.03,-0.82 0.43,-0.93 1.06,-1.18 0.68,-0.27 1.1,0.18 1.35,0.77 0.78,1.87 1.23,3.64 2.24,5.45z"/>
   </g>
   <path class="fil9" d="M118.61 175.66c0.76,3.48 1.38,6.68 5.1,10.79l2.48 2.73"/>
   <g>
    <path class="fil8" d="M124.36 179.72c-0.11,-0.12 -0.21,-0.26 -0.31,-0.38 -0.64,-0.89 -0.92,-1.61 -0.97,-2.7 0.01,-1.02 0.24,-1.79 0.72,-2.68 0.21,-0.38 0.9,-0.32 1.24,-0.2 0.31,0.1 0.81,0.43 0.79,0.8 -0.04,0.63 -0.09,1.32 0.01,1.95 0.08,0.48 0.21,0.73 0.53,1.1 0.01,0.03 0.17,0.17 0.2,0.2 1.24,1.08 2.35,1.93 3.37,3.26 0.54,0.69 0.28,1.03 -0.13,1.65 -0.4,0.63 -1.09,0.4 -1.61,0.06 -1.28,-0.81 -2.86,-1.91 -3.84,-3.06z"/>
   </g>
   <path class="fil9" d="M129.86 182.7c-4.37,-4.17 -6.3,-4.22 -4.77,-8.93"/>
   <g>
    <path class="fil8" d="M134.12 134.44c-0.54,2.19 -1.08,4.89 -2.04,6.93 -0.19,0.41 -0.86,0.42 -1.24,0.33 -0.36,-0.09 -0.83,-0.4 -0.81,-0.83 0.11,-2.31 0.8,-4.86 1.25,-7.14 0.44,-2.26 0.98,-4.85 1.88,-6.96 0.35,-0.81 0.76,-0.74 1.5,-0.7 0.78,0.04 0.89,0.77 0.84,1.41 -0.19,2.28 -0.82,4.73 -1.38,6.96z"/>
   </g>
   <path class="fil9" d="M134.62 126.04c-1.17,5.02 -2.65,10.63 -3.82,15.65"/>
   <g>
    <path class="fil8" d="M152.92 133.43c0.15,0.63 0.24,1.18 0.28,1.82 0.1,2.94 -0.7,5.07 -2.16,7.58 -1.19,1.94 -2.4,3.75 -3.79,5.56 -0.36,0.46 -1.11,0.9 -1.67,0.52 -0.52,-0.35 -0.34,-1.21 -0.1,-1.67 1.01,-1.93 2.11,-3.91 3.2,-5.8 1.07,-1.98 1.76,-3.74 1.63,-6.02 0.03,-0.15 -0.18,-1.08 -0.23,-1.27 -0.38,-1.24 -0.89,-2.07 -1.73,-3.05 -2.41,-2.58 -5.27,-3.97 -8.45,-5.37 -1.21,-0.55 -1.76,-0.69 -1.89,-1.95 -0.14,-1.09 2.64,-0.35 3.02,-0.24 3.82,1.15 6.86,2.65 9.61,5.61 1.14,1.38 1.8,2.55 2.28,4.28z"/>
   </g>
   <path class="fil9" d="M137.96 123.82c9.11,2.53 17.71,8.21 11.8,18.25 -1.37,2.33 -2.78,4.54 -4.22,6.82"/>
   <g>
    <path class="fil8" d="M145.57 142.97c-0.51,1.24 -1.08,2.85 -1.94,3.88 -0.2,0.24 -0.87,0.04 -1.11,-0.06 -0.24,-0.09 -0.75,-0.39 -0.71,-0.7 0.16,-1.36 0.8,-2.85 1.22,-4.16 0.42,-1.29 0.96,-2.82 1.78,-3.91 0.37,-0.49 0.88,-0.26 1.37,-0.13 0.54,0.15 0.8,0.51 0.71,1.08 -0.22,1.33 -0.81,2.76 -1.32,4z"/>
   </g>
   <line class="fil9" x1="146.14" y1="137.86" x2="142.47" y2= "146.78" />
   <g>
    <path class="fil8" d="M137.62 139.5c-0.58,1.77 -1.19,3.96 -2.17,5.54 -0.21,0.34 -0.91,0.24 -1.23,0.14 -0.32,-0.11 -0.81,-0.42 -0.77,-0.81 0.19,-1.89 0.91,-3.93 1.39,-5.79 0.47,-1.82 1.07,-3.92 2,-5.56 0.39,-0.68 0.86,-0.54 1.51,-0.43 0.7,0.12 0.86,0.67 0.77,1.31 -0.25,1.85 -0.91,3.82 -1.5,5.6z"/>
   </g>
   <path class="fil9" d="M138.31 132.56c-1.38,4.2 -2.76,8.4 -4.14,12.6"/>
   <g>
    <path class="fil8" d="M141.96 140.38c-0.72,1.62 -1.51,3.65 -2.61,5.04 -0.24,0.31 -0.93,0.12 -1.23,-0.01 -0.29,-0.13 -0.77,-0.49 -0.7,-0.86 0.35,-1.77 1.23,-3.65 1.86,-5.36 0.62,-1.68 1.38,-3.62 2.44,-5.07 0.45,-0.62 0.92,-0.41 1.53,-0.24 0.66,0.18 0.8,0.71 0.65,1.34 -0.4,1.73 -1.22,3.54 -1.94,5.16z"/>
   </g>
   <path class="fil9" d="M143.21 133.84c-1.71,3.85 -3.42,7.7 -5.13,11.55"/>
   <g>
    <path class="fil8" d="M131.1 122.64c1.16,0.78 2.68,1.7 3.54,2.8 0.21,0.26 -0.15,0.93 -0.3,1.15 -0.15,0.22 -0.58,0.69 -0.88,0.59 -1.36,-0.44 -2.75,-1.41 -4,-2.11 -1.23,-0.69 -2.68,-1.57 -3.61,-2.64 -0.42,-0.48 -0.06,-0.98 0.18,-1.45 0.27,-0.52 0.7,-0.73 1.27,-0.52 1.31,0.49 2.65,1.4 3.8,2.18z"/>
   </g>
   <path class="fil9" d="M125.99 121.02c2.77,1.87 5.55,3.74 8.32,5.61"/>
   <g>
    <path class="fil8" d="M163.91 160.39c2.17,6.39 2.46,13.05 1.72,19.71 -0.06,0.55 -0.46,2.16 -1.25,2.07 -0.71,-0.07 -0.85,-1.72 -0.86,-2.22 -0.02,-6.28 -0.2,-12.65 -2.39,-18.61 -0.03,-0.1 -0.17,-0.44 -0.19,-0.51 -2.35,-5.85 -5.42,-10.28 -8.91,-15.46 -0.83,-1.26 -1.66,-2.17 -1.11,-3.57 0.4,-1.12 3.19,2.3 3.35,2.49 4.15,5.09 7.1,9.36 9.45,15.55 0.05,0.1 0.15,0.43 0.19,0.55z"/>
   </g>
   <path class="fil9" d="M150.85 141.78c11.25,14.45 14.77,21.61 13.48,40.39"/>
   <g>
    <path class="fil8" d="M194.35 166.34c0.61,-0.46 1.28,-1 1.91,-1.42 12.83,-9.15 16.85,-10.03 32.35,-8.76 4.84,0.54 7.14,1.74 10.99,4.54 0.4,0.29 3.45,2.75 2.93,3.41 -0.47,0.59 -3.75,-1.43 -4.18,-1.71 -3.59,-2.3 -5.6,-3.28 -9.94,-3.67 -14.85,-0.94 -18.22,-0.27 -30.42,8.55 -0.06,0.02 -1.69,1.26 -1.88,1.4 -5.65,4.37 -14.72,13.57 -19.32,16.56 -2.95,1.67 -5.48,1.89 -8.82,2.04 -3.25,0.07 -6.51,-0.06 -9.76,-0.2 -2.56,-0.13 -6.39,-0.02 -8.61,-1.49 -1.62,-0.99 9.7,-0.93 9.7,-0.93 2.85,-0.02 5.7,-0.03 8.55,-0.2 2.74,-0.17 5.01,-0.34 7.41,-1.75 4.74,-3.2 13.15,-11.81 19.09,-16.37z"/>
   </g>
   <path class="fil9" d="M149.43 185.64c35.56,0.76 19.41,1.22 47.72,-19.5 12.21,-8.93 16.82,-9.72 31.35,-8.57 6.14,0.48 8.91,3.13 14.01,6.58"/>
   <g>
    <path class="fil8" d="M184.69 210.64c0.18,-0.02 0.36,-0.04 0.53,-0.08 3.22,-0.97 10.73,-6.35 13.68,-8.42 4.24,-3 8.45,-6.15 12.74,-9.09 0.53,-0.36 1.51,-0.8 2.01,-0.14 0.46,0.62 -0.32,1.46 -0.75,1.83 -3.94,3.37 -8.22,6.58 -12.41,9.64 -3.56,2.56 -10.57,7.75 -14.64,9.03 -0.11,0.05 -0.71,0.13 -0.87,0.15 -5.21,0.39 -13.31,-1.26 -18.5,-2.3 -5.41,-1.12 -10.85,-2.35 -16.16,-3.88 -1.42,-0.44 -2.66,-0.58 -2.84,-2.05 -0.17,-1.2 3.63,-0.25 3.99,-0.18 5.2,1.06 10.38,2.18 15.59,3.2 4.77,0.92 12.91,2.56 17.63,2.29z"/>
   </g>
   <path class="fil9" d="M147.43 205.36c6.3,1.65 32.59,7.92 38.12,6.68 4.62,-1.04 23.9,-15.76 28.13,-19.09"/>
   <g>
    <path class="fil8" d="M213.04 262.23c3.95,0.9 7.91,1.62 11.97,1.72 7.43,0.07 14.92,0.31 22.19,-1.47 5.59,-1.58 9.26,-3.76 13.98,-7.06 0.41,-0.29 4.66,-3.28 5.11,-2.61 0.46,0.68 -3.47,4.01 -3.92,4.35 -4.83,3.71 -8.59,6.09 -14.47,7.88 -7.59,2.01 -15.12,1.82 -22.93,1.77 -4.29,-0.08 -8.42,-0.8 -12.61,-1.73 -1.6,-0.38 -3.16,-0.78 -4.74,-1.25 -3.11,-0.94 -5.88,-1.94 -8.8,-3.38 -2.43,-1.26 -4.52,-2.53 -6.3,-4.64 -1.65,-2.22 -2.44,-5.26 -3.1,-7.91 -0.93,-3.91 -1.57,-7.76 -2.12,-11.73 -0.65,-4.72 -1.15,-9.4 -1.51,-14.15 -0.11,-1.61 -0.74,-4.95 0.77,-6.11 1.15,-0.75 1.74,6.79 1.77,7 0.52,4.3 1.08,8.57 1.74,12.85 0.62,3.86 1.29,7.63 2.23,11.43 0.51,1.99 1.32,5.09 2.56,6.74 1.45,1.71 3.35,2.82 5.31,3.84 2.75,1.37 5.38,2.33 8.31,3.23 1.52,0.45 3.02,0.86 4.56,1.23z"/>
   </g>
   <path class="fil9" d="M186.51 215.84c0.49,6.8 3.02,33.84 7.19,39.03 4.96,6.17 22.86,10.5 31.29,10.59 20.04,0.23 26.44,-0.25 41.33,-12.62"/>
   <g>
    <path class="fil8" d="M256.01 209.4c3.15,12.64 6.48,25.35 9.17,38.1 0.1,0.5 0.58,3.42 -0.28,3.58 -0.75,0.15 -1.65,-2.64 -1.79,-3.12 -3.57,-12.53 -6.67,-25.24 -9.95,-37.85 -3.26,-12.55 -6.52,-25.18 -9.27,-37.85 -0.37,-1.77 -1.22,-4.29 -0.15,-5.94 0.75,-1.26 2.72,6.16 2.72,6.16 3.41,12.23 6.47,24.6 9.55,36.92z"/>
   </g>
   <path class="fil9" d="M243.67 166.23c7.07,28.29 14.13,56.58 21.19,84.87"/>
   <g>
    <path class="fil8" d="M173.76 243.24c3.89,-0.47 11.79,-1.75 15.46,-1.55 0.46,0.04 0.61,0.7 0.64,1.07 0.03,0.35 -0.03,0.91 -0.43,1.03 -4.18,1.09 -10.93,1.76 -15.33,2.36 -4.25,0.56 -12.05,1.71 -16.22,1.13 -0.97,-0.17 -1.02,-0.58 -0.92,-1.41 0.08,-0.75 0.49,-0.95 1.21,-1.02 5.21,-0.5 10.39,-1.01 15.59,-1.61z"/>
   </g>
   <path class="fil9" d="M156.93 245.91c3.56,0.89 29.3,-2.8 32.94,-3.1"/>
   <g>
    <path class="fil8" d="M153.26 278.51c-2.14,20.13 -3.92,40.26 -5.22,60.46 -0.03,0.5 -0.35,4.14 -1.24,4.07 -0.8,-0.07 -0.87,-3.7 -0.87,-4.21 0.32,-20.07 2.43,-40.65 4.42,-60.63 2.04,-20.39 4.33,-40.99 7.37,-61.26 0.32,-2.04 0.49,-5.54 2.19,-6.99 1.2,-1.11 0.09,8.38 0.09,8.38 -2.1,20.07 -4.61,40.11 -6.74,60.18z"/>
   </g>
   <path class="fil9" d="M159.88 209.83c-4.29,33.87 -12.44,99.31 -13.12,133.21"/>
   <g>
    <path class="fil8" d="M173.76 296.96c-2.89,5.16 -4.98,9.66 -6.49,15.4 -1.52,6.58 -1.69,11.65 0.63,18.05 0.02,0.34 1.12,2.19 1.36,2.57 0.27,0.42 1.86,2.88 1.19,3.37 -0.82,0.37 -2.55,-1.69 -2.96,-2.21 -0.69,-0.94 -1.21,-1.77 -1.71,-2.83 -2.87,-6.85 -2.81,-12.45 -1.23,-19.62 1.53,-6.04 3.68,-10.75 6.67,-16.19 0.71,-1.27 1.45,-2.52 2.22,-3.76 6.88,-10.75 14.24,-19.47 23.08,-28.59 1.12,-1.13 2.42,-2.87 4.19,-2.67 1.33,0.1 -2.82,4.77 -2.89,4.85 -8.03,9.37 -15.09,17.52 -21.87,27.99 -0.76,1.2 -1.48,2.4 -2.19,3.64z"/>
   </g>
   <path class="fil9" d="M200.72 260.39c-14.05,15.49 -44.09,46.66 -33.99,70.52 0.86,2.03 2.32,3.78 3.69,5.47"/>
   <g>
    <path class="fil8" d="M222.98 300.19c7.85,-0.03 15.77,0.2 23.57,1.15 0.54,0.06 2.36,0.47 2.27,1.28 -0.08,0.73 -1.96,0.83 -2.45,0.82 -7.81,-0.14 -15.57,-0.48 -23.38,-0.32 -7.67,0.16 -15.35,0.55 -23.02,0.61 -1.58,-0.01 -3.09,0.2 -4.03,-1.08 -0.77,-0.96 4.25,-1.37 4.45,-1.39 7.5,-0.71 15.06,-1.04 22.59,-1.07z"/>
   </g>
   <path class="fil9" d="M195.87 302.7c20.45,-1.15 32.52,-1.49 52.95,-0.03"/>
   <g>
    <path class="fil8" d="M256.17 283.05c-4.86,5.25 -10.5,9.65 -16.06,14.13 -1.56,1.25 -3.13,2.47 -4.74,3.67 -0.44,0.33 -1.98,1.25 -2.48,0.6 -0.44,-0.58 0.79,-1.9 1.16,-2.24 1.45,-1.35 2.98,-2.64 4.43,-3.98 5.21,-4.52 10.92,-9.01 15.51,-14.14 0.97,-1.13 1.83,-2.23 2.67,-3.46 2.08,-3.15 3.17,-5.66 4.13,-9.31 0.74,-3.06 1.09,-5.83 1.34,-8.96 0.13,-1.65 0,-3.35 1.3,-4.37 1.03,-0.89 1.12,4.92 1.12,5.05 -0.03,3.17 -0.25,5.86 -0.92,8.97 -0.98,4.06 -2.18,6.85 -4.51,10.32 -0.93,1.34 -1.87,2.5 -2.95,3.72z"/>
   </g>
   <path class="fil9" d="M263.38 254.91c0.6,22.09 -7.22,27.02 -24.17,41.2l-6.35 5.31"/>
   <g>
    <path class="fil8" d="M255.3 318.17c1.06,3.15 2.34,6.59 2.94,9.86 0.1,0.53 -0.29,1.04 -0.79,1.2 -0.49,0.15 -1.01,-0.1 -1.22,-0.55 -1.46,-3.04 -2.52,-6.43 -3.71,-9.59 -1.16,-3.12 -2.39,-6.48 -3.07,-9.75 -0.19,-1.08 -0.1,-1.31 0.75,-1.85 0.76,-0.5 1.4,0.77 1.63,1.29 1.37,2.99 2.43,6.26 3.47,9.39z"/>
   </g>
   <path class="fil9" d="M250.15 307.48c2.42,7.25 4.84,14.51 7.25,21.77"/>
   <g>
    <path class="fil8" d="M273.12 305.68c4.22,3.87 8,9.88 11.12,14.72 0.31,0.47 0.9,1.78 0.27,2.23 -0.57,0.42 -1.65,-0.61 -1.98,-0.99 -3.69,-4.49 -7.19,-9.94 -11.39,-13.81 -0.21,-0.18 -0.42,-0.36 -0.64,-0.53 -2.31,-1.83 -4.14,-2.76 -7.01,-3.46 -2.65,-0.57 -4.91,-0.64 -7.6,-0.57 -1.45,0.04 -2.41,0.25 -3.27,-0.87 -0.77,-0.92 3.2,-1.56 3.47,-1.59 2.88,-0.37 5.17,-0.41 8.04,0.13 3.4,0.76 5.6,1.9 8.28,4.11 0.08,0.04 0.61,0.53 0.71,0.63z"/>
   </g>
   <path class="fil9" d="M252.57 302.45c18.38,-3.07 21.3,6.33 31.91,20.21"/>
   <g>
    <path class="fil8" d="M280.6 339.22c0.57,0.03 1.06,0.02 1.63,-0.05 1.08,-0.16 1.85,-0.44 2.81,-0.97 0.95,-0.55 2.22,-1.28 2.92,-2.16 0.14,-0.2 0.23,-0.35 0.27,-0.59 0.05,-0.27 0.01,-0.51 -0.05,-0.78 0.04,-0.48 -2.58,-6.09 -2.91,-6.92 -0.2,-0.49 -0.8,-2.54 -0.02,-2.82 0.65,-0.24 1.72,1.53 1.95,1.96 1.24,2.35 2.75,4.61 3.62,7.13 0.17,0.67 0.22,1.18 0.14,1.87 -0.12,0.71 -0.34,1.2 -0.75,1.79 -1,1.33 -2.34,2.17 -3.76,3 -1.3,0.74 -2.37,1.13 -3.84,1.36 -0.35,0.12 -1.79,0.12 -2.21,0.1 -0.59,-0.04 -1.12,-0.1 -1.69,-0.21 -2.85,-0.6 -4.92,-1.67 -7.34,-3.24 -3.63,-2.48 -6.47,-5.12 -9.55,-8.21 -0.97,-1 -1.59,-1.44 -1.19,-2.73 0.31,-1.11 2.84,0.96 3.13,1.19 3.12,2.52 5.9,5 9.26,7.25 2.06,1.32 3.88,2.3 6.29,2.85 0.18,0.07 1.05,0.16 1.29,0.18z"/>
   </g>
   <path class="fil9" d="M260.57 327.76c6.23,5.08 16.4,16.79 25.22,11.76 6.88,-3.92 3.5,-5.08 -0.5,-14.61"/>
   <g>
    <path class="fil8" d="M272.5 332.51c0.34,-0.84 0.7,-1.94 1.39,-2.54 0.18,-0.16 0.95,0.11 1.15,0.19 0.18,0.07 0.8,0.37 0.81,0.61 0.03,0.91 -0.4,1.96 -0.63,2.84 -0.24,0.88 -0.58,1.93 -1.24,2.59 -0.32,0.32 -1,0.02 -1.36,-0.09 -0.41,-0.13 -0.89,-0.39 -0.88,-0.89 0.03,-0.89 0.43,-1.89 0.76,-2.71z"/>
   </g>
   <line class="fil9" x1="272.66" y1="336.13" x2="275.08" y2= "330.18" />
   <g>
    <path class="fil8" d="M268.69 329.15c0.6,-1.03 1.3,-2.42 2.22,-3.18 0.23,-0.19 0.94,0.15 1.15,0.28 0.21,0.12 0.74,0.5 0.68,0.78 -0.24,1.19 -1,2.47 -1.51,3.59 -0.5,1.1 -1.16,2.41 -2.07,3.24 -0.42,0.39 -0.98,0.04 -1.41,-0.15 -0.48,-0.22 -0.8,-0.58 -0.66,-1.14 0.3,-1.16 1.01,-2.38 1.6,-3.42z"/>
   </g>
   <path class="fil9" d="M267.79 333.74c1.44,-2.49 2.87,-4.98 4.31,-7.47"/>
   <g>
    <path class="fil8" d="M267.41 329c-0.16,0.58 -0.31,1.1 -0.51,1.67 -0.12,0.32 -0.34,0.7 -0.57,0.95 -0.16,0.17 -0.95,-0.02 -1.16,-0.07 -0.18,-0.06 -0.84,-0.28 -0.88,-0.51 -0.05,-0.39 -0.03,-0.71 0.01,-1.1 0.08,-0.58 0.2,-1.15 0.29,-1.73 0.12,-0.88 0.34,-1.93 0.91,-2.64 0.29,-0.35 1,-0.13 1.36,-0.05 0.42,0.08 0.93,0.28 0.98,0.76 0.08,0.87 -0.2,1.89 -0.43,2.72z"/>
   </g>
   <path class="fil9" d="M266.82 325.5c-0.44,1.59 -0.89,3.18 -1.34,4.77l-0.35 1.26"/>
   <g>
    <path class="fil8" d="M213.63 340.92c-12.9,1.08 -26.07,-0.56 -38.79,-2.71 -0.49,-0.09 -4.62,-0.92 -4.43,-1.78 0.17,-0.75 4.28,-0.37 4.8,-0.31 12.49,1.44 25.62,3.08 38.18,1.88 12.15,-1.16 24.37,-4.68 36.16,-7.77 2.18,-0.56 5.52,-1.76 7.73,-0.9 1.65,0.57 -8.05,3.53 -8.05,3.53 -11.53,3.6 -23.52,7.06 -35.6,8.06z"/>
   </g>
   <path class="fil9" d="M257.4 329.25c-39.12,11.44 -46.48,13.08 -86.98,7.13"/>
   <g>
    <path class="fil8" d="M156.47 320.76c2.3,0.77 5.65,1.73 7.85,2.94 0.41,0.23 0.53,0.96 0.54,1.3 0,0.34 -0.13,0.86 -0.53,0.82 -2.29,-0.26 -5.5,-1.44 -7.89,-2.14 -2.42,-0.72 -5.58,-1.62 -7.95,-2.82 -0.81,-0.41 -0.81,-0.88 -0.93,-1.59 -0.12,-0.78 0.4,-0.92 1.06,-0.81 2.4,0.38 5.41,1.47 7.85,2.3z"/>
   </g>
   <path class="fil9" d="M147.55 319.31c4.32,1.35 12.99,4.39 17.31,5.74"/>
   <g>
    <path class="fil8" d="M172.65 279.92c1.21,0.18 6.27,0.84 7.14,1.53 0.18,0.14 -0.01,0.94 -0.06,1.14 -0.04,0.15 -0.22,0.88 -0.37,0.93 -0.81,0.25 -6.08,-0.58 -7.16,-0.71 -1.69,-0.2 -6.06,-0.62 -7.54,-1.19 -0.34,-0.2 -0.29,-0.95 -0.33,-1.3 -0.07,-0.51 -0.05,-1.02 0.57,-1.13 1.76,-0.3 5.92,0.44 7.75,0.73z"/>
   </g>
   <path class="fil9" d="M164.33 280.36c1.25,-0.11 14.44,2.03 15.39,2.27"/>
   <g>
    <path class="fil8" d="M202.48 153.83c0.22,2.33 0.58,5.04 0.34,7.36 -0.04,0.46 -0.66,0.71 -1.06,0.74 -0.4,0.03 -0.93,-0.13 -1.04,-0.56 -0.63,-2.29 -0.82,-4.9 -1.16,-7.27 -0.33,-2.32 -0.67,-4.95 -0.5,-7.3 0.06,-0.9 0.44,-0.99 1.19,-1.2 0.76,-0.22 1.1,0.52 1.25,1.14 0.55,2.26 0.77,4.77 0.98,7.09z"/>
   </g>
   <path class="fil9" d="M200.2 145.59c0.5,5.45 1.01,10.9 1.51,16.35"/>
   <g>
    <path class="fil8" d="M183.26 145.16c-0.25,-0.22 -0.46,-0.44 -0.67,-0.69 -1.01,-1.25 -1.44,-2.39 -1.82,-3.96 -0.39,-1.81 -0.52,-3.5 -0.61,-5.35 -0.16,-4.53 -0.06,-9.15 -0.02,-13.69 0,-0.49 0.16,-2.61 0.88,-2.61 0.66,-0.01 0.95,2.12 0.98,2.58 0.35,4.54 0.39,9.06 0.64,13.6 0.1,1.65 0.22,3.22 0.6,4.83 0.27,1.08 0.56,1.94 1.27,2.79 0.03,0.06 0.35,0.35 0.41,0.4 0.65,0.53 1.23,0.78 2,1.02 1.55,0.42 3.04,0.49 4.63,0.5 4.49,-0.04 9.08,-0.51 13.56,-0.88 1.53,-0.1 3.27,-0.46 4.4,0.68 0.89,0.82 -4.64,1.65 -4.73,1.66 -4.4,0.68 -8.8,1.3 -13.25,1.35 -1.87,-0.02 -3.52,-0.12 -5.34,-0.64 -1.16,-0.37 -1.99,-0.78 -2.93,-1.59z"/>
   </g>
   <path class="fil9" d="M209.58 144.32c-32.65,4.17 -27.17,2.21 -28.52,-25.47"/>
   <g>
    <path class="fil8" d="M183.99 108.06c-0.14,0.21 -0.29,0.41 -0.43,0.62 -2.1,2.63 -4.38,3.07 -6.86,5.04 -0.26,0.23 -0.47,0.43 -0.67,0.74 -0.12,0.2 -0.19,0.36 -0.23,0.59 -0.03,0.21 -0.03,0.37 0.02,0.58 0.06,0.27 0.15,0.46 0.29,0.69 0.43,0.68 0.95,1.12 1.59,1.55 0.14,0.14 1.1,0.61 1.33,0.71 0.44,0.19 1.39,0.77 1.27,1.4 -0.12,0.69 -1.42,0.6 -1.87,0.47 -0.62,-0.17 -1.13,-0.37 -1.71,-0.66 -1.02,-0.55 -1.76,-1.12 -2.47,-2.09 -0.32,-0.46 -0.52,-0.86 -0.68,-1.41 -0.15,-0.57 -0.19,-1.02 -0.12,-1.6 0.08,-0.62 0.24,-1.06 0.54,-1.6 0.34,-0.57 0.68,-0.96 1.17,-1.39 1.98,-1.63 4.98,-2.86 6.34,-4.66 0.11,-0.13 0.29,-0.44 0.4,-0.6 1.9,-2.87 3.51,-6.02 5.5,-8.81 1.68,-2.37 3.44,-4.36 5.84,-5.93 1.11,-0.68 2.02,-1.33 3.1,-0.53 0.66,0.57 -1.81,2.32 -2.17,2.63 -1.94,1.72 -3.2,3.29 -4.66,5.46 -1.91,2.9 -3.56,5.91 -5.52,8.8z"/>
   </g>
   <path class="fil9" d="M196.37 91.11c-7.09,3.69 -9.34,10.34 -13.88,16.72 -1.51,2.12 -4.35,2.85 -6.62,4.79 -3.28,2.81 -0.28,6.62 4.43,7.4"/>
   <g>
    <path class="fil8" d="M134.15 50.53c0.12,-1.02 0.16,-1.91 0.13,-2.93 -0.12,-2.26 -0.54,-3.89 -1.38,-5.98 -0.97,-2.31 -2.1,-4.2 -3.46,-6.3 -0.31,-0.47 -0.81,-1.64 -0.23,-2.09 0.55,-0.43 1.59,0.45 1.92,0.83 1.81,2.11 3.1,3.97 4.29,6.48 1.05,2.41 1.55,4.32 1.73,6.94 0.06,1.18 0.02,2.23 -0.09,3.4 -0.33,2.94 -1.05,5.58 -1.64,8.45 -0.29,1.74 0,4.07 0.13,5.85 0.06,0.98 0.1,1.91 0.04,2.89 0,0.13 -0.03,0.27 -0.03,0.39 -0.06,0.51 -0.15,0.97 -0.4,1.43 -0.39,0.67 -0.65,0.81 -1.36,0.66 -0.45,-0.1 -0.49,-0.73 -0.5,-1.09 -0.04,-0.35 -0.06,-0.72 -0.09,-1.07 -0.02,-0.21 -0.04,-0.42 -0.06,-0.64 -0.07,-0.77 -0.21,-1.52 -0.29,-2.29 -0.33,-2.24 -0.7,-4.45 -0.37,-6.71 0.54,-2.77 1.29,-5.42 1.66,-8.22z"/>
   </g>
   <path class="fil9" d="M133.81 70.61c1.43,-2.01 -0.54,-8.22 0.13,-11.57 1.55,-7.84 4.96,-14.22 -4.7,-25.84"/>
   <g>
    <path class="fil8" d="M92.28 60.88c-0.16,-0.1 -0.32,-0.19 -0.49,-0.29 -0.82,-0.52 -1.42,-0.98 -2.06,-1.72 -0.71,-0.87 -1.08,-1.62 -1.34,-2.71 -0.25,-1.3 -0.18,-2.32 0.08,-3.61 0.37,-1.65 0.94,-2.99 1.7,-4.5 0.63,-1.19 1.24,-2.09 2.27,-2.98 0.88,-0.71 1.64,-1.08 2.76,-1.23 1.01,-0.09 1.74,0.04 2.67,0.43 0.83,0.38 1.41,0.81 2.07,1.44 1.12,1.16 1.9,2.36 2.24,3.95 0.01,0.03 0.06,0.38 0.06,0.43 0.02,0.21 0.02,0.39 0,0.61 -0.05,0.38 -0.14,0.66 -0.35,0.99 -0.22,0.33 -0.46,0.53 -0.84,0.67 -0.37,0.08 -0.98,0.05 -1.05,-0.43 0.01,-0.27 0.23,-0.44 0.28,-0.74 0.03,-0.05 -0.02,-0.21 -0.02,-0.26 0,-0.04 -0.05,-0.24 -0.06,-0.29 -0.01,-0.1 -0.04,-0.2 -0.06,-0.29 -0.01,-0.06 -0.03,-0.15 -0.05,-0.2 -0.36,-1.06 -1,-1.9 -1.82,-2.65 -0.45,-0.38 -0.85,-0.65 -1.4,-0.87 -0.47,-0.17 -0.84,-0.24 -1.34,-0.17 -0.55,0.1 -0.91,0.32 -1.34,0.68 -0.69,0.64 -1.11,1.34 -1.54,2.17 -0.62,1.28 -1.11,2.45 -1.41,3.84 -0.16,0.84 -0.22,1.55 -0.04,2.4 0.15,0.59 0.35,0.98 0.75,1.45 0.42,0.47 0.83,0.77 1.37,1.1 0.07,0.05 0.3,0.17 0.39,0.22 1.1,0.59 2.35,1 3.41,1.61 0.72,0.39 1.24,0.75 1.78,1.39 0.29,0.37 0.45,0.69 0.59,1.14 0.14,0.49 0.16,0.87 0.11,1.38 -0.98,8.32 0.4,11.76 -5.44,17.02 -1.38,1.22 -2.65,2.62 -4.49,2.7 -1.4,0.12 3.1,-4.75 3.15,-4.81 4.04,-4.42 3.02,-8.71 3.8,-15.3 0.02,-0.03 0,-0.12 0,-0.16 -0.01,-0.04 -0.06,-0.1 -0.08,-0.13 -0.22,-0.26 -0.57,-0.46 -0.86,-0.63 -1.11,-0.59 -2.27,-1.04 -3.4,-1.65z"/>
   </g>
   <path class="fil9" d="M89.63 83.67c8.86,-9.33 6.43,-4.07 8.48,-20.02 0.58,-4.52 -13.12,-2.1 -6.6,-14.92 4.71,-9.24 12.48,2.78 8.49,3.16"/>
   <g>
    <path class="fil8" d="M116.16 43.75c4.3,-2.92 8.12,-6.32 11.5,-10.26 0.38,-0.43 1.04,-0.63 1.54,-0.32 0.52,0.33 0.46,1.05 0.2,1.52 -2.41,4.38 -7.57,8.62 -11.59,11.49 -0.11,0.07 -0.59,0.38 -0.65,0.45 -4.41,2.96 -9.17,5.66 -14.49,6.52 -1.23,0.12 -1.69,0.13 -2.14,-0.95 -0.37,-0.85 1.38,-1.33 1.88,-1.49 4.86,-1.64 8.83,-3.76 13.13,-6.54 0.07,-0.03 0.52,-0.35 0.62,-0.42z"/>
   </g>
   <path class="fil9" d="M100.5 52.25c8.86,-0.96 23.88,-10.88 28.74,-19.05"/>
   <g>
    <path class="fil8" d="M53.98 42.31c-0.28,1.54 -0.45,3.06 -0.62,4.62 -0.57,5.05 -1.03,8.45 -3.2,13.17 -3.3,6.46 -7.6,10.17 -13.57,14.16 -2.77,1.81 -5.21,3.57 -7.56,5.9 -1.37,1.43 -2.46,2.76 -3.2,4.61 -0.45,1.25 -0.57,2.2 -0.35,3.51 0.26,1.24 0.71,2.13 1.36,3.2 1.45,2.26 3.24,4.12 4.5,6.48 0.65,1.36 0.93,2.44 0.7,3.95 -0.16,0.81 -0.41,1.39 -0.84,2.09 -0.51,0.77 -1.02,1.32 -1.71,1.93 -2.27,2 -4.33,3.96 -6.23,6.32 -1.08,1.4 -2,2.74 -2.51,4.45 -0.27,1.07 -0.29,1.85 0.09,2.89 0.45,1.06 1.09,1.75 1.93,2.52 5.86,4.88 11.2,5.87 15.8,12.86 0.41,0.69 0.82,1.13 1.49,1.56 0.7,0.42 1.3,0.61 2.1,0.74 1.98,0.25 3.66,-0.1 5.53,-0.72 0.03,0 0.28,-0.1 0.33,-0.12 1.9,-0.73 3.42,-1.53 5.08,-2.7 0.75,-0.55 1.39,-1.08 2.05,-1.73 0.22,-0.23 1.4,-1.74 1.62,-1.71 0.45,0.37 -0.46,2.11 -0.65,2.44 -0.55,0.91 -1.15,1.58 -1.93,2.31 -1.74,1.58 -3.43,2.57 -5.61,3.44 -0.04,0.01 -0.14,0.05 -0.17,0.06 -2.24,0.8 -4.17,1.2 -6.56,0.94 -1.13,-0.16 -1.98,-0.42 -2.98,-1 -1.03,-0.64 -1.66,-1.29 -2.3,-2.32 -4.15,-6.11 -10.01,-7.65 -15.51,-12.13 -1.18,-1.06 -1.99,-1.99 -2.63,-3.46 -0.62,-1.62 -0.63,-2.88 -0.22,-4.56 0.61,-2.12 1.62,-3.67 2.94,-5.41 2,-2.52 4.14,-4.58 6.54,-6.72 0.47,-0.43 0.85,-0.82 1.2,-1.35 0.23,-0.37 0.37,-0.68 0.45,-1.11 0.12,-0.84 -0.1,-1.47 -0.47,-2.23 -0.1,-0.64 -3.78,-5.15 -4.39,-6.24 -0.86,-1.39 -1.4,-2.53 -1.75,-4.14 -0.32,-1.87 -0.17,-3.25 0.47,-5.04 0.9,-2.27 2.14,-3.83 3.81,-5.58 2.51,-2.52 5.07,-4.38 8.03,-6.33 5.46,-3.66 9.51,-7.08 12.53,-13.02 1.98,-4.36 2.38,-7.57 2.89,-12.24 0.17,-1.62 0.35,-3.2 0.64,-4.82 0.5,-2.67 1.09,-4.61 2.45,-6.99 1.39,-2.26 2.77,-3.7 4.87,-5.32 2.76,-2.03 5.34,-3.27 8.52,-4.53 21.7,-9.18 18.92,-17.6 31.62,-22.99 4.95,-1.66 8.84,-2.3 14.05,-1.77 4.22,0.57 7.22,1.62 10.97,3.58 4.96,2.79 9.88,7.28 14.18,9.39 2.72,1.23 4.82,2.44 7.12,4.35 1.88,1.64 3.14,3.1 4.36,5.27 1.03,1.95 1.56,3.55 1.84,5.73 0.21,2.06 0.1,3.67 -0.36,5.68 -0.01,0.16 -0.19,0.72 -0.24,0.91 -1.16,3.53 -2.72,6.02 -5.44,8.53 -2.9,2.32 -5.63,4.11 -9.4,3.46 -0.73,-0.17 4.98,-2.32 7.97,-4.97 2.48,-2.56 3.87,-5 4.74,-8.47 0.08,-0.14 0.25,-1.51 0.28,-1.75 0.09,-1.09 0.08,-2 -0.05,-3.08 -0.27,-1.83 -0.72,-3.16 -1.61,-4.78 -1.08,-1.85 -2.19,-3.09 -3.82,-4.48 -2.1,-1.7 -4.02,-2.77 -6.49,-3.86 -4.63,-2.19 -9.38,-6.57 -14.44,-9.37 -3.41,-1.76 -6.13,-2.71 -9.95,-3.21 -4.72,-0.46 -8.23,0.14 -12.71,1.66 -11.24,4.78 -9.52,13.66 -31.55,22.96 -2.9,1.14 -5.29,2.27 -7.81,4.11 -1.77,1.37 -2.94,2.56 -4.12,4.46 -1.17,2.04 -1.66,3.72 -2.1,6.01z"/>
   </g>
   <path class="fil9" d="M135.32 47.16c13.23,-1.34 23.94,-23.12 1.87,-32.7 -7.31,-3.17 -18.13,-18.17 -38.12,-11.08 -11.98,4.25 -8.61,14.13 -31.6,22.94 -27.8,10.66 -3.27,28.29 -31.71,46.66 -27.56,17.82 2.78,23.03 -7.25,31.83 -22.63,19.87 1.83,18.81 8.95,30.82 4.09,6.9 17.81,0.29 19.36,-5.33"/>
   <g>
    <path class="fil8" d="M223.85 150.36c0.14,1.79 0.43,3.99 0.13,5.75 -0.07,0.39 -0.76,0.57 -1.09,0.59 -0.32,0.02 -0.91,-0.06 -1.02,-0.43 -0.54,-1.75 -0.67,-3.84 -0.94,-5.67 -0.27,-1.8 -0.53,-3.9 -0.29,-5.7 0.09,-0.77 0.6,-0.81 1.22,-0.95 0.67,-0.16 1.05,0.25 1.22,0.87 0.47,1.74 0.62,3.75 0.77,5.54z"/>
   </g>
   <path class="fil9" d="M221.81 143.93c0.35,4.26 0.69,8.52 1.04,12.77"/>
   <g>
    <path class="fil8" d="M243.5 143.53c4.18,-8.44 -1.83,-5.51 6.09,-14.07 1.32,-1.41 2.32,-2.66 3.2,-4.38 0.63,-1.3 0.97,-2.35 1.1,-3.79 0.14,-2.67 -0.53,-4.55 -1.66,-6.92 -1.16,-2.33 -2.53,-4.49 -3.62,-6.85 -0.55,-1.24 -0.91,-2.27 -1.12,-3.61 -0.18,-1.43 -0.1,-2.49 0.36,-3.86 1.27,-3.41 3.07,-5.72 4.17,-8.58 0.39,-1.21 0.41,-2.03 0.14,-3.28 0,-0.04 -0.13,-0.5 -0.15,-0.57 -0.23,-0.76 -1.96,-4.96 -1.63,-5.37 1.14,-0.05 3.2,3.95 3.53,4.83 0.07,0.2 0.14,0.41 0.2,0.61 0.41,1.65 0.42,2.82 -0.05,4.44 -0.98,2.9 -2.8,5.44 -3.96,8.7 -0.31,0.97 -0.34,1.71 -0.2,2.72 0.19,1.08 0.52,1.94 0.97,2.94 1.11,2.3 2.5,4.45 3.66,6.74 1.39,2.85 2.13,5.06 1.98,8.27 -0.17,1.81 -0.57,3.13 -1.35,4.76 -1.01,1.99 -2.12,3.42 -3.65,5.05 -7.11,7.72 -0.92,4 -5.6,13.52 -0.22,0.4 -0.44,0.8 -0.67,1.2 -0.66,1.11 -1.29,1.87 -2.3,2.67 -0.95,0.72 -1.77,1.12 -2.9,1.47 -2.26,0.59 -4.08,0.49 -6.35,0.01 -3.8,-0.96 -7.34,-2.69 -10.18,-5.43 -1.53,-1.58 -2.96,-3.13 -4.16,-4.98 -0.41,-0.66 -0.72,-1.24 -0.99,-1.97 -0.22,-0.65 -0.32,-1.17 -0.29,-1.86 0.04,-0.66 0.19,-1.12 0.52,-1.69 0.32,-0.5 0.63,-0.82 1.1,-1.19 0.9,-0.65 1.77,-1.02 2.79,-1.43 2.03,-0.78 3.87,-1.37 5.58,-2.78 0.81,-0.73 1.26,-1.37 1.65,-2.39 0.48,-1.42 0.47,-2.64 0.31,-4.12 -0.17,-1.33 -0.39,-2.51 -0.92,-3.75 -0.33,-0.69 -0.66,-1.23 -1.28,-1.69 -0.49,-0.32 -0.89,-0.43 -1.48,-0.46 -0.08,-0.03 -0.65,0.03 -0.76,0.05 -0.42,0.07 -0.79,0.17 -1.2,0.3 -1.82,0.8 -6.13,3.99 -7.18,3.26 -1.12,-1.24 5.9,-5.05 6.42,-5.31 0.95,-0.37 1.71,-0.56 2.73,-0.59 0.06,-0.01 0.35,0.01 0.43,0.01 0.92,0.08 1.58,0.29 2.36,0.78 1.04,0.71 1.61,1.49 2.17,2.61 0.7,1.49 1,2.85 1.23,4.47 0.24,1.92 0.24,3.43 -0.35,5.3 -0.54,1.49 -1.19,2.45 -2.35,3.53 -2.06,1.75 -3.9,2.36 -6.35,3.34 -0.72,0.29 -1.49,0.61 -2.12,1.07 -0.16,0.13 -0.3,0.26 -0.41,0.44 -0.08,0.13 -0.11,0.24 -0.12,0.39 -0.01,0.28 0.06,0.53 0.15,0.79 0.19,0.51 0.43,0.94 0.72,1.39 1.09,1.65 2.44,3.1 3.81,4.52 2.42,2.33 5.57,3.84 8.8,4.66 1.74,0.38 3.21,0.5 4.96,0.05 0.77,-0.23 1.33,-0.5 1.98,-0.98 0.71,-0.56 1.14,-1.1 1.61,-1.87 0.21,-0.37 0.42,-0.74 0.63,-1.12z"/>
   </g>
   <path class="fil9" d="M217.19 120.1c1.1,-0.45 12.32,-11.91 14.13,2.07 2.01,15.44 -21.94,6.08 -6.8,21.59 3.65,3.74 15.11,9.24 19.57,1.6 6,-10.28 -1.62,-6.44 6.52,-14.92 12.67,-13.21 -4.51,-21.31 -1.53,-29.96 2.81,-8.14 7.6,-8.81 1.34,-18.26"/>
   <g>
    <path class="fil8" d="M212.74 69.97c0.43,-0.23 0.9,-0.48 1.35,-0.69 2.74,-1.26 4.71,-1.65 7.74,-1.33 4.4,0.67 7.92,2.59 11.66,4.92 3.78,2.28 5.65,2.58 9.78,3.48 1.6,0.35 2.78,0.68 4.23,1.49 0.28,0.12 1.06,0.73 1.32,0.95 0.47,0.45 2.41,2.67 1.63,3.4 -0.5,0.14 -2.45,-1.55 -2.9,-1.88 -0.35,-0.25 -0.68,-0.45 -1.06,-0.65 -1.24,-0.61 -2.31,-0.83 -3.66,-1.07 -4.5,-0.74 -6.62,-1.15 -10.71,-3.56 -3.34,-2.02 -6.7,-3.88 -10.62,-4.43 -2.49,-0.24 -4.01,0.09 -6.24,1.15 -0.1,0.01 -1.06,0.55 -1.22,0.63 -1.65,0.92 -3.12,1.8 -4.86,2.6 -3.2,1.33 -5.59,1.61 -9.04,1.3 -2.78,-0.26 -5.38,-0.33 -8.04,0.63 -0.85,0.34 -1.46,0.69 -2.14,1.31 -0.56,0.57 -0.89,1.06 -1.2,1.8 -0.66,1.84 -0.5,3.48 -0.08,5.35 -0.02,0.17 0.51,1.79 0.61,2.05 0.62,1.66 1.88,3.77 1.59,5.53 -0.4,1.57 -3.58,-4.48 -3.99,-5.42 -0.2,-0.52 -0.37,-1.02 -0.53,-1.55 -0.65,-2.43 -0.84,-4.45 -0.05,-6.88 0.43,-1.14 0.92,-1.92 1.77,-2.8 0.94,-0.91 1.81,-1.43 3.01,-1.94 3.14,-1.19 6.05,-1.17 9.35,-0.86 2.94,0.25 4.92,0.03 7.65,-1.08 1.65,-0.72 3.08,-1.59 4.65,-2.45z"/>
   </g>
   <path class="fil9" d="M190.97 93.01c-6.75,-10.1 -5.62,-19.75 9.32,-18.13 14.1,1.53 13.48,-12.77 32.46,-0.84 8.32,5.24 13.19,1.48 17.67,8.18"/>
   <g>
    <path class="fil8" d="M214.31 99.09c0.01,-0.38 -0.02,-0.62 -0.2,-0.95 -0.65,-1.06 -3.1,-2.86 -4.09,-3.66 -1.88,-1.41 -4.01,-1.78 -6.26,-2.04 -0.4,-0.18 -4.9,-0.26 -5.73,-0.29 -0.51,-0.02 -1.66,-0.26 -1.66,-1 0,-0.67 1.17,-0.93 1.63,-0.98 2.03,-0.19 3.9,-0.27 5.95,-0.16 2.83,0.2 5.2,0.64 7.58,2.37 1.53,1.21 3.73,2.72 4.79,4.38 0.45,0.83 0.58,1.47 0.58,2.42 0,0.02 -0.01,0.16 -0.01,0.16 -0.05,1.07 -0.28,2.04 -0.54,3.07 -0.85,3.23 -3.41,10.38 -3.87,13.01 0,0.08 -0.03,0.02 0.01,0.08 0.04,0.15 0.71,0.54 0.75,0.6 0.02,0.03 1.28,0.86 1.41,0.95 1.18,0.83 2.34,1.51 2.45,3.05 0,0.95 -3.51,-1.09 -3.84,-1.26 -0.37,-0.19 -0.84,-0.4 -1.18,-0.61 -0.52,-0.3 -0.93,-0.55 -1.36,-0.99 -0.46,-0.53 -0.65,-1.01 -0.69,-1.73 -0.02,-1.87 3.18,-11.58 3.79,-13.85 0.2,-0.79 0.43,-1.66 0.49,-2.47 0,-0.03 0,-0.07 0,-0.1z"/>
   </g>
   <path class="fil9" d="M217.19 120.1c-8.45,-6.15 -6.78,-0.18 -2.09,-18.06 1.23,-4.67 0.63,-4.74 -4.27,-8.68 -3.57,-2.87 -10.18,-2.39 -14.46,-2.25"/>
   <polyline class="fil9" points="81.8,83.94 86.25,84.59 91.1,82.15 "/>
   <line class="fil9" x1="131.41" y1="71.44" x2="134.26" y2= "69.43" />
   <line class="fil9" x1="56.15" y1="131.79" x2="59" y2= "126.86" />
   <line class="fil9" x1="60.29" y1="152.99" x2="62.7" y2= "158.58" />
   <line class="fil9" x1="87.37" y1="143.71" x2="91.72" y2= "147.65" />
   <line class="fil9" x1="59.25" y1="159.49" x2="61.9" y2= "156.22" />
   <line class="fil9" x1="30.08" y1="329.35" x2="32.06" y2= "333.78" />
   <line class="fil9" x1="143.57" y1="343.17" x2="147.75" y2= "341.17" />
   <line class="fil9" x1="169.87" y1="335.27" x2="170.71" y2= "336.64" />
   <line class="fil9" x1="255.21" y1="330.14" x2="257.3" y2= "327.32" />
   <line class="fil9" x1="247.45" y1="302.21" x2="251.74" y2= "311.11" />
   <line class="fil9" x1="247.57" y1="304.99" x2="255.1" y2= "302.1" />
   <line class="fil9" x1="256.63" y1="326.94" x2="262.53" y2= "329.44" />
   <line class="fil9" x1="283.18" y1="320.1" x2="286.63" y2= "327.87" />
   <line class="fil9" x1="264.44" y1="248.07" x2="265.28" y2= "253.7" />
   <line class="fil9" x1="241.17" y1="162.98" x2="244.42" y2= "167.92" />
   <line class="fil9" x1="187.08" y1="218.86" x2="185.71" y2= "211.29" />
   <line class="fil9" x1="159.16" y1="213.14" x2="160.14" y2= "207.6" />
   <line class="fil9" x1="165" y1="177.82" x2="163.71" y2= "185.9" />
   <line class="fil9" x1="133.32" y1="125.96" x2="139.77" y2= "124.36" />
   <path class="fil9" d="M131.05 140.6c1.02,0.58 1.75,3.04 3.98,4.01 0.93,0.4 2.94,1.72 3.97,1.58 0.02,0 5.85,1.12 5.9,1.16 0.15,0.09 1.9,0.17 1.72,-0.16"/>
   <path class="fil9" d="M109.57 177c0.42,0.39 1.9,1.64 2.4,1.54 0.46,-0.08 0.98,-0.93 2.05,-1.09 1.77,-0.26 0.44,0.32 2.15,-0.7 1.59,-0.94 1.99,0.08 2.45,-0.59 0.92,-1.37 2.22,-0.76 3.42,-1.61 0.24,-0.17 2.06,-0.65 2.35,-0.65 0.02,0 3.51,-0.54 2.46,-0.18 -0.29,0.1 -0.29,0.17 -0.37,0.45"/>
   <path class="fil9" d="M133.93 173.58c0.84,0.07 0.97,3.05 0.12,3.05"/>
   <line class="fil9" x1="145.9" y1="199.76" x2="143.17" y2= "204.29" />
   <line class="fil9" x1="147.1" y1="185.72" x2="152.65" y2= "184.82" />
   <line class="fil9" x1="142.65" y1="204.26" x2="151.53" y2= "206.39" />
   <line class="fil9" x1="222.35" y1="141.39" x2="222.01" y2= "146.34" />
   <line class="fil9" x1="176.96" y1="115.74" x2="182" y2= "121.44" />
   <line class="fil9" x1="189.94" y1="91.37" x2="191.58" y2= "95.05" />
   <line class="fil9" x1="249.28" y1="80.04" x2="251.57" y2= "84.07" />
   <line class="fil9" x1="215.96" y1="119.57" x2="218.68" y2= "119.46" />
   <line class="fil9" x1="155.44" y1="245.79" x2="159.01" y2= "246.05" />
   <g>
    <path class="fil8" d="M127.76 49.42c1.29,0.21 2.65,0.68 3.52,1.71 0.18,0.22 -0.04,0.63 -0.19,0.81 -0.13,0.16 -0.45,0.42 -0.67,0.32 -1,-0.42 -1.87,-0.8 -2.97,-0.89 -0.01,0 -0.07,0 -0.08,-0.01 -1.07,-0.06 -2.13,-0.02 -3.19,-0.16 -0.49,-0.08 -0.52,-0.43 -0.61,-0.83 -0.1,-0.45 0.16,-0.71 0.58,-0.82 1.21,-0.29 2.29,-0.31 3.52,-0.14 0.02,0 0.07,0.01 0.09,0.01z"/>
   </g>
   <path class="fil9" d="M123.57 50.4c2.77,-0.22 5.26,-0.26 7.5,1.57"/>
   <g>
    <path class="fil8" d="M197.32 103.81c-1.22,-1.13 -2.78,-2.12 -4.49,-2.18 -0.37,-0.01 -0.61,0.54 -0.67,0.84 -0.05,0.25 -0.06,0.77 0.21,0.92 1.21,0.67 2.29,1.24 3.25,2.28 0.01,0 0.06,0.06 0.07,0.06 0.91,1.03 1.7,2.12 2.7,3.07 0.46,0.43 0.83,0.18 1.31,-0.05 0.52,-0.25 0.58,-0.71 0.36,-1.21 -0.66,-1.45 -1.51,-2.55 -2.65,-3.65 -0.02,-0.02 -0.06,-0.06 -0.09,-0.08z"/>
   </g>
   <path class="fil9" d="M199.67 108.79c-1.98,-2.96 -3.91,-5.49 -7.52,-6.28"/>
   <path class="fil10" d="M127.47 58.76c-4.23,4.85 -3.72,-4.76 0.01,-3.6 1.51,0.47 0.61,2.69 -0.01,3.6z"/>
   <path class="fil10" d="M189.85 108.4c-2.26,6.67 6.55,0.9 3.4,-1.99 -1.28,-1.17 -2.88,0.9 -3.4,1.99z"/>
   <g>
    <path class="fil8" d="M121.17 71.38c0.9,0.97 2.14,1.78 3.13,2.69 0.28,0.27 0.1,0.91 -0.06,1.2 -0.17,0.3 -0.56,0.68 -0.94,0.56 -1.58,-0.52 -2.94,-1.44 -4.18,-2.54 -0.43,-0.4 -0.76,-0.76 -1.07,-1.26 -0.45,-0.78 -0.82,-1.67 -0.73,-2.59 0.04,-0.36 0.77,-0.61 1.06,-0.75 0.46,-0.23 0.91,-0.27 1.21,0.24 0.32,0.56 0.52,1.06 0.88,1.61 0.23,0.3 0.45,0.57 0.7,0.84z"/>
   </g>
   <path class="fil9" d="M118.34 68.7c0.47,1.16 0.07,3.51 5.88,6.61"/>
   <g>
    <path class="fil8" d="M187.71 127.71c-0.76,0.17 -1.39,0.24 -2.18,0.25 -1.07,0.01 -2.1,-0.09 -3.17,-0.14 -0.44,-0.02 -0.86,0.58 -0.99,0.87 -0.15,0.33 -0.19,0.89 0.23,1.09 1.3,0.6 2.44,0.83 3.92,0.92 1.12,0.03 2.02,-0.04 3.12,-0.24 0.34,-0.07 0.66,-0.14 1,-0.23 2.09,-0.66 3.7,-1.58 4.88,-3.2 0.44,-0.65 -0.05,-0.99 -0.56,-1.42 -0.5,-0.43 -1.06,-0.43 -1.64,-0.09 -1.37,0.82 -2.33,1.45 -3.93,2 -0.05,0.03 -0.59,0.17 -0.68,0.19z"/>
   </g>
   <path class="fil9" d="M194.01 125.63c-2.44,2.63 -6.64,5.03 -12.66,3.1"/>
  </g>
 </g>
</svg>
