<?xml version="1.0" encoding="UTF-8"?>
<!DOCTYPE svg PUBLIC "-//W3C//DTD SVG 1.1//EN" "http://www.w3.org/Graphics/SVG/1.1/DTD/svg11.dtd">
<!-- Creator: CorelDRAW -->
<svg xmlns="http://www.w3.org/2000/svg" xml:space="preserve" width="946px" height="1486px" version="1.1" style="shape-rendering:geometricPrecision; text-rendering:geometricPrecision; image-rendering:optimizeQuality; fill-rule:evenodd; clip-rule:evenodd"
viewBox="0 0 103.75 163.06"
 xmlns:xlink="http://www.w3.org/1999/xlink"
 xmlns:xodm="http://www.corel.com/coreldraw/odm/2003">
 <defs>
  <style type="text/css">
   <![CDATA[
    .str1 {stroke:#E48767;stroke-width:1.35;stroke-linejoin:round;stroke-miterlimit:22.9256}
    .str2 {stroke:#E51A4B;stroke-width:1.35;stroke-linejoin:round;stroke-miterlimit:22.9256}
    .str0 {stroke:#E48767;stroke-width:1.35;stroke-linejoin:round;stroke-miterlimit:22.9256}
    .fil6 {fill:none}
    .fil4 {fill:#A86668}
    .fil7 {fill:#262749}
    .fil1 {fill:#E48767}
    .fil2 {fill:#E51A4B}
    .fil0 {fill:#F7DBC6}
    .fil5 {fill:#262749;fill-rule:nonzero}
    .fil3 {fill:#E48767;fill-rule:nonzero}
   ]]>
  </style>
 </defs>
 <g id="Camada_x0020_1">
  <metadata id="CorelCorpID_0Corel-Layer"/>
  <g id="_1802764607136">
   <path class="fil0" d="M97.97 131.22c-13.57,17.27 -36.31,21.9 -57.36,20.04 -18.79,-1.66 -31.25,-17.21 -37.72,-33.79 -8,-20.55 2.8,-35.96 6.09,-56.16 4.09,-25.05 3.51,-32.75 31.13,-36.51 13.52,-1.32 29.58,-0.52 39.14,10.67 12.03,14.06 21.8,44.09 23.88,62.72 1.28,11.38 1.01,23.06 -5.16,33.03z"/>
   <path class="fil1 str0" d="M20.39 70.84c1.33,5.84 3.14,12.03 4.6,17.94 1.76,7.11 3.08,13.23 6.85,19.62 0.31,0.53 2.41,1.94 3,1.85 8.7,-1.22 15.11,-6.57 21.26,-12.38 4.31,-4.07 3.28,-3.23 7,-5.91 1.57,-1.13 -1.55,-1 5.02,-2.7 2.27,-0.58 5.37,-0.23 5.74,-0.35 0.25,-0.08 0.57,-1.61 0.08,-1.37 -0.53,0.26 -5.72,-2.43 -3.65,-2.41 0.94,0.01 2.32,1 3.18,1.17 -1.29,-2.51 -2.91,-1.51 -3.85,-2.8 -0.96,-1.32 2.81,0.25 0.96,-0.76 -3.83,-2.08 -7.35,2.86 -10.32,3.2 -0.2,0.02 -1.52,0.61 -1.38,1.24 0.15,0.65 -16.21,8.18 -17.94,8.95 -1.37,0.62 -1.01,-0.29 -1.32,-0.39 -0.62,-0.21 -0.42,0.95 -0.83,0.4 -0.3,-0.42 -2.38,-11.65 -2.74,-13.14 -1.17,-4.87 -2.94,-9.76 -4.03,-14.4 -0.55,-2.34 0.43,-0.94 0.93,0.36 0.49,1.28 3.69,11.48 3.72,11.52 0.42,0.44 1.6,0.66 2.38,0.21 4.04,-2.33 3.17,-9.31 1.66,-12.82 -1.92,-4.48 -6.81,-10.45 -9.65,-14.79 -1.5,-2.3 -0.85,-2.07 -4.15,1.28 -5.34,5.42 -8.11,8.81 -6.52,16.48z"/>
   <path class="fil2" d="M39.27 95.2c0.81,0.27 2.1,-0.81 2.79,-1.18 5.5,-2.95 10.58,-4.96 16.15,-7.48 1.07,-0.48 3.66,-2.96 5.24,-3.94 2.65,-1.65 3.86,-1.16 5.04,-4.49 1.88,-5.31 -5.86,-10.89 -9.36,-14.13 -0.6,-0.55 -5.33,-5.42 -5.66,-5.42 -0.27,0 -0.35,5.32 -7.15,2.23 -5.61,-2.55 -9.47,-7.83 -13.39,-12.34 -0.75,-0.86 -1.23,0.45 -2.32,1.6 -0.68,0.72 0.93,2.14 1.59,3.02 3.48,4.69 9.51,11.83 10.54,17.79 0.54,3.06 -0.27,9.58 -4.03,10.3 -2.62,0.51 -2.38,-2.09 -1.05,4.64 0.19,0.94 1.41,9.3 1.61,9.4z"/>
   <path class="fil1 str1" d="M51.13 162.38c5.64,-0.31 13,-0.64 18.45,-1.66 1.02,-0.18 0.88,-0.02 0.95,-1.61 0.26,-5.18 -2.69,-20.44 -5.2,-25.12 -3.37,-6.31 -9.3,-9.94 -15.75,-12.58 -6.05,-2.49 -14.93,-2.98 -13.21,6.24 0.83,4.49 2.58,7.14 3.76,10.97 0.02,0.08 0.34,1.22 -0.08,0.77 0.08,0.14 0.2,0.15 0.59,0.9 1.34,2.58 2.69,4.53 4.01,7.39 1.9,4.15 3.55,8.77 4.75,13.19 0.32,1.19 0.55,1.53 1.73,1.51z"/>
   <g>
    <path class="fil1" d="M40.09 159.5c2.98,0.61 5.96,1.2 8.96,1.71 0.67,-1.27 -5.63,-14.38 -6.47,-15.79 -0.63,-1.08 -1.25,-1.95 -2.02,-2.95 -0.81,5.14 -0.89,10.48 -1.5,15.69 -0.13,1.09 -0.08,1.09 1.03,1.34z"/>
    <path id="_1" class="fil3" d="M48.45 160.94l1.21 0.54 -0.73 0.34 -0.28 -0.05 -0.28 -0.05 -0.29 -0.05 -0.28 -0.05 -0.28 -0.05 -0.28 -0.05 -0.28 -0.05 -0.29 -0.05 -0.28 -0.05 -0.28 -0.05 -0.28 -0.05 -0.28 -0.06 -0.28 -0.05 -0.29 -0.05 -0.28 -0.06 -0.28 -0.05 -0.28 -0.06 -0.28 -0.05 -0.28 -0.06 -0.28 -0.05 -0.28 -0.06 -0.28 -0.05 -0.28 -0.06 -0.28 -0.05 -0.28 -0.06 -0.28 -0.06 -0.28 -0.05 -0.28 -0.06 -0.28 -0.06 -0.28 -0.05 -0.28 -0.06 -0.28 -0.06 0.29 -1.21 0.28 0.06 0.28 0.06 0.28 0.05 0.28 0.06 0.28 0.06 0.28 0.05 0.28 0.06 0.28 0.06 0.28 0.05 0.28 0.06 0.27 0.05 0.28 0.06 0.28 0.05 0.28 0.06 0.28 0.05 0.28 0.06 0.28 0.05 0.28 0.05 0.28 0.06 0.28 0.05 0.28 0.05 0.28 0.05 0.28 0.06 0.28 0.05 0.28 0.05 0.28 0.05 0.27 0.05 0.28 0.05 0.28 0.05 0.28 0.04 0.28 0.05 0.29 0.05 -0.73 0.34zm0.73 -0.34c0.36,0.06 0.6,0.38 0.54,0.72 -0.07,0.34 -0.42,0.56 -0.79,0.5l0.25 -1.22zm-7.19 -14.89l1.18 -0.59 0 0 0.11 0.18 0.13 0.24 0.15 0.3 0.18 0.35 0.2 0.4 0.22 0.45 0.24 0.49 0.26 0.52 0.27 0.56 0.28 0.59 0.29 0.62 0.29 0.64 0.31 0.65 0.3 0.67 0.3 0.68 0.31 0.68 0.3 0.67 0.29 0.68 0.28 0.67 0.27 0.65 0.26 0.64 0.24 0.61 0.23 0.59 0.2 0.56 0.19 0.53 0.15 0.49 0.14 0.46 0.1 0.41 0.08 0.37 0.03 0.33 0 0.33 -0.11 0.35 -1.21 -0.54 -0.02 0.04 0 -0.11 -0.03 -0.22 -0.06 -0.3 -0.09 -0.36 -0.12 -0.42 -0.15 -0.46 -0.18 -0.51 -0.2 -0.55 -0.22 -0.57 -0.24 -0.61 -0.25 -0.62 -0.27 -0.65 -0.28 -0.66 -0.29 -0.66 -0.29 -0.68 -0.3 -0.67 -0.3 -0.67 -0.31 -0.67 -0.3 -0.65 -0.29 -0.63 -0.29 -0.61 -0.28 -0.59 -0.27 -0.56 -0.25 -0.52 -0.24 -0.48 -0.22 -0.44 -0.19 -0.4 -0.18 -0.34 -0.15 -0.28 -0.12 -0.23 -0.08 -0.15 0 0zm0 0c-0.18,-0.3 -0.06,-0.67 0.27,-0.84 0.33,-0.16 0.74,-0.05 0.91,0.25l-1.18 0.59zm-0.76 -3.15l-1.33 -0.18 1.22 -0.27 0.07 0.1 0.07 0.09 0.07 0.09 0.07 0.1 0.07 0.09 0.07 0.09 0.06 0.09 0.07 0.09 0.07 0.1 0.06 0.09 0.07 0.09 0.07 0.09 0.06 0.09 0.06 0.09 0.07 0.09 0.06 0.09 0.06 0.1 0.07 0.09 0.06 0.09 0.06 0.09 0.06 0.1 0.06 0.09 0.07 0.1 0.06 0.09 0.06 0.1 0.06 0.09 0.06 0.1 0.06 0.1 0.06 0.1 0.06 0.1 0.06 0.1 0.06 0.1 -1.18 0.59 -0.06 -0.09 -0.06 -0.1 -0.05 -0.1 -0.06 -0.09 -0.06 -0.09 -0.06 -0.1 -0.06 -0.09 -0.06 -0.09 -0.05 -0.09 -0.06 -0.09 -0.06 -0.09 -0.06 -0.09 -0.06 -0.09 -0.06 -0.09 -0.06 -0.09 -0.06 -0.08 -0.06 -0.09 -0.06 -0.09 -0.06 -0.09 -0.06 -0.08 -0.07 -0.09 -0.06 -0.09 -0.06 -0.09 -0.07 -0.08 -0.06 -0.09 -0.07 -0.09 -0.06 -0.09 -0.07 -0.09 -0.07 -0.09 -0.07 -0.09 -0.07 -0.09 -0.07 -0.09 1.22 -0.27zm-1.22 0.27c-0.21,-0.28 -0.14,-0.67 0.17,-0.87 0.3,-0.19 0.72,-0.13 0.94,0.15l-1.11 0.72zm-0.28 15.4l-1.34 -0.14 0 0 0.06 -0.48 0.05 -0.49 0.05 -0.49 0.05 -0.48 0.04 -0.49 0.04 -0.49 0.05 -0.49 0.04 -0.49 0.04 -0.5 0.03 -0.49 0.04 -0.49 0.04 -0.49 0.03 -0.5 0.04 -0.49 0.04 -0.49 0.03 -0.5 0.04 -0.49 0.04 -0.49 0.04 -0.5 0.04 -0.49 0.04 -0.49 0.05 -0.5 0.04 -0.49 0.05 -0.49 0.05 -0.49 0.06 -0.49 0.05 -0.49 0.06 -0.49 0.07 -0.49 0.06 -0.49 0.07 -0.49 0.08 -0.49 1.33 0.18 -0.07 0.48 -0.07 0.48 -0.07 0.48 -0.06 0.48 -0.06 0.48 -0.05 0.48 -0.06 0.49 -0.05 0.48 -0.04 0.49 -0.05 0.49 -0.04 0.49 -0.04 0.49 -0.05 0.49 -0.03 0.49 -0.04 0.49 -0.04 0.49 -0.04 0.49 -0.03 0.49 -0.04 0.5 -0.04 0.49 -0.03 0.49 -0.04 0.5 -0.04 0.49 -0.04 0.5 -0.04 0.49 -0.04 0.5 -0.04 0.49 -0.05 0.49 -0.05 0.5 -0.05 0.49 -0.05 0.49 -0.06 0.5 0 0zm0 0c-0.04,0.34 -0.37,0.58 -0.74,0.55 -0.37,-0.04 -0.64,-0.35 -0.6,-0.69l1.34 0.14zm0.5 0.66l-0.29 1.21 -0.01 0 -0.1 -0.02 -0.1 -0.03 -0.09 -0.02 -0.09 -0.02 -0.09 -0.02 -0.08 -0.02 -0.08 -0.02 -0.08 -0.03 -0.09 -0.03 -0.08 -0.03 -0.08 -0.04 -0.08 -0.04 -0.09 -0.05 -0.08 -0.07 -0.08 -0.07 -0.07 -0.08 -0.06 -0.08 -0.06 -0.1 -0.04 -0.09 -0.03 -0.09 -0.02 -0.09 -0.01 -0.08 -0.01 -0.09 0 -0.08 0 -0.08 0 -0.09 0.01 -0.08 0 -0.09 0.01 -0.08 0.01 -0.1 0.01 -0.09 0.01 -0.11 1.34 0.14 -0.01 0.09 -0.01 0.09 -0.01 0.08 0 0.08 -0.01 0.06 0 0.06 0 0.05 0 0.04 0 0.03 0 0.02 0 0.01 0 0.01 0 -0.01 -0.01 -0.02 -0.01 -0.02 -0.02 -0.02 -0.01 -0.02 -0.02 -0.02 -0.02 -0.01 0 0 0 0 0.01 0 0.03 0.01 0.03 0.01 0.04 0.02 0.05 0.01 0.06 0.02 0.07 0.01 0.08 0.02 0.08 0.02 0.1 0.02 0.1 0.02 -0.02 0zm0.02 0c0.36,0.09 0.58,0.42 0.49,0.75 -0.09,0.34 -0.45,0.54 -0.81,0.46l0.32 -1.21z"/>
   </g>
   <path class="fil2 str2" d="M43.79 118.87l0 0zm22.65 15c0.85,1.56 0.29,1.33 2.09,-0.95 0.54,-0.68 5.58,-6.64 5.51,-6.67 -0.38,-0.17 -3.88,1.34 -3.67,-1.39 0.07,-0.96 9.69,-5.14 11.24,-5.42 0.68,-0.12 2.12,-6.24 2.23,-6.91 1.45,-9.72 -2.75,-15.72 -9.21,-22.63 -1,-1.08 -0.36,-0.68 -2.76,-0.65 -1.9,0.03 -7.07,1 -8.83,2.19 -2.58,1.75 -0.57,0.83 -2.74,2.96 -8.3,8.14 -11.39,12.43 -23.05,15.62 -1.64,0.45 -1.34,1.22 -2.03,3.22 -3.98,11.53 -2.08,15.97 4.33,25.39 -2.24,-4.07 -7.18,-14.56 -2.17,-18.25 7.18,-5.3 22.72,4.35 26.9,9.95 0.88,1.19 1.45,2.25 2.16,3.54z"/>
   <path class="fil1" d="M81.31 126.75c0.58,-1.06 2.64,-5.63 0.68,-6.57 -0.12,-0.06 -0.59,0.04 -0.4,-0.06 -0.87,0.35 -10.69,4.79 -10.08,5.31 0.72,0.61 1.21,-0.27 2.3,0.68 0.67,0.58 1.89,-0.53 -1.1,3.28 -0.53,0.68 -4.97,5.74 -4.92,6.09 0.02,0.1 0.86,1.97 0.97,2.21 1.47,-0.73 -0.81,-0.17 2.12,-1.97 4.03,-2.47 7.99,-4.82 10.43,-8.97zm-4.95 1.95c0.48,1.39 -7.81,8.8 -7.58,6.95 0.03,-0.24 4.66,-4.41 5.34,-5.14 0.21,-0.23 1.84,-2.29 2.24,-1.81z"/>
   <path class="fil1 str1" d="M46.73 59.88c2.37,1.06 5.1,1.74 5.84,-1.3 0.5,-2.04 0.18,-1.46 -1.2,-3.8 -1.98,-3.33 -5.5,-8.07 -5.93,-11.85 -0.04,-0.44 -4.07,-5.58 -2.5,-4.95 0.83,0.33 5.52,7.23 6.47,6.73 0.54,-0.29 3.37,-0.26 5.82,-1.51 1.4,-0.72 1.22,-0.67 2.56,-1.07 0.43,-0.13 -0.96,-0.86 0.99,-0.45 0.79,0.17 2.14,-0.17 1.63,-1.3 -1.5,-3.32 2.58,-5.92 1.32,-13.05 -1.04,-5.88 -0.22,-3.48 -4.86,-2.28 -3.87,0.99 -3.27,2.32 -7.6,3.2 -0.48,0.1 -4.87,1.53 -4.93,-0.18 -0.04,-1.32 -0.66,0.71 -1.1,-1.07 -0.46,-1.82 -5.24,-1.9 -4.76,2.51 0.26,2.48 3.36,3.42 1.38,3.99 -0.42,0.12 -1.43,3.79 -1.51,4 -1.34,3.47 -2.54,6.28 -4.77,9.26 -0.86,1.15 0.86,2.25 1.87,3.35 3.12,3.37 7.06,7.73 11.28,9.77zm8.57 -17.3c-0.83,0.94 -4.67,-2.46 -2.88,-2.77 0.16,-0.03 1.45,1.36 2.02,1.74 0.26,0.18 1.08,0.62 0.86,1.03zm0.99 -7.48c0.75,0.51 -1.28,1.55 -0.53,0.23 0.14,-0.24 0.27,-0.3 0.53,-0.23zm-14.29 -5.21c-0.08,0.73 -0.48,-0.17 -0.92,0.91 -0.23,0.55 -1.09,-0.35 0.27,-1.14 0.9,-0.52 -2.56,-2.33 -0.68,-1.96 1,0.2 1.41,1.25 1.33,2.19zm14.18 2.31c0.15,-1.43 5.03,-0.24 3.8,0.53 -0.01,0.01 -3.57,-0.11 -3.73,-0.33 -0.05,-0.07 -0.06,-0.12 -0.07,-0.2z"/>
   <path class="fil4" d="M63.41 31.25c5.03,-3.08 5.41,-1.81 4.36,-8.72 -0.94,-6.15 3.61,-5.85 -0.67,-9.89 -3.07,-2.9 -3.27,-3.24 -5.47,-6.77 -3.1,-4.97 -3.33,-1.17 -8.71,-0.65 -6.51,0.63 -11.86,-6.95 -16.33,-0.4 -3.79,5.55 -1.52,5.5 -9.19,6.21 -8.06,0.74 0.56,8.86 -5.09,14.92 -2.83,3.03 -3.05,6.59 0.32,9.27 5.87,4.67 1.61,9.59 8.95,9.37 3.35,-0.1 2.5,0.64 4.34,-3.22 5.68,-11.93 2.73,-5.83 1.35,-10.65 -1.3,-4.51 4.08,-7.32 6.23,-3.91 0.38,0.62 -0.17,1.88 2.08,1.75 0.78,-0.04 5.57,-1.41 6.12,-1.75 3.63,-2.23 3.23,-1.69 7.22,-2.81 1.51,-0.42 0.93,0.19 1.84,-0.22 1.15,-0.52 1.98,7.66 2.17,7.67 0.18,0.02 0.34,-0.11 0.48,-0.2z"/>
   <g>
    <path class="fil5" d="M19.38 69.01c0.44,2.23 1.09,4.4 1.69,6.59 1.86,6.87 3.41,13.8 5.27,20.67 0.8,2.93 1.76,5.57 3.18,8.26 0.1,0.18 1.62,2.98 1.37,3.09 -0.42,-0.05 -1.84,-2.41 -2.05,-2.78 -1.6,-2.9 -2.44,-5.15 -3.37,-8.32 -1.93,-6.86 -3.5,-13.78 -5.37,-20.65 -0.62,-2.2 -1.3,-4.43 -1.73,-6.67 -0.25,-1.31 -0.39,-2.43 -0.38,-3.77 0.06,-1.79 0.34,-3.06 1.02,-4.71 0.88,-1.98 1.91,-3.41 3.3,-5.05 4.29,-4.86 9.71,-8.64 12.71,-14.46 1.06,-2.19 2.16,-5.05 3.48,-7.03 0.93,-1.31 -2.53,7.01 -3.06,8.14 -2.89,5.61 -7.91,9.02 -12.33,14.04 -1.3,1.55 -2.29,2.91 -3.13,4.78 -0.63,1.51 -0.89,2.67 -0.94,4.31 -0.02,1.26 0.11,2.32 0.34,3.56z"/>
   </g>
   <path class="fil6" d="M38.55 34.01c-6.29,16.09 -5.84,10.35 -15.83,22 -6.08,7.09 -4.44,11.49 -2.16,19.73 1.88,6.86 3.41,13.91 5.3,20.67 1.28,4.55 2.51,7.22 5.01,11.22"/>
   <g>
    <path class="fil5" d="M35.99 80.73c1.04,4.33 1.87,8.74 2.35,13.17 0.02,0.24 0.1,1.26 -0.22,1.35 -0.26,0.02 -0.49,-1.09 -0.52,-1.26 -0.77,-4.37 -1.53,-8.71 -2.61,-13.02 -1.07,-4.23 -2.34,-8.39 -3.58,-12.57 -0.19,-0.65 -0.58,-1.57 -0.26,-2.23 0.21,-0.49 1.17,2.25 1.17,2.25 1.44,4.03 2.67,8.15 3.67,12.31z"/>
   </g>
   <path class="fil6" d="M31.12 66.14c3.6,10.68 5.45,17.92 6.99,29.12"/>
   <g>
    <path class="fil5" d="M48.68 89.54c2.92,-1.44 5.94,-2.95 8.98,-4.12 0.22,-0.08 0.78,-0.25 0.93,0.03 0.09,0.24 -0.48,0.58 -0.63,0.66 -2.93,1.48 -5.9,2.87 -8.82,4.36 -2.91,1.49 -5.83,3.03 -8.79,4.4 -0.51,0.23 -0.98,0.53 -1.48,0.25 -0.38,-0.2 1.2,-1.07 1.26,-1.11 2.79,-1.58 5.68,-3.05 8.55,-4.47z"/>
   </g>
   <path class="fil6" d="M38.86 95.15c6.3,-3.29 13.24,-6.82 19.73,-9.69"/>
   <g>
    <path class="fil5" d="M65.14 80.67c1.06,-0.38 1.93,-0.59 3.06,-0.5 0.62,0.07 1.08,0.2 1.63,0.49 0.56,0.31 0.92,0.64 1.32,1.13 0.02,0.03 0.05,0.06 0.07,0.1 0.09,0.18 0.15,0.41 -0.01,0.57 -0.18,0.12 -0.39,0.01 -0.54,-0.1 -0.01,-0.01 -0.07,-0.06 -0.08,-0.07 -0.38,-0.35 -0.7,-0.59 -1.17,-0.82 -0.45,-0.2 -0.81,-0.29 -1.3,-0.33 -0.97,-0.04 -1.72,0.15 -2.61,0.5 -0.09,0.04 -0.18,0.07 -0.27,0.11 -1.85,0.85 -3.2,1.87 -4.88,2.93 -0.39,0.23 -0.53,0.33 -0.88,0.08 -0.3,-0.21 0.34,-0.74 0.46,-0.85 1.55,-1.29 3.05,-2.31 4.9,-3.12 0.1,-0.04 0.2,-0.08 0.3,-0.12z"/>
   </g>
   <path class="fil6" d="M59.48 84.78c2.85,-2.08 8.19,-6.36 11.43,-2.63l0.28 0.32"/>
   <g>
    <path class="fil5" d="M70.66 82.3c0.45,0.22 1.09,0.53 1.39,0.94 0.07,0.09 -0.07,0.32 -0.12,0.4 -0.05,0.07 -0.21,0.24 -0.31,0.21 -0.46,-0.15 -0.96,-0.44 -1.43,-0.63 -0.46,-0.19 -1.05,-0.43 -1.43,-0.75 -0.17,-0.15 -0.06,-0.34 -0.01,-0.51 0.07,-0.19 0.2,-0.3 0.41,-0.26 0.49,0.1 1.05,0.37 1.5,0.6z"/>
   </g>
   <path class="fil6" d="M68.74 81.97c0.99,0.47 2.31,1.05 3.18,1.68"/>
   <g>
    <path class="fil5" d="M71.48 84.69c0.63,0.32 1.27,0.69 1.74,1.22 0.11,0.12 0.02,0.34 -0.06,0.45 -0.08,0.1 -0.25,0.22 -0.38,0.15 -0.6,-0.28 -1.16,-0.64 -1.77,-0.9 -0.6,-0.25 -1.22,-0.48 -1.78,-0.83 -0.25,-0.16 -0.2,-0.31 -0.15,-0.56 0.05,-0.26 0.3,-0.27 0.52,-0.23 0.64,0.14 1.29,0.4 1.88,0.7z"/>
   </g>
   <path class="fil6" d="M69.07 84.24c1.67,0.66 2.62,1.04 4.08,2.13"/>
   <g>
    <path class="fil5" d="M67.95 88.94c-1.53,0.42 -2.87,0.93 -4.46,1.29 -0.1,0.02 -0.21,0.04 -0.31,0.06 -0.21,0.03 -0.46,-0.05 -0.52,-0.27 -0.05,-0.21 0.15,-0.39 0.32,-0.45 0.03,-0.02 0.29,-0.11 0.29,-0.11 1.46,-0.5 2.95,-1.08 4.42,-1.52 1.63,-0.48 3.06,-0.48 4.72,-0.12 0.47,0.11 0.76,0.15 0.88,0.61 0.1,0.35 -1,0.23 -1.13,0.22 -1.49,-0.1 -2.75,-0.09 -4.21,0.29z"/>
   </g>
   <path class="fil6" d="M73.31 88.41c-4.69,-0.86 -5.56,0.17 -9.94,1.39l-0.71 0.2"/>
   <g>
    <path class="fil5" d="M49.23 102.76c3.77,-3.01 7.16,-6.86 10.58,-10.3 0.15,-0.15 0.31,-0.3 0.46,-0.45 0.17,-0.16 0.94,-0.89 1.21,-0.69 0.19,0.2 -0.57,1.09 -0.69,1.22 -0.13,0.15 -0.27,0.31 -0.41,0.46 -3.35,3.64 -6.68,7.46 -10.52,10.58 -4.01,3.16 -8.37,4.71 -13.28,5.85 -0.86,0.19 -2.19,0.6 -3.04,0.25 -0.5,-0.24 3.19,-1.18 3.21,-1.19 4.58,-1.29 8.68,-2.79 12.48,-5.73z"/>
   </g>
   <path class="fil6" d="M33.49 109.71c14.73,-3.29 16.72,-6.6 26.64,-16.95l1.37 -1.43"/>
   <g>
    <path class="fil5" d="M38.09 136.9c4.94,7.32 6.69,11.41 9.51,19.66 0.42,1.26 0.82,2.52 1.2,3.78 0.07,0.26 0.6,2.1 0.3,2.28 -0.28,0.06 -0.96,-1.89 -1.02,-2.08 -0.42,-1.24 -0.85,-2.46 -1.29,-3.69 -2.92,-8.09 -4.65,-12.18 -9.55,-19.36 -0.29,-0.42 -0.58,-0.83 -0.87,-1.24 -3.03,-4.41 -4.9,-8 -5.03,-13.44 0.08,-3.6 0.86,-6.29 2.1,-9.64 0.44,-1.13 1.09,-3.06 2.02,-3.91 0.53,-0.41 -1.29,4.41 -1.41,4.75 -1,3.07 -1.63,5.55 -1.67,8.8 0.16,5.19 1.97,8.62 4.85,12.85 0.29,0.41 0.58,0.82 0.86,1.24z"/>
   </g>
   <path class="fil6" d="M35.48 109.18c-4.4,10.54 -5.66,16.88 1.31,26.78 5.44,7.74 7.26,11.85 10.36,20.76 0.69,1.97 1.32,3.92 1.93,5.91"/>
   <g>
    <path class="fil5" d="M38.1 149.47c0.25,-3.24 0.46,-6.55 0.9,-9.78 0.03,-0.22 0.15,-0.81 0.46,-0.82 0.26,0.04 0.28,0.72 0.28,0.9 -0.12,3.26 -0.41,6.53 -0.61,9.78 -0.21,3.24 -0.41,6.51 -0.78,9.73 -0.07,0.56 -0.06,1.13 -0.55,1.42 -0.38,0.23 -0.29,-1.63 -0.29,-1.69 0.09,-3.18 0.34,-6.37 0.59,-9.54z"/>
   </g>
   <path class="fil6" d="M37.81 160.72c0.5,-7.29 1.07,-14.56 1.67,-21.85"/>
   <g>
    <path class="fil5" d="M55.56 124.22c-1.1,-0.68 -2.2,-1.3 -3.35,-1.91 -2.65,-1.36 -5.5,-2.69 -8.5,-3.01 -0.23,-0.02 -0.47,-0.04 -0.7,-0.06 0.01,0 0.02,0 0.04,0 -1.46,-0.03 -2.7,0.03 -4.1,0.44 -0.95,0.31 -1.64,0.66 -2.34,1.39 -0.59,0.66 -0.86,1.26 -1.07,2.12 -0.2,0.98 -0.2,1.79 -0.1,2.78 0.47,3.58 1.81,6.74 3.22,10.03 0.11,0.28 1.13,2.62 0.83,2.87 -0.27,0.08 -1.45,-2.41 -1.54,-2.61 -1.53,-3.35 -2.91,-6.51 -3.43,-10.19 -0.12,-1.1 -0.12,-1.99 0.09,-3.09 0.25,-1.04 0.58,-1.76 1.29,-2.57 0.82,-0.87 1.63,-1.29 2.76,-1.66 1.51,-0.45 2.83,-0.53 4.4,-0.5 -0.02,0 0.05,0 0.02,0 0,0 0.65,0.05 0.71,0.05 3.16,0.33 6.1,1.68 8.9,3.11 1.17,0.61 2.29,1.25 3.42,1.93 1.61,0.99 3.12,2 4.6,3.17 2.43,2.03 3.77,4.11 5.11,6.94 1.39,3.1 2.18,5.91 2.89,9.21 0.91,4.54 1.39,8.82 1.79,13.42 0.09,1.19 0.44,3.77 0.01,4.93 -0.29,0.87 -0.92,-5.41 -0.95,-5.61 -0.47,-4.27 -0.98,-8.31 -1.86,-12.53 -0.71,-3.21 -1.49,-5.96 -2.84,-8.97 -1.27,-2.67 -2.53,-4.65 -4.8,-6.57 -1.45,-1.14 -2.93,-2.13 -4.5,-3.11z"/>
   </g>
   <path class="fil6" d="M70.54 161.08c-1.05,-9.97 -1.83,-27.47 -10.15,-34.16 -3.79,-3.04 -11.82,-7.79 -16.63,-8.16l-0.71 -0.05c-13.85,-0.4 -6.6,13.19 -3.57,20.16"/>
   <g>
    <path class="fil5" d="M69.93 129.69c1.06,-1.28 2.12,-2.65 3.28,-3.84 0.14,-0.15 0.41,-0.25 0.59,-0.1 0.16,0.14 0.09,0.42 -0.01,0.57 -0.92,1.39 -2.03,2.72 -3.06,4.03 -1.02,1.31 -2.11,2.65 -3.29,3.81 -0.33,0.31 -0.45,0.43 -0.84,0.28 -0.34,-0.13 0.16,-0.79 0.25,-0.92 0.97,-1.31 2.04,-2.57 3.08,-3.83z"/>
   </g>
   <path class="fil6" d="M66.6 134.46c2.49,-2.88 4.84,-5.72 7.21,-8.7"/>
   <g>
    <path class="fil5" d="M73.93 121.57c2.09,-1.06 4.34,-2.02 6.57,-2.72 0.22,-0.06 0.62,-0.13 0.74,0.13 0.09,0.24 -0.32,0.49 -0.48,0.57 -2.12,0.99 -4.28,1.84 -6.36,2.94 -1.36,0.72 -2.63,1.47 -3.93,2.29 0.07,-0.05 0.12,-0.1 0.16,-0.18 0.04,-0.08 0.06,-0.15 0.05,-0.24 0.01,0.11 0.02,0.21 0.05,0.32 0.02,0.06 0.04,0.1 0.08,0.15 0.05,0.04 0.09,0.07 0.14,0.1 0.09,0.04 0.17,0.06 0.26,0.08 0.24,0.04 0.46,0.04 0.7,0.04 0.5,0 0.86,-0.08 1.11,0.36 0.21,0.34 -1.1,0.5 -1.21,0.51 -0.25,0.02 -0.47,0.03 -0.72,0.01 -0.18,-0.02 -0.33,-0.05 -0.5,-0.11 -0.19,-0.07 -0.32,-0.15 -0.47,-0.29 -0.15,-0.15 -0.24,-0.29 -0.33,-0.49 -0.08,-0.22 -0.12,-0.4 -0.13,-0.64 0,-0.1 0.01,-0.17 0.06,-0.27 0.05,-0.09 0.1,-0.15 0.18,-0.21 1.33,-0.9 2.6,-1.63 4.03,-2.35z"/>
   </g>
   <path class="fil6" d="M73.04 125.39c-1.27,0.09 -2.83,0.51 -2.88,-1.03 3.62,-2.39 7.08,-3.79 11.09,-5.36"/>
   <g>
    <path class="fil5" d="M71.87 131.51c1.07,-1.03 2.01,-2.2 3.04,-3.27 0.14,-0.15 0.45,-0.31 0.64,-0.16 0.17,0.15 0.04,0.48 -0.06,0.63 -0.87,1.26 -1.84,2.45 -2.9,3.55 -1.05,1.08 -2.24,1.98 -3.52,2.77 -0.4,0.23 -0.59,0.37 -0.97,0.13 -0.31,-0.18 0.46,-0.81 0.56,-0.9 1.08,-0.9 2.19,-1.77 3.21,-2.75z"/>
   </g>
   <path class="fil6" d="M68.1 135.18c3.72,-2.65 4.61,-3.54 7.46,-7.09"/>
   <g>
    <path class="fil5" d="M78.07 129.39c0.87,-0.88 1.56,-1.69 2.24,-2.72 0.94,-1.48 1.46,-2.7 1.73,-4.42 0.08,-0.63 0.07,-1.03 -0.07,-1.64 -0.04,-0.17 -0.19,-0.91 0.06,-1 0.29,-0.05 0.58,0.59 0.66,0.8 0.23,0.7 0.28,1.19 0.22,1.93 -0.21,1.9 -0.76,3.25 -1.76,4.87 -0.72,1.1 -1.44,1.97 -2.35,2.91 -0.4,0.41 -0.81,0.79 -1.24,1.17 -2.43,2.08 -4.78,3.57 -7.66,4.95 -0.5,0.22 -0.98,0.52 -1.46,0.22 -0.37,-0.21 1.18,-1.05 1.25,-1.08 2.63,-1.53 4.84,-2.91 7.18,-4.88 0.42,-0.36 0.81,-0.73 1.2,-1.11z"/>
   </g>
   <path class="fil6" d="M68.42 136.49c5.42,-2.65 13.35,-7.52 14.1,-14.19 0.12,-1.07 -0.08,-1.73 -0.48,-2.69"/>
   <g>
    <path class="fil5" d="M83.77 102.95c0.71,2.98 0.9,5.35 0.54,8.4 -0.41,2.74 -1.08,4.77 -2.46,7.17 -0.12,0.2 -0.75,1.18 -1.07,1.03 -0.21,-0.15 0.35,-1.25 0.43,-1.41 1.17,-2.36 1.78,-4.3 2.13,-6.91 0.32,-2.92 0.13,-5.18 -0.57,-8.03 -0.03,-0.1 -0.06,-0.21 -0.09,-0.32 -1.59,-5.22 -3.91,-8.82 -7.81,-12.6 -0.51,-0.48 -1.4,-1.12 -1.54,-1.84 -0.06,-0.58 2.25,1.33 2.37,1.43 4.08,3.69 6.41,7.46 7.98,12.74 0.01,0.01 0.08,0.3 0.09,0.34z"/>
   </g>
   <path class="fil6" d="M73.29 88.43c9.66,7.15 14.19,20.67 7.47,31.12"/>
   <g>
    <path class="fil5" d="M45.34 41.11c0.92,1.03 1.71,1.76 2.73,2.67 0.13,0.12 0.1,0.34 0.02,0.48 -0.09,0.15 -0.27,0.22 -0.43,0.15 -1.1,-0.52 -2.28,-1.74 -3.1,-2.63 -0.96,-1.04 -1.98,-2.35 -2.59,-3.63 -0.16,-0.38 -0.18,-0.48 0.09,-0.75 0.23,-0.23 0.58,0.22 0.69,0.37 0.85,1.14 1.66,2.26 2.59,3.34z"/>
   </g>
   <path class="fil6" d="M42.04 37.4c1.44,2.52 4.06,5.74 6.04,6.87"/>
   <g>
    <path class="fil5" d="M52.97 43.28c1.22,-0.44 2.32,-1.16 3.47,-1.74 0.18,-0.09 0.45,-0.08 0.57,0.1 0.11,0.18 -0.02,0.41 -0.17,0.53 -1.05,0.84 -2.26,1.58 -3.52,2.08 -0.02,0.02 -0.07,0.03 -0.1,0.04 -1.38,0.51 -2.46,0.62 -3.92,0.47 -0.44,-0.07 -0.59,-0.1 -0.7,-0.5 -0.09,-0.33 0.65,-0.35 0.82,-0.36 1.28,-0.08 2.23,-0.18 3.46,-0.59 0.02,0 0.08,-0.02 0.09,-0.03z"/>
   </g>
   <path class="fil6" d="M48.59 44.27c3.69,0.28 5.41,-0.62 8.43,-2.61"/>
   <g>
    <path class="fil5" d="M61.23 31.16c0.13,-1.03 0.14,-1.85 0.04,-2.88 -0.2,-1.68 -0.6,-3.15 -1.01,-4.78 -0.05,-0.22 -0.14,-0.75 0.14,-0.87 0.25,-0.07 0.51,0.5 0.58,0.66 0.61,1.67 1.04,3.11 1.28,4.88 0.12,1.11 0.12,2.02 0,3.13 -0.13,1.01 -0.33,1.85 -0.64,2.81 -0.38,1.11 -0.93,2.2 -1.26,3.25 -0.12,0.45 -0.16,0.77 -0.12,1.23 0.01,0.17 0.03,0.33 0.06,0.5 0.11,0.54 0.28,0.89 0,1.35 -0.27,0.38 -0.84,-1.2 -0.87,-1.3 -0.04,-0.15 -0.07,-0.29 -0.1,-0.44 -0.08,-0.59 -0.06,-1.01 0.07,-1.59 0.27,-1.07 0.84,-2.24 1.22,-3.33 0.28,-0.9 0.48,-1.69 0.61,-2.62z"/>
   </g>
   <path class="fil6" d="M60.33 40.45c-1.29,-2.86 -0.2,-3.54 0.79,-6.5 1.43,-4.3 0.62,-7.21 -0.7,-11.33"/>
   <g>
    <path class="fil5" d="M37.37 25.91c0.18,-0.31 0.36,-0.56 0.61,-0.82 0.34,-0.34 0.65,-0.54 1.09,-0.73 0.81,-0.29 1.48,-0.28 2.3,-0.02 0.69,0.25 1.22,0.6 1.64,1.22 0.18,0.3 0.28,0.55 0.29,0.91 0.01,0.02 0,0.16 -0.01,0.19 -0.04,0.27 -0.28,0.7 -0.58,0.53 -0.13,-0.09 -0.15,-0.44 -0.16,-0.58 0,-0.01 -0.01,-0.08 -0.01,-0.08 -0.04,-0.2 -0.11,-0.33 -0.23,-0.49 -0.34,-0.41 -0.74,-0.63 -1.24,-0.8 -0.58,-0.16 -1.06,-0.16 -1.63,0.06 -0.3,0.13 -0.5,0.27 -0.73,0.51 -0.19,0.19 -0.31,0.37 -0.44,0.61 -0.06,0.12 -0.12,0.23 -0.17,0.36 -0.23,0.59 -0.37,1.07 -0.39,1.71 0,0.52 0.08,0.9 0.28,1.39 0.33,0.74 0.75,1.23 1.33,1.79 0.37,0.35 0.62,0.5 0.56,0.99 -0.08,0.41 -1.12,-0.35 -1.23,-0.43 -0.72,-0.57 -1.2,-1.1 -1.61,-1.93 -0.28,-0.64 -0.39,-1.14 -0.39,-1.84 0.03,-0.79 0.19,-1.37 0.5,-2.1 0.06,-0.15 0.13,-0.3 0.22,-0.45z"/>
   </g>
   <path class="fil6" d="M39.9 32.65c-2.18,-1.46 -3.45,-3.34 -2.27,-6.08 1.61,-3.7 6.23,-1.14 5.06,0.61"/>
   <g>
    <path class="fil5" d="M51.65 25.46c0.02,-0.02 0.22,-0.2 0.22,-0.2 1.28,-1.18 2.08,-1.51 3.82,-1.77 1.29,-0.16 1.78,-0.1 2.95,-0.65 0.2,-0.09 0.81,-0.33 0.98,-0.1 0.08,0.25 -0.45,0.64 -0.63,0.76 -1.26,0.77 -1.71,0.74 -3.17,0.95 -1.52,0.25 -2.16,0.51 -3.25,1.56 -0.01,0.01 -0.2,0.19 -0.23,0.22 -1.06,0.98 -1.87,1.22 -3.32,1.32 -1.25,0.08 -1.48,0.21 -2.58,0.59 -0.45,0.15 -0.75,0.2 -1.22,0.18 -0.19,-0.02 -0.37,-0.05 -0.56,-0.09 -0.52,-0.12 -0.99,-0.22 -1.18,-0.74 -0.08,-0.32 1.26,-0.1 1.44,-0.09 0.11,0.01 0.22,0.01 0.33,0 0.34,0 0.53,-0.05 0.84,-0.18 1.16,-0.51 1.55,-0.64 2.88,-0.73 1.2,-0.09 1.79,-0.24 2.68,-1.03z"/>
   </g>
   <path class="fil6" d="M43.45 27.49c3.22,0.96 2.42,-0.33 5.55,-0.48 3.71,-0.17 2.66,-2.46 6.76,-3 2.1,-0.28 1.99,-0.15 3.87,-1.26"/>
   <g>
    <path class="fil5" d="M52.27 40.17c0.32,0.46 0.81,0.89 1.2,1.32 0.1,0.12 0.03,0.33 -0.05,0.44 -0.08,0.12 -0.25,0.2 -0.39,0.13 -0.62,-0.32 -1.14,-0.79 -1.58,-1.32 -0.15,-0.19 -0.27,-0.36 -0.37,-0.58 -0.14,-0.36 -0.23,-0.73 -0.16,-1.11 0.03,-0.16 0.28,-0.2 0.4,-0.25 0.2,-0.07 0.35,-0.03 0.42,0.18 0.1,0.28 0.14,0.49 0.27,0.77 0.08,0.15 0.16,0.28 0.26,0.42z"/>
   </g>
   <path class="fil6" d="M51.31 38.8c0.13,0.52 -0.18,1.49 2.1,3.15"/>
   <g>
    <path class="fil5" d="M57.71 30.87c0.65,0.04 1.36,0.21 1.84,0.68 0.11,0.1 0.01,0.33 -0.06,0.43 -0.06,0.08 -0.21,0.24 -0.32,0.21 -0.52,-0.15 -0.97,-0.3 -1.52,-0.28 0,0 -0.03,0 -0.04,0 -0.53,0.02 -1.05,0.1 -1.58,0.08 -0.25,-0.02 -0.29,-0.21 -0.35,-0.41 -0.07,-0.22 0.03,-0.37 0.24,-0.45 0.58,-0.22 1.12,-0.28 1.75,-0.26 0.01,0 0.03,0 0.04,0z"/>
   </g>
   <path class="fil6" d="M55.68 31.6c1.36,-0.25 2.6,-0.4 3.8,0.39"/>
   <g>
    <path class="fil5" d="M58.18 61.86c1.64,1.52 3.34,2.97 4.99,4.48 1.88,1.73 3.57,3.36 4.85,5.6 0.54,1.03 0.84,1.86 0.95,3.03 0.07,1.22 -0.12,2.11 -0.61,3.23 0,0.01 -0.03,0.07 -0.04,0.07 -0.28,0.43 -0.57,0.86 -0.86,1.29 -0.14,0.21 -1.03,1.49 -1.35,1.37 -0.22,-0.17 0.64,-1.64 0.74,-1.8 0.26,-0.43 0.53,-0.87 0.79,-1.29 0,0.01 -0.01,0.02 -0.02,0.04 0.39,-0.99 0.54,-1.77 0.46,-2.84 -0.12,-1.02 -0.4,-1.75 -0.89,-2.65 -1.24,-2.1 -2.91,-3.68 -4.69,-5.31 -1.67,-1.5 -3.37,-2.95 -5.03,-4.46 -2.77,-2.59 -4.91,-4.83 -6.65,-8.25 -1.75,-3.42 -4.25,-5.95 -5.55,-9.29 -0.34,-1.05 -0.8,-2.46 -0.36,-3.55 0.15,-0.3 1.09,3.08 1.32,3.64 1.45,3.04 3.8,5.38 5.53,8.74 1.69,3.27 3.77,5.45 6.42,7.95z"/>
   </g>
   <path class="fil6" d="M44.89 41.47c0.65,6 3.79,7.26 6.41,12.67 4.88,10.11 20.28,15.52 16.65,23.89l-1.86 2.89"/>
   <g>
    <path class="fil5" d="M38.93 64.91c-0.18,-0.34 -0.37,-0.67 -0.57,-1.01 -1.86,-3.05 -3.94,-5.69 -5.96,-8.61 -1.09,-1.59 -2.19,-3.17 -3.26,-4.77 -0.13,-0.2 -0.8,-1.23 -0.56,-1.47 0.24,-0.14 1.07,0.91 1.18,1.06 1.16,1.53 2.28,3.09 3.41,4.65 2.1,2.9 4.18,5.55 6.07,8.62 0.21,0.34 0.41,0.69 0.6,1.04 0.7,1.28 1.25,2.43 1.72,3.82 0.55,1.76 0.79,3.17 0.63,5.02 -0.13,1.24 -0.32,2.3 -0.71,3.48 -0.35,0.97 -0.71,1.71 -1.39,2.49 -0.63,0.67 -1.2,1.04 -2.09,1.29 -0.01,0 -0.05,0.01 -0.05,0.01 -0.85,0.15 -1.99,0.25 -2.62,-0.47 -0.15,-0.21 1.84,-0.21 2.4,-0.35 0.04,0 0.3,-0.1 0.35,-0.12 0.55,-0.25 0.9,-0.53 1.3,-0.98 0.57,-0.69 0.86,-1.35 1.14,-2.19 0.35,-1.11 0.51,-2.11 0.63,-3.26 0.13,-1.7 -0.1,-2.99 -0.6,-4.6 -0.44,-1.32 -0.96,-2.43 -1.62,-3.65z"/>
   </g>
   <path class="fil6" d="M35.28 80.06c3.87,0.93 5.86,-1.71 6.38,-6.85 0.65,-6.36 -5.28,-13.11 -8.84,-18.21 -1.39,-2 -2.81,-3.98 -4.22,-5.96"/>
   <g>
    <path class="fil5" d="M42.59 57.11c1.05,0.8 2.02,1.46 3.21,2.05 0.87,0.42 1.61,0.7 2.55,0.86 0.83,0.12 1.47,0.1 2.27,-0.15 0.32,-0.11 0.51,-0.29 0.7,-0.57 0.24,-0.37 0.36,-0.73 0.47,-1.15 0.14,-0.54 0.21,-1.05 0.27,-1.6 0.02,-0.19 0.13,-1.1 0.44,-1.07 0.32,0.07 0.31,0.91 0.3,1.14 -0.02,0.6 -0.07,1.13 -0.19,1.72 -0.12,0.54 -0.25,0.96 -0.53,1.44 -0.31,0.48 -0.62,0.76 -1.16,0.97 -0.96,0.33 -1.71,0.36 -2.71,0.24 -1.06,-0.17 -1.88,-0.47 -2.85,-0.93 -1.26,-0.61 -2.28,-1.29 -3.4,-2.13 -0.81,-0.61 -1.56,-1.24 -2.32,-1.91 -2.88,-2.66 -5.33,-5.4 -7.72,-8.49 -0.34,-0.46 -0.78,-0.9 -0.59,-1.44 0.13,-0.43 1.37,1.02 1.41,1.07 2.52,2.86 4.79,5.46 7.61,8.07 0.73,0.66 1.46,1.28 2.24,1.88z"/>
   </g>
   <path class="fil6" d="M31.3 46.08c3.53,4.24 13.16,16.46 19.48,14.27 1.63,-0.56 1.7,-3.4 1.74,-4.87"/>
   <g>
    <path class="fil5" d="M41.27 28.62c0.03,0.24 0.03,0.44 0,0.69 -0.01,0.04 -0.02,0.08 -0.04,0.12 -0.02,0.04 -0.04,0.07 -0.08,0.1 -0.03,0.03 -0.06,0.05 -0.11,0.07 -0.04,0.01 -0.08,0.02 -0.13,0.02 -0.12,0 -0.22,0.01 -0.34,0.07 -0.06,0.04 -0.1,0.08 -0.14,0.14 -0.04,0.07 -0.05,0.12 -0.06,0.2 0,0 0,0.06 0,0.08 0.01,0.06 -0.08,0.19 -0.12,0.22 -0.1,0.09 -0.23,0.04 -0.28,-0.07 -0.03,-0.06 -0.05,-0.11 -0.06,-0.17 -0.03,-0.17 -0.02,-0.31 0.04,-0.47 0.07,-0.18 0.17,-0.3 0.34,-0.41 0.2,-0.13 0.39,-0.16 0.63,-0.17 -0.03,0 -0.05,0 -0.08,0.01 -0.03,0.01 -0.05,0.03 -0.07,0.05 -0.02,0.02 -0.04,0.03 -0.05,0.06 -0.02,0.03 -0.02,0.05 -0.03,0.08 0.02,-0.19 0.01,-0.35 -0.02,-0.53 -0.01,-0.06 -0.02,-0.1 -0.03,-0.15 -0.06,-0.21 -0.13,-0.35 -0.26,-0.52 -0.12,-0.16 -0.23,-0.26 -0.41,-0.36 -0.04,-0.03 -0.27,-0.12 -0.34,-0.14 -0.2,-0.07 -0.22,-0.1 -0.27,-0.29 -0.06,-0.2 0.3,-0.21 0.41,-0.2 0.16,0.02 0.29,0.05 0.45,0.12 0.28,0.12 0.46,0.26 0.65,0.49 0.19,0.25 0.28,0.46 0.36,0.76 0.01,0.02 0.03,0.17 0.04,0.2z"/>
   </g>
   <path class="fil6" d="M39.35 27.26c1.15,0 1.76,0.92 1.61,2.05 -0.88,-0.03 -0.99,0.75 -0.72,1.03"/>
   <path class="fil7" d="M56.23 35.39c-1.95,2.24 -1.72,-2.2 0.01,-1.67 0.7,0.22 0.28,1.25 -0.01,1.67z"/>
   <g>
    <path class="fil5" d="M58.9 41.9c-0.12,0.01 -0.22,0.02 -0.34,0.02 -0.38,-0.01 -0.7,-0.07 -1.04,-0.25 -0.15,-0.08 -0.26,-0.15 -0.38,-0.27 -0.03,-0.03 -0.1,-0.11 -0.12,-0.15 -0.09,-0.13 0.03,-0.27 0.14,-0.33 0.05,-0.02 0.23,-0.1 0.29,-0.07 0.02,0.01 0.06,0.04 0.08,0.04 0.1,0.04 0.19,0.08 0.29,0.11 0.26,0.08 0.47,0.12 0.75,0.12 0.03,0 0.18,-0.02 0.22,-0.03 0.2,-0.05 0.34,-0.1 0.51,-0.21 0.21,-0.14 0.36,-0.29 0.52,-0.49 0.14,-0.17 0.25,-0.13 0.44,-0.1 0.23,0.04 0.21,0.29 0.15,0.46 -0.15,0.37 -0.34,0.61 -0.67,0.84 -0.28,0.18 -0.52,0.26 -0.84,0.31z"/>
   </g>
   <path class="fil6" d="M60.25 40.28c-0.68,1.86 -2.79,1.17 -3.08,0.64"/>
   <g>
    <path class="fil5" d="M37.52 0.8c0.31,-0.18 0.59,-0.31 0.93,-0.44 1.01,-0.34 1.82,-0.4 2.88,-0.34 2.7,0.24 3.92,0.96 6.22,2.24 1.43,0.7 2.57,1.04 4.17,0.98 1.23,-0.09 2.09,-0.38 3.22,-0.84 0.96,-0.39 1.84,-0.82 2.86,-1.02 0.54,-0.09 0.95,-0.1 1.49,0.02 0.59,0.15 0.99,0.38 1.47,0.77 2.72,2.88 0.59,4.07 4.96,7.46 1.2,0.86 2.58,1.7 3.34,3 0.34,0.68 0.41,1.22 0.34,1.98 -0.13,0.95 -0.44,1.73 -0.83,2.59 -0.81,1.78 -0.88,2.24 -0.45,4.15 0.35,1.3 0.63,2.39 0.6,3.76 -0.03,0.72 -0.14,1.26 -0.43,1.93 -0.35,0.72 -0.73,1.19 -1.35,1.7 -0.01,0.01 -0.09,0.07 -0.1,0.08 -0.35,0.21 -4.17,1.88 -4.5,1.68 0.08,-0.5 3.39,-1.84 4.09,-2.31 0.02,-0.01 0.03,-0.02 0.04,-0.03 0.51,-0.44 0.83,-0.83 1.11,-1.44 0.23,-0.57 0.31,-1.03 0.33,-1.64 0.01,-1.26 -0.28,-2.31 -0.62,-3.51 -0.5,-2.12 -0.43,-2.76 0.46,-4.75 0.34,-0.76 0.63,-1.48 0.74,-2.31 0.04,-0.56 0,-0.94 -0.25,-1.44 -0.64,-1.06 -2.08,-1.95 -3.08,-2.66 -4.65,-3.59 -2.65,-4.96 -5.05,-7.5 -0.35,-0.27 -0.63,-0.44 -1.06,-0.55 -0.38,-0.08 -0.68,-0.07 -1.07,-0.01 -0.92,0.19 -1.8,0.62 -2.66,0.98 -1.25,0.51 -2.18,0.81 -3.55,0.91 -1.8,0.07 -3.09,-0.3 -4.7,-1.08 -2.15,-1.2 -3.29,-1.9 -5.81,-2.12 -0.9,-0.04 -1.6,0 -2.46,0.3 -0.28,0.1 -0.51,0.2 -0.76,0.35 -0.38,0.22 -0.66,0.44 -0.97,0.74 -1.15,1.19 -1.81,2.57 -2.53,4.03 -0.35,0.7 -0.68,1.23 -1.22,1.79 -0.48,0.47 -0.89,0.75 -1.51,1.02 -1.27,0.48 -2.45,0.5 -3.78,0.54 -0.93,0.03 -1.79,0.09 -2.69,0.34 -0.57,0.19 -1,0.39 -1.4,0.85 -0.38,0.5 -0.49,0.99 -0.57,1.61 -0.09,0.95 -0.01,1.84 0.1,2.79 0.39,1.95 0.68,3.86 0.36,5.85 -0.25,1.26 -0.6,2.02 -1.43,3 -0.6,0.66 -1.21,1.19 -1.72,1.93 -0.67,1.03 -0.83,1.93 -0.9,3.15 -0.02,1.04 0.06,1.85 0.54,2.79 0.41,0.72 0.84,1.13 1.47,1.65 0.67,0.54 1.3,0.99 1.91,1.61 0.78,0.82 1.18,1.5 1.52,2.58 0.36,1.18 0.72,2.37 1.26,3.48 0.09,0.18 0.18,0.34 0.28,0.5 0.31,0.49 0.59,0.82 1.09,1.12 0.71,0.39 1.36,0.43 2.16,0.43 1.28,-0.03 2.31,-0.17 3.61,-0.12 1.22,0.06 -3.53,0.83 -3.58,0.83 -0.96,0.05 -1.71,0.01 -2.58,-0.43 -0.85,-0.48 -1.29,-1.09 -1.75,-1.93 -0.02,-0.03 -0.2,-0.41 -0.22,-0.46 -0.47,-1.04 -0.81,-2.08 -1.14,-3.16 -0.3,-0.92 -0.65,-1.49 -1.32,-2.18 -0.59,-0.58 -1.21,-1.02 -1.85,-1.52 -0.74,-0.61 -1.24,-1.09 -1.73,-1.93 -0.58,-1.11 -0.7,-2.06 -0.67,-3.3 0.07,-1.43 0.27,-2.47 1.04,-3.69 0.57,-0.81 1.16,-1.32 1.8,-2.04 0.69,-0.82 0.98,-1.43 1.18,-2.49 0.29,-1.85 -0.01,-3.68 -0.37,-5.5 -0.13,-1.05 -0.21,-2.03 -0.11,-3.08 0.1,-0.84 0.28,-1.47 0.8,-2.15 0.55,-0.65 1.11,-0.95 1.92,-1.2 1,-0.28 1.93,-0.35 2.96,-0.38 1.16,-0.04 2.31,-0.06 3.41,-0.47 0.48,-0.2 0.79,-0.41 1.16,-0.78 0.46,-0.47 0.74,-0.93 1.03,-1.51 0.79,-1.61 1.47,-3.01 2.75,-4.31 0.38,-0.36 0.72,-0.63 1.17,-0.89z"/>
   </g>
   <path class="fil6" d="M33.78 43.32c-6.18,1.17 -7.18,0.87 -9.01,-5.23 -1.25,-4.16 -5.69,-3.42 -5.5,-8.78 0.23,-6.51 5.83,-3.31 3.67,-13.84 -0.58,-4.67 0.45,-6.07 5.07,-6.18 2.89,-0.09 4.68,-0.24 6.07,-3.05 1.6,-3.25 3.04,-5.97 7.22,-5.69 2.46,0.17 3.9,1.01 5.99,2.18 6.83,3.47 9.74,-2.97 13.13,-0.15 2.26,2.1 0.67,4.39 4.99,7.47 3.1,2.21 4.53,2.99 2.71,6.94 -0.84,1.83 -0.93,2.52 -0.46,4.47 0.65,2.3 1.32,5.07 -0.98,6.96 -1.01,0.82 -3.12,1.25 -4.35,2.07"/>
   <line class="fil6" x1="72.53" y1="125.06" x2="73.66" y2= "125.96" />
   <line class="fil6" x1="37.51" y1="159.93" x2="49.17" y2= "162.48" />
   <line class="fil6" x1="48.86" y1="161.93" x2="70.18" y2= "160.19" />
   <line class="fil6" x1="32.19" y1="43.61" x2="34.66" y2= "43.33" />
   <line class="fil6" x1="62.08" y1="30.55" x2="63.65" y2= "30.17" />
  </g>
 </g>
</svg>
