<?xml version="1.0" encoding="UTF-8"?>
<!DOCTYPE svg PUBLIC "-//W3C//DTD SVG 1.1//EN" "http://www.w3.org/Graphics/SVG/1.1/DTD/svg11.dtd">
<!-- Creator: CorelDRAW -->
<svg xmlns="http://www.w3.org/2000/svg" xml:space="preserve" width="1279px" height="1238px" version="1.1" style="shape-rendering:geometricPrecision; text-rendering:geometricPrecision; image-rendering:optimizeQuality; fill-rule:evenodd; clip-rule:evenodd"
viewBox="0 0 124.84 120.83"
 xmlns:xlink="http://www.w3.org/1999/xlink"
 xmlns:xodm="http://www.corel.com/coreldraw/odm/2003">
 <defs>
  <style type="text/css">
   <![CDATA[
    .str0 {stroke:#262749;stroke-width:0.23;stroke-miterlimit:22.9256}
    .fil5 {fill:none;fill-rule:nonzero}
    .fil10 {fill:#FEFEFE}
    .fil2 {fill:#94ACFF}
    .fil8 {fill:#BCC7F0}
    .fil6 {fill:#E51A4B}
    .fil0 {fill:#E7D0CF}
    .fil1 {fill:#F0A7A7}
    .fil3 {fill:#F78384}
    .fil7 {fill:#262749;fill-rule:nonzero}
    .fil4 {fill:#262749;fill-rule:nonzero}
    .fil9 {fill:#CFD5E8;fill-rule:nonzero}
    .fil11 {fill:#E51A4B;fill-rule:nonzero}
   ]]>
  </style>
 </defs>
 <g id="Camada_x0020_1">
  <metadata id="CorelCorpID_0Corel-Layer"/>
  <g id="_1803802720768">
   <path class="fil0" d="M14.53 30.57c4.13,-18.37 20.47,-26.88 38.35,-24.67 7.93,0.98 13.68,6.99 21.3,10.69 23.65,11.55 13.75,7.87 24.05,28.66 7.25,14.63 27,17.75 11.37,40.64 -6.85,10.02 -19.37,22.87 -32.14,23.76 -12.93,0.91 -23.25,-4 -34.9,-4.52 -12.02,-0.54 -17.44,-5.37 -21.1,-16.8 -3.25,-10.17 1.08,-14.89 -0.62,-24.79l-0.41 -2.39c-0.02,-0.09 -3.13,-9.81 -3.16,-9.84 -2.77,-2.92 -3.3,-16.66 -2.74,-20.74z"/>
   <g>
    <path class="fil1" d="M109.23 75.16c4.31,-0.06 8.62,-0.21 12.93,-0.33 0.67,-0.01 1.33,-0.08 1.98,-0.26 0.36,-0.11 0.56,-0.31 0.61,-0.69 0.06,-0.39 0.09,-0.79 0.09,-1.19 -0.06,-3.46 0,-6.93 -0.18,-10.39 -0.02,-0.28 -0.08,-0.35 -0.37,-0.32 -1.28,0.14 -2.57,0.28 -3.87,0.14 -1.05,-0.12 -1.44,-0.49 -1.53,-1.55 -0.09,-1.02 -0.01,-2.04 0.09,-3.06 0.02,-0.22 -0.03,-0.28 -0.25,-0.26 -3.22,0.27 -6.46,0.19 -9.68,0.41 -0.76,0.06 -1.52,0.16 -2.25,0.36 -0.74,0.2 -0.97,0.45 -1,1.22 -0.13,4.28 -0.26,8.56 0.02,12.84 0.06,0.87 0.22,1.71 0.61,2.5 0.2,0.4 0.53,0.58 0.96,0.59 0.61,0.01 1.23,0 1.84,-0.01z"/>
    <path class="fil1" d="M119.84 60.67c0.04,0.33 0.21,0.46 0.53,0.5 1.29,0.16 2.57,0 3.96,-0.13 -1.55,-1.2 -2.99,-2.36 -4.4,-3.66 -0.09,1.14 -0.21,2.21 -0.09,3.29z"/>
    <path class="fil1" d="M119.04 63.9c-1.01,0.05 -2.01,0.1 -3.02,0.17 -1.22,0.09 -2.43,0.02 -3.64,-0.02 -0.35,-0.01 -0.7,0 -1.05,0.04 -0.48,0.06 -0.55,0.12 -0.56,0.6 -0.03,1.27 -0.05,2.54 -0.07,3.81 -0.01,0.59 -0.02,1.19 0.06,1.77 0.02,0.19 0.07,0.38 0.09,0.48 0.11,0.24 0.24,0.25 0.38,0.24 1.89,-0.12 3.78,-0.18 5.68,-0.23 0.77,-0.02 1.53,-0.16 2.29,-0.3 0.37,-0.07 0.5,-0.25 0.53,-0.61 0.09,-1.35 -0.06,-2.68 -0.12,-4.02 -0.02,-0.5 -0.06,-1 -0.09,-1.5 -0.03,-0.43 -0.03,-0.45 -0.48,-0.43z"/>
   </g>
   <path class="fil2" d="M84.1 57.15c2.09,-0.6 4.22,-1.08 6.34,-1.57 0.42,-0.1 0.75,0.02 1.01,0.37 0.31,0.43 0.66,0.83 1,1.25 0.3,0.38 0.27,0.69 0.04,1.07 -1.29,2.18 -2.58,4.36 -3.84,6.56 -0.8,1.41 -1.66,2.77 -2.78,3.95 -0.43,0.45 -0.79,0.95 -1.11,1.48 -0.99,1.68 -1.11,3.37 -0.12,5.1 1.1,1.92 2.77,2.86 4.93,3.13 2.67,0.34 5.65,-1.86 5.97,-4.81 0.31,-2.93 -1,-5.14 -3.99,-6.75 -0.66,-0.35 -0.81,-0.59 -0.51,-1.28 1.68,-3.9 3.52,-7.73 5.4,-11.54 0.17,-0.33 0.39,-0.5 0.73,-0.59 4.86,-1.33 9.58,-3.12 14.39,-4.62 0.08,-0.02 0.17,-0.03 0.22,-0.16 -0.09,0.01 -0.16,0.01 -0.23,0.03 -1.98,0.34 -3.96,0.68 -5.95,1.02 -1.71,0.29 -3.43,0.57 -5.14,0.86 -0.41,0.06 -0.72,-0.23 -0.66,-0.67 0.03,-0.26 0.16,-0.49 0.27,-0.72 1.28,-2.58 2.56,-5.16 3.82,-7.74 0.61,-1.26 1.18,-2.53 1.81,-3.87 -0.24,0.15 -0.31,0.31 -0.4,0.45 -1.1,1.61 -2.19,3.22 -3.28,4.83 -1.82,2.69 -3.51,5.46 -5.24,8.2 -0.21,0.32 -0.46,0.57 -0.86,0.52 -0.26,-0.04 -0.49,-0.01 -0.73,0.04 -1.35,0.26 -2.7,0.51 -4.03,0.8 -2.76,0.61 -5.51,1.24 -8.26,1.87 -0.52,0.12 -0.91,0.03 -1.26,-0.42 -0.82,-1.08 -1.78,-2.03 -2.89,-2.84 -1.42,-1.03 -2.94,-1.41 -4.65,-0.93 -0.36,0.11 -0.72,0.19 -1.07,0.3 -2.35,0.72 -3.6,2.42 -4.25,4.67 -0.08,0.27 -0.1,0.55 -0.06,0.82 0.28,1.98 1.22,3.58 2.94,4.62 1.87,1.11 3.82,0.86 5.75,0.13 0.99,-0.38 1.9,-0.92 2.77,-1.51 1.23,-0.83 2.48,-1.64 3.92,-2.05zm8.64 -2c-0.39,-0.56 -0.26,-1.29 0.31,-1.69 0.58,-0.42 1.39,-0.3 1.79,0.26 0.37,0.51 0.19,1.27 -0.39,1.7 -0.55,0.4 -1.33,0.28 -1.71,-0.27zm-14.84 -2.78c1.82,1.36 2.08,3.79 0.59,5.5 -1.8,2.07 -5.24,2.19 -7.04,0.25 -1.48,-1.61 -1.32,-4.03 0.37,-5.44 0.15,-0.12 0.31,-0.22 0.47,-0.33 1.68,-1.18 4.02,-1.17 5.61,0.02zm10.11 16.55c1.81,-1.26 4.11,-0.88 5.34,0.88 1.36,1.95 0.85,4.79 -1.12,6.17 -1.77,1.24 -4.12,0.83 -5.34,-0.92 -1.35,-1.95 -0.83,-4.77 1.12,-6.13z"/>
   <circle class="fil3" transform="matrix(1.01689 -0.0943349 0.0943349 1.01689 62.7211 89.3946)" r="14.76"/>
   <path class="fil3" d="M88.18 6.59c0.02,0 0.27,0.01 0.31,0.01 2.1,0.13 3.62,0.51 5.4,1.65 4.37,3.23 5.75,9.27 6.26,14.44 0.09,0.9 -0.35,0.78 -1.31,0.73 -6.93,-0.4 -13.75,-0.85 -20.7,-1.16 -3.77,-0.17 -2.98,-1.06 -1.58,-4.56 2.35,-5.9 4.68,-10.49 11.62,-11.11z"/>
   <g>
    <path class="fil4" d="M100.49 23.79c0.59,0.04 1.17,-0.09 1.75,-0.17 0.01,0 -0.02,0.01 -0.02,0.01 -0.02,0.01 -0.03,0.02 -0.04,0.04 -0.01,0.01 0.01,-0.04 0.01,-0.08 0.04,-0.31 0.13,-0.65 0.13,-0.96 0.01,-0.23 -0.02,-0.46 -0.04,-0.69 -0.01,-0.05 -0.04,-0.13 -0.03,-0.12 0.01,-0.01 -0.18,-0.07 -0.19,-0.06 -0.25,-0.05 -0.52,-0.07 -0.77,-0.08 -0.6,-0.05 -1.15,-0.12 -1.74,-0.22 -0.9,-0.13 -1.79,-0.07 -2.7,-0.13 -2.03,-0.15 -4.05,-0.3 -6.08,-0.48 -2.1,-0.17 -4.21,-0.29 -6.31,-0.48 -2.07,-0.2 -4.16,-0.27 -6.23,-0.49 -0.16,-0.02 -0.32,-0.04 -0.48,-0.06 -0.26,-0.04 -2.15,-0.23 -2.02,-0.76 0.09,-0.07 1.95,-0.1 2.11,-0.09 0.17,0.01 0.34,0.02 0.51,0.03 2.06,0.14 4.14,0.14 6.2,0.31 2.1,0.18 4.21,0.24 6.31,0.41 2.03,0.16 4.06,0.28 6.08,0.43 0.96,0.06 1.83,0 2.8,0.14 0.55,0.08 1.07,0.15 1.62,0.19 0.32,0.02 0.63,0.04 0.95,0.1 0.31,0.07 0.53,0.15 0.77,0.36 0.23,0.24 0.32,0.45 0.38,0.77 0.06,0.31 0.07,0.6 0.07,0.92 0.03,0.33 -0.11,0.76 -0.13,1.1 -0.03,0.27 -0.1,0.47 -0.27,0.69 -0.09,0.12 -0.18,0.2 -0.32,0.27 -0.14,0.08 -0.25,0.12 -0.41,0.14 -0.73,0.1 -1.28,0.23 -2.03,0.18 -0.01,0 -0.04,0 -0.05,0 -1.9,-0.2 -3.74,-0.28 -5.64,-0.34 -2.81,-0.09 -5.62,-0.23 -8.42,-0.35 -3.46,-0.17 -6.85,-0.48 -10.29,-0.82 -1.18,-0.11 -2.03,-0.15 -3.14,-0.63 -0.37,-0.17 -0.64,-0.33 -0.91,-0.64 -0.15,-0.17 -0.23,-0.32 -0.3,-0.53 -0.06,-0.24 -0.07,-0.42 -0.04,-0.66 0,-0.05 0.05,-0.28 0.06,-0.34 0.05,-0.25 0.11,-0.47 0.21,-0.71 0.15,-0.32 0.3,-0.55 0.56,-0.79 0.28,-0.23 0.52,-0.33 0.87,-0.39 0.38,-0.05 0.68,-0.02 1.05,0.07 0.26,0.06 0.97,0.19 1.27,0.22 0.41,0.04 -0.39,0.55 -1.39,0.52 -0.27,-0.02 -0.49,-0.02 -0.75,0.04 -0.18,0.05 -0.29,0.11 -0.42,0.24 -0.13,0.14 -0.21,0.28 -0.28,0.46 -0.09,0.27 -0.13,0.52 -0.17,0.81 -0.01,0.04 0,0.14 0.01,0.19 0,0.01 0.01,0.03 0.01,0.03 0.01,0.05 0.07,0.12 0.1,0.16 0.15,0.16 0.36,0.25 0.56,0.34 0.95,0.39 1.79,0.4 2.8,0.47 3.42,0.28 6.81,0.55 10.24,0.71 2.81,0.11 5.61,0.25 8.41,0.35 1.94,0.07 3.81,0.16 5.74,0.37 0.01,0 0.02,0 0.03,0z"/>
   </g>
   <path class="fil5" d="M75.66 19.05c-0.44,0.22 -0.91,0.28 -1.39,0.21 -1.38,-0.23 -1.98,0.42 -2.17,1.85 -0.08,0.64 0.36,0.99 0.96,1.25 0.95,0.43 1.97,0.46 2.96,0.55 3.42,0.31 6.84,0.62 10.26,0.77 2.81,0.13 5.61,0.27 8.42,0.37 1.89,0.07 3.8,0.15 5.69,0.37 0.63,0.07 1.29,-0.09 1.94,-0.17 0.31,-0.04 0.46,-0.28 0.49,-0.59 0.04,-0.34 0.14,-0.69 0.13,-1.03 0,-1.37 -0.17,-1.49 -1.62,-1.59 -0.56,-0.03 -1.12,-0.11 -1.68,-0.2 -0.9,-0.15 -1.83,-0.07 -2.75,-0.14 -2.03,-0.15 -4.05,-0.3 -6.08,-0.46 -2.1,-0.18 -4.21,-0.27 -6.31,-0.45 -2.23,-0.2 -4.48,-0.23 -6.71,-0.45 -0.7,-0.07 -1.41,0.03 -2.06,-0.3"/>
   <g>
    <path class="fil4" d="M87.72 5.74c-0.03,0 -0.27,0 -0.28,0 -1.8,0.01 -3.06,0.34 -4.58,1.29 -1.43,0.98 -2.3,2.01 -3.25,3.45 -1.61,2.62 -2.49,5.08 -3.46,7.97 -0.07,0.2 -0.55,1.5 -0.9,1.38 -0.31,-0.11 0,-1.45 0.06,-1.66 0.83,-3.05 1.69,-5.57 3.33,-8.31 1.03,-1.6 1.99,-2.73 3.56,-3.82 1.74,-1.11 3.2,-1.5 5.26,-1.53 0.01,0 0.27,0.01 0.31,0.01 2.16,0.1 3.74,0.49 5.58,1.64 1.68,1.16 2.65,2.36 3.62,4.14 1.37,2.75 1.87,5.2 2.16,8.23 0.06,0.85 0.28,2.19 -0.32,2.9 -0.39,0.39 -0.73,-3.1 -0.74,-3.2 -0.42,-2.69 -0.94,-4.9 -2.19,-7.35 -0.87,-1.58 -1.73,-2.64 -3.22,-3.67 -1.63,-1.03 -3.02,-1.37 -4.94,-1.47z"/>
   </g>
   <path class="fil5" d="M98.83 21.48c-0.31,-7.3 -2.33,-16.26 -11.38,-16.38 -7.77,-0.1 -10.46,8.63 -12.22,14.72"/>
   <g>
    <path class="fil2" d="M12.68 9.66c-1.29,-0.4 -4.83,3.22 -6.03,4.16 -0.9,0.71 -5.95,4.01 -6.12,4.65 -0.15,0.56 2.85,3.83 3.31,4.38 4.39,5.4 8.26,11.13 12.33,16.77 5.6,7.75 7.47,1.27 11.54,5.97 1.47,1.69 1.51,0.34 1.11,-1.02 -1.43,-4.9 0.97,-4.93 0.69,-8.53 -0.28,-3.59 -4.45,-8.91 -6.55,-12.08 -1.91,-2.87 -8.02,-12.37 -10.28,-14.3z"/>
    <g>
     <path class="fil4" d="M24.98 43.81c-0.06,-0.06 -0.13,-0.11 -0.21,-0.14 -0.08,-0.03 -0.15,-0.02 -0.23,0 -0.22,0.06 -0.41,0.17 -0.6,0.29 -0.37,0.23 -0.68,0.38 -1.11,0.49 -0.41,0.1 -0.74,0.12 -1.16,0.07 -0.89,-0.14 -1.49,-0.48 -2.18,-1.04 -1.06,-0.9 -1.8,-1.79 -2.67,-2.86 -1.91,-2.43 -3.56,-4.94 -5.35,-7.45 -2.59,-3.6 -5.14,-7.04 -8.01,-10.44 -0.49,-0.6 -0.86,-1.16 -1.25,-1.83l0.02 0.01c-0.01,-0.01 -0.09,-0.01 -0.11,-0.01 -0.46,0 -0.82,-0.07 -1.23,-0.29 -0.38,-0.23 -0.6,-0.47 -0.76,-0.88 -0.15,-0.4 -0.16,-0.73 -0.08,-1.15 0.1,-0.45 0.26,-0.77 0.52,-1.15 0.81,-1.11 1.61,-1.86 2.64,-2.75 1.35,-1.15 2.5,-2.19 4.02,-3.13 1.17,-0.7 2.12,-1.28 3.42,-1.72 0.14,-0.04 0.28,-0.08 0.42,-0.11 0.31,-0.08 0.57,-0.12 0.89,-0.11 0.35,0.03 0.6,0.1 0.9,0.28 0.25,0.17 0.42,0.34 0.57,0.61 0.15,0.31 0.19,0.56 0.14,0.9 -0.06,0.25 -0.14,0.41 -0.26,0.63 -0.04,0.06 -0.23,0.51 -0.28,0.52 -0.18,-0.04 -0.13,-0.53 -0.12,-0.65 0.04,-0.19 0.08,-0.37 0.08,-0.56 0,-0.2 -0.04,-0.33 -0.15,-0.48 -0.11,-0.14 -0.22,-0.22 -0.37,-0.3 -0.18,-0.09 -0.33,-0.11 -0.53,-0.12 -0.23,0.01 -0.43,0.05 -0.65,0.12 -0.11,0.02 -0.31,0.1 -0.43,0.14 -1.18,0.44 -2.07,1.01 -3.13,1.67 -1.45,0.92 -2.56,1.97 -3.84,3.09 -0.95,0.84 -1.7,1.55 -2.44,2.59 -0.17,0.24 -0.28,0.46 -0.34,0.75 -0.03,0.19 -0.04,0.35 0.03,0.54 0.07,0.15 0.15,0.23 0.29,0.32 0.22,0.11 0.43,0.13 0.68,0.13 0.18,0 0.3,0.01 0.48,0.07 0.27,0.1 0.44,0.24 0.59,0.49 0.35,0.6 0.69,1.11 1.14,1.65 2.91,3.41 5.49,6.85 8.11,10.48 1.78,2.49 3.43,4.99 5.33,7.39 0.81,1 1.52,1.85 2.5,2.68 0.49,0.39 0.93,0.67 1.56,0.76 0.26,0.03 0.46,0.02 0.72,-0.04 0.28,-0.08 0.49,-0.18 0.74,-0.34 0.32,-0.2 0.6,-0.35 0.97,-0.45 0.34,-0.08 0.6,-0.08 0.93,0.03 0.27,0.1 0.45,0.23 0.66,0.43 0.01,0.01 0.04,0.04 0.05,0.05 0.2,0.21 0.35,0.41 0.51,0.65 0.36,0.58 0.52,1.23 0.87,1.72 0.08,0.1 0.16,0.16 0.26,0.22 0.11,0.06 0.21,0.1 0.33,0.12 0.12,0.01 0.21,0.01 0.33,-0.01 0.1,-0.03 0.17,-0.06 0.25,-0.12 0.08,-0.07 0.13,-0.13 0.19,-0.23 0.03,-0.07 0.05,-0.13 0.06,-0.21 0,-0.1 -0.01,-0.17 -0.05,-0.27 -0.04,-0.13 -0.1,-0.22 -0.19,-0.34 -0.14,-0.26 -0.82,-0.71 -1.04,-0.97 -0.3,-0.29 -0.56,-0.56 -0.8,-0.91 -0.23,-0.34 -0.35,-0.62 -0.37,-1.03 0,-0.22 0.03,-0.37 0.11,-0.57 0.07,-0.2 0.16,-0.34 0.29,-0.5 0.29,-0.37 0.6,-0.62 0.98,-0.89 0.3,-0.22 0.52,-0.42 0.73,-0.72 0.21,-0.3 0.3,-0.55 0.36,-0.91 0.05,-0.46 0.03,-0.81 -0.08,-1.26 -0.13,-0.45 -0.29,-0.79 -0.52,-1.2 -1.92,-3.23 -3.95,-6.32 -6.03,-9.45 -2.4,-3.56 -4.97,-6.99 -7.41,-10.52 -0.39,-0.58 -0.77,-1.13 -1.21,-1.67 -0.16,-0.21 -0.36,-0.43 -0.54,-0.63 -0.03,-0.04 -0.07,-0.07 -0.11,-0.1 -0.01,0 0.03,0.01 0.04,0.01l0.06 -0.01c-0.03,0.02 -0.08,0.05 -0.11,0.07 -0.21,0.16 -0.43,0.37 -0.62,0.55 -0.95,0.9 -1.91,1.72 -2.94,2.54 -1.42,1.12 -2.84,2.14 -4.39,3.07 -0.75,0.39 -1.58,0.52 -2.12,0.83 -0.88,0.52 1.38,-1.23 1.7,-1.44 1.73,-1.29 3.35,-2.53 5,-3.94 0.69,-0.6 1.35,-1.2 2.01,-1.84 0.23,-0.22 0.46,-0.45 0.71,-0.64 0.12,-0.09 0.22,-0.15 0.35,-0.21 0.16,-0.06 0.29,-0.09 0.45,-0.07 0.17,0.01 0.29,0.06 0.43,0.14 0.08,0.03 0.24,0.2 0.31,0.25 0.23,0.22 0.43,0.47 0.63,0.71 0.47,0.56 0.87,1.13 1.29,1.73 2.48,3.51 5.07,6.92 7.5,10.49 2.11,3.14 4.15,6.24 6.08,9.5 0.3,0.51 0.5,0.94 0.65,1.52 0.16,0.62 0.19,1.1 0.11,1.74 -0.09,0.57 -0.24,0.98 -0.56,1.46 -0.32,0.43 -0.61,0.71 -1.04,1.02 -0.26,0.18 -0.52,0.38 -0.72,0.63 -0.05,0.05 -0.08,0.13 -0.12,0.19 -0.01,0.03 -0.01,0.07 -0.02,0.1 0.01,0.13 0.09,0.25 0.16,0.35 0.18,0.27 0.4,0.5 0.63,0.72 0.42,0.4 0.78,0.63 1.16,1.11 0.17,0.23 0.28,0.42 0.38,0.69 0.09,0.26 0.12,0.47 0.11,0.75 -0.03,0.28 -0.08,0.48 -0.21,0.73 -0.14,0.24 -0.29,0.41 -0.51,0.59 -0.24,0.19 -0.45,0.29 -0.74,0.36 -0.29,0.06 -0.51,0.07 -0.8,0.03 -0.28,-0.05 -0.5,-0.13 -0.75,-0.27 -0.26,-0.15 -0.44,-0.3 -0.63,-0.54 -0.46,-0.65 -0.54,-1.18 -0.91,-1.79 -0.12,-0.17 -0.23,-0.33 -0.37,-0.48 -0.01,-0.01 -0.02,-0.02 -0.03,-0.03z"/>
    </g>
    <path class="fil5" d="M2.66 20.37c0.5,-0.67 1.33,-0.82 1.97,-1.26 2.54,-1.72 4.96,-3.58 7.17,-5.7 1.12,-1.08 1.13,-1.03 2.1,0.14 0.46,0.55 0.85,1.12 1.25,1.7 2.45,3.53 5.07,6.94 7.45,10.51 2.09,3.12 4.16,6.25 6.05,9.48 0.51,0.87 0.83,1.81 0.68,2.87 -0.13,0.91 -0.65,1.55 -1.35,2.05 -1.56,1.11 -1.37,1.74 -0.14,2.95 0.36,0.36 0.79,0.63 1.1,1.04 0.52,0.68 0.47,1.41 -0.12,1.89 -0.59,0.47 -1.54,0.31 -2.02,-0.31 -0.41,-0.53 -0.52,-1.2 -0.9,-1.76 -0.59,-0.89 -1.09,-1.33 -2.3,-0.54 -1.22,0.79 -2.48,0.58 -3.71,-0.43 -0.97,-0.81 -1.78,-1.79 -2.57,-2.78 -1.91,-2.38 -3.56,-4.94 -5.33,-7.42 -2.57,-3.57 -5.19,-7.12 -8.06,-10.47 -0.45,-0.53 -0.84,-1.13 -1.19,-1.73 -0.17,-0.3 -0.47,-0.31 -0.63,-0.31 -1.51,0.03 -1.94,-1.25 -1.06,-2.52 0.71,-1.02 1.62,-1.86 2.54,-2.66 1.26,-1.09 2.48,-2.24 3.92,-3.11 1.17,-0.71 2.33,-1.45 3.68,-1.81 0.53,-0.15 1.02,-0.17 1.45,0.08 0.37,0.21 0.65,0.58 0.6,1.09 -0.05,0.41 -0.32,0.77 -0.23,1.2"/>
   </g>
   <g>
    <path class="fil3" d="M11.2 50.62l34.28 6.24c1.29,0.23 2.12,1.51 1.87,2.79l-2.41 11.99c-0.25,1.28 -1.5,2.07 -2.79,1.86l-33.67 -5.51c-1.29,-0.21 -2.9,-2.91 -2.6,-4.18l2.66 -11.41c0.3,-1.28 1.37,-2.01 2.66,-1.78z"/>
    <circle class="fil2" transform="matrix(0.995725 -0.0923719 0.0923719 0.995725 14.1559 62.137)" r="1.85"/>
    <circle class="fil6" transform="matrix(0.995725 -0.0923719 0.0923719 0.995725 20.8915 63.9984)" r="1.85"/>
    <ellipse class="fil6" transform="matrix(0.995725 -0.0923719 0.0923719 0.995725 15.1417 55.1104)" rx="1.5" ry="1.48"/>
    <ellipse class="fil2" transform="matrix(0.995725 -0.0923719 0.0923719 0.995725 22.1255 56.033)" rx="1.64" ry="1.74"/>
    <circle class="fil6" transform="matrix(0.995725 -0.0923719 0.0923719 0.995725 28.9605 57.8)" r="1.83"/>
    <circle class="fil2" transform="matrix(0.995725 -0.0923719 0.0923719 0.995725 28.0808 64.8061)" r="1.81"/>
    <circle class="fil2" transform="matrix(0.995725 -0.0923719 0.0923719 0.995725 35.8108 58.8878)" r="1.66"/>
    <circle class="fil6" transform="matrix(0.995725 -0.0923719 0.0923719 0.995725 35.0209 66.5801)" r="1.8"/>
    <circle class="fil2" transform="matrix(0.995725 -0.0923719 0.0923719 0.995725 41.4503 67.0716)" r="1.76"/>
    <circle class="fil6" transform="matrix(0.995725 -0.0923719 0.0923719 0.995725 42.498 59.4614)" r="1.5"/>
    <g>
     <g>
      <path class="fil7" d="M20.16 64.5c0.01,0 0.06,-0.01 0.06,-0.01 0.24,-0.05 0.39,-0.15 0.56,-0.33 0.14,-0.17 0.23,-0.31 0.29,-0.53 0.04,-0.24 0.01,-0.41 -0.07,-0.64 -0.1,-0.26 -0.2,-0.46 -0.42,-0.65 -0.04,-0.07 -0.31,-0.2 -0.39,-0.23 -0.19,-0.06 -0.37,-0.29 -0.38,-0.49 0,-0.27 0.31,-0.4 0.54,-0.38 0.31,0.04 0.53,0.1 0.79,0.25 0.46,0.28 0.69,0.61 0.91,1.08 0.18,0.45 0.24,0.81 0.17,1.28 -0.09,0.45 -0.26,0.76 -0.55,1.11 -0.36,0.4 -0.7,0.6 -1.22,0.73 0,0 -0.12,0.02 -0.14,0.03 -0.45,0.06 -0.8,0.01 -1.23,-0.11 -0.52,-0.18 -0.86,-0.43 -1.18,-0.86 -0.31,-0.44 -0.44,-0.83 -0.43,-1.37 0.02,-0.3 0.06,-0.53 0.16,-0.82 0.1,-0.27 0.22,-0.46 0.42,-0.68 0.08,-0.13 0.44,-0.34 0.58,-0.41 0.48,-0.2 0.72,-0.24 1.02,0.17 0.18,0.27 -0.37,0.59 -0.57,0.75 -0.08,0.07 -0.13,0.13 -0.19,0.22 -0.08,0.11 -0.11,0.2 -0.15,0.32 -0.04,0.1 -0.03,0.38 -0.05,0.49 0.02,0.24 0.09,0.41 0.22,0.6 0.16,0.2 0.32,0.32 0.55,0.4 0.24,0.07 0.44,0.11 0.7,0.08z"/>
     </g>
     <path class="fil5" d="M19.66 61.61c-1.1,0.32 -1.53,0.81 -1.56,1.79 -0.03,0.69 0.47,1.39 1.17,1.62 0.74,0.24 1.46,0.15 1.98,-0.43 0.45,-0.5 0.6,-1.13 0.32,-1.82 -0.32,-0.82 -0.9,-1.2 -1.76,-1.17"/>
     <g>
      <path class="fil7" d="M40.9 67.74c0.1,-0.02 0.19,-0.06 0.28,-0.1 0.15,-0.08 0.27,-0.15 0.39,-0.27 0.08,-0.09 0.14,-0.17 0.18,-0.28 0.07,-0.26 0.06,-0.5 -0.02,-0.75 -0.04,-0.13 -0.09,-0.23 -0.17,-0.33 -0.1,-0.13 -0.2,-0.2 -0.34,-0.27 -0.02,-0.02 -0.21,-0.1 -0.25,-0.11 -0.22,-0.08 -0.35,-0.31 -0.3,-0.54 0.05,-0.21 0.26,-0.34 0.48,-0.33 0.14,0.02 0.25,0.04 0.39,0.07 0.31,0.09 0.53,0.21 0.78,0.43 0.22,0.21 0.34,0.4 0.46,0.68 0.2,0.5 0.23,0.95 0.1,1.47 -0.09,0.33 -0.23,0.55 -0.46,0.79 -0.22,0.23 -0.43,0.38 -0.71,0.53 -0.08,0.06 -0.4,0.17 -0.51,0.2 -0.11,0.03 -0.22,0.06 -0.34,0.07 -0.33,0.04 -0.59,0.02 -0.91,-0.1 -0.55,-0.25 -0.9,-0.59 -1.19,-1.11 -0.15,-0.3 -0.23,-0.54 -0.25,-0.87 -0.01,-0.37 0.05,-0.64 0.21,-0.97 0.21,-0.38 0.41,-0.63 0.77,-0.88 0.01,-0.02 0.16,-0.11 0.19,-0.12 0.46,-0.22 0.64,-0.23 0.91,0.15 0.2,0.27 -0.24,0.58 -0.4,0.74 -0.01,0.01 -0.04,0.04 -0.05,0.04 -0.17,0.19 -0.26,0.34 -0.36,0.57 -0.04,0.14 -0.06,0.25 -0.04,0.39 0.02,0.14 0.05,0.24 0.12,0.37 0.15,0.24 0.33,0.42 0.59,0.54 0.09,0.03 0.19,0.03 0.28,0.02 0.02,0.01 0.14,-0.02 0.17,-0.03z"/>
     </g>
     <path class="fil5" d="M40.6 65.08c-0.59,0.21 -1.04,0.51 -1.33,1.13 -0.43,0.9 0.25,1.82 0.93,2.12 0.71,0.3 1.92,-0.27 2.15,-1.07 0.2,-0.68 0,-1.69 -0.95,-2.03 -0.24,-0.08 -0.48,-0.1 -0.72,-0.16"/>
     <g>
      <path class="fil7" d="M35.26 57.3c-0.02,0 -0.14,0.04 -0.15,0.04 -0.25,0.1 -0.44,0.21 -0.61,0.43 -0.13,0.21 -0.17,0.39 -0.17,0.63 0.01,0.26 0.07,0.43 0.22,0.64 0.19,0.25 0.39,0.38 0.67,0.5 0,0 0.01,0 0.01,0 0.16,0.13 0.3,0.29 0.28,0.5 -0.05,0.27 -0.23,0.38 -0.5,0.36 0,0 -0.02,-0.01 -0.02,-0.01 -0.51,-0.09 -0.88,-0.27 -1.25,-0.64 -0.36,-0.39 -0.51,-0.77 -0.56,-1.3 -0.02,-0.53 0.06,-0.91 0.35,-1.36 0.31,-0.44 0.65,-0.68 1.15,-0.89 0.02,-0.02 0.27,-0.09 0.31,-0.1 0.39,-0.09 0.7,-0.09 1.08,0.01 0.51,0.15 0.84,0.38 1.17,0.79 0.26,0.35 0.4,0.65 0.47,1.08 0.05,0.42 0,0.73 -0.16,1.11 -0.18,0.38 -0.39,0.62 -0.71,0.87 -0.03,0.04 -0.26,0.17 -0.31,0.2 -0.45,0.22 -0.65,0.25 -0.94,-0.13 -0.2,-0.26 0.27,-0.61 0.43,-0.76 0.03,-0.02 0.09,-0.1 0.12,-0.11 0.15,-0.17 0.24,-0.31 0.32,-0.52 0.05,-0.17 0.06,-0.3 0.03,-0.48 -0.04,-0.2 -0.12,-0.34 -0.25,-0.5 -0.15,-0.18 -0.29,-0.28 -0.52,-0.35 -0.16,-0.05 -0.29,-0.05 -0.46,-0.01z"/>
     </g>
     <path class="fil5" d="M35.58 60.06c1.43,-0.53 1.94,-1.75 1.16,-2.78 -0.45,-0.58 -1.18,-0.79 -1.85,-0.53 -0.81,0.31 -1.21,0.89 -1.18,1.68 0.03,0.77 0.56,1.37 1.4,1.59 0.13,0.03 0.26,0.03 0.4,0.04"/>
     <g>
      <path class="fil7" d="M20.07 56.06c0.04,0.19 0.11,0.33 0.21,0.5 0.11,0.14 0.2,0.24 0.36,0.31 0.18,0.06 0.33,0.06 0.52,0.04 0.2,-0.02 0.37,-0.06 0.55,-0.17 0.08,-0.05 0.12,-0.09 0.18,-0.16 0.07,-0.09 0.11,-0.17 0.15,-0.28 0.03,-0.08 0.05,-0.15 0.09,-0.23 0.1,-0.23 0.35,-0.31 0.58,-0.24 0.2,0.07 0.29,0.31 0.26,0.51 -0.01,0.05 -0.01,0.1 -0.02,0.15 -0.03,0.23 -0.08,0.41 -0.19,0.62 -0.1,0.2 -0.21,0.33 -0.38,0.48 -0.34,0.27 -0.65,0.39 -1.07,0.46 -0.4,0.06 -0.7,0.05 -1.08,-0.08 -0.43,-0.16 -0.69,-0.38 -0.95,-0.75 -0.21,-0.31 -0.34,-0.58 -0.42,-0.95 -0.01,-0.07 -0.02,-0.14 -0.03,-0.21 -0.04,-0.46 0.03,-0.79 0.21,-1.21 0.13,-0.27 0.25,-0.45 0.47,-0.65 0.21,-0.17 0.38,-0.27 0.63,-0.35 0.42,-0.14 0.76,-0.15 1.2,-0.13 0.26,0.01 0.46,0.05 0.69,0.17 0.23,0.12 0.38,0.24 0.54,0.44 0.08,0.07 0.24,0.39 0.28,0.5 0.17,0.48 0.17,0.68 -0.23,0.93 -0.27,0.18 -0.58,-0.35 -0.71,-0.52 -0.05,-0.07 -0.1,-0.12 -0.16,-0.18 -0.07,-0.06 -0.12,-0.09 -0.21,-0.12 -0.04,-0.02 -0.16,-0.01 -0.21,-0.02 -0.27,0.01 -0.53,0.02 -0.79,0.11 -0.08,0.03 -0.14,0.06 -0.2,0.12 -0.08,0.07 -0.12,0.14 -0.16,0.23 -0.09,0.2 -0.13,0.36 -0.12,0.59 0,0.01 0.01,0.08 0.01,0.09z"/>
     </g>
     <path class="fil5" d="M22.64 55.77c-0.24,-0.93 -0.65,-1.43 -1.31,-1.44 -0.67,0 -1.38,0.05 -1.72,0.78 -0.28,0.61 -0.25,1.2 0.15,1.8 0.37,0.56 0.9,0.7 1.48,0.62 0.64,-0.08 1.16,-0.4 1.31,-1.12 0.04,-0.2 0.12,-0.38 0.18,-0.57"/>
     <g>
      <path class="fil7" d="M28.62 58.34c0.21,-0.07 0.36,-0.18 0.53,-0.32 0.16,-0.14 0.24,-0.27 0.29,-0.48 0.04,-0.22 0.02,-0.41 -0.03,-0.63 -0.07,-0.25 -0.16,-0.42 -0.34,-0.6 -0.21,-0.18 -0.41,-0.27 -0.67,-0.34 -0.01,-0.01 -0.03,-0.01 -0.03,-0.01 -0.07,-0.12 -0.3,-0.14 -0.34,-0.44 0,-0.27 0.16,-0.41 0.43,-0.43 0,0 0.05,0 0.05,0 0.47,0.02 0.82,0.13 1.21,0.39 0.41,0.31 0.63,0.63 0.79,1.11 0.12,0.42 0.16,0.76 0.09,1.19 -0.11,0.49 -0.3,0.81 -0.66,1.15 -0.31,0.27 -0.58,0.45 -0.97,0.58 -0.04,0.01 -0.18,0.05 -0.2,0.06 -0.51,0.1 -0.9,0.04 -1.38,-0.15 -0.5,-0.2 -0.82,-0.44 -1.12,-0.89 -0.25,-0.43 -0.33,-0.8 -0.35,-1.29 0,-0.28 0.04,-0.49 0.14,-0.75 0.11,-0.25 0.22,-0.42 0.4,-0.63 0.08,-0.1 0.37,-0.32 0.49,-0.39 0.45,-0.25 0.68,-0.31 0.99,0.07 0.22,0.25 -0.29,0.64 -0.44,0.8 -0.07,0.07 -0.13,0.14 -0.19,0.23 -0.07,0.11 -0.12,0.2 -0.15,0.32 -0.03,0.11 -0.04,0.19 -0.03,0.3 0.03,0.25 0.07,0.46 0.21,0.68 0.14,0.2 0.3,0.3 0.53,0.4 0.23,0.09 0.42,0.13 0.67,0.09 0,0 0.07,-0.02 0.08,-0.02z"/>
     </g>
     <path class="fil5" d="M27.95 55.51c-0.89,0.36 -1.44,0.99 -1.41,1.7 0.04,0.75 0.33,1.32 1.09,1.64 0.75,0.31 1.35,0.16 1.93,-0.35 0.56,-0.49 0.62,-1.14 0.44,-1.76 -0.21,-0.76 -0.79,-1.18 -1.58,-1.27 -0.13,-0.01 -0.26,0.02 -0.39,0.03"/>
     <g>
      <path class="fil7" d="M14.78 55.6c0.07,-0.02 0.11,-0.05 0.17,-0.1 0.21,-0.2 0.34,-0.4 0.43,-0.68 0.04,-0.12 0.05,-0.22 0.06,-0.34 -0.01,-0.1 -0.02,-0.18 -0.05,-0.27 -0.09,-0.21 -0.19,-0.36 -0.37,-0.5 -0.21,-0.16 -0.41,-0.23 -0.66,-0.28 -0.01,0 -0.02,0 -0.03,-0.01 -0.2,-0.04 -0.4,-0.21 -0.41,-0.43 -0.02,-0.24 0.17,-0.43 0.41,-0.45 0.02,0 0.06,0 0.07,0 0.45,-0.02 0.79,0.05 1.19,0.27 0.41,0.24 0.64,0.52 0.85,0.94 0.11,0.24 0.15,0.44 0.16,0.71 0.01,0.25 -0.02,0.46 -0.09,0.71 -0.15,0.5 -0.37,0.86 -0.75,1.24 -0.17,0.15 -0.33,0.25 -0.54,0.34 -0.01,0 -0.01,0 -0.01,0 -0.22,0.09 -0.4,0.12 -0.63,0.14 -0.47,0.02 -0.83,-0.06 -1.27,-0.25 -0.24,-0.11 -0.42,-0.22 -0.61,-0.41 -0.18,-0.18 -0.28,-0.33 -0.39,-0.56 -0.17,-0.41 -0.2,-0.74 -0.19,-1.18 0.02,-0.51 0.15,-0.88 0.49,-1.27 0.01,-0.04 0.23,-0.22 0.27,-0.25 0.43,-0.28 0.64,-0.33 0.95,0.03 0.22,0.24 -0.19,0.6 -0.32,0.78 -0.01,0.02 -0.06,0.09 -0.07,0.1 -0.12,0.21 -0.14,0.38 -0.13,0.61 0.01,0.24 0.03,0.46 0.13,0.67 0.04,0.07 0.08,0.12 0.14,0.18 0.08,0.07 0.15,0.11 0.25,0.16 0.24,0.1 0.44,0.16 0.7,0.15 0.06,0.01 0.19,-0.04 0.25,-0.05 0,0 0,0 0,0z"/>
     </g>
     <path class="fil5" d="M13.84 52.98c-0.66,0.3 -1.11,0.75 -1.11,1.51 0,0.67 0.14,1.26 0.84,1.58 0.67,0.3 1.37,0.29 1.8,-0.1 0.58,-0.52 0.86,-1.38 0.59,-2.01 -0.29,-0.66 -0.85,-0.99 -1.58,-1.03 -0.15,-0.01 -0.31,0.03 -0.46,0.04"/>
     <g>
      <path class="fil7" d="M34.57 67.02c0.09,-0.04 0.16,-0.07 0.24,-0.12 0.11,-0.08 0.19,-0.15 0.27,-0.27 0.08,-0.12 0.12,-0.23 0.15,-0.38 0.04,-0.2 0.04,-0.36 0.01,-0.57 -0.01,-0.13 -0.04,-0.24 -0.1,-0.36 -0.06,-0.11 -0.12,-0.18 -0.22,-0.26 -0.11,-0.1 -0.21,-0.15 -0.34,-0.2 -0.05,-0.04 -0.3,-0.09 -0.37,-0.1 -0.05,-0.01 -0.11,-0.03 -0.16,-0.05 -0.14,-0.08 -0.25,-0.22 -0.27,-0.39 0,-0.16 0.07,-0.28 0.21,-0.37 0.03,-0.03 0.19,-0.07 0.23,-0.07 0.21,-0.02 0.38,-0.01 0.59,0.02 0.28,0.05 0.49,0.13 0.74,0.29 0.24,0.16 0.39,0.32 0.55,0.56 0.16,0.26 0.24,0.48 0.29,0.77 0.05,0.34 0.06,0.61 0.01,0.95 -0.06,0.32 -0.15,0.55 -0.32,0.83 -0.18,0.27 -0.35,0.44 -0.62,0.62 -0.06,0.06 -0.36,0.21 -0.45,0.24 -0.13,0.06 -0.25,0.09 -0.39,0.13 -0.32,0.07 -0.57,0.06 -0.9,-0.02 -0.31,-0.08 -0.54,-0.18 -0.81,-0.36 -0.27,-0.18 -0.45,-0.36 -0.65,-0.62 -0.2,-0.28 -0.32,-0.52 -0.39,-0.85 -0.06,-0.29 -0.07,-0.52 -0.02,-0.82 0.05,-0.29 0.13,-0.49 0.3,-0.74 0.06,-0.15 0.41,-0.44 0.55,-0.54 0.43,-0.28 0.65,-0.35 1,-0.01 0.24,0.23 -0.27,0.68 -0.4,0.84 -0.09,0.1 -0.14,0.18 -0.2,0.3 -0.05,0.11 -0.07,0.2 -0.08,0.32 -0.01,0.14 0.01,0.25 0.04,0.39 0.05,0.14 0.11,0.25 0.2,0.36 0.11,0.14 0.22,0.24 0.36,0.33 0.14,0.09 0.26,0.15 0.42,0.2 0.11,0.02 0.2,0.03 0.31,0.01 0.03,0 0.19,-0.05 0.22,-0.06z"/>
     </g>
     <path class="fil5" d="M33.71 64.31c-1.03,0.52 -1.42,1.15 -1.23,1.99 0.19,0.87 1.24,1.57 2.01,1.4 1,-0.23 1.53,-0.98 1.37,-2.1 -0.12,-0.88 -0.85,-1.4 -1.84,-1.32 -0.08,0.01 -0.16,0.01 -0.24,0.02"/>
     <g>
      <path class="fil7" d="M27.59 65.78c0.02,-0.01 0.12,-0.04 0.12,-0.04 0.28,-0.11 0.46,-0.24 0.63,-0.48 0.16,-0.24 0.21,-0.45 0.21,-0.74 -0.02,-0.29 -0.11,-0.51 -0.28,-0.74 -0.2,-0.25 -0.4,-0.41 -0.69,-0.52 -0.02,-0.01 -0.09,-0.03 -0.1,-0.04 -0.22,-0.05 -0.44,-0.23 -0.43,-0.47 0.01,-0.25 0.26,-0.4 0.49,-0.41 0.08,0 0.15,0.01 0.22,0.02 0.56,0.08 0.94,0.31 1.33,0.71 0.38,0.42 0.57,0.83 0.62,1.4 0.02,0.56 -0.08,0.98 -0.38,1.46 -0.32,0.47 -0.67,0.73 -1.19,0.95 -0.02,0.02 -0.22,0.08 -0.26,0.09 -0.48,0.12 -0.86,0.11 -1.33,-0.01 -0.28,-0.09 -0.49,-0.18 -0.73,-0.35 -0.25,-0.18 -0.42,-0.34 -0.59,-0.6 -0.21,-0.33 -0.32,-0.62 -0.38,-1.01 -0.06,-0.41 -0.04,-0.73 0.09,-1.12 0.15,-0.42 0.34,-0.7 0.67,-1 0.03,-0.04 0.27,-0.19 0.33,-0.23 0.46,-0.23 0.72,-0.3 1.03,0.11 0.17,0.27 -0.33,0.6 -0.51,0.78 -0.02,0.02 -0.1,0.11 -0.11,0.12 -0.15,0.18 -0.23,0.33 -0.29,0.56 -0.04,0.21 -0.04,0.37 0,0.58 0.05,0.2 0.11,0.36 0.22,0.53 0.08,0.11 0.15,0.18 0.26,0.26 0.12,0.08 0.23,0.13 0.37,0.17 0.15,0.07 0.51,0.06 0.68,0.02z"/>
     </g>
     <path class="fil5" d="M26.97 62.74c-1.68,0.51 -1.8,2.02 -1.21,2.93 0.44,0.68 1.41,0.95 2.17,0.66 0.8,-0.29 1.28,-1 1.25,-1.84 -0.04,-0.8 -0.69,-1.57 -1.5,-1.73 -0.2,-0.05 -0.42,-0.02 -0.63,-0.03"/>
     <g>
      <path class="fil7" d="M42.49 60.15c0.05,-0.02 0.09,-0.03 0.14,-0.05 0.15,-0.08 0.25,-0.15 0.37,-0.28 0.12,-0.14 0.19,-0.26 0.26,-0.43 0.03,-0.09 0.03,-0.17 0.02,-0.27 -0.02,-0.14 -0.07,-0.25 -0.13,-0.37 -0.17,-0.3 -0.38,-0.49 -0.68,-0.66 -0.02,-0.02 -0.21,-0.08 -0.25,-0.09 -0.19,-0.05 -0.35,-0.27 -0.36,-0.47 -0.02,-0.24 0.2,-0.41 0.43,-0.41 0.18,-0.01 0.32,0.01 0.5,0.06 0.59,0.18 0.98,0.48 1.32,0.98 0.16,0.26 0.25,0.47 0.31,0.77 0.06,0.31 0.05,0.55 -0.05,0.86 -0.12,0.33 -0.25,0.57 -0.48,0.84 -0.23,0.26 -0.44,0.42 -0.75,0.57 -0.03,0.03 -0.23,0.1 -0.28,0.12 -0.22,0.07 -0.4,0.1 -0.63,0.12 -0.36,0 -0.63,-0.05 -0.97,-0.19 -0.45,-0.21 -0.74,-0.44 -1.02,-0.85 -0.25,-0.43 -0.34,-0.78 -0.33,-1.27 0.02,-0.55 0.15,-0.95 0.51,-1.37 0.03,-0.07 0.32,-0.29 0.39,-0.33 0.45,-0.25 0.68,-0.29 0.96,0.11 0.18,0.25 -0.24,0.57 -0.39,0.74 -0.04,0.05 -0.08,0.1 -0.11,0.16 -0.14,0.23 -0.16,0.43 -0.16,0.69 0.02,0.23 0.06,0.4 0.18,0.6 0.14,0.18 0.28,0.28 0.49,0.38 0.15,0.06 0.27,0.09 0.43,0.08 0.05,0.01 0.23,-0.03 0.28,-0.04z"/>
     </g>
     <path class="fil5" d="M41.78 57.52c-0.79,0.25 -1.25,0.78 -1.25,1.61 -0.01,0.7 0.33,1.25 0.99,1.55 0.91,0.41 1.98,-0.08 2.33,-1.08 0.27,-0.74 -0.34,-1.71 -1.2,-2.01 -0.27,-0.1 -0.53,-0.09 -0.79,-0.08"/>
     <g>
      <path class="fil7" d="M13.31 62.97c0.02,-0.01 0.06,-0.03 0.08,-0.03 0.25,-0.12 0.46,-0.25 0.63,-0.48 0.14,-0.22 0.17,-0.41 0.16,-0.67 -0.02,-0.29 -0.09,-0.5 -0.25,-0.73 -0.18,-0.24 -0.37,-0.37 -0.64,-0.48 -0.02,-0.01 -0.09,-0.03 -0.11,-0.03 -0.21,-0.05 -0.42,-0.24 -0.41,-0.47 0.01,-0.25 0.24,-0.41 0.47,-0.41 0.09,-0.01 0.16,0 0.25,0.01 0.53,0.09 0.9,0.29 1.27,0.68 0.36,0.42 0.52,0.81 0.58,1.36 0.03,0.54 -0.05,0.94 -0.33,1.41 -0.31,0.45 -0.64,0.69 -1.12,0.92 -0.03,0.02 -0.23,0.09 -0.27,0.1 -0.17,0.05 -0.32,0.07 -0.49,0.08 -0.28,0.01 -0.5,-0.02 -0.77,-0.09 -0.56,-0.15 -0.96,-0.39 -1.33,-0.85 -0.25,-0.35 -0.38,-0.66 -0.44,-1.09 -0.04,-0.41 0,-0.72 0.16,-1.11 0.18,-0.38 0.38,-0.62 0.7,-0.89 0.02,-0.03 0.21,-0.16 0.26,-0.18 0.44,-0.25 0.66,-0.31 0.98,0.07 0.21,0.25 -0.28,0.64 -0.44,0.8 -0.02,0.01 -0.07,0.08 -0.08,0.09 -0.15,0.17 -0.25,0.33 -0.33,0.55 -0.05,0.18 -0.07,0.32 -0.03,0.51 0.04,0.2 0.11,0.34 0.23,0.51 0.18,0.21 0.4,0.31 0.66,0.39 0.14,0.04 0.26,0.05 0.4,0.05 0.04,0.01 0.16,-0.01 0.21,-0.02z"/>
     </g>
     <path class="fil5" d="M12.69 60.06c-1.39,0.56 -1.9,1.84 -1.15,2.86 0.45,0.6 1.48,0.88 2.1,0.6 0.8,-0.36 1.22,-0.93 1.17,-1.77 -0.05,-0.82 -0.61,-1.49 -1.41,-1.67 -0.2,-0.04 -0.42,-0.02 -0.63,-0.02"/>
     <g>
      <path class="fil7" d="M7.46 65.05c0.19,0.08 0.37,0.12 0.57,0.17 1.25,0.26 2.51,0.48 3.76,0.76 5.03,1.1 10.09,2.02 15.1,3.13 4.39,0.92 8.64,1.53 13.07,2.09 0.89,0.11 1.72,0.14 2.61,0.15 0.26,0 0.5,-0.01 0.75,-0.09 0.18,-0.05 0.3,-0.11 0.45,-0.23 0.32,-0.3 0.45,-0.68 0.57,-1.09 0.51,-1.95 0.76,-3.73 1,-5.72 0.1,-0.89 0.22,-1.78 0.34,-2.67 0.03,-0.24 0.54,-4.14 0.86,-4.08 0.39,0.34 0.06,3.75 0.01,4.25 -0.09,0.86 -0.22,1.75 -0.28,2.6 -0.2,2.06 -0.42,3.88 -0.93,5.89 -0.18,0.65 -0.38,1.14 -0.88,1.61 -0.26,0.23 -0.49,0.35 -0.82,0.46 -0.37,0.11 -0.69,0.15 -1.07,0.15 -0.94,0 -1.81,-0.03 -2.74,-0.13 -4.48,-0.54 -8.75,-1.13 -13.18,-2.04 -5.04,-1.06 -10.1,-1.99 -15.13,-3.1 -1.24,-0.27 -2.5,-0.47 -3.75,-0.75 -0.27,-0.06 -0.54,-0.13 -0.8,-0.24 -0.25,-0.11 -0.43,-0.22 -0.63,-0.4 -0.19,-0.2 -0.3,-0.38 -0.4,-0.64 -0.08,-0.26 -0.1,-0.46 -0.1,-0.73 0.01,-0.69 0.04,-1.31 0.14,-1.99 0.34,-2 0.71,-3.99 1.07,-5.99 0.33,-1.9 0.54,-3.45 1.28,-5.27 0.13,-0.31 0.26,-0.56 0.46,-0.84 0.19,-0.26 0.36,-0.43 0.64,-0.6 0.6,-0.33 1.13,-0.35 1.79,-0.34 2.54,0.09 4.7,0.56 7.17,1 6.58,1.11 13.19,1.93 19.77,3.04 0.81,0.14 1.61,0.27 2.42,0.42 1.36,0.26 2.57,0.54 3.86,1.03 0.58,0.22 1.04,0.45 1.49,0.88 0.49,0.53 0.61,0.84 0.57,1.53 -0.04,0.43 -0.36,-0.5 -0.99,-1.02 -0.43,-0.29 -0.84,-0.45 -1.33,-0.6 -1.61,-0.47 -3.12,-0.72 -4.77,-0.98 -0.48,-0.07 -0.95,-0.14 -1.42,-0.22 -6.61,-1 -13.21,-1.76 -19.81,-2.86 -2.4,-0.42 -4.53,-0.88 -6.98,-0.97 -0.36,0 -0.8,-0.01 -1.13,0.17 -0.11,0.07 -0.18,0.15 -0.27,0.26 -0.13,0.19 -0.22,0.39 -0.31,0.6 -0.69,1.69 -0.9,3.21 -1.21,4.99 -0.36,2 -0.74,3.98 -1.08,5.98 -0.1,0.61 -0.12,1.18 -0.13,1.8 0,0.11 0,0.21 0.04,0.32 0.02,0.06 0.04,0.1 0.09,0.15 0.03,0.04 0.21,0.13 0.26,0.16z"/>
     </g>
     <path class="fil5" d="M46.55 57.39c-0.25,-1.23 -1.21,-1.78 -2.25,-2.12 -2.01,-0.68 -4.13,-0.98 -6.23,-1.32 -6.58,-1.08 -13.21,-1.82 -19.79,-2.96 -2.35,-0.41 -4.67,-0.94 -7.07,-0.99 -1.32,-0.03 -1.8,0.23 -2.3,1.4 -0.7,1.64 -0.94,3.39 -1.25,5.13 -0.36,2 -0.74,3.99 -1.08,5.98 -0.11,0.63 -0.13,1.27 -0.14,1.9 -0.02,0.81 0.39,1.2 1.46,1.43 1.25,0.26 2.51,0.47 3.75,0.75 5.02,1.14 10.08,2.05 15.11,3.14 4.34,0.93 8.73,1.53 13.13,2.07 0.89,0.11 1.79,0.14 2.68,0.14 1.45,0.01 2,-0.66 2.32,-1.85 0.51,-1.9 0.76,-3.86 0.97,-5.81 0.24,-2.27 0.58,-4.53 0.7,-6.81"/>
    </g>
   </g>
   <g>
    <path class="fil2" d="M46.7 106.92c-0.18,0.17 -1.2,1.12 -1.37,1.15 -0.52,0.11 -2.07,-1.65 -2.47,-2.03 -3.25,-3.02 -6.67,-6.11 -10.01,-9.02 -2.15,-1.88 -4.23,-3.66 -6.36,-5.58 -0.92,-0.83 -2.71,-2.63 -3.93,-2.88 -1.54,-0.3 -1.79,0.78 -2.71,-0.15 -1.09,-1.09 -2.8,-3.45 -3.59,-1.97l-0.28 0.54c-0.62,1.16 0.15,1.5 1.29,2.51 2.05,1.81 1.87,0.46 1.37,2.43 -0.47,1.84 1.51,3.45 2.66,4.68 1.09,1.17 2.22,2.29 3.32,3.46 0.31,0.33 0.15,0.1 0.5,0.56 1.59,2.12 5.43,5.26 7.54,7.2 0.61,0.56 6.94,6.4 6.95,6.44 0.36,0.94 -4.21,3.29 -1.94,5.03 1.31,1 2.65,-0.89 3.51,-1.8 0.23,-0.26 1.76,-2.06 2.06,-2.03 0.42,0.03 1.17,0.98 1.16,1.37 -0.02,1.02 -1.2,1.89 0.48,3.4 1.58,1.43 2.32,0.01 3.39,-1.19 0.7,-0.79 4.03,-4.35 4.06,-5.17 0.04,-0.8 -1.9,-2.53 -1.86,-1.49 -0.29,-0.08 0.04,-0.93 -1.56,0.16 -0.63,0.43 -0.74,0.38 -1.34,-0.21 -0.77,-0.75 -0.78,-0.94 -0.01,-1.75 0.99,-1.06 2.95,-2.35 1.4,-3.95 -0.89,-0.91 -1.52,-0.43 -2.26,0.29z"/>
    <g>
     <path class="fil7" d="M14.17 83.59c-0.54,-0.56 -1.16,-1.09 -1.61,-1.72 -0.1,-0.15 0.03,-0.4 0.13,-0.52 0.11,-0.11 0.31,-0.23 0.46,-0.14 0.7,0.42 1.3,0.99 1.9,1.53 0.72,0.64 1.36,1.39 1.89,2.2 0.23,0.37 0.21,0.47 -0.03,0.79 -0.21,0.3 -0.61,-0.02 -0.79,-0.18 -0.69,-0.62 -1.31,-1.3 -1.95,-1.96z"/>
    </g>
    <path class="fil5" d="M16.93 85.73c-1.99,-2.31 -2.63,-2.97 -4.22,-4.39"/>
    <g>
     <path class="fil7" d="M43.98 114.95c-0.28,-0.29 -0.59,-0.54 -0.76,-0.91 -0.04,-0.11 0.16,-0.37 0.23,-0.44 0.06,-0.07 0.26,-0.26 0.36,-0.22 0.4,0.15 0.72,0.45 1.05,0.72 0.4,0.31 0.73,0.7 0.96,1.16 0.12,0.25 -0.07,0.41 -0.22,0.58 -0.17,0.18 -0.37,0.2 -0.58,0.06 -0.39,-0.28 -0.71,-0.61 -1.04,-0.95z"/>
    </g>
    <path class="fil5" d="M45.62 115.83c-1.02,-1.18 -1.35,-1.52 -2.16,-2.24"/>
    <g>
     <path class="fil7" d="M46.64 111.91c-0.28,-0.29 -0.59,-0.54 -0.76,-0.92 -0.04,-0.1 0.16,-0.36 0.23,-0.43 0.06,-0.07 0.26,-0.26 0.36,-0.22 0.4,0.15 0.73,0.45 1.05,0.72 0.4,0.31 0.73,0.7 0.96,1.16 0.12,0.25 -0.07,0.4 -0.22,0.58 -0.17,0.18 -0.37,0.2 -0.58,0.05 -0.39,-0.27 -0.71,-0.6 -1.04,-0.94z"/>
    </g>
    <path class="fil5" d="M48.28 112.79c-1.02,-1.18 -1.35,-1.52 -2.16,-2.25"/>
    <g>
     <path class="fil7" d="M45.54 119.73c-0.13,-0.08 -0.24,-0.17 -0.36,-0.26 -0.3,-0.25 -0.51,-0.46 -0.74,-0.78 -0.12,-0.18 -0.22,-0.34 -0.29,-0.54 -0.08,-0.22 -0.1,-0.39 -0.08,-0.62 0.06,-0.41 0.23,-0.66 0.46,-0.99 1.24,-1.72 2.67,-2.7 3.97,-4.28 0.25,-0.32 0.48,-0.57 0.79,-0.84 0.05,-0.05 0.16,-0.13 0.23,-0.17 0.23,-0.15 0.89,-0.45 1.05,-0.05 0.06,0.22 -0.37,0.62 -0.51,0.75 -0.03,0.02 -0.13,0.13 -0.15,0.14 -0.12,0.08 -0.5,0.62 -0.6,0.76 -1.09,1.61 -2.67,2.74 -3.8,4.36 -0.1,0.15 -0.19,0.28 -0.25,0.46 0,0.02 0.02,0.06 0.02,0.07 0.01,0.06 0.12,0.21 0.16,0.26 0.15,0.22 0.3,0.35 0.51,0.52 0.03,0.04 0.17,0.12 0.22,0.15 0.01,0.01 0.03,0.02 0.05,0.02 0.02,0.02 0.06,0.02 0.04,0.02 -0.03,0 -0.03,0.01 0,-0.01 0.07,-0.05 0.13,-0.12 0.19,-0.19 1.65,-1.82 3.28,-3.66 4.91,-5.5 0.04,-0.04 0.07,-0.08 0.1,-0.13 0.01,-0.01 0.02,-0.03 0.02,-0.02 0.01,0.02 0.01,0 0.01,-0.01 0.01,-0.01 -0.09,-0.15 -0.09,-0.15 0,0 -0.08,-0.1 -0.09,-0.11 -0.39,-0.56 -0.59,-0.75 -0.62,-1.38 -0.01,-0.71 1.44,0.78 1.48,0.82 0.01,0.01 0.07,0.07 0.08,0.09 0.08,0.1 0.14,0.18 0.2,0.3 0.07,0.16 0.11,0.29 0.11,0.48 -0.01,0.17 -0.04,0.3 -0.11,0.46 -0.07,0.14 -0.14,0.24 -0.23,0.37 -1.55,1.97 -3.16,3.79 -4.85,5.63 -0.15,0.15 -0.28,0.27 -0.46,0.39 -0.21,0.12 -0.38,0.18 -0.62,0.19 -0.24,0 -0.41,-0.04 -0.62,-0.14 -0.01,-0.01 -0.11,-0.06 -0.13,-0.07z"/>
    </g>
    <path class="fil5" d="M50.66 111.21c0.51,0.25 0.78,0.73 1.14,1.14 0.34,0.39 0.3,0.68 0,1.03 -1.57,1.9 -3.22,3.74 -4.9,5.55 -0.47,0.5 -0.77,0.49 -1.32,0.05 -0.23,-0.19 -0.44,-0.39 -0.62,-0.65 -0.42,-0.6 -0.31,-0.84 0.09,-1.44 1.1,-1.61 2.75,-2.72 3.9,-4.3 0.37,-0.51 0.9,-1.15 1.63,-1.37"/>
    <g>
     <path class="fil7" d="M17.51 86.17c-0.05,0.05 -0.08,0.1 -0.11,0.16 -0.04,0.08 -0.06,0.15 -0.07,0.24 -0.01,0.08 0,0.15 0.02,0.23 0.03,0.07 0.07,0.12 0.12,0.18 0.74,0.74 1.44,1.4 2.23,2.07 0.18,0.15 0.24,0.42 0.12,0.63 -0.12,0.2 -0.4,0.21 -0.6,0.11 -1.03,-0.54 -1.75,-1.18 -2.58,-1.97 -0.2,-0.2 -0.32,-0.38 -0.41,-0.64 -0.09,-0.25 -0.12,-0.45 -0.1,-0.72 0.02,-0.26 0.08,-0.45 0.19,-0.69 0.02,-0.08 0.2,-0.33 0.26,-0.4 0.06,-0.07 0.12,-0.13 0.19,-0.19 0.21,-0.2 0.41,-0.38 0.64,-0.54 0.24,-0.16 0.43,-0.26 0.72,-0.3 0.31,-0.02 0.53,0.04 0.79,0.2 0.23,0.14 0.39,0.3 0.57,0.5 0.56,0.62 1.19,1.13 1.78,1.72 0.34,0.36 0.42,0.48 0.21,0.9 -0.16,0.35 -0.76,-0.06 -0.94,-0.18 -0.75,-0.51 -1.35,-0.95 -1.98,-1.61 -0.09,-0.08 -0.2,-0.21 -0.31,-0.27 -0.04,-0.02 -0.02,-0.01 0.01,-0.01 0,0 -0.16,0.08 -0.16,0.09 -0.18,0.13 -0.36,0.28 -0.52,0.42 -0.02,0.02 -0.06,0.05 -0.07,0.07z"/>
    </g>
    <path class="fil5" d="M21.5 87.65c-0.81,-0.74 -1.74,-1.35 -2.49,-2.19 -0.64,-0.71 -0.91,-0.65 -1.85,0.17 -0.54,0.47 -0.65,1.29 -0.13,1.8 0.84,0.85 1.73,1.66 2.78,2.26"/>
    <g>
     <path class="fil7" d="M40.21 102.31c-2.41,-2.13 -4.76,-4.33 -7.17,-6.45 -1.05,-0.92 -2.11,-1.82 -3.17,-2.72 -1.77,-1.5 -3.4,-3.17 -5.19,-4.62 -0.22,-0.18 -0.41,-0.36 -0.64,-0.53 -0.2,-0.13 -0.36,-0.21 -0.6,-0.26 -0.19,-0.04 -0.34,-0.04 -0.53,0 -0.21,0.05 -0.35,0.12 -0.53,0.24 -0.21,0.15 -0.35,0.3 -0.51,0.51 -0.37,0.49 -0.76,0.9 -1.17,1.34 -0.27,0.29 -0.46,0.54 -0.64,0.89 -0.13,0.27 -0.19,0.48 -0.21,0.78 0,0.3 0.05,0.51 0.16,0.79 0.16,0.35 0.35,0.61 0.6,0.9 1.38,1.56 2.92,3.08 4.27,4.65 0.22,0.23 0.39,0.48 0.6,0.71 0.01,0.01 0.02,0.02 0.03,0.03 0.05,0.04 0.08,0.07 0.13,0.1 0.01,0.01 0,0 0,0.01 0,0 0.02,0 0.02,0 0.35,-0.13 0.64,-0.38 0.9,-0.64 0.15,-0.15 0.27,-0.3 0.39,-0.47 0.07,-0.08 0.26,-0.5 0.35,-0.49 0.19,0.04 0.12,0.55 0.09,0.67 -0.06,0.26 -0.16,0.47 -0.31,0.7 -0.29,0.43 -0.62,0.77 -1.09,1.01 -0.12,0.05 -0.21,0.07 -0.34,0.07 -0.12,0.01 -0.21,-0.01 -0.32,-0.05 -0.19,-0.07 -0.32,-0.17 -0.47,-0.31 0,0 0,0 0,0 -0.22,-0.21 -0.4,-0.5 -0.62,-0.69 -1.45,-1.37 -3.01,-3.13 -4.4,-4.6 -0.34,-0.38 -0.58,-0.71 -0.8,-1.17 -0.18,-0.43 -0.26,-0.78 -0.26,-1.24 0.01,-0.47 0.1,-0.81 0.3,-1.24 0.22,-0.45 0.47,-0.78 0.81,-1.16 0.38,-0.41 0.74,-0.8 1.07,-1.25 0.24,-0.31 0.45,-0.54 0.77,-0.77 0.3,-0.21 0.56,-0.34 0.93,-0.43 0.36,-0.08 0.65,-0.08 1.02,-0.01 0.38,0.08 0.66,0.21 0.99,0.42 0.28,0.19 0.48,0.38 0.73,0.59 1.82,1.47 3.42,3.11 5.22,4.6 1.1,0.89 2.13,1.84 3.2,2.74 2.43,2.12 4.78,4.3 7.2,6.43 0.05,0.04 0.09,0.08 0.14,0.12 1.27,1.11 2.5,2.2 3.7,3.4 0.58,0.6 1.13,1.23 1.84,1.69 -0.06,-0.03 -0.11,-0.05 -0.17,-0.07 -0.07,-0.01 -0.12,-0.01 -0.19,0 0.17,-0.03 0.21,-0.08 0.33,-0.2 0.52,-0.53 1.05,-1.06 1.58,-1.58 0.16,-0.15 0.27,-0.25 0.47,-0.35 0.15,-0.06 0.27,-0.09 0.43,-0.1 0.17,0 0.3,0.03 0.46,0.09 0.27,0.11 0.47,0.23 0.68,0.42 0.21,0.21 0.33,0.39 0.42,0.67 0.08,0.29 0.08,0.52 0,0.8 -0.09,0.29 -0.21,0.49 -0.4,0.72 -0.7,0.8 -1.35,1.54 -2.12,2.27 -0.66,0.63 -1.12,1.37 -1.8,2.03 -1.19,1.09 -2.15,2.42 -3.3,3.53 -1.08,1.04 -2.1,2.19 -3.17,3.25 -0.24,0.25 -0.44,0.41 -0.77,0.54 -0.22,0.08 -0.4,0.1 -0.62,0.06 -0.25,-0.04 -0.42,-0.13 -0.62,-0.28 -0.18,-0.14 -0.32,-0.26 -0.45,-0.45 -0.14,-0.2 -0.22,-0.37 -0.24,-0.61 -0.02,-0.25 0.02,-0.42 0.12,-0.64 0.09,-0.21 0.2,-0.36 0.33,-0.53 0.08,-0.1 0.08,-0.11 0.02,-0.01 0.4,-0.65 0.81,-1.01 1.35,-1.51 0.42,-0.4 0.74,-0.72 0.93,-1.27 0.04,-0.11 0.08,-0.18 0.16,-0.27 0.07,-0.07 0.15,-0.12 0.25,-0.16 0.31,-0.12 0.5,-0.28 0.73,-0.52 0.27,-0.28 0.5,-0.58 0.76,-0.87 0.09,-0.1 0.19,-0.21 0.29,-0.31 0.66,-0.7 1.36,-1.36 2.02,-2.06 0.36,-0.38 0.75,-0.64 1.14,-0.98 0.25,-0.2 0.82,-0.65 1.03,-0.88 0.42,-0.45 -0.09,0.82 -0.54,1.37 -0.32,0.36 -0.67,0.69 -0.98,1.06 -0.71,0.86 -1.48,1.65 -2.21,2.49 -0.08,0.09 -0.16,0.19 -0.24,0.29 -0.16,0.2 -0.32,0.4 -0.5,0.6 -0.35,0.38 -0.64,0.61 -1.12,0.81 0.06,-0.02 0.1,-0.05 0.15,-0.1 0.04,-0.05 0.07,-0.09 0.09,-0.15 -0.26,0.77 -0.62,1.19 -1.19,1.75 -0.42,0.4 -0.82,0.76 -1.12,1.27 -0.04,0.06 -0.14,0.18 -0.12,0.15 -0.07,0.09 -0.13,0.19 -0.18,0.29 -0.01,0.02 -0.02,0.06 -0.02,0.07 0,0 0.02,0.04 0.02,0.04 0.06,0.08 0.15,0.15 0.22,0.21 0.03,0.02 0.07,0.03 0.1,0.05 0.01,0 0.03,-0.01 0.04,-0.01 0.1,-0.02 0.26,-0.21 0.33,-0.27 1.06,-1.09 2.08,-2.2 3.15,-3.28 1.14,-1.17 2.12,-2.44 3.31,-3.58 0.66,-0.64 1.12,-1.42 1.8,-2.04 0.74,-0.7 1.36,-1.42 2.02,-2.18 0.06,-0.07 0.12,-0.14 0.14,-0.24 0.01,-0.03 0.02,-0.06 0.01,-0.09 0,-0.04 -0.07,-0.09 -0.08,-0.11 -0.09,-0.08 -0.18,-0.13 -0.28,-0.17 -0.02,-0.01 0.01,0 0.02,0 0.03,0 0.06,-0.01 0.08,-0.02 0.02,-0.01 -0.07,0.07 -0.12,0.11 -0.53,0.52 -1.05,1.03 -1.57,1.56 -0.31,0.31 -0.54,0.46 -0.99,0.55 -0.1,0.02 -0.17,0.02 -0.27,0 -0.1,-0.02 -0.17,-0.04 -0.25,-0.09 -0.86,-0.55 -1.39,-1.17 -2.08,-1.89 -1.17,-1.18 -2.38,-2.25 -3.62,-3.35 -0.05,-0.04 -0.1,-0.08 -0.14,-0.12z"/>
    </g>
    <path class="fil5" d="M46.37 107.22c-0.31,1.01 -1.21,1.54 -1.85,2.27 -0.73,0.83 -1.52,1.6 -2.26,2.43 -0.53,0.58 -0.93,1.29 -1.74,1.57 -0.37,1.3 -1.69,1.85 -2.31,2.95 -0.02,0.04 -0.05,0.06 -0.07,0.09 -0.47,0.6 -0.45,0.95 0.13,1.39 0.49,0.38 0.89,0.07 1.22,-0.27 1.06,-1.07 2.09,-2.19 3.16,-3.26 1.15,-1.15 2.13,-2.46 3.31,-3.56 0.67,-0.63 1.13,-1.41 1.8,-2.03 0.74,-0.68 1.41,-1.46 2.07,-2.22 0.55,-0.63 0.34,-1.29 -0.45,-1.6 -0.32,-0.13 -0.5,0.04 -0.69,0.22 -0.53,0.52 -1.06,1.04 -1.58,1.56 -0.17,0.18 -0.34,0.34 -0.7,0.39 -0.74,-0.44 -1.36,-1.17 -1.99,-1.81 -1.17,-1.19 -2.41,-2.29 -3.65,-3.38 -2.46,-2.17 -4.85,-4.42 -7.32,-6.58 -1.05,-0.92 -2.1,-1.84 -3.18,-2.73 -1.8,-1.47 -3.39,-3.17 -5.2,-4.62 -0.23,-0.19 -0.44,-0.4 -0.69,-0.56 -1.07,-0.72 -2.22,-0.42 -3,0.65 -0.34,0.46 -0.74,0.88 -1.13,1.29 -1.28,1.39 -1.34,2.74 -0.06,4.16 0.44,0.5 4.16,4.45 4.33,4.62 0.42,0.41 0.79,1.15 1.32,0.92 0.67,-0.28 1.55,-1.27 1.48,-2.04"/>
    <g>
     <path class="fil7" d="M33.5 105.79c1.17,1.12 2.31,2.25 3.5,3.34 1.13,1.05 2.15,2.22 3.18,3.37 0.16,0.17 0.49,0.67 0.27,0.9 -0.21,0.22 -0.73,-0.14 -0.89,-0.28 -1.15,-1 -2.2,-2.12 -3.34,-3.13 -1.22,-1.07 -2.38,-2.21 -3.57,-3.31 -0.43,-0.4 -0.87,-0.8 -1.31,-1.19 -1.13,-1.01 -2.27,-1.97 -3.37,-3.02 -0.7,-0.66 -1.38,-1.32 -2.01,-2.04 -0.09,-0.09 -0.17,-0.19 -0.25,-0.28 -0.33,-0.39 -0.94,-0.99 -0.41,-1.39 0.39,-0.25 1.05,0.6 1.34,0.88 0,0.01 0.06,0.06 0.06,0.06 0.01,0 1.93,1.74 2.09,1.88 1.11,1.02 2.28,1.97 3.39,2.98 0.45,0.41 0.89,0.82 1.32,1.23z"/>
    </g>
    <path class="fil5" d="M25.27 98.76c0.36,0.95 5.8,5.64 6.49,6.27 1.64,1.49 3.18,3.08 4.82,4.57 1.34,1.22 2.52,2.59 3.86,3.82"/>
    <g>
     <path class="fil7" d="M30.09 101.47c-0.26,0.33 -0.67,0.78 -1.11,0.83 -0.1,0.01 -0.22,-0.23 -0.25,-0.3 -0.02,-0.06 -0.11,-0.28 -0.07,-0.34 0.22,-0.29 0.43,-0.44 0.64,-0.78 0,-0.01 0.01,-0.02 0.01,-0.02 0.15,-0.26 0.29,-0.6 0.46,-0.83 0.07,-0.1 0.33,-0.08 0.44,-0.09 0.18,0 0.34,0.05 0.36,0.25 0.02,0.48 -0.19,0.87 -0.46,1.25 -0.01,0 -0.02,0.03 -0.02,0.03z"/>
    </g>
    <path class="fil5" d="M30.2 99.94c-0.04,0.77 -0.81,1.76 -1.48,2.04"/>
    <g>
     <path class="fil7" d="M33.34 104.7c-0.25,0.33 -0.67,0.78 -1.11,0.82 -0.1,0.02 -0.22,-0.22 -0.25,-0.3 -0.02,-0.05 -0.1,-0.28 -0.07,-0.33 0.22,-0.29 0.43,-0.44 0.64,-0.79 0.01,0 0.01,-0.01 0.02,-0.02 0.14,-0.25 0.29,-0.6 0.45,-0.82 0.07,-0.1 0.33,-0.09 0.44,-0.09 0.18,-0.01 0.34,0.04 0.36,0.25 0.02,0.48 -0.19,0.87 -0.46,1.25 0,0 -0.02,0.02 -0.02,0.03z"/>
    </g>
    <path class="fil5" d="M33.45 103.17c-0.03,0.76 -0.81,1.75 -1.48,2.04"/>
    <g>
     <path class="fil7" d="M36.4 107.4c-0.25,0.33 -0.66,0.78 -1.1,0.83 -0.11,0.01 -0.22,-0.23 -0.25,-0.31 -0.03,-0.05 -0.11,-0.28 -0.07,-0.33 0.22,-0.29 0.43,-0.44 0.64,-0.78 0,-0.01 0.01,-0.02 0.01,-0.03 0.15,-0.25 0.29,-0.6 0.46,-0.82 0.07,-0.1 0.33,-0.08 0.44,-0.09 0.18,0 0.34,0.04 0.36,0.25 0.02,0.48 -0.2,0.87 -0.47,1.25 0,0 -0.01,0.02 -0.02,0.03z"/>
    </g>
    <path class="fil5" d="M36.52 105.87c-0.04,0.76 -0.81,1.76 -1.48,2.04"/>
    <g>
     <path class="fil7" d="M24.26 95.85c-0.25,0.34 -0.66,0.79 -1.1,0.83 -0.11,0.01 -0.22,-0.22 -0.25,-0.3 -0.03,-0.05 -0.11,-0.28 -0.07,-0.33 0.22,-0.29 0.43,-0.45 0.64,-0.79 0,0 0.01,-0.02 0.01,-0.02 0.15,-0.25 0.29,-0.6 0.46,-0.83 0.07,-0.1 0.33,-0.08 0.44,-0.08 0.18,-0.01 0.34,0.04 0.36,0.24 0.02,0.48 -0.2,0.88 -0.47,1.26 0,0 -0.01,0.02 -0.02,0.02z"/>
    </g>
    <path class="fil5" d="M24.38 94.32c-0.04,0.77 -0.81,1.76 -1.48,2.05"/>
   </g>
   <g>
    <g>
     <path class="fil4" d="M60.77 36.5c-0.12,-0.73 -0.23,-1.42 -0.34,-2.12 -0.29,-1.69 -0.6,-3.38 -1.36,-4.95 -0.39,-0.8 -0.87,-1.52 -1.56,-2.09 -1.44,-1.19 -3.06,-1.3 -4.78,-0.8 -0.67,0.2 -1.31,0.47 -1.93,0.81 -2.92,1.62 -5.57,3.61 -8.03,5.86 -0.81,0.75 -1.48,1.61 -1.77,2.72 -0.09,0.34 -0.15,0.68 -0.1,1.02 0.19,1.23 1.27,1.82 2.43,1.35 0.54,-0.23 0.93,-0.63 1.24,-1.1 0.68,-1.04 1.06,-2.17 1,-3.42 -0.01,-0.41 -0.01,-0.82 -0.04,-1.23 -0.01,-0.17 0.04,-0.25 0.16,-0.35 1.92,-1.6 4.01,-2.97 6.22,-4.14 0.61,-0.32 1.28,-0.51 1.96,-0.61 1.65,-0.26 2.9,0.39 3.78,1.77 0.75,1.17 1.12,2.49 1.38,3.85 0.37,1.9 0.66,3.81 0.89,5.74 0.11,0.9 0.13,1.8 0.07,2.71 -0.02,0.15 -0.04,0.28 -0.16,0.4 -0.55,0.53 -0.83,1.2 -0.91,1.94 -0.28,2.52 -0.53,5.05 -0.8,7.57 -0.29,2.85 -0.65,5.7 -0.88,8.56 -0.06,0.77 -0.12,1.53 -0.02,2.3 0.04,0.26 0.03,0.56 0.16,0.76 0.37,0.56 0.14,0.95 -0.22,1.41 -0.53,0.67 -0.78,1.46 -0.63,2.35 0.15,0.91 0.66,1.54 1.41,1.68 0.78,0.16 1.66,-0.27 2.09,-1.01 0.49,-0.82 0.41,-1.68 0.13,-2.54 -0.1,-0.33 -0.24,-0.64 -0.42,-0.94 -0.08,-0.11 -0.16,-0.21 -0.03,-0.36 0.42,-0.5 0.57,-1.12 0.73,-1.73 0.62,-2.36 0.81,-4.78 1.08,-7.19 0.24,-2.1 0.51,-4.2 0.74,-6.3 0.12,-1.17 0.16,-2.35 0.14,-3.54 -0.01,-0.7 -0.09,-1.39 -0.33,-2.06 -0.13,-0.34 -0.28,-0.69 -0.59,-0.88 -0.33,-0.2 -0.33,-0.46 -0.29,-0.77 0.36,-2.69 0.9,-5.35 1.61,-7.98 0.25,-0.93 0.63,-1.81 1.2,-2.6 0.92,-1.28 2.19,-1.61 3.62,-0.98 2.05,0.92 3.82,2.27 5.68,3.48 0.84,0.55 1.68,1.1 2.52,1.65 0.17,0.11 0.3,0.21 0.25,0.45 -0.05,0.22 0.07,0.43 0.15,0.63 0.51,1.16 1.15,2.25 1.87,3.29 0.54,0.77 1.26,1.29 2.2,1.48 0.36,0.08 0.71,0.06 1.06,-0.04 1.01,-0.28 1.45,-1.38 0.92,-2.29 -0.48,-0.83 -1.19,-1.43 -1.98,-1.94 -2.05,-1.36 -4.12,-2.68 -6.16,-4.04 -1.37,-0.92 -2.73,-1.85 -4.13,-2.72 -0.71,-0.44 -1.47,-0.8 -2.25,-1.12 -1.64,-0.67 -3.39,-0.17 -4.52,1.28 -0.84,1.07 -1.31,2.31 -1.65,3.61 -0.25,0.94 -0.45,1.89 -0.67,2.84 -0.03,0.1 -0.02,0.22 -0.14,0.33zm-1.54 29.43l0 0c0.05,0.49 -0.03,0.91 -0.4,1.23 -0.48,0.41 -0.98,0.25 -1.14,-0.36 -0.19,-0.71 0.22,-1.77 0.83,-2.24 0.17,-0.13 0.21,-0.03 0.27,0.08 0.24,0.41 0.37,0.85 0.44,1.29z"/>
    </g>
   </g>
   <g>
    <g>
     <path class="fil4" d="M100.67 48.72c1.98,-0.34 3.88,-0.66 5.79,-0.98 2.97,-0.51 5.93,-1.02 8.91,-1.52 0.33,-0.06 0.67,-0.09 1.02,-0.11 0.47,-0.02 0.78,0.18 0.85,0.54 0.08,0.33 -0.11,0.61 -0.56,0.78 -2.35,0.92 -4.75,1.7 -7.14,2.48 -3.36,1.1 -6.71,2.21 -10.07,3.31 -0.78,0.25 -1.58,0.46 -2.37,0.68 -0.19,0.05 -0.32,0.14 -0.42,0.33 -1.72,3.54 -3.44,7.07 -5.01,10.68 -0.13,0.31 -0.08,0.42 0.2,0.6 1.93,1.21 3.49,2.73 4.02,5.06 0.9,3.89 -1.54,7.79 -5.34,8.35 -3.6,0.53 -7.17,-1.39 -8.23,-5.39 -0.44,-1.67 0.05,-3.2 0.92,-4.63 0.51,-0.83 1.15,-1.56 1.81,-2.28 0.7,-0.76 1.2,-1.66 1.72,-2.55 1.28,-2.2 2.56,-4.4 3.85,-6.59 0.16,-0.26 0.11,-0.43 -0.04,-0.66 -0.37,-0.59 -0.78,-0.79 -1.51,-0.57 -1.51,0.45 -3.05,0.78 -4.58,1.15 -1.34,0.32 -2.55,0.92 -3.68,1.69 -1.18,0.8 -2.38,1.58 -3.72,2.08 -2.19,0.81 -4.4,1.02 -6.52,-0.18 -2.14,-1.23 -3.29,-3.15 -3.62,-5.58 -0.06,-0.45 0.01,-0.9 0.13,-1.34 0.89,-3.05 2.88,-4.88 5.98,-5.63 2.53,-0.62 4.61,0.11 6.51,1.71 0.77,0.65 1.46,1.36 2.08,2.15 0.21,0.27 0.41,0.31 0.73,0.24 3.22,-0.73 6.42,-1.53 9.66,-2.16 0.95,-0.18 1.91,-0.38 2.86,-0.55 0.24,-0.04 0.38,-0.14 0.5,-0.35 3.36,-5.29 6.75,-10.57 10.45,-15.64 0.2,-0.27 0.4,-0.55 0.67,-0.77 0.25,-0.21 0.52,-0.33 0.83,-0.14 0.29,0.17 0.38,0.45 0.32,0.78 -0.09,0.46 -0.25,0.9 -0.44,1.32 -2.05,4.44 -4.11,8.88 -6.35,13.23 -0.06,0.12 -0.11,0.24 -0.21,0.46zm4.39 -11.71l0 0c-0.24,0.15 -0.31,0.32 -0.4,0.46 -1.1,1.6 -2.18,3.21 -3.28,4.82 -1.82,2.69 -3.51,5.46 -5.24,8.2 -0.21,0.32 -0.46,0.57 -0.86,0.52 -0.26,-0.04 -0.49,-0.01 -0.73,0.04 -1.35,0.27 -2.69,0.51 -4.03,0.81 -2.76,0.6 -5.51,1.23 -8.25,1.86 -0.53,0.12 -0.92,0.03 -1.26,-0.42 -0.83,-1.08 -1.79,-2.03 -2.9,-2.83 -1.42,-1.03 -2.94,-1.42 -4.65,-0.93 -0.36,0.1 -0.72,0.19 -1.07,0.29 -2.34,0.72 -3.6,2.42 -4.25,4.68 -0.08,0.26 -0.1,0.54 -0.06,0.81 0.28,1.99 1.22,3.58 2.94,4.62 1.87,1.12 3.82,0.86 5.75,0.13 0.99,-0.37 1.9,-0.91 2.77,-1.51 1.23,-0.83 2.48,-1.63 3.92,-2.04 2.1,-0.6 4.22,-1.09 6.34,-1.58 0.42,-0.1 0.75,0.02 1.01,0.37 0.31,0.43 0.66,0.83 1,1.25 0.3,0.38 0.27,0.69 0.04,1.08 -1.29,2.18 -2.58,4.35 -3.84,6.55 -0.8,1.41 -1.66,2.78 -2.78,3.95 -0.43,0.45 -0.79,0.95 -1.11,1.48 -0.99,1.68 -1.11,3.37 -0.12,5.11 1.1,1.92 2.77,2.85 4.93,3.12 2.67,0.35 5.65,-1.85 5.97,-4.81 0.31,-2.93 -1,-5.13 -3.99,-6.74 -0.65,-0.36 -0.81,-0.59 -0.51,-1.29 1.68,-3.9 3.52,-7.73 5.4,-11.53 0.17,-0.33 0.39,-0.51 0.73,-0.6 4.86,-1.32 9.58,-3.12 14.39,-4.62 0.08,-0.02 0.17,-0.03 0.22,-0.15 -0.09,0 -0.16,0.01 -0.23,0.02 -1.98,0.34 -3.96,0.68 -5.95,1.02 -1.71,0.29 -3.43,0.57 -5.14,0.86 -0.41,0.07 -0.72,-0.23 -0.66,-0.66 0.03,-0.27 0.16,-0.5 0.28,-0.73 1.27,-2.58 2.55,-5.15 3.81,-7.74 0.61,-1.25 1.19,-2.53 1.81,-3.87z"/>
    </g>
   </g>
   <g>
    <g>
     <path class="fil4" d="M71.65 51.71c1.68,-1.18 4.02,-1.16 5.61,0.03 1.82,1.36 2.08,3.78 0.59,5.49 -1.8,2.07 -5.24,2.2 -7.04,0.25 -1.48,-1.61 -1.32,-4.03 0.37,-5.44 0.15,-0.12 0.31,-0.22 0.47,-0.33zm4.52 5.48l0 0c1.95,-1.37 1.95,-3.62 0.19,-4.7 -1.38,-0.86 -3.36,-0.64 -4.53,0.49 -1.44,1.39 -1.12,3.49 0.68,4.36 1.33,0.65 2.62,0.48 3.66,-0.15z"/>
    </g>
   </g>
   <g>
    <g>
     <path class="fil4" d="M87.37 68.28c1.81,-1.26 4.11,-0.88 5.34,0.88 1.36,1.95 0.85,4.8 -1.12,6.17 -1.77,1.24 -4.12,0.83 -5.34,-0.92 -1.35,-1.95 -0.83,-4.77 1.12,-6.13zm-0.07 5.64l0 0c0.4,0.54 1.08,0.97 1.96,0.98 1.24,0.02 2.13,-0.6 2.68,-1.66 0.59,-1.15 0.58,-2.33 -0.17,-3.42 -0.72,-1.05 -1.98,-1.41 -3.12,-0.96 -1.88,0.74 -2.62,3.24 -1.35,5.06z"/>
    </g>
   </g>
   <g>
    <path class="fil4" d="M92.41 52.82c0.58,-0.41 1.39,-0.29 1.79,0.27 0.37,0.51 0.19,1.26 -0.39,1.69 -0.55,0.4 -1.33,0.28 -1.71,-0.26 -0.39,-0.57 -0.26,-1.3 0.31,-1.7z"/>
   </g>
   <g>
    <g>
     <path class="fil4 str0" d="M104.95 73.67c0.27,0.56 0.81,0.89 1.51,0.94 0.36,0.02 0.71,0.02 1.06,0.02 4.38,-0.07 8.76,-0.2 13.14,-0.34 0.75,-0.02 1.5,-0.09 2.21,-0.36 0.49,-0.18 0.8,-0.52 0.93,-1.03 0.12,-0.45 0.15,-0.91 0.14,-1.37 -0.03,-3.53 0,-7.07 -0.19,-10.6 -0.03,-0.48 -0.2,-0.86 -0.58,-1.17 -1.15,-0.93 -2.34,-1.83 -3.45,-2.83 -0.28,-0.25 -0.55,-0.5 -0.84,-0.74 -0.26,-0.22 -0.56,-0.29 -0.9,-0.27 -2.21,0.1 -4.42,0.25 -6.64,0.28 -1.72,0.02 -3.45,0.04 -5.15,0.41 -0.2,0.04 -0.4,0.09 -0.59,0.15 -0.89,0.29 -1.36,0.9 -1.39,1.84 -0.14,4.13 -0.26,8.26 0.02,12.39 0.07,1.03 0.32,1.96 0.72,2.68zm0.73 -0.5l0 0c-0.37,-0.74 -0.52,-1.53 -0.57,-2.35 -0.27,-4.04 -0.15,-8.07 -0.02,-12.11 0.03,-0.72 0.24,-0.96 0.94,-1.15 0.7,-0.18 1.41,-0.28 2.12,-0.33 3.05,-0.22 6.11,-0.14 9.15,-0.39 0.2,-0.02 0.25,0.04 0.23,0.24 -0.09,0.96 -0.17,1.92 -0.09,2.89 0.09,1 0.46,1.35 1.45,1.46 1.23,0.13 2.44,-0.01 3.66,-0.13 0.27,-0.03 0.32,0.03 0.34,0.3 0.17,3.26 0.12,6.53 0.17,9.79 0,0.38 -0.03,0.75 -0.08,1.12 -0.05,0.36 -0.24,0.55 -0.58,0.65 -0.61,0.17 -1.24,0.24 -1.87,0.25 -4.07,0.11 -8.14,0.26 -12.21,0.32 -0.57,0 -1.15,0.01 -1.73,0 -0.41,0 -0.72,-0.18 -0.91,-0.56zm16.9 -12.76l0 0c-1.31,0.12 -2.51,0.27 -3.74,0.12 -0.3,-0.04 -0.46,-0.16 -0.49,-0.47 -0.12,-1.02 -0.01,-2.03 0.08,-3.1 1.33,1.22 2.69,2.32 4.15,3.45z"/>
    </g>
   </g>
   <g>
    <g>
     <path class="fil4 str0" d="M118.52 69.95c0.39,-0.2 0.53,-0.56 0.58,-0.97 0.08,-0.83 0.05,-1.65 0.01,-2.47 -0.07,-1.18 -0.14,-2.35 -0.21,-3.53 -0.03,-0.59 -0.23,-0.78 -0.83,-0.76 -0.74,0.02 -1.47,0.04 -2.21,0.09 -1.49,0.11 -2.97,0.14 -4.46,0.06 -0.48,-0.03 -0.97,-0.01 -1.44,0.07 -0.65,0.12 -0.97,0.47 -1.05,1.13 -0.07,0.65 -0.06,1.3 -0.06,1.95 -0.01,1.1 -0.05,2.19 0,3.28 0.02,0.41 0.06,0.81 0.23,1.19 0.21,0.49 0.59,0.72 1.12,0.69 1.71,-0.1 3.42,-0.18 5.13,-0.21 0.88,-0.02 1.75,-0.14 2.61,-0.32 0.2,-0.04 0.4,-0.09 0.58,-0.2zm-8.66 -0.38l0 0c-0.02,-0.1 -0.07,-0.28 -0.09,-0.46 -0.07,-0.55 -0.07,-1.11 -0.06,-1.66 0.02,-1.2 0.04,-2.4 0.07,-3.6 0.01,-0.45 0.07,-0.5 0.53,-0.56 0.33,-0.04 0.66,-0.05 0.99,-0.04 1.15,0.03 2.29,0.1 3.44,0.02 0.95,-0.07 1.9,-0.11 2.85,-0.16 0.43,-0.02 0.43,-0.01 0.45,0.4 0.03,0.47 0.07,0.94 0.09,1.41 0.05,1.27 0.19,2.52 0.11,3.79 -0.03,0.34 -0.15,0.52 -0.5,0.58 -0.72,0.13 -1.44,0.26 -2.17,0.28 -1.78,0.05 -3.57,0.11 -5.36,0.22 -0.13,0.01 -0.25,0 -0.35,-0.22z"/>
    </g>
   </g>
   <g>
    <g>
     <g>
      <path class="fil4" d="M63.15 103.3c-8.68,0.79 -16.39,-5.62 -17.16,-14.26 -0.77,-8.71 5.6,-16.4 14.24,-17.17 8.73,-0.78 16.42,5.57 17.2,14.2 0.8,8.76 -5.57,16.45 -14.28,17.23zm-15.79 -14.4l0 0c0.78,7.97 7.82,13.79 15.72,13.02 7.94,-0.78 13.75,-7.81 12.98,-15.7 -0.78,-7.94 -7.8,-13.73 -15.71,-12.97 -7.91,0.76 -13.76,7.81 -12.99,15.65z"/>
     </g>
    </g>
    <g>
     <g>
      <path class="fil4" d="M74.71 86.41c0.67,7.14 -4.62,13.49 -11.8,14.16 -7.16,0.66 -13.51,-4.6 -14.19,-11.75 -0.68,-7.18 4.6,-13.54 11.79,-14.22 7.18,-0.67 13.52,4.6 14.2,11.81zm-1.39 0.08l0 0c-0.6,-6.42 -6.29,-11.12 -12.75,-10.52 -6.36,0.59 -11.06,6.31 -10.46,12.74 0.58,6.36 6.28,11.08 12.67,10.49 6.42,-0.58 11.13,-6.27 10.54,-12.71z"/>
     </g>
    </g>
   </g>
   <path class="fil8" d="M28.04 11.14c-0.24,-0.13 -0.49,-0.25 -0.74,-0.35 -0.22,-0.1 -0.24,-0.2 -0.11,-0.4 0.26,-0.41 0.52,-0.84 0.75,-1.27 0.27,-0.5 0.14,-0.88 -0.35,-1.17 -0.26,-0.14 -0.52,-0.28 -0.86,-0.47 7.47,-2.68 15.13,-4.43 22.5,-7.07 0.02,0.04 0.05,0.07 0.07,0.11 -0.19,0.4 -0.38,0.81 -0.57,1.21 -0.31,0.71 -0.15,1.16 0.55,1.5 0.49,0.24 1.02,0.42 1.55,0.56 0.24,0.06 0.31,0.15 0.21,0.39 -0.19,0.44 -0.35,0.9 -0.51,1.35 -0.25,0.68 -0.11,1.06 0.55,1.38 0.39,0.19 0.8,0.35 1.21,0.5 0.27,0.09 0.34,0.2 0.18,0.46 -0.24,0.38 -0.45,0.78 -0.65,1.19 -0.24,0.5 -0.06,0.93 0.46,1.11 0.35,0.12 0.73,0.21 1.1,0.28 0.32,0.05 0.36,0.19 0.22,0.47 -0.17,0.35 -0.32,0.71 -0.48,1.07 -0.26,0.61 -0.08,0.98 0.54,1.23 0.34,0.13 0.89,-0.03 0.98,0.33 0.07,0.29 -0.24,0.69 -0.39,1.03 -0.51,1.24 -0.38,1.5 0.92,1.82 0.2,0.05 0.24,0.11 0.14,0.28 -0.13,0.23 -0.25,0.46 -0.37,0.69 -0.36,0.74 -0.19,1.17 0.56,1.48 0.26,0.1 0.52,0.2 0.87,0.34 -0.26,0.11 -0.43,0.19 -0.6,0.25 -1.19,0.44 -2.38,0.85 -3.56,1.32 -2.88,1.16 -5.73,2.39 -8.65,3.47 -3.16,1.16 -6.42,2.03 -9.57,3.22 -0.44,0.16 -0.77,0.04 -1.14,-0.16 -0.31,-0.17 -0.34,-0.33 -0.2,-0.62 0.24,-0.46 0.45,-0.94 0.66,-1.42 0.26,-0.59 0.12,-0.97 -0.47,-1.24 -0.38,-0.17 -0.78,-0.32 -1.18,-0.44 -0.32,-0.09 -0.34,-0.23 -0.19,-0.49 0.22,-0.4 0.42,-0.8 0.6,-1.21 0.23,-0.54 0.08,-0.94 -0.45,-1.18 -0.32,-0.14 -0.65,-0.25 -0.99,-0.34 -0.27,-0.08 -0.35,-0.17 -0.23,-0.46 0.2,-0.45 0.36,-0.92 0.51,-1.39 0.17,-0.53 -0.01,-0.9 -0.54,-1.1 -0.3,-0.12 -0.61,-0.19 -0.93,-0.25 -0.23,-0.05 -0.28,-0.11 -0.16,-0.34 0.22,-0.39 0.43,-0.8 0.6,-1.21 0.25,-0.58 0.1,-0.93 -0.48,-1.19 -0.37,-0.17 -0.74,-0.33 -1.12,-0.47 -0.28,-0.1 -0.39,-0.22 -0.24,-0.54 0.19,-0.39 0.34,-0.8 0.46,-1.22 0.15,-0.52 0.01,-0.79 -0.46,-1.04z"/>
   <g>
    <path class="fil4" d="M30.71 21.38c-0.07,-0.05 -0.12,-0.1 -0.18,-0.14 -0.11,-0.08 -0.17,-0.17 -0.26,-0.26 -0.09,-0.12 -0.15,-0.23 -0.19,-0.38 -0.04,-0.15 -0.04,-0.27 -0.02,-0.42 -0.01,-0.08 0.07,-0.27 0.09,-0.35 0.05,-0.19 0.24,-0.49 0.33,-0.68 0.07,-0.13 0.14,-0.27 0.18,-0.41 0.02,-0.07 0.01,-0.03 0.03,0.02 0,0.02 0.01,0.04 0.03,0.06 0,0.01 -0.03,-0.03 -0.03,-0.02 -0.1,-0.08 -0.25,-0.15 -0.37,-0.21 -0.42,-0.21 -0.67,-0.43 -1,-0.75 -0.12,-0.12 -0.18,-0.23 -0.21,-0.4 -0.03,-0.17 0,-0.3 0.07,-0.45 0.24,-0.39 0.45,-0.76 0.72,-1.13 0.16,-0.21 0.48,-0.38 0.71,-0.2 0.19,0.15 0.14,0.48 0.04,0.67 -0.18,0.38 -0.35,0.78 -0.53,1.16 0.04,-0.07 0.05,-0.14 0.04,-0.23 -0.02,-0.08 -0.05,-0.14 -0.11,-0.21 0.24,0.21 0.44,0.37 0.74,0.5 0.21,0.09 0.4,0.18 0.59,0.31 0.09,0.06 0.17,0.15 0.24,0.22 0.09,0.11 0.14,0.19 0.18,0.32 0.08,0.25 0.06,0.43 0,0.68 0,0.1 -0.22,0.51 -0.26,0.62 -0.09,0.18 -0.2,0.38 -0.26,0.57 -0.01,0.01 -0.03,0.07 -0.03,0.08 0.01,-0.01 0,-0.04 0,-0.06 0,0 -0.02,-0.05 -0.02,-0.05 0,0 0.07,0.05 0.07,0.05 0,0 0.11,0.08 0.12,0.09 0.13,0.08 0.28,0.17 0.4,0.25 0.18,0.11 0.34,0.22 0.49,0.36 0.17,0.16 0.28,0.31 0.36,0.53 0.07,0.24 0.07,0.42 0.02,0.66 -0.05,0.21 -0.12,0.38 -0.2,0.57 -0.08,0.18 -0.11,0.34 -0.15,0.53 0.02,-0.09 0.01,-0.16 -0.01,-0.24 -0.03,-0.08 -0.06,-0.14 -0.12,-0.21 0.12,0.13 0.34,0.21 0.51,0.26 0.31,0.1 0.62,0.18 0.93,0.3 0.14,0.05 0.22,0.12 0.31,0.23 0.05,0.08 0.08,0.14 0.1,0.23 0.03,0.07 0.01,0.2 0.01,0.26 0,0.08 -0.06,0.26 -0.08,0.34 -0.05,0.21 -0.2,0.49 -0.29,0.7 -0.02,0.06 -0.05,0.13 -0.08,0.19 -0.07,0.15 -0.15,0.32 -0.27,0.44 -0.06,0.09 -0.11,0.14 -0.23,0.16 -0.03,0.02 -0.14,0.02 -0.17,0.03 -0.03,0.02 -0.05,0.01 -0.08,0.03 0,0.01 0,0.01 0,0.01 -0.04,0.05 -0.04,0.16 -0.15,0.04 -0.03,-0.02 -0.04,-0.05 -0.05,-0.07 -0.04,-0.04 -0.05,-0.08 -0.06,-0.13 -0.04,-0.1 -0.04,-0.21 -0.03,-0.31 -0.02,-0.12 0.09,-0.56 0.13,-0.68 0,-0.02 0.01,-0.04 0.02,-0.06 0.06,-0.22 0.13,-0.44 0.17,-0.66 0.01,-0.01 0.03,-0.13 0.02,-0.14 0,0.03 0.01,0.09 0.01,0.11 0.02,0.07 0.04,0.12 0.08,0.18 0.07,0.1 0.15,0.15 0.26,0.2 0,0 -0.69,-0.17 -0.92,-0.23 -0.42,-0.13 -0.73,-0.26 -1.05,-0.58 -0.09,-0.09 -0.13,-0.17 -0.17,-0.29 -0.03,-0.12 -0.04,-0.21 -0.02,-0.33 0.05,-0.31 0.11,-0.54 0.23,-0.83 0.05,-0.1 0.1,-0.22 0.12,-0.33 0.01,-0.04 0.01,-0.03 0.02,0 0.01,0.05 0.01,0.03 -0.03,-0.01 -0.09,-0.08 -0.2,-0.15 -0.3,-0.22 -0.15,-0.1 -0.3,-0.19 -0.44,-0.29z"/>
   </g>
   <path class="fil5" d="M32.89 26.02c-0.12,-0.11 0.75,-2 0.56,-2.07 -0.59,-0.2 -1.37,-0.28 -1.74,-0.73 0.04,-0.25 0.09,-0.49 0.2,-0.73 0.33,-0.71 0.25,-0.91 -0.42,-1.35 -0.99,-0.65 -0.99,-0.65 -0.45,-1.7 0.43,-0.83 0.38,-1.03 -0.47,-1.41 -0.34,-0.16 -0.61,-0.4 -0.92,-0.68 0.31,-0.56 0.58,-1.16 0.97,-1.68"/>
   <g>
    <path class="fil4" d="M27.24 11.22c0,-0.02 0.01,-0.09 0.01,-0.09 0.06,-0.22 0.14,-0.38 0.24,-0.58 0.17,-0.29 0.34,-0.57 0.42,-0.89 -0.01,0.07 -0.01,0.12 0,0.19 0.01,0.07 0.02,0.12 0.06,0.18 -0.06,-0.1 -0.13,-0.16 -0.23,-0.23 -0.05,-0.05 -0.37,-0.21 -0.46,-0.26 -0.27,-0.15 -0.49,-0.29 -0.72,-0.5 -0.23,-0.21 -0.37,-0.4 -0.45,-0.71 -0.06,-0.31 -0.02,-0.54 0.1,-0.83 0.01,-0.08 0.32,-0.51 0.39,-0.6 0.03,-0.04 0.06,-0.07 0.1,-0.11 0.16,-0.13 0.32,-0.07 0.54,-0.03 0.25,0.07 0.18,0.32 0.15,0.5 0,0.01 -0.05,0.12 -0.06,0.13 -0.08,0.15 -0.15,0.3 -0.19,0.47 -0.01,0.06 -0.04,0.15 0,0.2 0,0.03 0.12,0.13 0.14,0.15 0.12,0.11 0.4,0.23 0.54,0.32 0.21,0.1 0.39,0.18 0.58,0.31 0.26,0.17 0.43,0.33 0.6,0.6 0.04,0.08 0.06,0.15 0.08,0.24 0.01,0.09 0.01,0.16 -0.01,0.25 -0.12,0.48 -0.29,0.78 -0.52,1.21 -0.04,0.08 -0.09,0.19 -0.1,0.28 -0.01,0 -0.01,0.01 -0.01,0.02 0,0.02 0.01,0.02 0,0 0,-0.03 -0.01,-0.03 0.02,-0.01 0.08,0.06 0.17,0.11 0.25,0.14 0.14,0.07 0.31,0.18 0.44,0.23 0.2,0.08 0.35,0.16 0.51,0.3 0.18,0.15 0.28,0.3 0.35,0.52 0.07,0.23 0.07,0.4 0.02,0.63 -0.05,0.2 -0.13,0.35 -0.23,0.52 -0.12,0.18 -0.21,0.36 -0.32,0.54 -0.01,0 -0.04,0.07 -0.04,0.05 0,-0.03 -0.01,-0.05 -0.02,-0.07 -0.01,-0.03 -0.01,-0.01 0,0.01 0.04,0.05 0.09,0.1 0.13,0.13 0.01,0.03 0.41,0.31 0.46,0.34 0.39,0.31 0.63,0.58 0.29,0.99 -0.18,0.22 -0.73,-0.08 -0.91,-0.17 -0.09,-0.04 -0.44,-0.21 -0.49,-0.26 -0.12,-0.08 -0.22,-0.15 -0.32,-0.25 -0.12,-0.13 -0.19,-0.23 -0.26,-0.39 -0.06,-0.19 -0.08,-0.34 -0.05,-0.54 0.03,-0.19 0.09,-0.33 0.19,-0.49 0.1,-0.18 0.18,-0.36 0.28,-0.54 0.04,-0.06 0.05,-0.1 0.07,-0.16 0.01,-0.02 0,0.01 0.01,0.04 0,0.01 0.02,0.05 0.02,0.05 -0.05,-0.04 -0.1,-0.06 -0.15,-0.08 -0.21,-0.08 -0.35,-0.18 -0.53,-0.28 -0.2,-0.1 -0.36,-0.19 -0.53,-0.34 -0.18,-0.17 -0.29,-0.32 -0.37,-0.55 -0.05,-0.21 -0.06,-0.37 -0.02,-0.58z"/>
   </g>
   <path class="fil5" d="M30.32 15.76c-0.26,-0.43 -0.73,-0.59 -1.1,-0.86 -0.36,-0.26 -0.53,-0.52 -0.26,-0.93 0.1,-0.17 0.19,-0.36 0.3,-0.53 0.3,-0.49 0.21,-0.83 -0.34,-1.05 -0.17,-0.07 -0.32,-0.18 -0.48,-0.26 -0.65,-0.32 -0.74,-0.64 -0.39,-1.27 0.19,-0.36 0.4,-0.7 0.49,-1.1 -0.21,-0.4 -0.6,-0.58 -0.96,-0.77 -1.07,-0.57 -1.18,-0.93 -0.49,-1.94 0.06,-0.09 0.15,-0.17 0.17,-0.29"/>
   <g>
    <path class="fil4" d="M52.76 14.87c0,0.01 0.01,0.02 0.01,0.03 0,0 -0.04,-0.04 -0.04,-0.04 -0.12,-0.1 -0.28,-0.19 -0.42,-0.27 -0.26,-0.16 -0.4,-0.32 -0.58,-0.55 -0.02,-0.03 -0.06,-0.07 -0.06,-0.11 0,-0.01 0,-0.02 0,-0.04 -0.05,-0.15 -0.13,-0.31 -0.16,-0.45 -0.05,-0.18 0,-0.41 0.22,-0.43 0.09,-0.01 0.17,0 0.26,0.02 0.18,0.04 0.3,0.11 0.45,0.22 0.09,0.06 0.34,0.29 0.42,0.31 0.24,0.12 0.45,0.23 0.67,0.4 0.1,0.08 0.18,0.16 0.26,0.27 0.04,0.05 0.11,0.2 0.14,0.27 0.01,0.03 0.02,0.09 0.03,0.11 0.03,0.15 0.03,0.26 0.01,0.41 -0.02,0.13 -0.05,0.24 -0.1,0.36 -0.1,0.25 -0.23,0.44 -0.38,0.66 -0.08,0.13 -0.29,0.35 -0.4,0.47 -0.04,0.05 -0.08,0.1 -0.13,0.15 -0.11,0.13 -0.38,0.17 -0.54,0.22 -0.34,0.1 -0.47,-0.21 -0.44,-0.51 0.02,-0.15 0.06,-0.27 0.12,-0.42 0.01,-0.08 0.3,-0.51 0.37,-0.62 0.09,-0.14 0.19,-0.3 0.26,-0.46 0,-0.01 0.02,-0.05 0.02,-0.07 0,0 0,0.05 0,0.05 0,0 0.01,0.02 0.01,0.02z"/>
   </g>
   <path class="fil5" d="M52.44 16.88c-0.07,-0.51 0.27,-0.84 0.53,-1.2 0.61,-0.87 0.59,-1.13 -0.36,-1.64 -0.37,-0.2 -0.57,-0.76 -1.11,-0.62"/>
   <g>
    <path class="fil4" d="M44.3 18.14c0.44,-0.32 0.77,-0.63 1.13,-1.04 0.78,-0.94 1.2,-1.78 1.45,-2.98 0.22,-1.31 0.1,-2.32 -0.36,-3.57 -0.35,-0.87 -0.72,-1.49 -1.35,-2.2 -0.6,-0.64 -1.14,-1.04 -1.93,-1.43 -0.82,-0.37 -1.49,-0.54 -2.38,-0.6 -0.84,-0.05 -1.5,0.02 -2.31,0.21 -0.14,0.03 -0.27,0.07 -0.41,0.1 -0.23,0.06 -1.24,0.44 -1.36,0.09 0.03,-0.28 0.9,-0.79 1.1,-0.89 0.15,-0.06 0.31,-0.11 0.46,-0.16 0.9,-0.26 1.63,-0.36 2.56,-0.35 1.04,0.04 1.83,0.21 2.79,0.62 0.94,0.43 1.59,0.9 2.31,1.64 0.74,0.81 1.19,1.54 1.61,2.55 0.55,1.47 0.7,2.66 0.44,4.22 -0.29,1.42 -0.78,2.42 -1.7,3.54 -0.42,0.49 -0.82,0.86 -1.34,1.24 -0.71,0.51 -1.32,0.82 -2.15,1.1 -1.55,0.46 -2.77,0.57 -4.35,0.2 -1.56,-0.44 -2.58,-1.12 -3.7,-2.28 -1.05,-1.16 -1.63,-2.17 -1.96,-3.69 -0.26,-1.54 -0.1,-2.71 0.42,-4.18 0.24,-0.65 0.5,-1.14 0.89,-1.71 0.6,-0.76 1.47,-1.86 2.56,-1.72 0.28,0.06 -1.59,2.08 -1.92,2.62 -0.21,0.39 -0.37,0.75 -0.51,1.17 -0.39,1.27 -0.52,2.27 -0.27,3.58 0.3,1.28 0.81,2.11 1.69,3.08 0.95,0.96 1.8,1.54 3.12,1.91 1.33,0.31 2.36,0.22 3.66,-0.17 0.69,-0.22 1.21,-0.48 1.81,-0.9z"/>
   </g>
   <path class="fil5" d="M36.75 6.8c-1.39,0.89 -2.4,2.09 -2.95,3.67 -0.95,2.71 -0.47,5.18 1.47,7.24 2.02,2.15 4.58,2.82 7.41,1.94 1.26,-0.4 2.38,-1.15 3.23,-2.14 1.59,-1.83 2.26,-4.49 1.2,-7.19 -1.46,-3.7 -5.17,-5.43 -9.11,-4.14 -0.41,0.14 -0.78,0.43 -1.22,0.52"/>
   <g>
    <path class="fil4" d="M49.01 3.23c-0.3,-0.06 -0.56,-0.11 -0.82,-0.26 -0.13,-0.08 -0.23,-0.15 -0.32,-0.27 -0.1,-0.13 -0.16,-0.25 -0.19,-0.42 -0.02,-0.23 0.01,-0.37 0.08,-0.59 0.09,-0.27 0.2,-0.45 0.35,-0.69 0.02,-0.05 0.08,-0.15 0.11,-0.19 0.01,-0.02 0.03,-0.05 0.04,-0.07 0.03,-0.07 0.36,-0.2 0.44,-0.22 0.18,-0.05 0.41,0 0.44,0.21 0.01,0.08 0.02,0.14 0.02,0.21 -0.01,0.17 -0.04,0.3 -0.08,0.46 -0.07,0.2 -0.17,0.42 -0.22,0.62 -0.02,0.1 -0.01,0.17 -0.01,0.07 -0.01,-0.05 -0.03,-0.09 -0.05,-0.13 -0.02,-0.02 -0.04,-0.03 -0.01,-0.02 0.15,0.05 0.29,0.07 0.45,0.09 0.34,0.04 0.75,0.1 1.06,0.27 0.07,0.04 0.13,0.08 0.19,0.15 0.04,0.04 0.07,0.12 0.1,0.17 0.03,0.08 0.05,0.14 0.05,0.23 0.02,0.06 -0.01,0.16 -0.02,0.22 0,0.08 -0.06,0.2 -0.08,0.28 -0.05,0.16 -0.2,0.43 -0.28,0.58 -0.14,0.26 -0.32,0.55 -0.51,0.77 -0.2,0.24 -0.4,0.1 -0.62,-0.01 -0.23,-0.12 -0.34,-0.26 -0.25,-0.53 0.08,-0.24 0.19,-0.53 0.29,-0.76 0.08,-0.16 0.13,-0.34 0.2,-0.51 0,-0.01 0.03,-0.09 0.03,-0.09 -0.01,0.03 -0.01,0.08 -0.01,0.11 0,0.08 0.02,0.13 0.04,0.2 0.02,0.05 0.07,0.11 0.1,0.15 0.05,0.07 0.1,0.11 0.18,0.15 -0.2,-0.09 -0.48,-0.14 -0.7,-0.18z"/>
   </g>
   <path class="fil5" d="M49.14 4.7c0.24,-0.37 0.97,-1.79 0.86,-1.84 -0.45,-0.24 -1.13,-0.23 -1.5,-0.44 -0.25,-0.15 -0.22,-0.3 -0.14,-0.55 0.13,-0.45 0.5,-0.83 0.36,-1.36"/>
   <g>
    <path class="fil4" d="M52.95 18.24c-0.21,-0.13 -0.8,-0.43 -0.87,-0.67 -0.02,-0.05 0.11,-0.39 0.13,-0.45 0.03,-0.07 0.15,-0.34 0.23,-0.35 0.33,-0.03 0.86,0.29 1.16,0.43 0.27,0.13 0.82,0.4 0.97,0.68 0.06,0.11 -0.1,0.42 -0.15,0.53 -0.06,0.14 -0.17,0.37 -0.36,0.35 -0.34,-0.03 -0.82,-0.34 -1.11,-0.52z"/>
   </g>
   <path class="fil5" d="M54.43 18.39c-0.49,-0.24 -1.75,-1.11 -2.21,-1.29"/>
   <g>
    <path class="fil4" d="M51.78 11.21c-0.01,0.09 0.01,0.17 0.05,0.25 -0.02,-0.04 -0.06,-0.06 -0.09,-0.09 -0.04,-0.03 -0.28,-0.13 -0.34,-0.17 -0.19,-0.09 -0.34,-0.17 -0.51,-0.31 -0.12,-0.09 -0.26,-0.28 -0.32,-0.41 -0.09,-0.18 0.14,-0.36 0.28,-0.43 0.07,-0.03 0.35,-0.14 0.42,-0.1 0.04,0.02 0.17,0.06 0.2,0.07 0.05,0.03 0.3,0.09 0.38,0.12 0.19,0.07 0.35,0.13 0.53,0.23 0.25,0.15 0.4,0.3 0.54,0.55 0.05,0.05 0.08,0.26 0.08,0.34 0,0 0,0 0,0 -0.01,0.52 -0.15,0.85 -0.43,1.28 0,0.02 -0.2,0.3 -0.23,0.34 -0.03,0.04 -0.06,0.08 -0.09,0.12 -0.1,0.14 -0.39,0.16 -0.55,0.2 -0.3,0.06 -0.45,-0.12 -0.45,-0.42 0.01,-0.1 0.02,-0.19 0.04,-0.29 0.05,-0.21 0.12,-0.38 0.22,-0.58 0.11,-0.22 0.25,-0.45 0.27,-0.7 0,0 0,0 0,0z"/>
   </g>
   <path class="fil5" d="M51.72 13.2c-0.07,-0.77 0.68,-1.21 0.69,-1.99 -0.29,-0.64 -1.21,-0.51 -1.54,-1.17"/>
   <g>
    <path class="fil4" d="M37.89 3.88c-0.12,0.04 -0.25,0.08 -0.37,0.11 -2.93,0.83 -5.73,1.93 -8.65,2.77 -0.22,0.05 -0.42,0.16 -0.62,0.24 -0.03,0.01 -0.06,0.02 -0.08,0.03 -0.18,0.06 -0.34,0.08 -0.53,0.06 -0.18,0 -0.56,-0.22 -0.46,-0.44 0.06,-0.11 0.28,-0.21 0.39,-0.28 0.04,-0.01 0.21,-0.12 0.26,-0.14 0.02,-0.01 0.05,-0.03 0.07,-0.04 0.23,-0.13 0.42,-0.25 0.67,-0.34 2.88,-1.08 5.68,-2.16 8.63,-3.04 0.12,-0.04 0.24,-0.07 0.36,-0.11 3.23,-0.95 6.52,-2.07 9.86,-2.6 0.63,-0.09 1.18,-0.25 1.6,0.24 0.32,0.36 -1.5,0.77 -1.6,0.8 -3.21,0.84 -6.34,1.85 -9.53,2.74z"/>
   </g>
   <path class="fil5" d="M49.04 0.32c-3.98,0.68 -7.81,1.99 -11.69,3.06 -2.92,0.8 -5.76,1.93 -8.65,2.87 -0.48,0.16 -0.93,0.6 -1.52,0.38"/>
   <g>
    <path class="fil4" d="M49.78 7.81c-0.03,-0.04 -0.08,-0.08 -0.11,-0.12 -0.1,-0.12 -0.16,-0.24 -0.18,-0.4 -0.02,-0.16 0,-0.29 0.08,-0.44 0.19,-0.38 0.37,-0.75 0.69,-1.05 0.09,-0.07 0.4,0.06 0.49,0.1 0.08,0.05 0.32,0.2 0.3,0.31 -0.05,0.36 -0.26,0.86 -0.41,1.19 0.04,-0.09 0.06,-0.16 0.05,-0.26 -0.01,-0.11 -0.04,-0.18 -0.11,-0.26 0,0 0.05,0.04 0.06,0.05 0.42,0.3 0.88,0.42 1.17,0.92 0.14,0.25 -0.09,0.4 -0.26,0.54 -0.12,0.1 -0.34,0.2 -0.49,0.15 -0.44,-0.16 -0.94,-0.41 -1.28,-0.73z"/>
   </g>
   <path class="fil5" d="M51.57 8.38c-0.35,-0.54 -1.04,-0.63 -1.48,-1.17 0.22,-0.42 0.45,-0.86 0.67,-1.3"/>
   <g>
    <path class="fil4" d="M49.61 5.75c-0.28,-0.23 -0.76,-0.63 -0.79,-1.03 0,-0.1 0.3,-0.26 0.38,-0.3 0.04,-0.02 0.34,-0.17 0.38,-0.16 0.19,0.04 0.59,0.41 0.8,0.54 0.01,0.01 0.07,0.04 0.07,0.04 0.05,0.01 0.42,0.25 0.48,0.3 0.04,0.03 0.09,0.06 0.1,0.11 0.01,0.01 0.01,0.02 0.01,0.03 0,0.24 0.01,0.28 0.09,0.53 0.09,0.27 0.04,0.43 -0.28,0.47 0,0 -0.04,0 -0.04,0 -0.15,0 -0.26,-0.02 -0.4,-0.06 -0.28,-0.09 -0.49,-0.23 -0.72,-0.4 -0.02,-0.02 -0.06,-0.05 -0.08,-0.07z"/>
   </g>
   <path class="fil5" d="M51.13 5.79c-0.47,0.13 -1.69,-0.93 -1.92,-1.38"/>
   <g>
    <path class="fil4" d="M50.69 8.98c0.05,-0.11 0.1,-0.25 0.16,-0.35 0.1,-0.21 0.19,-0.37 0.35,-0.54 0.11,-0.13 0.35,-0.26 0.52,-0.29 0.15,-0.03 0.29,0.25 0.33,0.36 0.03,0.07 0.12,0.36 0.09,0.42 -0.02,0.03 -0.07,0.19 -0.08,0.2 -0.02,0.03 -0.12,0.31 -0.14,0.36 -0.04,0.12 -0.08,0.24 -0.12,0.36 -0.08,0.22 -0.15,0.35 -0.26,0.56 -0.15,0.27 -0.49,0.52 -0.79,0.59 -0.26,0.07 -0.35,-0.21 -0.44,-0.39 -0.06,-0.14 -0.12,-0.37 -0.04,-0.51 0.03,-0.05 0.21,-0.38 0.22,-0.39 0.02,-0.02 0.18,-0.34 0.2,-0.38z"/>
   </g>
   <path class="fil5" d="M50.31 10.28c0.64,-0.23 0.85,-0.84 1.11,-1.38 0.15,-0.32 0.31,-0.59 0.64,-0.72"/>
   <g>
    <path class="fil4" d="M43.54 21.88c1.25,-0.48 2.51,-0.99 3.77,-1.45 1.89,-0.7 3.75,-1.3 5.69,-1.85 0.03,-0.01 0.07,-0.02 0.1,-0.03 0.19,-0.05 0.72,-0.16 0.89,-0.01 0.28,0.33 -0.37,0.75 -0.6,0.85 -0.01,0 -0.1,0.04 -0.1,0.04 -0.08,0.08 -5.03,1.9 -5.56,2.1 -1.25,0.48 -2.51,1 -3.75,1.5 -2.45,0.98 -4.86,1.92 -7.37,2.75 -0.69,0.24 -1.46,0.55 -2.19,0.65 -0.2,0.03 -0.36,0.04 -0.56,0.03 -0.04,0.01 -0.34,-0.02 -0.4,-0.03 -0.18,-0.03 -0.38,-0.08 -0.53,-0.1 -0.35,-0.03 0.08,-0.5 0.25,-0.61 0.21,-0.12 0.4,-0.16 0.64,-0.19 0.2,-0.04 0.39,-0.08 0.59,-0.14 0.63,-0.19 1.21,-0.48 1.82,-0.72 2.44,-0.92 4.87,-1.85 7.31,-2.79z"/>
   </g>
   <path class="fil5" d="M32.92 26.37c0.24,-0.31 0.51,-0.38 0.92,-0.39 0.9,-0.05 1.73,-0.48 2.58,-0.77 3.74,-1.31 7.41,-2.77 11.11,-4.19 1.86,-0.71 3.75,-1.32 5.63,-1.96 0.33,-0.12 0.62,-0.24 0.84,-0.51"/>
   <g>
    <path class="fil4" d="M43.74 10.3c-0.01,-0.02 -0.06,-0.08 -0.06,-0.09 -0.38,-0.5 -0.74,-0.82 -1.28,-1.16 -0.56,-0.32 -1.02,-0.49 -1.66,-0.6 -0.71,-0.12 -1.27,-0.11 -1.98,-0.01 -0.06,0 -0.26,0.06 -0.33,0.08 -0.14,0.04 -0.6,0.13 -0.64,-0.1 0,-0.14 0.38,-0.31 0.48,-0.36 0.12,-0.04 0.27,-0.1 0.39,-0.13 0.78,-0.16 1.4,-0.19 2.19,-0.09 0.73,0.12 1.27,0.3 1.91,0.66 0.63,0.38 1.04,0.75 1.48,1.32 0.02,0.01 0.07,0.08 0.08,0.1 0.41,0.59 0.64,1.09 0.83,1.77 0.25,1.05 0.24,1.87 -0.11,2.9 -0.22,0.59 -0.46,1.01 -0.87,1.5 -0.25,0.27 -0.51,0.59 -0.89,0.49 -0.21,-0.07 0.43,-0.82 0.51,-0.93 0.28,-0.42 0.46,-0.78 0.61,-1.26 0.27,-0.91 0.27,-1.62 0.05,-2.53 -0.16,-0.6 -0.36,-1.04 -0.71,-1.56z"/>
   </g>
   <path class="fil5" d="M43.28 16.6c1.3,-1.13 2.02,-2.89 1.52,-4.83 -0.69,-2.66 -3.17,-4.17 -6.09,-3.61 -0.31,0.06 -0.6,0.23 -0.92,0.25"/>
   <g>
    <path class="fil9" d="M92.85 85.55c-0.6,0.22 -1.25,0.01 -1.79,0.13 -0.95,0.22 -1.97,-0.07 -2.84,0.4 0.02,0.93 0.36,1.81 0.43,2.74 0.13,1.68 -0.19,3.29 -0.54,4.92 -0.47,2.14 -1.19,4.23 -1.5,6.4 -0.48,3.48 0.42,6.67 2.13,9.7 0.55,0.96 1.22,1.86 1.9,2.75 0.38,0.51 0.86,0.67 1.53,0.74 3.19,0.33 6.4,0.41 9.6,0.31 3.38,-0.1 6.74,-0.49 10.08,-1.15 2.33,-0.47 4.64,-1 6.91,-1.69 0.34,-0.1 0.74,-0.14 0.94,-0.56 -0.59,-1.38 -1.48,-2.73 -2.14,-4.19 -0.93,-2.08 -1.58,-4.22 -1.75,-6.47 -0.08,-1.08 0.01,-2.17 0.22,-3.24 0.48,-2.56 1.21,-5.08 1.42,-7.68 0.08,-0.91 0.07,-1.81 -0.09,-2.7 -0.13,-0.72 -0.37,-0.89 -1.16,-0.92 -1.62,-0.06 -3.24,-0.07 -4.86,-0.21 -2.84,-0.26 -17.48,0.35 -18.49,0.72z"/>
    <path class="fil10" d="M92.56 92.74c-0.8,0.89 -1.92,6.17 -1.94,7.59 -0.05,3.21 1.47,7.33 5.22,7.52 1.7,0.01 13.72,-0.47 14.57,-1.04 1.45,-0.96 -0.03,-5.36 -0.24,-7.08 -0.34,-2.67 -0.12,-5.13 -0.06,-7.79 -2.11,-0.31 -16.17,0.02 -17.55,0.8z"/>
    <g>
     <path class="fil7" d="M102.11 100.76c0.71,-0.04 1.59,-0.14 2.28,0 0.16,0.03 0.22,0.33 0.23,0.46 0.01,0.13 -0.03,0.38 -0.18,0.42 -0.69,0.21 -1.53,0.25 -2.25,0.35 -0.72,0.09 -1.56,0.18 -2.27,0.07 -0.31,-0.05 -0.32,-0.27 -0.37,-0.52 -0.06,-0.27 0.09,-0.43 0.35,-0.5 0.69,-0.18 1.49,-0.23 2.21,-0.28z"/>
    </g>
    <path class="fil5" d="M99.54 101.56c1.7,-0.11 3.39,-0.21 5.08,-0.32"/>
    <g>
     <path class="fil7" d="M102.05 95.06c0.47,-0.02 1.02,-0.05 1.49,-0.01 0.28,0.03 0.5,0.07 0.76,0.15 0.14,0.04 0.18,0.35 0.19,0.47 0,0.14 -0.05,0.38 -0.21,0.41 -0.25,0.05 -0.49,0.07 -0.75,0.09 -0.48,0.04 -0.96,0.07 -1.45,0.11 -0.72,0.08 -1.57,0.13 -2.27,-0.08 -0.3,-0.09 -0.28,-0.32 -0.29,-0.57 -0.01,-0.27 0.15,-0.41 0.41,-0.45 0.68,-0.09 1.43,-0.1 2.12,-0.12z"/>
    </g>
    <path class="fil5" d="M99.51 95.64c1.34,0.15 2.69,0.01 4.03,0.02 0.32,0.01 0.63,0.04 0.95,0.03"/>
    <g>
     <path class="fil7" d="M90.88 105.34c-0.31,-0.81 -0.6,-1.62 -0.91,-2.43 -0.78,-2.36 -0.87,-4.21 -0.13,-6.59 0.5,-1.53 0.69,-2.84 0.89,-4.41 0.02,-0.17 0.05,-0.31 0.11,-0.47 0.07,-0.18 0.15,-0.3 0.28,-0.44 0.15,-0.13 0.28,-0.2 0.47,-0.26 0.09,-0.06 0.41,-0.07 0.52,-0.08 0.59,-0.01 1.16,-0.04 1.74,-0.04 0.28,0.01 1.47,0.13 1.45,0.58 -0.07,0.25 -1.26,0.3 -1.46,0.31 -0.56,0.03 -1.12,0.09 -1.68,0.13 -0.09,0 -0.17,0.03 -0.25,0.05 -0.04,0 -0.05,0.03 -0.08,0.04 -0.01,0.01 -0.02,0.06 -0.03,0.07 -0.01,0.03 -0.04,0.19 -0.04,0.21 -0.14,1.69 -0.32,3.04 -0.82,4.67 -0.63,2.12 -0.54,3.74 0.17,5.82 0,0.1 0.81,2.14 0.91,2.4 0.06,0.14 0.12,0.29 0.17,0.43 0.03,0.06 0.06,0.13 0.12,0.17 0.06,0.04 0.14,0.04 0.21,0.04 0.59,0 1.09,-0.02 1.69,0.08 0.67,0.06 1.19,-0.19 1.9,-0.06 1.49,0.26 2.66,0.22 4.16,0.05 -0.08,0.01 -0.13,0.03 -0.19,0.07 -0.07,0.03 -0.11,0.07 -0.16,0.13 -0.04,0.06 -0.06,0.11 -0.08,0.18 -0.03,0.05 -0.02,0.15 -0.02,0.2 -0.26,-1.67 -0.87,-2.83 -0.96,-4.61 0,0.07 0.02,0.12 0.05,0.18 0.03,0.07 0.06,0.11 0.11,0.15 0.06,0.05 0.1,0.07 0.17,0.09 0.04,0.02 0.15,0.02 0.19,0.01 -0.67,0.07 -1.29,0.09 -1.96,0.09 -0.77,-0.02 -1.85,0.09 -2.47,-0.44 -0.46,-0.46 2.76,-0.59 2.79,-0.6 0.51,-0.03 0.99,-0.08 1.49,-0.14 0.1,-0.01 0.18,-0.01 0.27,0.02 0.1,0.03 0.16,0.06 0.24,0.12 0.07,0.07 0.12,0.13 0.17,0.21 0.04,0.09 0.06,0.17 0.06,0.26 0.15,1.6 0.8,2.9 1.07,4.49 0.02,0.11 0.01,0.19 -0.01,0.29 -0.03,0.1 -0.06,0.17 -0.13,0.25 -0.06,0.08 -0.12,0.13 -0.21,0.19 -0.09,0.05 -0.16,0.07 -0.27,0.09 -1.64,0.2 -2.91,0.24 -4.55,-0.05 -0.58,-0.08 -1.09,0.17 -1.89,0.06 -0.49,-0.08 -0.97,-0.07 -1.47,-0.07 -0.37,-0.01 -0.64,-0.08 -0.94,-0.29 -0.26,-0.2 -0.4,-0.41 -0.52,-0.71 -0.02,-0.02 -0.15,-0.38 -0.17,-0.44z"/>
    </g>
    <path class="fil5" d="M94.91 101.68c1.52,-0.15 3.04,-0.04 4.52,-0.25 0.03,1.73 0.84,3.17 1.03,4.79 -1.53,0.2 -3.01,0.24 -4.47,-0.05 -0.64,-0.12 -1.25,0.18 -1.89,0.06 -0.52,-0.09 -1.06,-0.08 -1.59,-0.08 -0.47,0 -0.73,-0.24 -0.87,-0.6 -0.37,-0.95 -0.73,-1.9 -1.07,-2.86 -0.72,-2.01 -0.82,-4.11 -0.13,-6.18 0.5,-1.49 0.7,-3.01 0.86,-4.54 0.05,-0.5 0.25,-0.74 0.84,-0.77 1.05,-0.04 2.1,-0.18 3.15,0.02"/>
    <g>
     <path class="fil7" d="M104.15 93.41c0.09,-0.83 0.19,-1.66 0.29,-2.49 0.02,-0.19 0.08,-0.32 0.21,-0.45 0.14,-0.13 0.27,-0.19 0.46,-0.22 1.69,-0.15 3.04,-0.08 4.7,0.24 0.18,0.04 0.31,0.12 0.43,0.26 0.11,0.15 0.16,0.28 0.16,0.47 -0.07,1.26 -0.35,2.36 -0.44,3.59 0,0 0,0.01 -0.01,0.02 -0.04,0.37 -0.39,1.14 -0.79,0.89 -0.13,-0.15 -0.08,-0.68 -0.09,-0.91 0,0 0,0 0,0 -0.04,-1.24 0.2,-2.38 0.22,-3.61 0,0.1 0.02,0.17 0.08,0.25 0.07,0.08 0.13,0.12 0.23,0.14 -1.55,-0.25 -2.81,-0.3 -4.37,-0.14 0.11,-0.02 0.19,-0.06 0.27,-0.13 0.07,-0.08 0.11,-0.16 0.13,-0.27 0,-0.01 -0.2,1.9 -0.27,2.5 -0.14,1.43 -0.25,2.77 -0.24,4.21 0.03,1.86 0.2,3.37 0.62,5.18 0.09,0.38 0.19,0.77 0.29,1.15 0.14,0.64 0.37,1.26 -0.11,1.73 -0.32,0.33 -0.9,-1.56 -0.94,-1.66 -0.1,-0.31 -0.21,-0.62 -0.3,-0.93 -0.57,-1.91 -0.78,-3.48 -0.82,-5.47 -0.01,-1.49 0.12,-2.87 0.29,-4.35z"/>
    </g>
    <path class="fil5" d="M105.95 105.84c-0.2,-0.93 -0.51,-1.83 -0.76,-2.75 -0.49,-1.76 -0.7,-3.53 -0.71,-5.33 -0.01,-2.27 0.34,-4.52 0.6,-6.87 1.56,-0.16 3.15,-0.09 4.71,0.22 -0.01,1.3 -0.33,2.48 -0.33,3.7 0,0.3 -0.11,0.63 -0.32,0.9"/>
    <g>
     <path class="fil7" d="M110.75 103.37c0.05,0.14 0.12,0.26 0.2,0.39 0.16,0.27 0.24,0.49 0.32,0.78 0.05,0.17 0.06,0.31 0.06,0.49 -0.02,0.19 -0.06,0.34 -0.16,0.51 -0.11,0.18 -0.22,0.29 -0.41,0.4 -0.18,0.1 -0.33,0.14 -0.53,0.17 -1.59,0.24 -2.54,0.7 -4.21,0.39 0.12,0.03 0.21,0.01 0.32,-0.03 -1.18,0.48 -1.91,0.32 -3.11,0.36 -0.6,0.03 -1.14,0.06 -1.74,0.01 -0.27,-0.03 -1.01,-0.2 -0.93,-0.62 0.08,-0.24 0.79,-0.26 0.99,-0.26 0.54,-0.01 1.05,-0.08 1.59,-0.15 0.94,-0.09 1.84,0.01 2.72,-0.38 0.14,-0.06 0.25,-0.07 0.4,-0.04 1.35,0.21 2.49,-0.26 3.82,-0.47 0.01,0 0.08,-0.01 0.09,-0.02 -0.01,0 -0.03,0.02 -0.04,0.03 0,0.01 -0.01,0.03 -0.01,0.02 0,-0.03 -0.01,-0.06 -0.02,-0.09 -0.04,-0.16 -0.09,-0.3 -0.19,-0.45 -0.12,-0.19 -0.21,-0.37 -0.3,-0.58 -0.34,-0.81 -0.41,-1.94 -0.84,-2.65 -0.09,-0.17 -0.12,-0.32 -0.09,-0.5 0.18,-1.42 -0.13,-2.67 0.05,-4.16 0.02,-0.12 0.02,-0.22 0.03,-0.34 0,-0.02 0,-0.02 0.01,0 0.01,0.03 0.03,0.05 0.05,0.07 0.05,0.05 0.07,0.04 -0.01,0.02 -0.15,-0.04 -0.34,-0.05 -0.49,-0.06 -0.67,-0.04 -1.33,-0.05 -2,-0.06 -0.66,-0.02 -1.29,0.05 -1.65,-0.5 -0.29,-0.41 1.77,-0.52 1.86,-0.53 0.61,-0.04 1.21,-0.06 1.83,-0.06 0.24,0 0.47,0.01 0.71,0.06 0.25,0.06 0.43,0.13 0.62,0.32 0.09,0.1 0.15,0.19 0.2,0.32 0.05,0.08 0.05,0.24 0.07,0.33 0.02,0.21 0,0.39 -0.03,0.6 -0.14,1.46 0.19,2.65 -0.01,4.2 0.01,-0.13 0,-0.23 -0.07,-0.35 0.57,1.07 0.51,1.8 0.9,2.83z"/>
    </g>
    <path class="fil5" d="M104.64 95.67c1.23,-0.02 2.47,-0.09 3.7,-0.05 1.02,0.03 1.11,0.22 1.01,0.99 -0.2,1.41 0.19,2.81 -0.06,4.22 0.61,1.02 0.48,2.25 1.12,3.27 0.12,0.19 0.19,0.4 0.25,0.61 0.11,0.39 -0.03,0.71 -0.51,0.77 -1.34,0.17 -2.64,0.73 -4.04,0.41 -0.93,0.45 -1.95,0.29 -2.93,0.38 -0.87,0.07 -1.76,0.18 -2.62,-0.06"/>
    <g>
     <path class="fil7" d="M95.93 94.01c-0.18,1.18 -0.35,2.26 -0.38,3.47 -0.02,1.61 -0.15,3.13 0.03,4.75 0.12,0.91 0.34,1.78 0.51,2.68 0.04,0.23 0.1,1.02 -0.25,1.07 -0.29,0.05 -0.55,-0.67 -0.61,-0.87 -0.28,-0.93 -0.53,-1.77 -0.72,-2.72 -0.26,-1.72 -0.15,-3.21 -0.14,-4.92 0.01,-1.27 0.17,-2.4 0.35,-3.65 0.1,-0.72 0.24,-1.54 0.26,-2.26 0.01,-0.15 0.03,-0.26 0.08,-0.4 0.07,-0.16 0.14,-0.27 0.27,-0.39 0.12,-0.11 0.22,-0.17 0.37,-0.22 0.07,-0.04 0.27,-0.07 0.36,-0.09 0.8,-0.12 1.46,-0.07 2.26,-0.1 1.25,-0.06 2.5,-0.08 3.75,-0.09 0.71,0.01 1.41,0.01 2.11,0.06 0.11,0.01 0.23,0.02 0.34,0.03 0.28,0.03 0.62,0.07 0.88,0.2 0.12,0.05 0.22,0.1 0.28,0.22 0.06,0.06 0.1,0.15 0.09,0.24 -0.01,0.1 -0.1,0.18 -0.19,0.2 -0.02,0.02 -0.24,0.03 -0.26,0.04 -0.15,0.06 -0.66,0.04 -0.83,0.06 -0.17,0.02 -0.38,0.02 -0.55,0.03 -0.61,0.02 -1.23,0.05 -1.85,0.07 -1.23,0.03 -2.47,0.11 -3.71,0.18 -0.71,0.04 -1.41,-0.01 -2.11,0.1 -0.05,0.01 -0.1,0.02 -0.15,0.03 0,0 0.03,-0.02 0.04,-0.03 0.04,-0.03 0.06,-0.06 0.08,-0.1 0,-0.02 -0.01,0.04 -0.01,0.05 0.05,0.01 -0.26,2.16 -0.3,2.36z"/>
    </g>
    <path class="fil5" d="M105.8 91.02c-0.49,-0.35 -6.94,-0.06 -7.45,-0.03 -0.72,0.04 -1.46,-0.03 -2.19,0.09 -0.39,0.07 -0.53,0.17 -0.56,0.52 -0.15,1.97 -0.66,3.9 -0.68,5.87 -0.01,1.62 -0.17,3.25 0.07,4.85 0.19,1.22 0.6,2.43 0.83,3.67"/>
    <g>
     <path class="fil7" d="M107.11 100.5c0.57,-0.04 1.3,-0.13 1.86,-0.05 0.13,0.02 0.23,0.33 0.25,0.44 0.02,0.11 0.03,0.37 -0.1,0.43 -0.57,0.27 -1.32,0.31 -1.94,0.4 -0.58,0.08 -1.29,0.16 -1.87,0.09 -0.26,-0.04 -0.3,-0.29 -0.36,-0.49 -0.07,-0.25 0.01,-0.43 0.26,-0.53 0.58,-0.22 1.28,-0.26 1.9,-0.29z"/>
    </g>
    <path class="fil5" d="M104.95 101.34c1.41,-0.26 2.86,-0.15 4.27,-0.43"/>
    <g>
     <path class="fil7" d="M107.49 82.78c0.03,0 0.08,0.01 0.11,0.01 0.11,0 0.19,0.02 0.29,0.06 0.09,0.05 0.16,0.09 0.23,0.16 0.07,0.08 0.11,0.15 0.15,0.24 0.04,0.1 0.06,0.18 0.06,0.29 -0.01,0.61 -0.09,1.06 -0.31,1.64 -0.13,0.33 -0.27,0.57 -0.52,0.83 -0.25,0.24 -0.48,0.37 -0.82,0.45 -0.34,0.06 -0.59,0.03 -0.91,-0.09 -0.32,-0.13 -0.53,-0.29 -0.78,-0.53 0,0 -0.01,-0.01 -0.01,-0.02 -0.15,-0.2 -0.13,-0.41 0.03,-0.6 0.15,-0.16 0.36,-0.16 0.54,-0.07 0.01,0.01 0.01,0.01 0.02,0.02 0.17,0.1 0.32,0.18 0.52,0.22 0.12,0.03 0.22,0.03 0.34,-0.01 0.11,-0.04 0.17,-0.09 0.25,-0.18 0.12,-0.14 0.18,-0.27 0.24,-0.44 0.15,-0.44 0.2,-0.77 0.19,-1.23 0,0.07 0.01,0.12 0.04,0.18 0.01,0.06 0.06,0.11 0.09,0.15 0.03,0.05 0.11,0.08 0.15,0.1 0.03,0.03 0.17,0.05 0.18,0.05 0,0 -0.09,0 -0.12,0 -1.43,0.01 -2.9,0.16 -4.33,0.09 -0.47,-0.03 -0.56,-0.09 -0.69,-0.49 -0.13,-0.37 0.48,-0.49 0.71,-0.53 1.41,-0.24 2.93,-0.33 4.35,-0.3z"/>
    </g>
    <path class="fil5" d="M102.42 83.63c1.75,-0.12 3.5,-0.27 5.27,-0.21 0.02,0.57 -0.08,1.06 -0.26,1.53 -0.4,1.04 -1.26,1.24 -2.13,0.5 -0.09,-0.08 -0.18,-0.16 -0.28,-0.25"/>
    <g>
     <path class="fil7" d="M92.7 101.08c0.04,0 0.15,0 0.18,-0.01 0.61,-0.06 1.18,-0.1 1.77,0.12 0.14,0.06 0.13,0.37 0.11,0.5 -0.02,0.1 -0.09,0.36 -0.21,0.38 -0.52,0.09 -1.04,0.12 -1.56,0.21 -0.07,0 -0.17,0.02 -0.25,0.03 -0.53,0.06 -1.16,0.02 -1.71,-0.01 -0.22,-0.01 -0.33,-0.26 -0.43,-0.41 -0.15,-0.24 -0.08,-0.45 0.18,-0.58 0.62,-0.31 1.27,-0.21 1.92,-0.23z"/>
    </g>
    <path class="fil5" d="M90.61 101.91c0.74,-0.37 1.55,-0.13 2.33,-0.21 0.58,-0.05 1.21,-0.09 1.82,0.01"/>
    <g>
     <path class="fil7" d="M101.15 81.4c0.1,0 0.19,0.01 0.28,0.03 0.21,0.04 0.36,0.09 0.54,0.2 0.17,0.1 0.28,0.2 0.39,0.36 0.17,0.25 0.24,0.46 0.28,0.75 0.04,0.11 0.02,0.44 -0.01,0.55 -0.02,0.13 -0.34,0.21 -0.44,0.22 -0.12,0.02 -0.38,0.02 -0.43,-0.11 -0.06,-0.12 -0.12,-0.27 -0.17,-0.39 -0.04,-0.1 -0.09,-0.25 -0.17,-0.33 -0.01,-0.01 -0.05,-0.02 -0.06,-0.03 -0.02,-0.01 -0.13,-0.03 -0.15,-0.03 -0.03,0 -0.06,0 -0.1,0.01 -0.06,0.01 -0.1,0.03 -0.15,0.06 -0.05,0.01 -0.28,0.23 -0.34,0.27 -0.01,0 -0.01,-0.01 -0.02,-0.01 -0.02,0 -0.04,0.06 -0.05,0.06 0,0.01 -0.05,0.17 -0.05,0.18 -0.09,0.3 -0.31,0.28 -0.57,0.26 -0.2,-0.02 -0.41,-0.11 -0.45,-0.32 -0.02,-0.07 -0.03,-0.14 -0.03,-0.22 0,-0.15 0.01,-0.26 0.06,-0.41 0.06,-0.18 0.14,-0.31 0.28,-0.45 0.2,-0.21 0.35,-0.35 0.61,-0.49 0.16,-0.11 0.55,-0.17 0.75,-0.16z"/>
    </g>
    <path class="fil5" d="M99.95 83.46c0.07,-0.33 -0.06,-0.68 0.25,-0.97 0.31,-0.28 0.6,-0.53 1.12,-0.44 0.53,0.1 0.65,0.45 0.75,0.84 0.05,0.2 0.07,0.42 0.1,0.63"/>
    <g>
     <path class="fil7" d="M97.46 83.56c0,0 0.02,0.04 0.02,0.04 0.2,0.59 0.26,1.07 0.1,1.69 -0.19,0.59 -0.47,0.96 -0.97,1.34 -0.23,0.16 -0.43,0.25 -0.71,0.3 -0.25,0.03 -0.44,0.02 -0.69,-0.04 -0.17,-0.02 -0.57,-0.24 -0.72,-0.35 -0.2,-0.14 -0.23,-0.41 -0.09,-0.61 0.11,-0.16 0.33,-0.23 0.52,-0.16 0.17,0.05 0.31,0.1 0.49,0.12 0.11,0 0.19,0 0.29,-0.03 0.09,-0.03 0.15,-0.07 0.23,-0.13 0.25,-0.22 0.42,-0.43 0.5,-0.76 0.08,-0.35 0.02,-0.63 -0.11,-0.95 0,0 0.01,0.01 0.01,0.02 0.05,0.1 0.11,0.17 0.2,0.23 0.11,0.06 0.21,0.08 0.33,0.06 -1.39,0.27 -2.65,0.26 -4.05,0.29 -0.45,0 -0.52,-0.05 -0.7,-0.42 -0.19,-0.35 0.41,-0.54 0.64,-0.6 1.29,-0.32 2.62,-0.22 3.89,-0.48 0.19,-0.03 0.34,-0.01 0.51,0.09 0.15,0.09 0.24,0.19 0.31,0.35z"/>
    </g>
    <path class="fil5" d="M92.1 84.23c1.56,-0.37 3.17,-0.21 4.75,-0.51 0.39,0.98 0.16,1.83 -0.61,2.42 -0.57,0.44 -1.27,0.16 -1.83,-0.23"/>
    <g>
     <path class="fil7" d="M111.46 81.16c0.13,0.01 0.24,0.02 0.36,0.05 0.34,0.08 0.58,0.2 0.83,0.44 0.24,0.24 0.37,0.47 0.46,0.8 0.06,0.26 0.07,0.47 0.02,0.73 -0.04,0.18 -0.33,0.22 -0.47,0.22 -0.12,-0.01 -0.37,-0.07 -0.41,-0.19 -0.05,-0.15 -0.1,-0.28 -0.17,-0.42 -0.06,-0.12 -0.13,-0.21 -0.23,-0.29 -0.1,-0.07 -0.18,-0.09 -0.29,-0.11 -0.02,-0.01 -0.13,0 -0.15,0 -0.11,0.01 -0.2,0.03 -0.31,0.05 -0.08,0.03 -0.16,0.05 -0.24,0.1 -0.03,0.02 -0.06,0.04 -0.08,0.06 -0.07,0.04 -0.19,0.33 -0.21,0.39 -0.11,0.29 -0.31,0.28 -0.57,0.32 -0.31,0.05 -0.43,-0.22 -0.44,-0.49 -0.01,-0.33 0.03,-0.58 0.19,-0.88 0.13,-0.22 0.27,-0.35 0.48,-0.49 0.21,-0.12 0.39,-0.18 0.62,-0.23 0.12,-0.05 0.48,-0.06 0.61,-0.06z"/>
    </g>
    <path class="fil5" d="M110.02 83.32c0.03,-0.97 0.27,-1.34 0.96,-1.49 1.04,-0.21 1.71,0.42 1.66,1.57"/>
    <g>
     <path class="fil7" d="M102.15 82.95c0.03,0 0.06,0 0.08,0 0.19,0 0.33,0.05 0.48,0.17 0.14,0.12 0.22,0.25 0.26,0.44 0.08,0.44 0.06,0.77 -0.04,1.21 -0.09,0.38 -0.21,0.68 -0.38,1.03 -0.11,0.23 -0.24,0.39 -0.45,0.54 -0.2,0.14 -0.38,0.21 -0.62,0.25 -0.23,0.03 -0.41,0.01 -0.64,-0.04 -0.22,-0.06 -0.39,-0.13 -0.58,-0.25 -0.17,-0.12 -0.28,-0.23 -0.41,-0.38 0,-0.01 -0.02,-0.03 -0.02,-0.04 0,-0.01 0,-0.02 0,-0.02 0,-0.17 -0.15,-0.26 -0.2,-0.41 -0.07,-0.25 0.12,-0.4 0.35,-0.42 0.03,-0.01 0.14,0.02 0.17,0.03 0.08,0.02 0.15,0.05 0.23,0.1 0.07,0.02 0.27,0.2 0.39,0.25 0.1,0.05 0.19,0.07 0.3,0.09 0.08,0.01 0.15,0.01 0.22,-0.01 0.06,-0.02 0.09,-0.04 0.13,-0.07 0.04,-0.02 0.06,-0.09 0.08,-0.12 0.11,-0.27 0.21,-0.51 0.27,-0.8 0.05,-0.26 0.06,-0.46 0,-0.71 0.03,0.11 0.08,0.19 0.16,0.27 0.1,0.08 0.19,0.11 0.31,0.11 0,0 -0.07,0.01 -0.09,0.01 -1.46,0.05 -2.97,0.19 -4.43,0.14 -0.46,-0.03 -0.56,-0.08 -0.7,-0.49 -0.13,-0.36 0.48,-0.5 0.71,-0.54 1.43,-0.26 2.97,-0.34 4.42,-0.34z"/>
    </g>
    <path class="fil5" d="M97.01 83.85c1.75,-0.15 3.49,-0.27 5.32,-0.27 0.16,0.68 -0.06,1.34 -0.35,1.95 -0.24,0.52 -0.88,0.6 -1.44,0.28 -0.28,-0.17 -0.47,-0.55 -0.92,-0.38"/>
    <g>
     <path class="fil7" d="M90.73 82.18c0.16,0.01 0.3,0.03 0.45,0.07 0.26,0.06 0.44,0.14 0.65,0.3 0.18,0.16 0.29,0.3 0.39,0.52 0.1,0.26 0.13,0.47 0.08,0.75 -0.02,0.13 -0.33,0.21 -0.44,0.22 -0.11,0.02 -0.38,0.03 -0.43,-0.09 -0.06,-0.12 -0.13,-0.29 -0.21,-0.4 -0.02,-0.03 -0.08,-0.05 -0.11,-0.07 -0.03,-0.03 -0.18,-0.05 -0.21,-0.06 -0.07,-0.02 -0.18,-0.02 -0.25,-0.02 -0.05,0 -0.09,0.01 -0.13,0.02 -0.06,0.02 -0.09,0.04 -0.14,0.07 -0.05,0.02 -0.14,0.17 -0.16,0.18 -0.01,0.01 -0.16,0.23 -0.18,0.26 -0.13,0.2 -0.38,0.15 -0.58,0.14 -0.26,-0.01 -0.41,-0.17 -0.39,-0.44 0.01,-0.17 0.03,-0.3 0.08,-0.47 0.11,-0.27 0.24,-0.46 0.47,-0.66 0.23,-0.18 0.45,-0.27 0.75,-0.31 0.04,-0.02 0.3,-0.02 0.36,-0.01z"/>
    </g>
    <path class="fil5" d="M89.48 84.08c0.18,-1.06 0.68,-1.43 1.55,-1.22 0.71,0.18 0.73,0.69 0.81,1.19"/>
    <g>
     <path class="fil7" d="M95.63 81.65c0.41,0.03 0.71,0.14 1.04,0.39 0.37,0.32 0.58,0.65 0.64,1.15 0.02,0.15 0.01,0.28 -0.05,0.43 -0.04,0.12 -0.37,0.13 -0.48,0.12 -0.13,0 -0.37,-0.06 -0.4,-0.21 0,-0.01 -0.02,-0.12 -0.05,-0.11 -0.1,-0.19 -0.2,-0.33 -0.38,-0.45 -0.13,-0.08 -0.25,-0.11 -0.4,-0.1 -0.01,0 -0.08,0.01 -0.08,0.01 -0.12,0.03 -0.2,0.08 -0.29,0.17 -0.13,0.13 -0.21,0.25 -0.3,0.42 -0.01,0 -0.03,0.03 -0.03,0.04 -0.13,0.25 -0.3,0.25 -0.55,0.27 -0.26,0.02 -0.45,-0.09 -0.47,-0.37 0,-0.03 0,-0.15 0,-0.16 0.04,-0.44 0.17,-0.76 0.47,-1.1 0.33,-0.32 0.65,-0.46 1.1,-0.5 0.01,-0.01 0.2,0 0.23,0z"/>
    </g>
    <path class="fil5" d="M94.32 83.78c0.01,-0.14 -0.01,-0.29 0.02,-0.42 0.13,-0.63 0.56,-1.05 1.09,-1.08 0.64,-0.04 1.18,0.38 1.34,1.03 0.03,0.14 0,0.29 -0.01,0.43"/>
    <g>
     <path class="fil7" d="M95.22 95.19c1.21,0.01 2.58,-0.11 3.77,0.12 0.22,0.04 0.33,0.28 0.31,0.49 -0.01,0.19 -0.15,0.37 -0.34,0.39 -1.23,0.14 -2.52,0.19 -3.75,0.23 -0.13,0.01 -0.27,0.01 -0.41,0.01 -1.16,0 -2.25,0.16 -3.39,-0.15 -0.43,-0.13 -0.48,-0.24 -0.48,-0.64 0,-0.34 0.44,-0.36 0.69,-0.36 1.07,-0.01 2.13,-0.1 3.21,-0.09 0.1,0.01 0.28,0 0.39,0z"/>
    </g>
    <path class="fil5" d="M90.92 95.66c1.28,0.3 2.6,0.14 3.89,0.16 1.5,0.03 3,-0.09 4.49,0"/>
    <g>
     <path class="fil7" d="M112.5 86.44c-0.16,0.1 -0.3,0.15 -0.49,0.18 -0.27,0.03 -0.47,0 -0.73,-0.08 -0.24,-0.09 -0.42,-0.19 -0.62,-0.35 -0.32,-0.27 -0.52,-0.56 -0.63,-0.97 -0.04,-0.19 0.22,-0.33 0.36,-0.38 0.1,-0.03 0.37,-0.08 0.45,0.01 0.16,0.17 0.31,0.31 0.51,0.44 0.1,0.06 0.19,0.1 0.3,0.13 0.07,0.01 0.13,0.02 0.2,0 0,-0.01 0.04,-0.04 0.05,-0.04 0,-0.01 0.04,-0.04 0.04,-0.04 0.07,-0.07 0.12,-0.14 0.18,-0.22 0.12,-0.19 0.18,-0.34 0.23,-0.55 0.02,-0.2 0.04,-0.37 0.08,-0.57 0.08,-0.34 0.31,-0.32 0.59,-0.29 0.21,0.03 0.38,0.16 0.43,0.37 0.03,0.14 0.08,0.35 0.08,0.48 0.03,0.5 -0.12,0.89 -0.4,1.3 -0.14,0.2 -0.28,0.34 -0.47,0.48 -0.02,0.02 -0.12,0.08 -0.16,0.1z"/>
    </g>
    <path class="fil5" d="M113 83.7c-0.07,0.29 -0.04,0.58 -0.04,0.86 0,0.64 -0.55,1.36 -1.03,1.43 -0.58,0.08 -1.29,-0.46 -1.52,-1.15"/>
    <g>
     <path class="fil7" d="M106.57 81.31c0,0 0.04,0.01 0.04,0.01 0.39,0.08 0.69,0.19 0.99,0.46 0.3,0.3 0.44,0.6 0.46,1.02 0,0.15 -0.02,0.27 -0.07,0.41 -0.03,0.1 -0.37,0.15 -0.46,0.16 -0.13,0.01 -0.38,-0.01 -0.42,-0.16 -0.03,-0.1 -0.04,-0.18 -0.08,-0.28 -0.05,-0.12 -0.1,-0.2 -0.22,-0.28 -0.13,-0.08 -0.26,-0.11 -0.41,-0.12 0,0 -0.01,0 -0.02,0 -0.1,0 -0.16,0.02 -0.24,0.08 -0.11,0.08 -0.2,0.17 -0.3,0.27 0.03,-0.1 -0.05,0.04 -0.05,0.05 -0.01,0 -0.04,0.08 -0.04,0.09 -0.1,0.27 -0.33,0.24 -0.57,0.22 -0.22,-0.01 -0.41,-0.1 -0.44,-0.34 -0.01,-0.03 -0.01,-0.06 -0.01,-0.08 -0.01,-0.24 0.02,-0.41 0.14,-0.62 0.17,-0.29 0.35,-0.48 0.63,-0.67 0.35,-0.21 0.66,-0.27 1.07,-0.22z"/>
    </g>
    <path class="fil5" d="M105.2 83.25c0.04,-0.24 0.01,-0.53 0.14,-0.72 0.26,-0.36 0.62,-0.68 1.16,-0.59 0.55,0.1 0.93,0.42 0.99,0.93 0.02,0.16 0,0.33 0.02,0.5"/>
    <g>
     <path class="fil7" d="M98.92 96.64c-0.02,1.29 -0.13,3.85 0.2,5.06 0.05,0.18 0.35,0.19 0.51,0.17 0.15,-0.02 0.39,-0.09 0.4,-0.25 0.16,-1.52 0.1,-3.4 0.17,-4.97 0.07,-1.65 0.23,-3.62 0.16,-5.25 -0.03,-0.36 -0.19,-0.38 -0.52,-0.46 -0.36,-0.09 -0.49,0.18 -0.55,0.46 -0.32,1.55 -0.33,3.66 -0.37,5.24z"/>
    </g>
    <path class="fil5" d="M99.86 90.93c-0.25,1.73 -0.42,9.39 -0.21,10.94"/>
    <g>
     <path class="fil11" d="M101.54 99.12c0.02,0.03 0.05,0.07 0.08,0.1 0.26,0.36 0.71,0.79 1.14,0.97 0.13,0.06 0.3,-0.08 0.37,-0.18 0.06,-0.07 0.14,-0.24 0.06,-0.32 -0.25,-0.3 -0.59,-0.66 -0.78,-0.98 -0.02,-0.03 -0.06,-0.09 -0.08,-0.12 -0.14,-0.2 -0.29,-0.43 -0.45,-0.63 -0.12,-0.16 -0.22,-0.33 -0.34,-0.49 -0.09,-0.13 -0.31,-0.1 -0.46,-0.11 -0.23,0 -0.34,0.12 -0.32,0.33 0.03,0.28 0.13,0.5 0.27,0.74 0.03,0.11 0.41,0.58 0.51,0.69z"/>
    </g>
    <path class="fil5" d="M101.1 97.36c0.05,0.56 0.58,1.15 0.93,1.59 0.14,0.18 0.58,0.72 1.11,1.05"/>
    <g>
     <g>
      <path class="fil11" d="M102.11 99.26c-0.21,0.17 -0.77,0.62 -1.04,0.68 -0.05,0.01 -0.28,-0.14 -0.33,-0.18 -0.05,-0.04 -0.22,-0.18 -0.19,-0.25 0.14,-0.3 0.66,-0.67 0.92,-0.92 0.36,-0.33 0.69,-0.68 1.05,-1.02 0.15,-0.14 0.32,-0.07 0.5,-0.02 0.22,0.06 0.26,0.22 0.19,0.42 -0.2,0.51 -0.66,0.94 -1.1,1.29z"/>
     </g>
     <path class="fil5" d="M103 97.54c-0.54,1.1 -1.87,1.76 -2.27,2.21"/>
    </g>
    <g>
     <path class="fil11" d="M96.77 99.16c0.03,0.03 0.06,0.07 0.08,0.1 0.26,0.36 0.72,0.78 1.14,0.97 0.14,0.06 0.31,-0.09 0.38,-0.18 0.05,-0.07 0.14,-0.24 0.06,-0.33 -0.25,-0.29 -0.59,-0.66 -0.78,-0.98 -0.02,-0.02 -0.06,-0.08 -0.08,-0.11 -0.14,-0.21 -0.3,-0.43 -0.45,-0.63 -0.12,-0.16 -0.22,-0.34 -0.34,-0.5 -0.1,-0.12 -0.31,-0.1 -0.46,-0.1 -0.24,0 -0.34,0.12 -0.32,0.33 0.03,0.28 0.13,0.49 0.27,0.74 0.03,0.1 0.41,0.57 0.5,0.69z"/>
    </g>
    <path class="fil5" d="M96.33 97.39c0.06,0.57 0.59,1.16 0.94,1.6 0.14,0.18 0.58,0.72 1.11,1.05"/>
    <g>
     <g>
      <path class="fil11" d="M97.35 99.3c-0.21,0.16 -0.78,0.62 -1.04,0.67 -0.05,0.02 -0.28,-0.14 -0.33,-0.17 -0.05,-0.04 -0.22,-0.18 -0.19,-0.25 0.13,-0.31 0.66,-0.68 0.92,-0.92 0.35,-0.33 0.69,-0.68 1.05,-1.02 0.15,-0.14 0.32,-0.07 0.49,-0.02 0.23,0.06 0.27,0.22 0.2,0.41 -0.21,0.51 -0.66,0.95 -1.1,1.3z"/>
     </g>
     <path class="fil5" d="M98.24 97.58c-0.55,1.09 -1.87,1.76 -2.27,2.21"/>
    </g>
    <g>
     <path class="fil11" d="M91.98 98.99c0.02,0.03 0.05,0.07 0.08,0.1 0.26,0.36 0.71,0.78 1.14,0.97 0.13,0.06 0.3,-0.09 0.37,-0.18 0.06,-0.07 0.14,-0.24 0.07,-0.33 -0.26,-0.29 -0.6,-0.66 -0.79,-0.98 -0.02,-0.02 -0.06,-0.08 -0.08,-0.11 -0.14,-0.21 -0.29,-0.44 -0.44,-0.63 -0.12,-0.16 -0.23,-0.34 -0.35,-0.5 -0.09,-0.13 -0.31,-0.1 -0.46,-0.1 -0.23,-0.01 -0.34,0.12 -0.32,0.33 0.03,0.28 0.13,0.49 0.28,0.74 0.03,0.1 0.41,0.57 0.5,0.69z"/>
    </g>
    <path class="fil5" d="M91.54 97.22c0.05,0.57 0.58,1.16 0.93,1.6 0.14,0.18 0.58,0.72 1.11,1.05"/>
    <g>
     <g>
      <path class="fil11" d="M92.55 99.13c-0.21,0.16 -0.77,0.62 -1.04,0.67 -0.05,0.02 -0.28,-0.14 -0.32,-0.17 -0.06,-0.04 -0.23,-0.18 -0.2,-0.26 0.14,-0.3 0.66,-0.67 0.92,-0.91 0.36,-0.33 0.69,-0.69 1.05,-1.02 0.15,-0.14 0.32,-0.07 0.5,-0.02 0.22,0.06 0.27,0.22 0.19,0.41 -0.2,0.51 -0.66,0.95 -1.1,1.3z"/>
     </g>
     <path class="fil5" d="M93.45 97.41c-0.55,1.09 -1.88,1.76 -2.28,2.21"/>
    </g>
    <g>
     <path class="fil11" d="M107.24 103.79c0.03,0.03 0.06,0.06 0.08,0.1 0.26,0.36 0.72,0.78 1.14,0.97 0.14,0.06 0.31,-0.09 0.38,-0.18 0.05,-0.08 0.13,-0.24 0.06,-0.33 -0.25,-0.29 -0.59,-0.66 -0.78,-0.98 -0.02,-0.02 -0.06,-0.08 -0.08,-0.11 -0.14,-0.21 -0.3,-0.44 -0.45,-0.63 -0.12,-0.16 -0.22,-0.34 -0.34,-0.5 -0.1,-0.13 -0.31,-0.1 -0.46,-0.1 -0.24,-0.01 -0.34,0.12 -0.32,0.33 0.03,0.28 0.13,0.49 0.27,0.74 0.03,0.1 0.41,0.57 0.5,0.69z"/>
    </g>
    <path class="fil5" d="M106.8 102.02c0.05,0.57 0.59,1.16 0.94,1.6 0.14,0.18 0.58,0.72 1.11,1.05"/>
    <g>
     <g>
      <path class="fil11" d="M107.82 103.93c-0.21,0.16 -0.78,0.62 -1.04,0.67 -0.05,0.02 -0.28,-0.14 -0.33,-0.17 -0.05,-0.04 -0.22,-0.18 -0.19,-0.26 0.13,-0.3 0.66,-0.67 0.91,-0.91 0.36,-0.33 0.7,-0.69 1.06,-1.02 0.15,-0.14 0.32,-0.07 0.49,-0.02 0.23,0.06 0.27,0.22 0.2,0.41 -0.21,0.51 -0.66,0.95 -1.1,1.3z"/>
     </g>
     <path class="fil5" d="M108.71 102.21c-0.55,1.09 -1.87,1.76 -2.27,2.21"/>
    </g>
    <g>
     <path class="fil4" d="M103.53 112.6c2.43,-0.21 4.66,-0.53 7.05,-0.99 2.4,-0.49 4.64,-1 6.98,-1.7 0.21,-0.05 0.38,-0.11 0.59,-0.19 0.34,-0.15 0.54,-0.34 0.71,-0.65 0.04,-0.09 0.06,-0.16 0.07,-0.26 0,-0.1 -0.01,-0.17 -0.05,-0.26 -0.64,-1.43 -1.47,-2.74 -2.13,-4.16 -0.95,-2.18 -1.5,-3.94 -1.72,-6.29 -0.07,-1.11 0.01,-2.02 0.2,-3.11 0.51,-2.63 1.16,-5.06 1.39,-7.74 0.07,-1 0.05,-1.82 -0.12,-2.82 -0.04,-0.19 -0.08,-0.36 -0.16,-0.54 -0.1,-0.19 -0.19,-0.32 -0.36,-0.46 -0.18,-0.13 -0.33,-0.19 -0.55,-0.24 -0.2,-0.04 -0.39,-0.06 -0.6,-0.07 -0.97,-0.02 -1.94,-0.03 -2.91,-0.06 -0.64,-0.02 -1.29,-0.04 -1.94,-0.05 -0.25,0 -2.19,0.08 -2.22,0.45 0.09,0.1 1.86,0.19 2.14,0.22 0.69,0.1 1.35,0.15 2.05,0.19 0.93,0.04 1.9,0.05 2.82,0.11 0.14,0.01 0.28,0.02 0.41,0.05 0.06,0.02 0.12,0.04 0.17,0.07 0.04,0.04 0.06,0.08 0.08,0.13 0.04,0.05 0.08,0.29 0.1,0.36 0.14,0.91 0.14,1.68 0.07,2.6 -0.28,2.63 -0.95,5.05 -1.47,7.64 -0.22,1.17 -0.31,2.16 -0.24,3.35 0.22,2.47 0.78,4.33 1.77,6.62 0.65,1.42 1.48,2.73 2.11,4.15 -0.03,-0.06 -0.03,-0.1 -0.03,-0.16 0,-0.06 0.01,-0.11 0.04,-0.17 -0.04,0.07 -0.07,0.1 -0.15,0.13 -0.02,0.03 -0.38,0.12 -0.44,0.14 -2.3,0.67 -4.5,1.17 -6.86,1.65 -2.34,0.45 -4.52,0.75 -6.9,0.95 -1.03,0.08 -2.04,0.13 -3.07,0.16 -3.28,0.08 -6.25,0 -9.51,-0.32 -0.24,-0.03 -0.45,-0.06 -0.67,-0.16 -0.19,-0.09 -0.29,-0.18 -0.42,-0.34 -0.67,-0.9 -1.29,-1.73 -1.85,-2.69 -1.74,-3.23 -2.47,-5.75 -2.07,-9.37 0.33,-2.19 0.99,-4.22 1.46,-6.37 0.38,-1.8 0.64,-3.22 0.52,-5.07 -0.09,-0.92 -0.39,-1.75 -0.45,-2.66 0,0.08 -0.02,0.15 -0.06,0.22 -0.05,0.07 -0.1,0.12 -0.18,0.16 0.63,-0.29 1.42,-0.21 2.13,-0.26 0.12,-0.02 0.42,-0.05 0.53,-0.09 0.64,-0.13 1.01,0.1 1.84,-0.18 0.04,-0.02 0.06,-0.02 0.1,-0.03 0.01,0 -0.04,-0.02 -0.04,-0.02l-0.02 -0.04c0.02,0.02 0.01,0.08 0.01,0.1 -0.01,0.22 0.04,0.53 -0.01,0.72 -0.07,0.2 -0.14,0.4 -0.25,0.58 -0.11,0.17 -0.2,0.25 -0.4,0.33 -0.18,0.06 -0.33,0.1 -0.52,0.1 -0.11,0 -0.19,-0.01 -0.29,-0.04 -0.06,-0.01 -0.18,-0.07 -0.23,-0.1 -0.33,-0.21 -0.04,0.21 0.03,0.3 0.11,0.1 0.2,0.16 0.34,0.22 0.28,0.11 0.52,0.11 0.82,0.06 0.37,-0.08 0.6,-0.21 0.85,-0.48 0.19,-0.24 0.29,-0.45 0.41,-0.72 0.16,-0.39 0.08,-0.53 0.13,-0.89 0.02,-0.16 0.02,-0.28 -0.03,-0.43 -0.06,-0.16 -0.14,-0.27 -0.28,-0.38 -0.15,-0.1 -0.29,-0.14 -0.47,-0.15 -0.18,0 -0.32,0.02 -0.49,0.08 -0.51,0.14 -1.1,-0.02 -1.74,0.09 -0.35,0.09 -0.99,0.07 -1.37,0.08 -0.59,0.01 -1.01,0.06 -1.56,0.31 -0.1,0.06 -0.17,0.12 -0.23,0.21 -0.06,0.1 -0.08,0.19 -0.08,0.3 0.05,0.95 0.32,1.76 0.4,2.7 0.09,1.73 -0.19,3.1 -0.56,4.79 -0.51,2.18 -1.18,4.2 -1.53,6.43 -0.44,3.87 0.31,6.58 2.17,10.03 0.58,1.01 1.22,1.87 1.93,2.81 0.26,0.33 0.5,0.53 0.9,0.72 0.37,0.16 0.67,0.21 1.08,0.26 3.32,0.33 6.34,0.4 9.69,0.31 1.05,-0.03 2.09,-0.09 3.14,-0.17z"/>
    </g>
    <path class="fil5" d="M89.93 86.02c0.27,0.41 0.69,0.51 1.16,0.4 0.58,-0.13 0.78,-0.57 0.97,-1.04 0.12,-0.28 0.04,-0.54 0.08,-0.81 0.05,-0.42 -0.24,-0.62 -0.68,-0.46 -0.61,0.22 -1.25,0.01 -1.79,0.13 -0.96,0.22 -1.98,-0.07 -2.85,0.4 0.02,0.93 0.36,1.81 0.43,2.74 0.13,1.67 -0.19,3.29 -0.54,4.92 -0.46,2.14 -1.19,4.23 -1.49,6.4 -0.49,3.48 0.41,6.67 2.13,9.7 0.54,0.96 1.21,1.86 1.89,2.75 0.38,0.51 0.86,0.67 1.54,0.74 3.19,0.33 6.39,0.41 9.59,0.31 3.39,-0.1 6.75,-0.49 10.08,-1.15 2.34,-0.47 4.64,-1 6.91,-1.69 0.34,-0.1 0.75,-0.14 0.94,-0.56 -0.59,-1.38 -1.48,-2.73 -2.13,-4.19 -0.93,-2.08 -1.59,-4.22 -1.76,-6.47 -0.08,-1.08 0.02,-2.17 0.22,-3.24 0.48,-2.56 1.21,-5.08 1.43,-7.68 0.07,-0.91 0.06,-1.81 -0.1,-2.7 -0.13,-0.72 -0.37,-0.89 -1.16,-0.92 -1.62,-0.06 -3.24,-0.07 -4.86,-0.21 -0.67,-0.06 -1.46,-0.02 -2.18,0.09"/>
   </g>
  </g>
 </g>
</svg>
