<?xml version="1.0" encoding="UTF-8"?>
<!DOCTYPE svg PUBLIC "-//W3C//DTD SVG 1.1//EN" "http://www.w3.org/Graphics/SVG/1.1/DTD/svg11.dtd">
<!-- Creator: CorelDRAW -->
<svg xmlns="http://www.w3.org/2000/svg" xml:space="preserve" width="1222px" height="1551px" version="1.1" style="shape-rendering:geometricPrecision; text-rendering:geometricPrecision; image-rendering:optimizeQuality; fill-rule:evenodd; clip-rule:evenodd"
viewBox="0 0 1623.1 2060.04"
 xmlns:xlink="http://www.w3.org/1999/xlink"
 xmlns:xodm="http://www.corel.com/coreldraw/odm/2003">
 <defs>
  <style type="text/css">
   <![CDATA[
    .str0 {stroke:#2B2A29;stroke-width:3.14;stroke-miterlimit:22.9256}
    .str2 {stroke:#FDD4D4;stroke-width:3.14;stroke-miterlimit:22.9256}
    .str1 {stroke:#F5BBB1;stroke-width:15.68;stroke-linejoin:round;stroke-miterlimit:22.9256}
    .fil10 {fill:none}
    .fil5 {fill:none;fill-rule:nonzero}
    .fil9 {fill:#FEFEFE}
    .fil1 {fill:#E9D1E6}
    .fil7 {fill:#453557}
    .fil2 {fill:#94ACFF}
    .fil6 {fill:#F5BBB1}
    .fil0 {fill:#FDD4D4}
    .fil8 {fill:#FDD4D4}
    .fil4 {fill:#262749;fill-rule:nonzero}
    .fil3 {fill:#E51A4B;fill-rule:nonzero}
   ]]>
  </style>
   <clipPath id="id0">
    <path d="M727.34 569.49c295.26,0 534.62,239.35 534.62,534.61 0,295.26 -239.36,534.62 -534.62,534.62 -295.26,0 -534.61,-239.36 -534.61,-534.62 0,-295.26 239.35,-534.61 534.61,-534.61z"/>
   </clipPath>
 </defs>
 <g id="Camada_x0020_1">
  <metadata id="CorelCorpID_0Corel-Layer"/>
  <path class="fil0" d="M378.7 62.03c-191.7,95.01 -425.03,295.23 -359.42,532.99 79.65,288.66 191.57,253.94 89.57,617.2 -119.78,426.59 -211.95,631.21 286.76,806 192.31,67.39 379.85,50.62 566.47,-30.81 175.1,-76.4 173.18,-175.78 213.87,-345.99 94.99,-397.37 129.64,-380.16 356.59,-689.31 167.46,-228.13 100.11,-520.94 -180.73,-613.33 -244.28,-80.36 -235.46,-41.29 -463.68,-207.32 -179.82,-130.81 -281.2,-178.39 -495.53,-76.06l-13.9 6.63z"/>
  <ellipse class="fil1 str0" cx="739.77" cy="1110.63" rx="625.82" ry="599.35"/>
  <polygon class="fil2" points="895.47,1447.71 410.96,1346.25 438.77,1615.96 648.04,1741.72 908.34,1669.46 "/>
  <g id="_1839122017840">
   <path class="fil3" d="M1135.03 1445.14c-157.56,-165.87 -589.18,-616.33 -672.73,-801.55 -36.31,-80.53 195.18,-117.94 248.59,-118.12 442.43,-1.47 753.06,508.13 477.66,894.92l-17.65 24.79 -18.25 11.33 -17.62 -11.37zm-948.65 -562.47c28.02,-55.38 46.98,-78.05 97.42,-114.1 212.04,157.12 554.21,584.83 723.96,805.25 21.12,27.43 -4.8,28.92 -41.78,46.75 -464.2,223.95 -988.22,-255.97 -779.6,-737.9zm213.48 860.3c365.51,172.34 769.54,35.5 955.36,-318.78 324.3,-618.27 -366.58,-1286.5 -986.98,-948.68 -480.1,261.43 -503.03,984.1 3.76,1252.69l27.86 14.77z"/>
   <g>
    <g>
     <path class="fil4" d="M787.57 1016.22c-115.9,-135.33 -231.78,-270.68 -347.71,-405.98 1.16,1.4 1.81,2.62 2.33,4.36 0.48,1.74 0.57,3.18 0.32,4.96 -0.29,1.75 -0.81,3.08 -1.75,4.57 -1.01,1.5 -2.01,2.49 -3.51,3.47 113.54,-67.69 212.66,-92.39 344.5,-85.52 78.9,6.97 138.19,22.89 209.77,56.72 37.23,18.57 67.14,37.25 100.14,62.58 7.44,5.9 81,70.03 85.42,68.98 1.17,-15.9 -64.16,-74.92 -75.53,-84.39 -33.21,-26.33 -63.37,-45.78 -101.03,-65.23 -73.86,-36.11 -135.18,-53.2 -217.04,-61.05 -137.29,-8.12 -240.74,17.27 -359.13,87.49 -1.64,1.07 -2.72,2.13 -3.82,3.76 -1.04,1.65 -1.58,3.07 -1.9,4.99 -0.26,1.92 -0.16,3.45 0.34,5.32 0.57,1.87 1.28,3.2 2.53,4.7 115.63,135.56 231.32,271.08 346.88,406.71 131.21,154.02 262.57,307.92 394.2,461.59 1.5,1.69 2.87,2.73 4.91,3.72 2.05,0.91 3.75,1.29 5.99,1.33 2.26,-0.03 3.94,-0.38 6.02,-1.27 2.05,-0.97 3.46,-2.02 4.96,-3.71 88.05,-106.47 129.34,-205.12 142.47,-342.52 4.85,-82.35 -2.65,-145.83 -27.11,-224.58 -4.47,-13.57 -9.24,-26.56 -14.62,-39.8 -23.39,-52.17 -56.6,-120.76 -105.95,-154.5 -2.9,-1.78 70.55,120.88 95.38,186.29 1.63,4.83 3.19,9.66 4.71,14.52 22.43,76.01 29,137.11 23.68,216.22 -13.6,131.47 -53.42,225.67 -137.96,327.5 1.19,-1.32 2.26,-2.11 3.87,-2.87 1.59,-0.69 2.91,-0.98 4.64,-1 1.76,0.03 3.1,0.33 4.71,1.04 1.58,0.76 2.68,1.59 3.84,2.91 0.36,0.18 -290.81,-340.16 -394.55,-461.31z"/>
     <path class="fil4" d="M205.64 916.53c26.56,-71.73 56.41,-122.8 105.86,-181.16 -1.21,1.35 -2.37,2.2 -4.01,2.97 -1.66,0.71 -3,1.01 -4.81,1.03 -1.83,-0.03 -3.18,-0.33 -4.86,-1.08 -1.64,-0.78 -2.78,-1.64 -3.98,-3 -0.78,-0.58 465.62,544.14 675.47,784.3 15.4,17.47 55.86,63.77 75.22,75.77 0,-0.14 0.02,-0.29 0.06,-0.41 0.07,-0.19 0.14,-0.18 0.27,-0.24 0.06,-0.03 0.31,0.05 0.38,0.08 0.26,0.11 0.35,0.57 0.55,0.78 0.26,0.28 0.51,0.17 0.8,0.1 0.29,-0.07 0.42,-0.41 0.59,-0.61 0.19,-0.22 0.16,-0.67 0.2,-0.91 -0.02,-0.38 -0.11,-0.65 -0.29,-0.99 -9.9,-21.33 -49.62,-68.25 -65.13,-86.82 -221.66,-263.52 -445.54,-525.41 -669.27,-787.17 -1.35,-1.54 -2.63,-2.5 -4.47,-3.39 -1.87,-0.83 -3.4,-1.17 -5.45,-1.21 -2.05,0.02 -3.58,0.34 -5.47,1.16 -1.87,0.87 -3.15,1.83 -4.52,3.36 -51.75,60.88 -83.02,114.15 -110.95,188.98 -18.3,52.78 -27.79,97.05 -32.74,152.67 -5.38,82.44 1.77,146.04 25.6,225.16 27.11,81.45 59.32,139.01 114.22,205 56.88,64.37 108.77,105.12 185.15,144.3 74.6,35.58 136.29,52.43 218.58,59.5 65.4,3.96 117.08,-0.24 180.88,-15.04 55.21,-15.39 128.77,-38.2 169.45,-82.32 2.07,-2.49 -130.61,52.25 -199.68,67.21 -52.48,8.9 -95.75,10.9 -148.86,7.03 -78.81,-7.58 -137.93,-24.16 -209.26,-58.67 -72.9,-37.89 -122.4,-77.02 -176.73,-138.73 -52.39,-63.21 -83.13,-118.23 -109.09,-196.12 -22.82,-75.67 -29.72,-136.47 -24.72,-215.34 4.63,-53.23 13.63,-95.67 31.01,-146.19z"/>
     <path class="fil4" d="M225.35 1625.71c59.81,57.8 112.85,95.93 186.83,133.89 91.95,44.21 168.04,65.22 269.6,74.5 101.81,6.42 180.3,-2.57 277.92,-32.17 100.58,-33.68 171.61,-73.58 253.1,-141.45 79.43,-70.24 129.72,-134.24 178.18,-228.48 43.99,-91.95 64.86,-168 73.79,-269.46 6.07,-101.62 -3.13,-179.92 -33.14,-277.15 -12.01,-36.34 -25.06,-68.05 -42.12,-102.3 -9.02,-16.98 -84.9,-143.58 -106.58,-143.28 0.29,1.85 83.57,138.13 91.55,153.99 15.64,32.67 27.65,62.97 38.67,97.48 28.25,94.76 36.65,170.89 30.13,269.6 -9.26,98.29 -29.81,171.94 -72.79,260.9 -47.28,91.04 -96.1,152.84 -173.14,220.66 -78.98,65.46 -147.69,103.93 -245.01,136.35 -94.41,28.46 -170.27,37.08 -268.66,30.75 -98.09,-9.08 -171.62,-29.44 -260.37,-72.27 -71.37,-36.74 -122.54,-73.62 -180.19,-129.52 -14.07,-14.05 -27.1,-28.1 -40.05,-43.19 -65.31,-78.85 -103.74,-147.4 -136.06,-244.51 -28.39,-94.22 -37.06,-169.94 -30.75,-268.11 9.03,-97.91 29.27,-171.36 71.92,-259.96 46.97,-90.83 95.45,-152.58 172.08,-220.27 78.69,-65.46 147.1,-104.09 244.07,-136.67 94.23,-28.68 169.98,-37.66 268.22,-31.72 91.79,8.04 161.21,25.88 245.31,63.43 5.24,2.43 10.44,4.91 15.63,7.45 108.54,58.17 139.61,91.67 225.9,161.5 13.1,10.2 -76.58,-101.4 -216.7,-179.94 -18.61,-9.36 -36.82,-17.6 -56.13,-25.43 -73.2,-28.5 -133.98,-42.71 -212.23,-49.93 -101.55,-6.81 -179.86,2.07 -277.43,31.32 -100.54,33.31 -171.51,73.12 -253.14,140.71 -79.58,69.99 -129.9,133.94 -178.67,228.04 -44.3,91.84 -65.28,167.93 -74.64,269.48 -6.5,101.76 2.53,180.24 32.06,277.9 33.58,100.58 73.51,171.6 141.3,253.2 13.44,15.61 26.95,30.13 41.54,44.66z"/>
    </g>
   </g>
   <path class="fil5" d="M1177.43 730.15c103.78,121.19 148.6,273.09 137.18,420.7 -9.4,121.54 -56.94,240.09 -141.07,336.12l-744.6 -869.49c107.8,-68.35 232.23,-97.08 353.76,-87.68 147.66,11.42 290.9,79.11 394.73,200.35zm-130.11 864.93c-107.8,68.36 -232.23,97.09 -353.76,87.68 -147.66,-11.42 -290.9,-79.11 -394.73,-200.35 -103.78,-121.19 -148.6,-273.08 -137.18,-420.7 9.4,-121.54 56.93,-240.08 141.06,-336.12l744.61 869.49zm235.23 -955.1c-128.81,-150.4 -306.27,-234.35 -489.08,-248.5 -182.85,-14.14 -371.17,41.53 -521.64,170.38 -150.4,128.81 -234.35,306.28 -248.5,489.08 -14.15,182.85 41.53,371.17 170.38,521.64 128.8,150.4 306.27,234.36 489.08,248.5 182.84,14.15 371.17,-41.53 521.64,-170.38 150.4,-128.8 234.35,-306.27 248.5,-489.08 14.15,-182.84 -41.53,-371.17 -170.38,-521.64z"/>
  </g>
  <g id="_1839121996816">
   <g>
    <path class="fil6" d="M279.05 1022.24c-0.01,0.08 -0.02,0.15 -0.03,0.21 0.01,-0.07 0.02,-0.14 0.03,-0.21zm427.62 40.22c-32.58,-23.17 -66.72,-42.72 -100.52,-63.95 -18.98,-12.02 -36.13,-24.11 -54.03,-37.64 -33.93,-27.49 -69.25,-55.32 -89,-95.11 -8.4,-19.61 -10.36,-34.82 -5.74,-55.75 2.44,-9.3 5.44,-16.4 10.02,-24.82 1.51,-2.51 3.14,-5.18 4.89,-7.89 -30.66,22.24 -61.12,43.48 -90.47,67.65 -9.84,8.26 -19.05,16.51 -28.21,25.52 -39.28,40.2 -60.36,73.7 -70.89,129.46 -0.35,0.66 -3.16,19.08 -3.68,22.31 -0.01,0.09 0.03,-0.17 -0.02,0.21 -3.15,29.03 2.2,56.68 7.83,85.06 0.35,1.71 4.54,23.23 1.93,25.45l5.35 21.99c0.03,-0.8 0.13,-1.58 0.32,-2.32 1.28,-6.01 19.12,27.17 19.12,27.17 39.26,70.32 78.13,139.4 120.05,208.29 7.91,12.9 15.91,25.71 24.03,38.47 32.95,51.11 83.66,129.68 131.7,167.24 12.99,9.23 26.16,17.88 39.5,26.58 0.42,0.28 2.13,1.42 4.33,2.99 5.77,4.09 14.93,11.06 13.45,12.97 -0.21,0.26 -0.64,0.35 -1.24,0.3l4.83 5.25 27.83 -4.92c-0.93,-0.21 -1.81,-0.46 -2.65,-0.75 -7.61,-2.38 46.24,-10.91 47.75,-11.18 83.8,-14.86 150.26,-34.83 223.74,-79.48 20.64,-12.64 39.95,-25.79 59.54,-40 16.44,-11.76 44.51,-28.17 57.34,-42.42 6.15,-7.55 8.65,-13.72 10.67,-23.21 2.58,-14.03 2.12,-27.56 1.25,-41.72 -1.08,-12.69 -3.4,-21 -11.04,-31.24 -0.39,-1.02 -6.38,-7.12 -7.52,-8.22 -1.36,-1.3 -17.27,-15.77 -15.21,-17.83 0.1,-0.04 0.2,-0.07 0.32,-0.09l-9.72 -8c-2.85,2.34 -7.74,4.76 -8.84,5.26 -23.83,10.91 -47.88,21.11 -71.87,31.61 -24.61,10.76 -50.09,21.38 -75.27,30.72 -44.29,16.42 -83.42,22.65 -129.96,28.57 -8.63,1.04 -21.71,3.8 -29.85,-0.27 -0.05,-0.03 -0.09,-0.05 -0.14,-0.07 -0.07,0.07 -0.15,0.14 -0.24,0.21 -2.31,1.58 -9.17,-6.13 -10.32,-7.51 -14.96,-18.05 -29.38,-35.94 -43.06,-55.01 -15.42,-21.74 -31.33,-42.62 -47.12,-64.03 -29.04,-39.58 -39.61,-67.3 -47.34,-115.79 -1.24,-8.35 -4.12,-20.6 0.07,-28.47 2.59,-5.33 9.33,30.4 9.33,30.41 9.69,44.81 19.84,70.31 46.6,107.64 15.6,21.6 31.46,42.56 46.72,64.49 13.29,19.07 27.42,37.37 41,56.21 0.88,1.22 4.71,7.11 4.8,10.31 5.36,-3.05 32.02,-7.48 32.02,-7.48 43.42,-7.59 82.11,-14.23 123.88,-29.24 25.31,-9.21 50.11,-19.62 74.94,-30.02 24.26,-10.11 48.48,-20.08 73.03,-29.45 0.85,-0.32 3.9,-1.36 6.9,-1.98 1.38,-0.27 2.73,-0.47 3.88,-0.47l6.19 -20.42c-2.08,-4.45 -3.64,-13.72 -3.75,-14.26 -2.32,-11.58 -5,-24.22 -7.52,-37.17 -19.63,-3.15 -40.42,-19.23 -47.58,-57.47 -3.53,2.32 -7.35,4.52 -11.53,6.69 -18.44,8.76 -34.29,12.29 -54.49,14.32 -28.55,2.14 -52.58,0.17 -80.35,-6.53 -2.75,-0.74 -22.72,-6.52 -22.15,-10.92 0.04,-0.09 0.11,-0.16 0.21,-0.22 -2.24,0.23 -9.75,-22.13 -10.5,-24.19 -8.35,-22.32 -17.13,-38.45 -31.44,-57.53 -19.06,-24.2 -37.39,-40.15 -62.1,-58.31zm50.38 275.8c16.18,-15.88 25.98,-36.46 33.98,-57.35 0.73,-1.9 3.27,-6.46 5.92,-5.65 2.51,0.77 1.83,6.24 1.39,8.03 -5.78,23.3 -16.97,45.33 -33.82,62.58 -0.58,0.59 -4.37,4.12 -4.51,4.35 -18.17,15.6 -34.91,22.92 -58.6,25.91 -5.15,0.43 -8.93,1.17 -11.66,-3.27 -2.08,-3.15 10.44,-5.45 11.69,-5.75 20.73,-5.11 34.91,-11.16 51.47,-25 0.29,-0.13 3.66,-3.38 4.14,-3.85z"/>
    <path class="fil6 str1" d="M493.7 773.02c-6.51,10.22 -15.97,24.29 -19.13,30.6 -30.33,69.4 41.22,124.08 91.03,162.14 84.11,64.26 225.99,117.47 246.92,233.63 3.15,17.44 -7.36,9.92 22.67,16.16 80.97,16.83 166.22,5.3 182.4,-89.67 16.17,-94.92 -134.17,-101.57 -192.57,-171.65 -34.18,-41.02 -54.43,-84.24 -55.64,-138 -0.34,-15.39 -1.81,-21.52 -20.76,-13.88 -34.24,13.79 -37.65,45.28 -50.57,46.82 4.72,-34.29 50,-78.35 85.6,-49.95 25.01,19.96 43.4,30.82 78.38,21.07 38.03,-10.59 60.94,-42.16 98.75,-52.47 42.93,-11.71 32.22,-30.99 41.34,-72.17 12.34,-55.74 49.21,-81.93 52.78,-94.64 1.67,-5.96 -16.51,-22.32 -22.19,-36.77 -14.24,-36.21 -5.48,-31.06 -46.96,-13.53 -44.39,18.77 -93.06,23.95 -139.38,7.81 -8.4,-2.92 -44.04,-22.58 -37.78,-21.22 -0.22,-5.81 -6.76,9.97 -3.98,-20.47 4.78,-52.35 -68.08,-30.99 -70.69,63.67 -0.49,17.82 20.77,25.55 13.37,27.4 -8.31,2.06 -15.94,-9.3 -20.6,-11.96 -23.26,21.23 -59.44,39.28 -92.09,40.44 -12.72,0.46 -6.23,0.64 -16.29,21.59 -26.43,54.99 -75.72,82.18 -124.61,115.05z"/>
    <path class="fil7" d="M802.67 535.71c7.57,2.33 60,22.58 133.01,20.47 0.03,0 3.14,-0.69 3.86,-0.86 32.88,-8.05 54.34,-21.08 84.52,-34.63 1.03,-0.43 1.89,-0.57 3.01,-0.5 1.12,0.11 1.94,0.4 2.9,0.99 0.93,0.63 1.52,1.25 2.08,2.23 0.52,0.99 0.74,1.85 0.77,2.97 0.23,11 0.93,20.63 3.98,31.26 2.54,8.01 5.32,13.42 10.97,19.68 12.72,12.7 30,18.68 46.79,24.26 16.79,-30.87 32.59,-59.51 39.24,-94.57 5.5,-39.38 -3.92,-66.87 -21.11,-102.06 -21.44,-40.32 -43.73,-63.68 -76.73,-94.47 -31.03,-27.41 -57.16,-43.33 -97.12,-54.74 -40.17,-9.88 -71.59,-9.26 -112.26,-3.08 -3.13,0.62 -6.06,1.02 -9.26,0.79 -1.51,-0.15 -2.69,-0.4 -4.1,-0.98 -1.47,-0.64 -2.5,-1.36 -3.59,-2.55 -1.21,-1.43 -1.73,-2.82 -1.77,-4.69 -0.04,-0.1 -0.28,-14.16 -0.37,-15.86 -0.53,-9.32 -1.41,-17.38 -3.88,-26.42 -3.73,-12.21 -8.27,-19.77 -18.51,-27.57 -13.9,-9.5 -28.58,-12.39 -45.04,-14.43 -28.63,-2.86 -55.92,-1.12 -84.49,1.57 -24.05,6.41 -40.45,15.74 -59.49,31.63 -18.2,16.15 -30.59,31.6 -41.33,53.48 -4.49,9.8 -7.37,18.17 -9.27,28.79 -1.48,9.63 -1.64,17.2 0.24,26.79 2.11,9.12 5.06,15.43 10.86,22.8 6.96,8.22 13.77,12.91 23.43,17.61 10.13,4.7 20.3,8.62 30.34,13.19 3.12,1.48 5.76,2.83 8.29,5.24 1.27,1.29 2.05,2.4 2.78,4.06 0.67,1.69 0.91,3.01 0.95,4.83 -0.65,8.12 -19.52,56.76 -23.18,68.91 -8.35,28.24 -16.52,53.51 -19.85,83.01 -1.27,14.42 -1.11,25.85 1.83,40.09 3.49,14.77 8.21,24.92 17.2,37.16 5.12,6.78 9.69,13.52 14.58,20.39 1.28,1.76 2.58,3.51 4.11,5.07 0.42,0.42 0.82,0.79 1.25,1.12 1.49,-1.96 2.99,-3.73 4.5,-5.27 2.35,-2.14 1.69,1.09 -0.48,6.85 0.48,0.05 0.97,0.07 1.5,0.08 1.41,0.3 5.56,-0.59 7.13,-0.7 9.15,-1.49 18.43,-3.53 27.58,-5.25 0.75,-0.12 1.54,-0.3 2.29,-0.46 6.48,-1.92 44.47,-23.19 58.01,-30.56 -1.38,-3.91 -1.74,-7.39 -1.84,-11.71 -0.06,-5.82 0.54,-11.33 1.26,-17.09 3.03,-21.5 7.38,-39.2 18.26,-58.15 0.27,-0.45 1.37,-2.08 1.49,-2.41 4.46,-6.71 8.62,-11.64 14.9,-16.71 5.36,-4.09 9.93,-6.61 16.42,-8.47 5.75,-1.44 10.27,-1.72 16.11,-0.62 5.4,1.22 9.24,3.05 13.49,6.61 4.15,3.75 6.49,7.32 8.38,12.56 1.84,5.8 2.06,10.45 1.2,16.46 0.04,0.63 -1.1,6.02 -1.29,7.08 -1,5.3 -1.41,10.65 -4.68,14.43l0.13 2.35z"/>
    <path class="fil8 str2" d="M1027.98 1126.94c-3.45,19.29 -9.87,34.15 -19.04,51.35 -7.89,13.64 -16.46,22.68 -28.21,30.4 7.17,38.24 27.95,54.33 47.58,57.48 -4.67,-23.95 -8.78,-48.98 -9.05,-70.45 0.08,-3.46 0.11,-6.65 3.75,-8.62 24.45,-13.22 38.95,12.23 45.83,32.13 5.61,16.86 9,33.27 11.21,50.85 0.25,2.05 -0.2,3.65 -1,4.67 5.2,-1.42 18.24,-0.95 19.93,-0.82 24.78,2.12 48.25,7.05 72.76,10.84 11.25,1.57 20.14,1.66 31.35,-0.26 9.85,-1.96 17.06,-4.63 25.74,-9.67 16.91,-10.71 26.42,-22.81 35.05,-40.72 4.59,-10.28 7.25,-19.15 9.31,-30.21 1.62,-9.53 2.25,-17.85 2.14,-27.52 -0.77,-22.27 -4.61,-39.27 -14.22,-59.42 -12.1,-23.02 -25.6,-36.85 -48.29,-49.57 -17.74,-9.13 -32.67,-13.14 -52.37,-15.74 -10.09,-1.08 -28.9,-1.07 -37.56,-5.06 -0.19,-0.11 -0.35,-0.21 -0.49,-0.31l-10.79 3.9c0.07,0.03 0.13,0.06 0.2,0.1 3.38,1.64 -5.73,9.42 -6.68,10.27 -7.23,6.54 -15.65,15.35 -24.39,19.51 -3.73,2.11 -10.54,2.14 -14.67,1.47 -0.25,-0.04 -1.96,-0.38 -2.03,-0.37 -8.17,-1.83 -15.9,-5.03 -23.59,-8.3 -0.75,-0.32 -1.49,-0.59 -2.29,-0.74 -0.27,-0.08 -0.64,-0.04 -0.91,-0.05 -0.19,-0.01 -0.3,0.09 -0.44,0.13 -0.24,0.08 -0.75,0.78 -0.77,0.79 -0.79,0.37 -2.29,5.62 -2.53,6.57 -0.49,1.99 -2.26,3.89 -4.46,3.71 -0.99,-0.08 -1.73,-0.62 -2.24,-1.37l-2.95 1.59c0.37,0.9 0.74,1.82 1.09,2.76 4.81,14.41 5.21,25.72 3.03,40.68z"/>
    <path class="fil6" d="M1089.29 1270.06c-1.82,-0.21 -21.35,-2.6 -20.98,-5.42 0.01,-0.05 0.02,-0.09 0.03,-0.13 -1.7,0.2 -3.62,-1.16 -4.48,-4.57 -3.89,-15.4 -14.3,-74.6 -34.92,-77.31 -2.9,-0.3 -5.21,0.26 -7.63,1.37 -0.01,0.2 -0.01,0.36 -0.01,0.46 0.99,34.06 10.62,73.48 15.05,108.26 0.59,5.72 2.09,11.78 -2.55,15.44 -0.99,0.84 -1.96,-0.18 -2.83,-2.05l-6.2 20.42c1.46,0 2.56,0.32 2.86,1.17 0.31,0.88 -0.6,2.02 -2.01,3.19l9.72 8c3.89,-0.68 17.98,10.48 20.36,12.51 3.07,2.75 5.69,5.36 8.36,8.51 9.23,11.46 12.29,21.11 13.78,35.68 1.16,15.08 1.81,29.04 -0.69,44.02 0.51,-0.71 1,-1.29 1.32,-1.65 13.65,-14.86 28.18,-29.47 42.41,-43.79 2.63,-2.82 4.06,-5.59 5.45,-9.15 1.66,-4.6 2.48,-8.76 3.13,-13.6 0.02,-0.08 0.03,-0.23 0.04,-0.32 1.27,-11.92 0.9,-22.83 0.01,-34.74 -1.63,-18.91 -4.57,-36.66 -7.13,-55.35 -0.26,-2.23 -0.58,-4.05 -0.49,-5.61 -10.81,-2.04 -21.63,-3.94 -32.6,-5.34z"/>
    <path class="fil2" d="M279.05 1022.24c-0.01,0.08 -0.02,0.15 -0.03,0.21 0.01,-0.07 0.02,-0.14 0.03,-0.21zm427.62 40.22c-32.58,-23.17 -66.72,-42.72 -100.52,-63.95 -18.98,-12.02 -36.13,-24.11 -54.03,-37.64 -33.93,-27.49 -69.25,-55.32 -89,-95.1 -8.4,-19.62 -10.36,-34.83 -5.74,-55.76 2.44,-9.3 5.44,-16.4 10.02,-24.82 1.51,-2.51 3.14,-5.18 4.89,-7.89 -30.66,22.24 -61.12,43.48 -90.48,67.65 -9.83,8.26 -19.04,16.51 -28.2,25.52 -39.28,40.2 -60.36,73.7 -70.89,129.46 -0.35,0.66 -3.16,19.08 -3.68,22.31 -0.01,0.09 0.03,-0.17 -0.02,0.21 -3.15,29.03 2.2,56.68 7.83,85.06 0.35,1.71 4.54,23.23 1.94,25.45l5.34 21.99c0.03,-0.8 0.13,-1.58 0.32,-2.32 1.28,-6.01 19.12,27.17 19.12,27.17 39.26,70.32 78.13,139.4 120.05,208.29 19.29,31.42 164.11,-72.22 182.23,-85.78 -29.04,-39.58 -39.61,-67.29 -47.34,-115.8 -1.24,-8.34 -4.12,-20.59 0.07,-28.46 2.59,-5.33 9.33,30.4 9.33,30.41 9.69,44.81 19.84,70.31 46.6,107.64 15.59,21.6 31.46,42.56 46.72,64.49 13.29,19.07 27.42,37.37 41,56.21 0.88,1.22 4.71,7.11 4.8,10.31 5.36,-3.05 32.02,-7.48 32.02,-7.48 43.42,-7.59 82.11,-14.23 123.88,-29.24 25.31,-9.21 50.11,-19.62 74.94,-30.01 24.26,-10.12 48.48,-20.09 73.03,-29.46 0.85,-0.32 3.9,-1.36 6.9,-1.98 1.37,-0.27 2.73,-0.47 3.88,-0.47l6.19 -20.42c-2.08,-4.45 -3.64,-13.72 -3.75,-14.26 -2.32,-11.58 -48.28,3.83 -50.8,-9.12 -19.62,-3.15 -40.41,-19.24 -47.58,-57.48 -3.53,2.32 -7.35,4.53 -11.52,6.7 -18.45,8.75 8.98,-15.76 -11.22,-13.73 -28.55,2.14 -52.58,0.17 -80.35,-6.53 -2.75,-0.74 -22.72,-6.52 -22.15,-10.92 0.04,-0.09 0.11,-0.16 0.21,-0.22 -2.24,0.23 -9.75,-22.13 -10.5,-24.19 -8.35,-22.32 -17.13,-38.45 -31.44,-57.53 -19.06,-24.2 -37.39,-40.15 -62.1,-58.31zm50.38 275.8c16.18,-15.88 25.98,-36.46 33.98,-57.35 0.73,-1.9 3.27,-6.46 5.92,-5.65 2.51,0.77 1.83,6.25 1.39,8.03 -5.78,23.31 -16.97,45.33 -33.82,62.58 -0.58,0.59 -4.37,4.12 -4.51,4.35 -18.17,15.6 -34.91,22.92 -58.6,25.91 -5.15,0.43 -8.93,1.17 -11.66,-3.27 -2.08,-3.15 10.44,-5.45 11.69,-5.75 20.73,-5.11 34.91,-11.15 51.47,-25 0.29,-0.13 3.66,-3.38 4.14,-3.85z"/>
    <path class="fil9" d="M788.47 1311.1c-6.05,12.77 -14.02,24.6 -23.95,34.77 -0.59,0.59 -4.37,4.12 -4.51,4.35 -18.17,15.6 -34.91,22.92 -58.6,25.91 -5.16,0.43 -8.93,1.17 -11.66,-3.27 -0.01,-0.01 -0.02,-0.03 -0.03,-0.04 -3.46,0.18 -5.79,0.06 -7.7,-1.79l-2.75 0.88c8.74,12.13 17.72,24.04 26.56,36.09 2.14,2.92 4.28,5.85 6.4,8.79 0.28,0.39 0.83,1.22 1.48,2.28 6.69,-2.03 16.25,-3.93 21.51,-4.92 2.34,-0.44 3.83,-0.69 3.83,-0.69 40.2,-7.32 76.57,-13.65 114.96,-26.56 1.75,-0.58 3.51,-1.19 5.27,-1.8 1.09,-0.39 2.18,-0.77 3.27,-1.17 4.12,-1.5 8.23,-3.03 12.32,-4.59 21.03,-7.99 41.78,-16.7 62.54,-25.37 24.29,-10.1 48.5,-19.99 73.18,-29.12 0.97,-0.36 3.27,-1.07 5.76,-1.53 0.21,-0.04 0.42,-0.08 0.64,-0.11 -0.05,-0.85 -0.03,-1.73 0.04,-2.62 0.27,-3.47 1.3,-7.18 1.84,-10.39 0.73,-4.32 1.92,-9.48 4.77,-12.93 0.27,-0.33 0.63,-0.56 1.04,-0.7 -0.46,-1.65 -0.83,-3.26 -1.11,-4.57 -0.31,-1.43 -0.51,-2.49 -0.58,-2.83 -1.74,-8.24 -3.64,-17.04 -5.53,-26.11 -0.45,-2.18 -0.9,-4.37 -1.35,-6.58 -28.44,-1.12 -30.95,-29.64 -36.25,-53.24 -3.6,1.64 -21.86,6.79 -25.33,8.07 -1.37,0.5 -2.73,0.97 -4.09,1.42 -7.77,2.58 -15.46,4.37 -23.69,5.68 -1.45,0.23 -2.92,0.45 -4.41,0.65 -3.02,0.41 -6.12,0.78 -9.34,1.1 -28.55,2.14 -52.58,0.17 -80.35,-6.53 -1.35,-0.36 -6.88,-1.95 -12.08,-3.99l-1.57 3.14 -29.8 59.63c0.84,1.88 0.74,4.55 0.4,6.2 -0.02,0.06 -0.03,0.11 -0.04,0.16 -1.18,5.16 -2.65,10.25 -4.4,15.24 -0.84,2.41 -1.76,4.81 -2.73,7.18 1.06,-2.23 2.09,-4.49 3.09,-6.76 1.95,-4.46 3.77,-8.98 5.51,-13.52 0.05,-0.13 0.11,-0.26 0.17,-0.41 0.89,-2.07 3.27,-6 5.75,-5.24 2.51,0.77 1.83,6.25 1.39,8.03 -0.36,1.44 -0.73,2.88 -1.13,4.3 -1.41,5.07 -3.09,10.07 -5.02,14.95 -1.15,2.89 -2.39,5.75 -3.72,8.56z"/>
   </g>
   <g>
    <g>
     <path class="fil4" d="M374.33 842.88c-9.76,8.2 -18.89,16.38 -27.98,25.32 -38.7,39.61 -59.46,72.53 -69.98,127.45 -0.34,0.66 -3.36,19.99 -3.77,22.5 0.09,-0.66 0.04,-0.25 0.05,-0.37 -3.29,28.62 1.9,56.24 7.15,84.3 0.56,2.94 4.33,25.35 -1.1,26.2 -4.83,0.76 -10.71,-20.96 -11.43,-23.92 -7.17,-29.75 -13.08,-57.67 -10.27,-88.47 -0.04,0.29 0,-0.06 -0.01,0.11 -0.07,0.01 3.15,-20.79 3.41,-22.89 10.48,-58.97 32.52,-94.69 73.7,-137.27 9.39,-9.34 18.83,-17.92 28.91,-26.51 30.78,-25.73 62.64,-48.01 95,-71.56 47.3,-33.95 103.09,-61.58 133.78,-109.86 7.73,-12.98 16.16,-32.15 28.77,-40.7 9.95,-5.78 -16.55,48.55 -18.92,52.98 -29.84,49.81 -85.44,77.94 -132.99,112.19 -31.92,23.3 -63.75,45.33 -94.32,70.5z"/>
    </g>
    <path class="fil10" d="M620.73 606.13c-42.87,95.47 -49.57,80.51 -157.36,159.01 -85.78,62.49 -178.13,118.7 -195.72,229.12l-3.59 22.55c-4.46,33.56 7.03,78.4 14.36,111.55"/>
    <g>
     <path class="fil4" d="M617.65 1289.16c15.62,21.63 31.48,42.57 46.72,64.55 13.19,19.05 27.18,37.44 40.28,56.53 1.94,2.83 5.89,10.91 1.99,13.71 -3.51,2.52 -10.16,-3.75 -12.17,-6.07 -15.41,-17.82 -29.93,-35.57 -43.79,-54.64 -15.49,-21.68 -31.45,-42.49 -47.38,-63.79 -29.61,-39.78 -40.5,-68.07 -47.52,-117.23 -1.3,-10.16 -3.96,-21.28 3.11,-29.03 4.81,-5.7 11.8,28.99 12.01,29.9 10.26,44.11 20.3,69.18 46.75,106.07z"/>
    </g>
    <path class="fil10" d="M558.53 1152.72c16.72,112.13 35.25,115.4 98.43,206.15 15.03,21.57 33.33,44.2 49.46,65.26"/>
    <g>
     <path class="fil4" d="M861.92 1382.15c25.23,-9.18 49.98,-19.58 74.76,-29.92 24.33,-10.07 48.53,-19.88 73.34,-28.74 3.16,-1.12 12.94,-3.32 14.67,1.21 1.55,4.09 -7.21,9.3 -9.94,10.61 -23.66,11.42 -47.61,21.64 -71.55,32.37 -24.43,10.95 -50.25,21.61 -75.31,31.09 -44.7,16.91 -83.48,23.08 -130.66,28.33 -10.47,1.06 -22.22,3.66 -30.31,-3.33 -6.25,-5 31.28,-11.66 31.91,-11.78 42.89,-8.15 81.72,-14.96 123.09,-29.84z"/>
    </g>
    <path class="fil10" d="M706.42 1424.13c115.75,-17.49 125.19,-17.77 233.78,-63.56 28.2,-11.88 56.4,-23.75 84.61,-35.61"/>
    <g>
     <path class="fil4" d="M1004.14 1181.26c0.02,-0.96 0.15,-2.16 0.12,-3.07 0.16,-1.94 0.61,-3.37 1.63,-5.03 1.08,-1.63 2.19,-2.66 3.89,-3.62 6.2,-3.21 11.32,-4.57 18.31,-3.74 6.36,1.11 10.56,3.45 15.31,7.73 8.81,8.76 13.18,18.6 17.27,30.12 5.47,16.68 9.17,34.01 10.63,51.52 0.26,3.62 -2.4,5.55 -5.62,6.33 -3.37,0.82 -5.91,-0.7 -6.91,-4.03 -4.78,-16.62 -7.57,-31.55 -13.62,-48.27 -3.19,-8.21 -6.92,-16.95 -13.43,-23.1 -1.91,-1.65 -3.61,-2.79 -6.15,-3.15 -2.81,-0.23 -5,0.7 -7.43,2.03 1.11,-0.62 1.86,-1.34 2.57,-2.39 0.67,-1.09 0.99,-2.05 1.1,-3.32 0,0 -0.02,1.89 -0.02,2.38 1.41,34.54 10.95,72.27 14.61,107.7 0.57,8.1 1.42,12.32 -5.6,15.93 -5.58,3.04 -8.71,-13.34 -9.28,-15.87 -7.33,-32.91 -16.96,-74.9 -17.38,-108.15z"/>
    </g>
    <path class="fil10" d="M1031.11 1305.48c-4.45,-36.31 -19.73,-100.36 -17.7,-127.53 37.5,-21.56 48.32,69.16 52,83.62"/>
    <g>
     <path class="fil4" d="M1275.71 1192.1c-2.37,12.31 -5.38,22.15 -10.55,33.58 -10.06,20.64 -21.19,34.46 -40.8,46.68 -10.24,5.86 -18.79,8.97 -30.37,11.15 -12.84,2.06 -22.98,1.85 -35.8,-0.14 -24.17,-4.17 -47.83,-9.94 -72.07,-13.4 -2.94,-0.4 -21.14,-3.41 -20.7,-8.11 1.64,-4.98 18.3,-4.71 22.26,-4.54 24.94,1.81 48.36,6.53 73,10.23 10.9,1.45 19.52,1.52 30.37,-0.4 9.45,-1.91 16.36,-4.5 24.68,-9.37 16.28,-10.38 25.41,-22.12 33.67,-39.42 4.44,-10.05 6.98,-18.65 8.95,-29.45 1.54,-9.29 2.13,-17.44 1.98,-26.85 -0.81,-21.67 -4.6,-38.27 -13.96,-57.86 -11.73,-22.28 -24.78,-35.69 -46.68,-48.1 -17.26,-9.02 -31.85,-13.07 -51.06,-15.86 -11.51,-1.42 -28,-0.84 -37.26,-8.14 -7.69,-7.08 38.76,-6.26 43.92,-5.88 19.64,2.22 34.5,6.07 52.33,14.72 25.77,13.83 41.22,29.39 54.93,55.21 10.69,22.25 14.93,41.03 15.68,65.66 0.07,10.67 -0.67,19.78 -2.52,30.29z"/>
    </g>
    <path class="fil10" d="M1110.69 1032.43c77.35,-5.83 122.91,25.6 143.84,67.71 38.21,76.86 -0.25,189.48 -94.98,174.58 -36.06,-5.67 -57.13,-12.02 -94.14,-13.15"/>
    <g>
     <path class="fil4" d="M1140.74 1370.14c-0.02,0.11 -0.05,0.28 -0.05,0.38 -0.89,6 -2,11.03 -4.14,16.71 -2.22,5.54 -4.53,9.57 -8.69,13.88 -14.54,14.49 -29.1,28.55 -45.02,41.54 -2.76,2.23 -7.56,3.5 -10.31,0.59 -2.57,-2.73 -0.57,-7.36 1.48,-9.77 13,-15.17 27.7,-30.18 41.74,-44.43 2.24,-2.47 3.49,-5.01 4.65,-8.1 1.52,-4.34 2.26,-8.33 2.81,-12.88 0.02,-0.09 0.03,-0.23 0.04,-0.32 1.1,-11.62 0.65,-22.39 -0.24,-34 -1.62,-18.62 -4.58,-36.61 -6.46,-55.06 -0.47,-7.03 -0.16,-8.54 5.78,-11.17 5.41,-2.51 7.99,6.52 8.97,9.98 4.95,18.19 7.94,36.1 9.73,54.87 1.06,13.1 1.34,24.69 -0.29,37.78z"/>
    </g>
    <path class="fil10" d="M1122.02 1267.42c5.42,27.68 21.68,104.89 -0.61,127.26 -16.19,16.23 -32.73,32.27 -49.08,48.36"/>
    <g>
     <path class="fil4" d="M450.9 1419.78c32.8,50.87 83.13,128.61 130.52,166.51 12.87,9.29 25.95,18.04 39.12,26.87 2.51,1.69 19.47,13.89 16.35,18.24 -2.75,3.83 -20.84,-6.12 -23.44,-7.65 -13.83,-8.14 -27.24,-16.31 -40.58,-25.24 -43.36,-26.36 -108.96,-126.13 -136.86,-169.24 -8.25,-12.78 -16.37,-25.61 -24.4,-38.53 -42.75,-69.57 -84.08,-141.08 -120.45,-214.22 -4.06,-8.49 -11.41,-19.44 -6.41,-28.78 3.51,-7.11 21.14,25.21 21.53,25.88 39.96,69.8 78.71,138.94 120.61,207.75 7.92,12.87 15.9,25.67 24.01,38.41z"/>
    </g>
    <path class="fil10" d="M284.3 1147.49c52.86,100.55 209.25,387.29 292.4,445.54 19.11,13.38 40.3,26.21 60.05,38.62"/>
    <g>
     <path class="fil4" d="M935.22 1537.64c20.56,-12.6 39.77,-25.68 59.28,-39.84 15.94,-11.4 44.32,-28.08 56.74,-41.78 5.76,-7.05 8.06,-12.73 9.98,-21.59 2.58,-13.65 2.17,-27.01 1.39,-40.82 -0.93,-11.98 -2.99,-19.83 -10.06,-29.61 -0.36,-0.99 -6.04,-6.95 -7.12,-8.02 -2.1,-2.07 -16.62,-16.27 -13.38,-19.81 4.49,-2.96 19.1,8.07 22.27,10.69 3.19,2.8 5.91,5.45 8.69,8.67 9.68,11.78 12.99,21.87 14.6,36.97 1.28,15.44 1.97,29.6 -0.54,44.98 -2.36,11.85 -5.56,19.69 -13.11,29.19 -14.5,16.51 -40.95,31.77 -59.33,45.04 -19.83,14.53 -39.38,28.01 -60.24,41.02 -76.37,47.28 -146.63,68.51 -234.98,80.13 -12.81,1.55 -32.17,5.74 -43.83,-1.59 -8.23,-4.76 47.31,-13.86 47.32,-13.86 83.23,-15.58 149.16,-35.32 222.32,-79.77z"/>
    </g>
    <path class="fil10" d="M664.86 1631.65c140.5,-18.56 219.22,-42.06 335.02,-126.48 55.17,-40.09 76.52,-38.19 71,-112.17 -2.25,-30.2 -18.25,-40.68 -38.66,-57.06"/>
    <g>
     <path class="fil4" d="M807.67 801.84c8.46,2.36 15.73,3.37 24.5,3.87 9.02,0.25 16.41,-1.82 24.77,-4.96 10.36,-4.14 19.03,-8.94 28.47,-14.82 15.58,-9.99 29.28,-20.56 43.86,-31.82 2.82,-2.18 9.2,-5.43 12.27,-1.95 2.86,3.26 -1.7,9.32 -3.95,11.58 -13.78,13.65 -27.3,24.88 -43.33,35.87 -10.32,6.85 -19.67,12.22 -31.14,16.98 -10.94,4.26 -19.98,6.65 -31.82,6.46 -10.19,-0.51 -18.66,-1.64 -28.53,-4.25 -13.95,-4.07 -23.1,-8.69 -34.69,-17.28 -4.68,-3.6 -9.47,-7.92 -14.27,-11.19 -1.15,-0.75 -2.32,-1.46 -3.64,-1.85 -0.79,-0.2 -1.22,-0.2 -2.02,-0.03 -13.37,3.53 -23.02,6.88 -32.85,16.85 -4.25,4.59 -7.36,9.16 -10.71,14.41 -5.05,7.88 -8.25,15.24 -17.56,16.23 -7.09,1.02 5.58,-24.79 6.19,-25.97 2.97,-5.69 5.75,-10.34 9.76,-15.39 11.69,-13.72 23.7,-18.72 40.79,-23.47 4,-0.96 7.05,-0.97 11.04,0 3.48,0.97 5.96,2.24 8.98,4.18 5.34,3.59 10.2,7.95 15.32,11.89 9.84,6.91 16.71,11.23 28.56,14.66z"/>
    </g>
    <path class="fil10" d="M687.07 836.47c17.11,-31.49 21.6,-47.44 58.85,-56.85 18.62,-4.7 26.59,32.23 85.79,35.2 35.67,1.78 83.72,-38.13 110.02,-62.45"/>
    <g>
     <path class="fil4" d="M1006.29 670.26c-6.39,22 -8.88,46.88 -11.75,69.63 -0.35,2.54 -0.87,4.52 -1.96,6.85 -1.1,2.24 -2.21,3.78 -3.99,5.52 -3.29,2.98 -6.28,4.33 -10.54,5.39 -1.58,0.79 -9.67,1.01 -11.82,0.99 -3.58,-0.04 -8.64,-1.99 -8.95,-6.15 -0.28,-3.89 5,-6.05 8.1,-6.56 2.99,-0.49 5.93,-1 8.8,-2.03 1.37,-0.52 2.76,-1.13 3.71,-2.3 0.23,-0.16 0.49,-0.96 0.62,-1.21 0.13,-0.23 0.42,-2.02 0.36,-2.15 2.08,-24.71 4.22,-49.11 10.54,-73.16 8.03,-29.08 25.66,-50.12 45.56,-71.99 5.9,-6.29 9.36,-11.21 17.77,-9.62 6.56,1.01 -6.77,19.23 -7.84,20.73 -14.88,20.95 -30.96,41.15 -38.61,66.06z"/>
    </g>
    <path class="fil10" d="M1052.73 583.02c-52.65,65.51 -57.65,69.34 -66.78,155.96 -1.38,13.07 -15.83,12 -28.7,13.23"/>
    <g>
     <path class="fil4" d="M744.25 499.79c-9.74,16.42 -13.66,32.77 -16.69,51.45 -0.75,4.98 -1.47,9.94 -1.74,14.97 -0.08,2.93 -0.03,5.56 0.74,8.41 0.77,2.38 1.72,3.75 3.48,5.53 0.19,0.35 2.26,2.06 2.68,2.38 2.44,1.91 6.3,6.68 4.74,10.02 -1.74,3.72 -8.77,2.2 -11.56,0.74 -1.57,-0.84 -2.95,-1.67 -4.4,-2.69 -4.06,-3.1 -6.46,-5.9 -8.62,-10.55 -2.02,-4.78 -2.55,-8.75 -2.72,-13.9 -0.13,-5.89 0.4,-11.35 1.09,-17.19 2.92,-21.7 7.22,-39.29 18,-58.49 0.28,-0.47 1.37,-2.12 1.5,-2.47 4.57,-6.96 8.83,-12.05 15.3,-17.33 5.67,-4.36 10.49,-7.01 17.37,-9 6.22,-1.57 11.16,-1.85 17.47,-0.65 5.96,1.35 10.18,3.39 14.85,7.33 4.54,4.14 7.12,8.08 9.16,13.88 1.92,6.27 2.13,11.27 1.11,17.73 0.03,0.56 -1.27,5.95 -1.48,6.93 -1.84,7.99 -2.23,12.42 -9.58,15.55 -5.83,2.72 -4.86,-17.4 -4.75,-19.34 0.1,-1.73 0.2,-3.46 0.3,-5.19 0.2,-3.7 -0.08,-6.56 -1.47,-10.01 -1.15,-2.64 -2.43,-4.42 -4.67,-6.24 -2.25,-1.72 -4.26,-2.56 -7.03,-3.11 -3.36,-0.53 -5.96,-0.28 -9.25,0.58 -4.33,1.31 -7.39,3.07 -10.99,5.8 -4.85,3.91 -8.08,7.76 -11.58,12.9 -0.29,0.31 -1,1.53 -1.26,1.96z"/>
    </g>
    <path class="fil10" d="M795.2 522.81c0.94,-10.78 2.05,-18.34 2.79,-23.91 5.41,-40.82 -64.88,-51.99 -79.29,51.1 -3.56,25.46 -1.84,33.92 18.65,42.82"/>
    <g>
     <path class="fil4" d="M798.23 222.3c-0.51,-8.84 -1.33,-16.56 -3.67,-25.14 -3.41,-11.15 -7.47,-18.02 -16.83,-25.15 -13.04,-8.9 -27.1,-11.59 -42.52,-13.51 -27.85,-2.78 -54.44,-1.06 -82.22,1.55 -23.11,6.48 -38.04,14.86 -56.43,30.21 -17.47,15.5 -29.38,30.32 -39.69,51.32 -4.26,9.3 -7.01,17.25 -8.82,27.34 -1.39,8.94 -1.55,16.05 0.2,24.96 1.92,8.37 4.61,14.12 9.92,20.89 6.45,7.63 12.8,11.97 21.75,16.34 9.94,4.62 19.94,8.47 29.78,12.97 3.52,1.66 6.29,3.13 9.15,5.85 1.58,1.62 2.57,3.04 3.48,5.12 0.85,2.13 1.16,3.79 1.21,6.07 -0.76,9.41 -19.02,55.58 -22.98,68.68 -8.16,27.47 -16.2,52.17 -19.52,80.87 -1.24,13.8 -1.12,24.73 1.65,38.36 3.28,14.04 7.72,23.67 16.22,35.32 5.03,6.69 9.51,13.33 14.3,20.13 1.26,1.71 2.35,3.03 3.7,4.63 0.6,0.6 1.15,1.11 1.92,1.47 0.85,0.36 1.72,0.41 2.64,0.44 1.24,0.28 5.11,-0.56 6.51,-0.62 8.96,-1.41 18.08,-3.39 27.04,-5.04 0.7,-0.11 1.45,-0.28 2.15,-0.43 14.47,-4.15 59.61,-31.26 62.23,-29.82 -1.46,14.24 -49.67,39.22 -60.69,42.52 -0.24,0.05 -1.16,0.21 -1.3,0.27 -9.08,1.81 -18.19,3.94 -27.26,5.61 -2.97,0.5 -5.7,0.89 -8.72,0.93 -2.9,-0.02 -5.01,-0.31 -7.73,-1.35 -2.62,-1.11 -4.32,-2.34 -6.37,-4.3 -1.98,-1.98 -3.54,-3.98 -5.21,-6.22 -4.85,-6.57 -9.4,-13.13 -14.4,-19.64 -10.01,-13.32 -15.36,-24.52 -19.34,-40.68 -3.3,-15.27 -3.64,-27.48 -2.4,-42.99 3.15,-30.03 11.05,-55.17 19.35,-83.89 2.1,-7.04 21.79,-62.02 21.91,-64.1 -0.01,-0.21 0,-0.04 0.05,0.09 0.06,0.13 0.17,0.26 0.04,0.14 -1.02,-0.95 -3.27,-2 -4.53,-2.58 -9.91,-4.45 -19.88,-8.24 -29.89,-12.86 -11.4,-5.51 -19.38,-11.09 -27.62,-20.76 -7.12,-8.98 -10.81,-16.77 -13.41,-27.91 -2.23,-11.16 -2.14,-20.02 -0.43,-31.23 2.07,-11.75 5.17,-20.93 10.11,-31.77 11.41,-23.39 24.45,-39.79 43.85,-57.07 20.48,-17.16 38.85,-27.64 64.87,-34.24 29.15,-3.01 57.64,-4.7 86.86,-1.85 18.99,2.32 34.79,5.7 50.83,16.6 12.78,9.69 18.81,19.28 23.49,34.5 2.76,9.99 3.78,18.74 4.4,29.05 0.29,5.46 0.4,10.84 0.42,16.31 -0.04,-1.86 -0.59,-3.31 -1.79,-4.73 -0.16,-0.41 -1.2,-0.9 -1.51,-1.13 -0.17,-0.07 -0.55,-0.14 -0.23,-0.11 1.57,0.09 3.71,-0.31 5.25,-0.61 42.24,-6.55 74.77,-7.18 116.52,3.02 41.72,11.82 69.12,28.36 101.5,56.95 33.9,31.56 56.52,55.52 78.49,96.92 18.38,37.7 27.91,67 21.9,109.14 -7.26,37.62 -23.7,66.65 -41.9,99.82 -1.31,2.25 -2.82,3.59 -5.23,4.61 -2.44,0.9 -4.49,0.96 -6.98,0.21 -20.36,-6.85 -38.97,-13.13 -54.36,-28.74 -7.01,-7.87 -10.54,-14.68 -13.65,-24.72 -3.28,-11.82 -4.03,-22.17 -4.19,-34.37 0.03,1.22 0.29,2.15 0.86,3.23 0.62,1.07 1.25,1.77 2.27,2.45 1.05,0.66 1.96,0.96 3.19,1.09 1.23,0.07 2.17,-0.08 3.3,-0.55 -33.09,14.52 -53.55,27.06 -90.1,34.71 -8.49,0.88 -17.03,1.33 -25.56,1.54 -37.72,-1.78 -80.06,-3.72 -107.73,-33.6 -2.25,-2.66 67.96,19.45 131.14,17.45 0,0 2.47,-0.57 3.44,-0.79 31.92,-7.92 53.07,-20.84 82.39,-34.07 1.54,-0.64 2.79,-0.85 4.45,-0.75 1.65,0.17 2.85,0.58 4.26,1.46 1.38,0.93 2.25,1.85 3.08,3.3 0.78,1.47 1.1,2.7 1.14,4.37 0.23,10.49 0.92,19.7 3.85,29.82 2.35,7.36 4.88,12.32 10.09,18.06 12.8,12.71 30.75,18.28 47.48,23.81 -1.68,-0.51 -3.04,-0.46 -4.69,0.14 -1.61,0.68 -2.64,1.58 -3.52,3.1 16.73,-30.89 32.91,-59.58 39.49,-94.48 5.23,-37.86 -3.95,-64.28 -20.49,-98.09 -20.83,-39.13 -42.59,-61.87 -74.64,-91.75 -30.01,-26.49 -55.25,-41.88 -93.89,-52.9 -38.9,-9.58 -69.35,-8.93 -108.74,-2.95 -3.38,0.68 -6.56,1.06 -10,0.81 -1.9,-0.19 -3.34,-0.51 -5.12,-1.23 -1.99,-0.89 -3.34,-1.84 -4.81,-3.44 -1.8,-2.14 -2.59,-4.21 -2.66,-7 -0.03,-0.1 -0.26,-13.74 -0.35,-15.39z"/>
    </g>
    <path class="fil10" d="M795.2 522.81c23.02,5.96 44.32,33 132.94,24.56 35.76,-7.03 57.7,-21.76 90.28,-35.69 0.05,53.9 19.05,66.19 67.77,82.09 40.88,-74.64 62.3,-118.62 20.18,-201.64 -19.25,-37.93 -45.54,-65.79 -76.45,-94.35 -61.32,-55.9 -129.08,-71.53 -210.23,-58.22 -7.19,1.45 -10.57,0.82 -12,-1.39 0.06,-65.52 -13.45,-101.23 -155.6,-87.2 -89.1,20.38 -161.43,148.2 -75.97,188.25 56.46,26.47 40.94,2.77 16.1,88.15 -15.41,52.95 -36.68,113.21 0.49,161.74 27.05,35.31 13.8,32.73 63.64,23.24 24.64,-4.7 43.6,-22.62 63.25,-37.04"/>
    <g>
     <path class="fil4" d="M986.84 1030.36c3.06,2.54 5.88,5.07 8.71,7.86 10.02,10.21 16.21,19 21.29,32.45 5.03,15.02 5.47,26.86 3.19,42.47 -3.53,19.74 -10.05,34.88 -19.44,52.49 -10.68,18.42 -22.53,28.81 -41.31,38.53 -18.9,8.92 -35.07,12.51 -55.75,14.51 -28.93,2.05 -53.26,-0.06 -81.33,-7.14 -3.91,-1.13 -22.99,-7.08 -21.54,-13.55 1.75,-3.91 21.96,0.65 24.88,1.25 26.54,5.19 49.49,6.61 76.5,4.09 18.42,-2.19 33.14,-5.6 49.9,-13.8 15.38,-8.21 25.13,-16.68 33.82,-31.95 8.26,-15.72 14.29,-29.59 17.31,-47.18 1.75,-12.47 1.49,-21.92 -2.6,-33.9 -4.13,-10.73 -9.24,-17.69 -17.31,-25.8 -0.65,-1.01 -6.29,-5.68 -7.55,-6.7 -7.02,-5.62 -13.86,-10.12 -21.57,-14.7 -49.71,-27.77 -105.88,-43.49 -143.39,-87.04 -29.88,-39.33 -45.88,-62.32 -53.03,-111.66 -1.76,-16.05 -5.07,-37.78 2.62,-52.8 4.54,-7.47 12.55,54.66 12.89,56.51 9.22,42.02 25.36,63.35 51.48,97.09 33.51,38.1 93.47,57.08 138.56,82.58 8.51,5.12 15.95,10.12 23.67,16.39z"/>
    </g>
    <path class="fil10" d="M759.89 776.75c5.41,75.94 9.57,97.8 57.9,159.95 60.48,77.76 256.49,74.29 174.82,224.59 -34.17,62.88 -141.61,55.49 -191.86,36.42"/>
    <g>
     <path class="fil4" d="M1053.99 1070.72c-0.28,-0.04 -2.12,-0.41 -2.2,-0.4 -8.47,-1.89 -16.28,-5.1 -24.22,-8.54 -0.18,-0.07 -1.11,-0.44 -1.31,-0.55 -0.13,-0.07 0.47,-0.18 0.47,-0.23 0.3,-0.15 0.6,-0.34 0.8,-0.62 0.13,-0.22 0.02,-0.25 -0.16,-0.1 -1.13,0.98 -2.09,3.85 -2.58,5.26 -0.88,2.58 -4.72,3.54 -7.14,3.36 -2.76,-0.2 -5.45,-2.05 -5.49,-5.03 -0.01,-4.13 0.43,-7.41 2.18,-11.19 0.84,-1.61 1.67,-2.73 2.96,-4 1.54,-1.4 2.89,-2.22 4.86,-2.91 2.05,-0.66 3.73,-0.82 5.88,-0.67 2.17,0.19 3.84,0.62 5.88,1.38 6.55,2.45 14.56,5.6 21.47,6.62 0.36,0.09 1.01,0.15 1.4,0.19 2.73,0.24 4.37,0.18 6.85,-0.96 6.91,-3.72 16.17,-11.56 23.7,-16.31 6,-3.45 7.91,-3.93 13.02,-0.02 4.35,3.17 -2.78,10.24 -4.98,12.4 -7.56,7.43 -15.12,15.95 -24.78,20.6 -5.89,2.38 -10.36,2.63 -16.61,1.72z"/>
    </g>
    <path class="fil10" d="M1100.35 1035.66c-36.25,26.23 -29.26,34.45 -69.33,17.82 -11.24,-4.67 -13.09,6.49 -13.65,15.41"/>
    <g>
     <path class="fil4" d="M744.73 1330.85c15.76,-15.48 25.13,-35.63 33.82,-55.6 1.37,-3.15 4.94,-5.9 8.49,-4.85 3.51,1.02 4.29,5.62 3.64,8.72 -5.04,24 -16.66,46.55 -33.59,64.33 -1.5,1.57 -3,3.06 -4.6,4.54 -18.47,16.16 -35.94,23.99 -60.39,26.24 -7.24,0.28 -9.61,0.01 -12.16,-6.31 -2.16,-5.07 8.22,-7.61 11.21,-8.44 19.93,-5.69 33.5,-11.43 49.58,-24.92 0.28,-0.12 3.54,-3.26 4,-3.71z"/>
    </g>
    <path class="fil10" d="M679.78 1368.22c52.52,-4.78 90.16,-34.14 107.54,-97.75"/>
    <g>
     <path class="fil4" d="M604.04 981.65c33.98,21.57 68.24,41.28 100.96,64.85 25.76,19.19 44.67,36.01 64.16,61.76 14.78,20.66 23.56,38.04 31.33,62.21 1.13,4 6.32,24.75 0.53,27.16 -3.97,0.59 -11.66,-20.62 -12.72,-23.43 -8.47,-21.94 -17.31,-37.87 -31.54,-56.6 -18.97,-23.82 -37.23,-39.6 -61.7,-57.48 -32.58,-23.05 -66.73,-42.5 -100.54,-63.6 -19.12,-12.02 -36.38,-24.13 -54.4,-37.7 -34.59,-27.92 -70,-55.83 -89.99,-96.43 -8.67,-20.38 -10.63,-36.27 -5.7,-57.97 2.58,-9.53 5.73,-16.87 10.54,-25.48 7.66,-12.37 17.96,-29.1 33.44,-32.07 5.47,-0.6 -20.03,37.87 -22.79,43.58 -2.6,6.01 -4.37,11.22 -5.77,17.62 -3.43,17.91 -1.42,30.55 6,47.11 19.17,37.02 53.76,63.77 85.54,89.55 17.21,13.44 34.31,25.13 52.65,36.92z"/>
    </g>
    <path class="fil10" d="M488.81 746.03c-82.34,86.96 -18.24,144.89 56.87,205.75 100.56,79.53 224.99,110.64 255.07,245.93"/>
    <g>
     <path class="fil4" d="M1001.22 1235.61c0.85,1.1 1.71,2.08 2.69,3.07 2.95,2.89 5.46,4.66 9.08,6.59 0.95,0.75 6.04,2.66 7.5,3.22 1.48,0.57 1.89,3.54 1.82,4.91 -0.08,1.64 -0.98,3.81 -2.88,3.92 -4,0.16 -7.13,-0.43 -10.9,-1.75 -5.35,-2.01 -9.05,-4.53 -13.24,-8.39 -0.69,-0.43 -3.17,-3.24 -3.82,-4 -3.04,-3.61 -5.04,-6.82 -7.06,-11.08 -2.64,-5.92 -3.91,-10.95 -4.25,-17.43 -0.15,-3.98 1.4,-4.55 4.58,-5.68 3.06,-1.08 4.72,1.9 5.63,4.32 1.73,4.67 3.38,9.09 5.55,13.59 1.57,3.22 3.12,5.86 5.3,8.71z"/>
    </g>
    <path class="fil10" d="M984.54 1208.94c4.61,32.35 22.35,44.02 37.76,44.65"/>
   </g>
  </g>
  <g>
  </g>
  <g style="clip-path:url(#id0)">
   <g id="_1839122231232">
    <g>
     <path class="fil3" d="M1137.02 1447.5c-157.56,-165.88 -589.18,-616.33 -672.73,-801.56 -36.32,-80.53 195.18,-117.94 248.59,-118.11 442.43,-1.48 753.06,508.13 477.66,894.92l-17.65 24.79 -18.25 11.32 -17.62 -11.36zm-948.65 -562.48c28.02,-55.37 46.98,-78.05 97.42,-114.09 212.04,157.12 554.21,584.82 723.96,805.24 21.12,27.43 -4.8,28.92 -41.78,46.76 -464.2,223.94 -988.22,-255.98 -779.6,-737.91zm213.48 860.3c365.51,172.34 769.54,35.5 955.36,-318.77 324.3,-618.28 -366.58,-1286.51 -986.98,-948.69 -480.11,261.43 -503.03,984.1 3.76,1252.69l27.86 14.77z"/>
     <g>
      <g>
       <path class="fil4" d="M789.56 1018.58c-115.9,-135.34 -231.78,-270.68 -347.71,-405.98 1.15,1.39 1.81,2.62 2.34,4.35 0.47,1.74 0.56,3.18 0.31,4.97 -0.29,1.74 -0.81,3.07 -1.75,4.56 -1.01,1.5 -2.01,2.49 -3.51,3.48 113.53,-67.7 212.66,-92.4 344.5,-85.52 78.9,6.96 138.19,22.88 209.77,56.72 37.23,18.56 67.14,37.25 100.14,62.57 7.43,5.9 81,70.03 85.41,68.98 1.18,-15.89 -64.15,-74.91 -75.52,-84.39 -33.21,-26.32 -63.37,-45.78 -101.04,-65.23 -73.85,-36.1 -135.17,-53.2 -217.03,-61.05 -137.29,-8.11 -240.74,17.27 -359.13,87.49 -1.65,1.07 -2.72,2.13 -3.82,3.76 -1.04,1.65 -1.58,3.07 -1.9,5 -0.26,1.92 -0.16,3.44 0.34,5.32 0.57,1.87 1.28,3.19 2.53,4.69 115.63,135.57 231.32,271.09 346.88,406.71 131.21,154.02 262.57,307.92 394.2,461.59 1.5,1.7 2.87,2.74 4.91,3.72 2.05,0.91 3.75,1.29 5.99,1.33 2.26,-0.02 3.94,-0.37 6.02,-1.27 2.05,-0.97 3.46,-2.01 4.96,-3.7 88.05,-106.48 129.34,-205.12 142.47,-342.52 4.85,-82.35 -2.65,-145.84 -27.11,-224.58 -4.47,-13.57 -9.24,-26.57 -14.62,-39.81 -23.39,-52.17 -56.6,-120.76 -105.95,-154.5 -2.9,-1.77 70.55,120.88 95.38,186.29 1.63,4.83 3.19,9.66 4.71,14.53 22.43,76 29,137.1 23.68,216.22 -13.6,131.47 -53.43,225.67 -137.96,327.49 1.19,-1.31 2.26,-2.11 3.87,-2.87 1.59,-0.68 2.91,-0.98 4.64,-1 1.76,0.03 3.1,0.33 4.71,1.05 1.58,0.76 2.68,1.59 3.84,2.9 0.36,0.19 -290.81,-340.16 -394.55,-461.3z"/>
       <path class="fil4" d="M207.63 918.88c26.56,-71.73 56.41,-122.79 105.86,-181.15 -1.21,1.34 -2.37,2.19 -4.01,2.96 -1.66,0.72 -3,1.01 -4.81,1.04 -1.83,-0.04 -3.19,-0.34 -4.86,-1.08 -1.64,-0.79 -2.78,-1.64 -3.98,-3.01 -0.78,-0.58 465.62,544.15 675.47,784.3 15.4,17.48 55.86,63.77 75.22,75.77 0,-0.14 0.02,-0.28 0.06,-0.41 0.07,-0.19 0.14,-0.17 0.27,-0.24 0.06,-0.03 0.31,0.05 0.38,0.08 0.25,0.11 0.35,0.58 0.55,0.79 0.26,0.27 0.5,0.16 0.8,0.09 0.29,-0.07 0.42,-0.4 0.59,-0.6 0.19,-0.23 0.16,-0.68 0.2,-0.92 -0.02,-0.38 -0.11,-0.65 -0.29,-0.98 -9.9,-21.34 -49.62,-68.25 -65.13,-86.83 -221.66,-263.51 -445.55,-525.41 -669.27,-787.17 -1.35,-1.54 -2.62,-2.5 -4.47,-3.39 -1.87,-0.83 -3.4,-1.17 -5.45,-1.21 -2.06,0.02 -3.58,0.34 -5.47,1.16 -1.87,0.87 -3.15,1.83 -4.52,3.37 -51.75,60.87 -83.03,114.15 -110.95,188.98 -18.3,52.77 -27.79,97.04 -32.74,152.66 -5.38,82.45 1.77,146.04 25.6,225.16 27.11,81.45 59.32,139.02 114.22,205.01 56.88,64.37 108.77,105.11 185.15,144.3 74.6,35.58 136.29,52.42 218.58,59.5 65.4,3.96 117.08,-0.24 180.88,-15.04 55.21,-15.4 128.77,-38.21 169.45,-82.32 2.07,-2.49 -130.61,52.24 -199.68,67.2 -52.48,8.9 -95.76,10.9 -148.87,7.03 -78.8,-7.58 -137.92,-24.16 -209.25,-58.67 -72.91,-37.88 -122.4,-77.01 -176.73,-138.73 -52.39,-63.2 -83.13,-118.22 -109.09,-196.12 -22.82,-75.66 -29.72,-136.47 -24.72,-215.34 4.63,-53.22 13.63,-95.66 31.01,-146.19z"/>
       <path class="fil4" d="M227.34 1628.06c59.81,57.81 112.85,95.93 186.83,133.89 91.95,44.21 168.04,65.23 269.6,74.5 101.81,6.42 180.3,-2.57 277.92,-32.17 100.58,-33.68 171.61,-73.58 253.1,-141.44 79.43,-70.25 129.72,-134.25 178.18,-228.48 43.99,-91.96 64.86,-168 73.79,-269.47 6.07,-101.61 -3.13,-179.91 -33.14,-277.15 -12.01,-36.33 -25.06,-68.05 -42.12,-102.3 -9.02,-16.98 -84.91,-143.58 -106.58,-143.28 0.29,1.85 83.57,138.13 91.55,154 15.64,32.67 27.65,62.96 38.67,97.47 28.25,94.77 36.65,170.89 30.13,269.6 -9.26,98.29 -29.81,171.95 -72.79,260.9 -47.28,91.05 -96.1,152.84 -173.14,220.66 -78.98,65.46 -147.69,103.93 -245.01,136.35 -94.41,28.47 -170.27,37.09 -268.66,30.76 -98.09,-9.08 -171.61,-29.45 -260.37,-72.27 -71.37,-36.75 -122.54,-73.62 -180.19,-129.52 -14.07,-14.06 -27.1,-28.11 -40.05,-43.2 -65.31,-78.84 -103.74,-147.4 -136.06,-244.51 -28.39,-94.22 -37.06,-169.94 -30.75,-268.11 9.03,-97.91 29.27,-171.35 71.91,-259.95 46.98,-90.84 95.46,-152.59 172.09,-220.28 78.69,-65.45 147.1,-104.08 244.07,-136.67 94.23,-28.68 169.98,-37.65 268.22,-31.72 91.79,8.04 161.21,25.89 245.31,63.43 5.24,2.43 10.44,4.91 15.63,7.45 108.54,58.17 139.61,91.68 225.9,161.5 13.1,10.2 -76.58,-101.4 -216.71,-179.93 -18.6,-9.36 -36.81,-17.61 -56.12,-25.44 -73.2,-28.49 -133.98,-42.71 -212.23,-49.92 -101.55,-6.82 -179.86,2.07 -277.43,31.31 -100.54,33.32 -171.51,73.12 -253.14,140.72 -79.58,69.98 -129.9,133.93 -178.67,228.03 -44.3,91.84 -65.28,167.94 -74.64,269.48 -6.51,101.77 2.53,180.24 32.06,277.9 33.58,100.59 73.51,171.6 141.3,253.21 13.44,15.6 26.95,30.12 41.54,44.65z"/>
      </g>
     </g>
     <path class="fil5" d="M1179.42 732.51c103.78,121.18 148.6,273.08 137.18,420.69 -9.4,121.54 -56.94,240.09 -141.06,336.13l-744.61 -869.5c107.8,-68.35 232.23,-97.08 353.76,-87.68 147.66,11.43 290.9,79.12 394.73,200.36zm-130.11 864.93c-107.8,68.35 -232.23,97.08 -353.76,87.68 -147.66,-11.43 -290.9,-79.12 -394.73,-200.36 -103.78,-121.18 -148.61,-273.08 -137.18,-420.69 9.4,-121.55 56.93,-240.09 141.06,-336.13l744.61 869.5zm235.23 -955.1c-128.81,-150.41 -306.28,-234.36 -489.08,-248.5 -182.85,-14.15 -371.17,41.52 -521.64,170.38 -150.4,128.8 -234.35,306.27 -248.5,489.07 -14.15,182.85 41.53,371.18 170.38,521.64 128.8,150.41 306.27,234.36 489.08,248.5 182.85,14.15 371.17,-41.52 521.64,-170.37 150.4,-128.81 234.35,-306.28 248.5,-489.08 14.15,-182.85 -41.53,-371.18 -170.38,-521.64z"/>
    </g>
   </g>
  </g>
  <path class="fil10" d="M727.34 569.49c295.26,0 534.62,239.35 534.62,534.61 0,295.26 -239.36,534.62 -534.62,534.62 -295.26,0 -534.61,-239.36 -534.61,-534.62 0,-295.26 239.35,-534.61 534.61,-534.61z"/>
  <g id="_1839122229216">
   <path class="fil4" d="M507.62 1357.85c0.73,-0.4 1.78,-1.06 2.51,-1.37 25,-14 45.91,-29.53 69.39,-43.28 1.91,-1.06 4.25,0.77 5.47,2.15 1.34,1.52 2.15,3.72 0.59,5.41 -15.8,15.92 -49.54,36.22 -69.03,47.45 -0.58,0.43 -1.87,1.07 -2.56,1.46 -16.17,9.03 -31.32,16.56 -49.07,22.06 -8.16,2.38 -15.25,3.94 -23.78,4.25 -1.54,0.22 -5.1,-0.03 -6.75,-0.18 -5.99,-0.82 -11.2,-1.56 -11.03,-8.16 0.35,-3.78 9.96,-2.83 13.05,-2.99 1.28,-0.09 2.54,-0.22 3.82,-0.38 7.27,-1.11 13.72,-2.92 20.69,-5.25 16.53,-5.84 31.25,-12.93 46.7,-21.17z"/>
  </g>
  <path class="fil10" d="M423.1 1387.76c38.93,16.53 148,-59.66 162.04,-72.25"/>
  <g id="_1839122233680">
   <path class="fil4" d="M908.84 1589.68c0.43,-11.27 1.18,-20.86 4.69,-31.68 0.57,-1.31 0.74,-3.93 1.21,-4.84 -0.3,0.38 21.38,1.78 5.5,2.12l4.19 -1.97c0.38,2.05 0.24,5.2 -0.05,7.24 -1.3,10.27 -2.19,19.18 -2.12,29.59 0.18,11.83 1.01,24.35 -0.57,36.07 -0.6,4.47 -2.11,4.88 -5.92,5.71 -3.73,0.8 -4.87,-3.6 -5.27,-6.39 -1.67,-11.58 -2.06,-24.17 -1.66,-35.85z"/>
  </g>
  <path class="fil10" d="M915.99 1632.01c0,-25.55 -2.12,-48.53 3.53,-72.6 0.7,-3 0.69,-9.95 0.5,-4.13"/>
  <g id="_1839122233728">
   <path class="fil4" d="M432.89 1479.25c2.19,16.22 3.88,31.65 4.15,48.04 0.05,14.84 -0.7,28.39 -5.92,42.43 -1.04,2.63 -4.04,6.07 -7.19,4.63 -2.58,-1.18 -2.55,-5.27 -2.05,-7.57 2.75,-13.38 2.99,-25.62 2.57,-39.23 -0.73,-15.86 -2.45,-30.79 -4.86,-46.47 -0.56,-3.54 -1.14,-7.08 -1.72,-10.61 -3.87,-23.22 -11.84,-59.36 -11.31,-82.17 0.48,-5.38 1.07,-7.07 6.17,-7.44 4.15,-0.34 4.65,5.31 5.06,8.21 3.84,26.4 9.38,52.85 13.54,79.37 0.54,3.6 1.07,7.2 1.56,10.81z"/>
  </g>
  <path class="fil10" d="M412.54 1380.73c-3.87,26.89 31.99,145.23 11.19,193.53"/>
  <g id="_1839122232096">
   <path class="fil4" d="M945.8 592.52c-12.13,-3.39 -29.6,-7.11 -42.01,-3.71 -2.46,0.67 -2.84,4.67 -2.63,6.74 0.18,1.78 1.2,5.1 3.28,5.48 13.45,2.34 23.44,3.53 36.8,7.83 0.31,0.11 1.21,0.47 1.47,0.51 11.81,4.16 22.04,8.96 33.47,13.53 3.93,1.53 5.66,-0.85 8.24,-3.29 3.17,-2.99 1.85,-6.23 -1.05,-8.9 -10.35,-8.99 -22.95,-13.8 -35.92,-17.72 -0.22,-0.11 -1.33,-0.38 -1.65,-0.47z"/>
  </g>
  <path class="fil10" d="M984.32 619.87c-18.76,-14.88 -58.33,-26.37 -83.14,-24.05"/>
  <g id="_1839122235408">
   <path class="fil4" d="M920.11 664.68c-0.97,-0.55 -1.9,-1.12 -2.83,-1.73 -5.02,-3.43 -8.91,-6.96 -12.06,-12.2 -1.35,-2.36 -2.21,-4.38 -2.61,-7.08 -0.24,-0.75 -0.19,-2.82 -0.07,-3.63 0.33,-2.44 2.74,-2.91 4.71,-2.13 0.59,0.23 3.18,1.59 3.4,2.16 0.17,0.45 0.36,0.91 0.57,1.33 0.66,1.33 1.63,2.61 2.5,3.79 2.95,3.57 5.75,6.05 9.7,8.5 0.27,0.23 1.81,0.99 2.21,1.18 3.5,1.63 6.42,2.58 10.26,3.01 2.1,0.18 3.78,0.14 5.86,-0.17 0.57,0.02 2.72,-0.55 3.35,-0.73 2.83,-0.81 3.78,0.46 5.74,2.1 2.55,2.13 0.29,4.96 -1.78,6.41 -1.44,1 -2.72,1.67 -4.35,2.32 -3.4,1.24 -6.15,1.6 -9.76,1.46 -5.67,-0.4 -9.88,-1.89 -14.84,-4.59z"/>
  </g>
  <path class="fil10" d="M950.78 658.89c-19.07,15.72 -47.25,-10.83 -43.36,-20.92"/>
 </g>
</svg>
