<?xml version="1.0" encoding="UTF-8"?>
<!DOCTYPE svg PUBLIC "-//W3C//DTD SVG 1.1//EN" "http://www.w3.org/Graphics/SVG/1.1/DTD/svg11.dtd">
<!-- Creator: CorelDRAW -->
<svg xmlns="http://www.w3.org/2000/svg" xml:space="preserve" width="1371px" height="1254px" version="1.1" style="shape-rendering:geometricPrecision; text-rendering:geometricPrecision; image-rendering:optimizeQuality; fill-rule:evenodd; clip-rule:evenodd"
viewBox="0 0 188.03 171.98"
 xmlns:xlink="http://www.w3.org/1999/xlink"
 xmlns:xodm="http://www.corel.com/coreldraw/odm/2003">
 <defs>
  <style type="text/css">
   <![CDATA[
    .fil3 {fill:none}
    .fil5 {fill:#E51A4B}
    .fil1 {fill:#F78384}
    .fil4 {fill:#F7DBC6}
    .fil0 {fill:#FDD4D4}
    .fil2 {fill:#262749;fill-rule:nonzero}
   ]]>
  </style>
 </defs>
 <g id="Camada_x0020_1">
  <metadata id="CorelCorpID_0Corel-Layer"/>
  <g id="_1658597746864">
   <path class="fil0" d="M88.78 0.2c-69.79,-3.56 -80.42,40.93 -67.8,98.52 16.07,73.33 84.31,100.28 132.95,40.36 13.02,-16.03 21.76,-35.09 23.12,-56.05 1.97,-53.49 -31.99,-77.99 -83.94,-82.46l-4.33 -0.37z"/>
   <path class="fil1" d="M17.35 78.47c1.47,-2 -0.78,-5.67 -1.24,-7.76 0.82,0.7 4.08,5.71 6.23,4.73 0.5,-1.58 -1.62,-3.23 -2.47,-4.17 -0.79,-0.89 -2.26,-3.41 -2.53,-4.69 1.88,0.73 5.31,5.65 7.51,5.37 0.45,-3 -3.12,-4.99 -3.85,-6.42 1.44,0.29 4.14,1.83 5.5,1.43 0.31,-1.91 -3.42,-2.76 -4.53,-3.71 0.98,-0.01 1.78,0.11 2.74,0.2 2.44,0.21 2.27,-0.25 2.37,-1 -2.14,-1.88 -6.75,-1.26 -9.73,-2.14 -8.11,-2.39 -10.33,-10.23 -7.91,-14.28 3.92,-6.54 22.53,0.46 26.94,3.16 3.76,2.31 11.21,6.72 14.23,9.39 1.1,0.8 2.99,2.24 3.71,3.24 0.7,0.75 1.3,1.15 1.96,1.98 0.65,0.8 1.33,1.46 2.02,2.27 30.57,35.63 1.07,32.77 17.3,53.65 1.41,1.82 2.35,2.17 3.07,5.27 1.33,5.81 0.32,11.1 1.22,15.78 0.42,2.2 1.11,4.51 1.65,6.87 0.59,2.57 0.5,4.71 2.13,6.24 1.14,1.07 4.96,3.11 4.64,-0.86l1.4 -10.74 10.15 1.61 0.59 9.09c-0.35,3.89 3.22,2.18 4.5,0.98 1.87,-1.74 1.57,-3.4 2.2,-6.14 0.53,-2.32 1.13,-4.43 1.63,-6.76 0.96,-4.45 -0.03,-10.18 1.2,-15.7 0.75,-3.39 1.37,-3.42 3.08,-5.51 9.91,-12.17 2.8,-18.44 2.66,-25.98 -0.1,-5.07 2.18,-9.34 4.07,-12.96 2.34,-4.48 5.48,-8.49 8.61,-12.39 2.18,-2.71 3.44,-4.24 6.06,-6.72l0.44 -0.5c0.18,-0.18 0.22,-0.19 0.45,-0.4 0.41,-0.38 0.51,-0.54 0.87,-0.85 0.74,-0.62 1.35,-0.98 2.08,-1.76l6.9 -4.69c2.27,-1.51 5.02,-3.22 7.3,-4.49 3.84,-2.14 12.71,-5.45 17.76,-5.73 3.68,-0.21 7.32,0 9.04,2.64 2.3,3.54 0.54,11.8 -7.74,14.21 -3.58,1.04 -6.18,0.38 -9.67,2.01 -0.22,0.43 -0.14,0.27 -0.21,0.77 1.42,0.98 3.4,0.2 5.13,0.24 -0.9,0.76 -5.2,2.04 -4.52,3.65 0.28,0.31 0.95,0.17 1.39,0.05 1.46,-0.36 2.75,-1.25 4.22,-1.38 -0.55,0.55 -5.51,4.97 -3.79,6.39 0,0 -0.05,0.32 0.81,-0.11 0.53,-0.25 0.65,-0.38 1.03,-0.71 1.05,-0.92 4.73,-4.29 5.38,-4.51 -0.52,4.19 -5.63,6.37 -5,8.88 2.79,0.48 5.28,-3.88 6.14,-4.46 -0.46,2.33 -2.5,5.21 -1.14,7.45 2.82,-0.69 2.11,-8.24 6.92,-13.5 3.07,-3.36 6.94,-5.86 8.57,-11.78 2.49,-8.99 -3.07,-16.98 -11.32,-18.14 -2.98,-0.42 -6.81,-0.12 -9.65,0.32 -2.99,0.46 -5.57,1.07 -8.43,1.67 -2.96,0.64 -5.73,0.99 -8.77,1.54 -5.32,0.94 -13.59,1.05 -19.34,0.98 -6.98,-0.09 -11.51,-0.86 -17.72,-2.61 -16.52,-4.68 -18.42,-4.13 -34.28,-0.04 -6.35,1.64 -10.54,2.54 -17.66,2.67 -18.43,0.34 -20.61,-1.54 -36.73,-4.2 -5.83,-0.97 -12.23,-1.08 -16.61,2.77 -3.53,3.11 -6.2,7.92 -4.46,14.87 2.24,8.9 8.38,8.26 12.26,18.43 0.7,1.84 1.41,6.6 3.24,6.99z"/>
   <g>
    <g>
     <path class="fil2" d="M66.85 73.41c2.22,3.39 3.98,6.44 5.38,10.26 1.51,4.61 1.8,7.72 0.73,12.44 -0.78,3.1 -1.86,5.63 -1.95,8.88 0.02,1.87 0.35,3.23 1.03,4.97 1.05,2.51 2.36,4.46 4,6.62 1.89,2.36 2.43,2.42 3.23,5.64 1.18,5.94 0.31,10.39 1.16,15.83 0.45,2.31 1.08,4.56 1.59,6.86 0.25,1.17 0.39,2.35 0.64,3.5 0.17,0.72 0.42,1.44 0.89,2.02 0.1,0.13 0.2,0.24 0.31,0.35 0.66,0.61 1.56,1.15 2.44,1.38 0.18,0.04 0.34,0.06 0.52,0.04 0.14,-0.02 0.24,-0.04 0.36,-0.13 0.17,-0.12 0.26,-0.28 0.34,-0.48 0.09,-0.21 0.31,-1.09 0.43,-1.11 0.25,0.11 0.27,1.05 0.26,1.28 -0.05,0.37 -0.14,0.63 -0.37,0.93 -0.23,0.27 -0.45,0.4 -0.78,0.51 -0.32,0.09 -0.58,0.1 -0.91,0.08 -1.2,-0.15 -2.31,-0.73 -3.22,-1.51 -0.2,-0.18 -0.36,-0.35 -0.53,-0.56 -0.61,-0.81 -0.88,-1.49 -1.13,-2.46 -0.28,-1.16 -0.44,-2.34 -0.71,-3.51 -0.55,-2.3 -1.22,-4.56 -1.7,-6.88 -0.92,-5.42 -0.11,-10.01 -1.29,-15.74 -0.73,-2.85 -1.22,-2.83 -2.94,-4.95 -1.76,-2.3 -3.14,-4.35 -4.28,-7.02 -0.78,-1.99 -1.14,-3.53 -1.17,-5.66 0.09,-3.57 1.14,-5.96 1.98,-9.32 0.97,-4.34 0.69,-7.13 -0.71,-11.38 -1.35,-3.65 -3.06,-6.58 -5.2,-9.81 -2.5,-3.68 -5.11,-6.96 -8,-10.34 -0.67,-0.77 -1.38,-1.49 -2.04,-2.29 -0.6,-0.71 -1.28,-1.25 -1.92,-1.92 -0.03,-0.03 -0.05,-0.06 -0.08,-0.09 -0.82,-1.05 -2.4,-2.23 -3.5,-3.02 0.02,0.01 -0.05,-0.04 -0.08,-0.06 -4.01,-3.34 -9.58,-6.51 -14.1,-9.27 -3.81,-2.21 -9.08,-3.93 -13.35,-4.95 -2.62,-0.57 -5.04,-0.95 -7.73,-0.76 -1.03,0.1 -1.88,0.26 -2.82,0.69 -0.76,0.38 -1.25,0.76 -1.71,1.48 -0.6,1.03 -0.79,1.96 -0.82,3.14 0.01,1.41 0.27,2.49 0.82,3.78 0.69,1.48 1.45,2.48 2.66,3.58 0.75,0.65 1.43,1.11 2.31,1.58 0.79,0.42 1.51,0.71 2.36,0.98 1.64,0.47 3.33,0.56 5.02,0.81 0.91,0.14 1.75,0.3 2.6,0.64 0.85,0.36 1.2,0.6 1.71,1.34 0.35,0.57 -1.27,-0.26 -1.96,-0.43 -0.84,-0.17 -1.63,-0.25 -2.48,-0.31 -1.83,-0.13 -3.52,-0.15 -5.32,-0.6 -1.63,-0.48 -2.83,-1.02 -4.25,-1.96 -0.37,-0.26 -0.71,-0.52 -1.06,-0.81 -1.42,-1.25 -2.31,-2.4 -3.14,-4.1 -0.69,-1.54 -1,-2.82 -1.03,-4.51 0.02,-1.53 0.28,-2.71 1.03,-4.05 0.66,-1.06 1.36,-1.65 2.46,-2.21 1.17,-0.54 2.17,-0.75 3.44,-0.89 2.92,-0.23 5.48,0.15 8.33,0.75 4.53,1.07 9.91,2.81 13.96,5.14 4.64,2.83 10.24,6.02 14.37,9.47 0,0 -0.06,-0.05 -0.08,-0.07 1.35,0.99 2.91,2.15 3.94,3.46 0.01,0.01 -0.05,-0.06 -0.07,-0.08 0.69,0.72 1.35,1.24 2,2.03 0.64,0.77 1.35,1.49 2.01,2.25 2.93,3.44 5.58,6.78 8.12,10.53z"/>
     <path class="fil2" d="M107.45 138.48c0.01,-0.06 0.02,-0.12 0.03,-0.17 0.96,-5.39 0.03,-9.94 1.35,-15.69 0.16,-0.63 0.35,-1.3 0.6,-1.9 0.19,-0.41 0.64,-1.18 1.21,-0.89 0.38,0.23 0.18,1.04 0.09,1.37 -0.17,0.59 -0.28,1.16 -0.41,1.75 -0.91,5.53 -0.09,10.45 -0.96,15.76 -0.02,0.06 -0.03,0.12 -0.04,0.18 -0.46,2.22 -1.05,4.39 -1.53,6.6 -0.26,1.15 -0.37,2.32 -0.65,3.46 -0.36,1.37 -0.83,2.17 -1.87,3.15 -0.48,0.42 -0.95,0.72 -1.52,1.01 -0.64,0.31 -1.2,0.51 -1.91,0.57 -0.38,0.02 -0.67,-0.01 -1.04,-0.13 -0.01,0 -0.09,-0.04 -0.11,-0.05 -0.34,-0.15 -0.57,-0.32 -0.79,-0.61 -0.26,-0.36 -0.36,-0.68 -0.41,-1.11 0.02,-0.72 0.11,-0.93 0.66,-1.29 0.35,-0.2 0.51,0.72 0.63,1.02 0.07,0.16 0.14,0.31 0.27,0.42 0.08,0.06 0.14,0.09 0.24,0.11 0.01,0 0.12,0.01 0.13,0.01 0.1,0.01 0.18,0 0.27,-0.01 0.46,-0.08 0.84,-0.26 1.24,-0.48 0.4,-0.23 0.76,-0.48 1.09,-0.8 0.73,-0.74 1.01,-1.26 1.25,-2.27 0.24,-1.13 0.35,-2.28 0.6,-3.44 0.5,-2.2 1.1,-4.37 1.58,-6.57z"/>
     <path class="fil2" d="M125.14 68.08c0.72,-0.92 1.44,-1.82 2.16,-2.73 2.08,-2.58 3.74,-4.51 6.15,-6.81 0,-0.01 -0.04,0.04 -0.06,0.06 0,0 0.29,-0.34 0.43,-0.5 0.01,-0.01 0.05,-0.05 0.07,-0.07 0.14,-0.15 0.31,-0.27 0.46,-0.41 0.31,-0.29 0.57,-0.59 0.91,-0.87 0.7,-0.58 1.34,-1.02 1.98,-1.68 0.06,-0.06 0.12,-0.11 0.18,-0.15 2.3,-1.57 4.6,-3.12 6.9,-4.68 2.43,-1.6 4.86,-3.1 7.4,-4.5 4.31,-2.26 9.36,-3.99 14.1,-5.05 0.49,-0.09 3.9,-0.69 4.11,0.1 -0.16,0.47 -3.41,1.15 -3.87,1.26 -4.49,1.17 -9.43,2.95 -13.51,5.18 -2.47,1.42 -4.85,2.92 -7.22,4.5 -2.29,1.58 -4.58,3.15 -6.87,4.72 0.05,-0.04 0.09,-0.07 0.13,-0.11 -0.72,0.75 -1.36,1.18 -2.13,1.83 -0.3,0.25 -0.56,0.54 -0.84,0.81 -0.14,0.13 -0.3,0.26 -0.43,0.39 -0.02,0.01 0.03,-0.03 0.04,-0.05 0,0 -0.29,0.34 -0.43,0.51 -0.01,0.01 -0.06,0.05 -0.06,0.06 -2.35,2.25 -3.94,4.12 -5.96,6.65 -0.71,0.9 -1.42,1.8 -2.13,2.71 -2.42,3.17 -4.44,6.02 -6.32,9.56 -2.24,4.32 -3.87,7.49 -3.95,12.49 0.2,3.84 1.79,7.24 2.39,11.14 0.31,2.6 0.17,4.47 -0.57,6.98 -0.54,1.68 -1.18,2.99 -2.09,4.5 -0.87,1.4 -1.75,2.57 -2.85,3.8 -1.1,1.17 -1.26,1.38 -2.56,2.01 -1.02,0.46 1.49,-2.76 1.55,-2.83 1.14,-1.54 2.08,-2.96 2.98,-4.66 0.56,-1.12 0.97,-2.11 1.32,-3.31 0.62,-2.26 0.71,-3.92 0.4,-6.23 -0.69,-4.08 -2.27,-7.15 -2.51,-11.36 0.06,-5.42 1.72,-8.77 4.15,-13.44 1.95,-3.64 4.03,-6.57 6.55,-9.82z"/>
     <path class="fil2" d="M180.85 47.99c-0.13,1.26 -0.39,2.23 -0.86,3.39 -0.79,1.77 -1.65,2.97 -3.09,4.27 -1.35,1.15 -2.55,1.81 -4.25,2.36 -0.41,0.11 -1.21,0.22 -1.41,-0.3 -0.1,-0.42 0.64,-0.86 0.94,-1 1.39,-0.66 2.41,-1.31 3.55,-2.36 1.17,-1.15 1.9,-2.18 2.53,-3.69 0.39,-0.98 0.59,-1.8 0.68,-2.84 0.02,-0.33 0.03,-0.63 0.01,-0.95 -0.06,-1.06 -0.24,-1.95 -0.81,-2.86 -0.38,-0.55 -0.73,-0.89 -1.3,-1.25 -0.62,-0.37 -1.17,-0.57 -1.86,-0.75 -1.04,-0.25 -2,-0.35 -3.06,-0.42 -0.93,-0.07 -1.51,0 -1.95,-0.8 -0.39,-0.66 2.04,-0.79 2.24,-0.8 1.12,-0.03 2.07,0.01 3.17,0.21 0.93,0.2 1.64,0.43 2.46,0.9 0.85,0.52 1.39,1.02 1.95,1.84 0.78,1.26 1.04,2.42 1.1,3.88 0.01,0.4 -0.01,0.78 -0.04,1.17z"/>
     <path class="fil2" d="M164.7 59.84c0.54,-0.07 1.04,-0.11 1.59,-0.13 0.25,0 0.43,0.06 0.63,0.2 0.2,0.15 0.31,0.31 0.38,0.54 0.07,0.24 0.07,0.42 -0.01,0.66 -0.09,0.23 -0.2,0.38 -0.4,0.52 -0.13,0.17 -2.49,1.25 -2.91,1.51 -0.35,0.21 -0.74,0.44 -1.02,0.74 -0.03,0.05 -0.08,0.13 -0.1,0.14l-0.01 -0.05c-0.04,-0.11 -0.09,-0.19 -0.17,-0.27 -0.05,-0.05 -0.12,-0.11 -0.2,-0.12 -0.02,-0.01 0.07,0 0.08,0 0.2,0 0.39,-0.04 0.57,-0.08 1.1,-0.26 2.06,-0.73 3.17,-1 0.44,-0.08 1.18,-0.07 1.27,0.49 0.03,0.39 -0.58,0.72 -0.88,0.83 -1.11,0.45 -1.97,0.97 -3.15,1.33 -0.3,0.09 -0.57,0.15 -0.9,0.17 -0.21,0.01 -0.38,0 -0.59,-0.04 -0.27,-0.07 -0.46,-0.17 -0.66,-0.38 -0.08,-0.08 -0.13,-0.15 -0.17,-0.26 -0.15,-0.37 -0.18,-0.67 -0.09,-1.07 0.1,-0.34 0.23,-0.58 0.46,-0.86 0.43,-0.5 0.9,-0.82 1.47,-1.16 0.85,-0.49 2.03,-0.98 2.77,-1.49 -0.16,0.12 -0.25,0.24 -0.32,0.42 -0.06,0.19 -0.06,0.34 -0.01,0.53 0.06,0.18 0.15,0.31 0.3,0.43 0.16,0.11 0.31,0.16 0.51,0.16 -0.47,0.02 -0.92,0.08 -1.38,0.14 -0.36,0.05 -0.78,0.12 -1.14,0.14 -0.51,0.04 -0.94,0.05 -1.45,-0.03 -0.58,-0.09 -1,-0.24 -1.5,-0.56 -0.18,-0.12 -0.28,-0.25 -0.37,-0.44 -0.09,-0.2 -0.11,-0.36 -0.08,-0.58 0.06,-0.5 0.04,-0.53 0.29,-1.01 0.12,-0.23 0.26,-0.37 0.49,-0.48 3.15,-1.36 4.77,-1.19 7.99,-1.47 0.93,-0.09 1.43,-0.25 2.05,0.41 0.51,0.6 -1.83,1.15 -2.06,1.2 -2.76,0.54 -4.44,0.45 -7.15,1.64 0.19,-0.09 0.32,-0.22 0.42,-0.41 -0.13,0.28 -0.03,-0.05 -0.09,0.41 0.02,-0.19 0,-0.33 -0.07,-0.51 -0.08,-0.17 -0.17,-0.28 -0.33,-0.39 0.24,0.16 0.44,0.22 0.72,0.27 0.35,0.05 0.66,0.04 1.01,0.02 0.35,-0.02 0.69,-0.07 1.04,-0.11z"/>
     <path class="fil2" d="M168.16 65.03c0.64,-0.55 1.54,-1.35 2.27,-1.78 0.19,-0.09 0.35,-0.13 0.57,-0.12 0.21,0.02 0.36,0.07 0.54,0.19 0.17,0.12 0.27,0.25 0.36,0.44 0.08,0.2 0.1,0.36 0.07,0.57 -0.21,1.25 -0.59,2.11 -1.28,3.16 -0.61,0.88 -1.22,1.56 -1.96,2.32 -0.54,0.57 -1.12,1.13 -1.59,1.75 -0.12,0.14 -0.28,0.41 -0.36,0.58 -0.01,0.02 -0.02,0.06 -0.04,0.08 -0.14,0.27 -0.41,0.63 -0.71,0.73 -0.54,0.06 -0.63,-0.7 -0.59,-1.07 -0.01,-0.02 0.03,-0.15 0.03,-0.18 0.1,-0.35 0.23,-0.62 0.41,-0.94 0.45,-0.78 1.01,-1.42 1.59,-2.09 0.62,-0.72 1.19,-1.38 1.71,-2.18 0.5,-0.82 0.8,-1.47 0.94,-2.43 -0.02,0.17 0,0.29 0.06,0.45 0.07,0.14 0.15,0.24 0.28,0.34 0.14,0.09 0.26,0.13 0.42,0.15 0.17,0 0.29,-0.02 0.44,-0.1 -0.62,0.41 -1.36,1.09 -1.91,1.59 -1.06,0.94 -2.09,1.9 -3.14,2.84 -0.47,0.41 -0.66,0.58 -1.24,0.86 -0.38,0.19 -0.71,0.33 -1.15,0.32 -0.13,0 -0.24,-0.02 -0.36,-0.07 -0.15,-0.05 -0.26,-0.12 -0.38,-0.23 -0.2,-0.19 -0.3,-0.38 -0.34,-0.65 0.02,0.12 0.05,0.21 0.11,0.33 0.06,0.1 0.12,0.17 0.21,0.25 -0.22,-0.19 -0.35,-0.36 -0.48,-0.61 -0.11,-0.25 -0.17,-0.45 -0.19,-0.72 -0.03,-0.48 0.05,-0.84 0.22,-1.29 0.36,-0.86 0.86,-1.52 1.46,-2.23 0.6,-0.69 1.21,-1.3 1.9,-1.91 0.72,-0.61 0.89,-0.84 1.56,-0.33 0.62,0.49 -0.25,1.22 -0.64,1.66 -0.5,0.56 -0.98,1.11 -1.44,1.71 -0.41,0.55 -0.82,1.12 -1.06,1.78 -0.04,0.12 -0.1,0.31 -0.08,0.44 0,0.01 0.01,0.04 0.01,0.03 0,-0.01 0,-0.01 0.01,0 0.1,0.08 0.16,0.16 0.23,0.28 0.06,0.12 0.1,0.22 0.11,0.36 -0.03,-0.22 -0.11,-0.38 -0.27,-0.53 -0.09,-0.08 -0.17,-0.13 -0.28,-0.17 -0.07,-0.03 -0.14,-0.04 -0.22,-0.05 -0.24,0 0.03,-0.04 0.21,-0.13 0.4,-0.2 0.48,-0.29 0.81,-0.58 1.06,-0.94 2.1,-1.89 3.18,-2.82z"/>
     <path class="fil2" d="M173.06 68.94c-0.33,1.29 -0.85,2.44 -1.27,3.69 -0.17,0.54 -0.3,1.02 -0.36,1.58 -0.02,0.33 -0.02,0.59 0.03,0.92 0.05,0.29 -0.19,0.66 -0.43,0.8 -0.34,0.2 -0.72,-0.02 -0.87,-0.34 -0.22,-0.47 -0.31,-0.86 -0.35,-1.38 -0.03,-0.76 0.07,-1.36 0.26,-2.09 0.34,-1.22 0.87,-2.41 1.12,-3.62 0.01,-0.01 0.01,-0.03 0.01,-0.04 -0.04,0.19 -0.02,0.35 0.05,0.54 0.09,0.18 0.19,0.3 0.36,0.4 0.18,0.1 0.33,0.13 0.53,0.12 0.2,-0.03 0.35,-0.09 0.5,-0.22 -0.82,0.94 -1.38,1.77 -2.31,2.69 -0.63,0.6 -1.19,1.04 -1.99,1.41 -0.39,0.17 -0.71,0.27 -1.13,0.33 -0.78,0.05 -1.12,-0.05 -1.19,-0.8 -0.04,-0.46 0.62,-0.65 0.95,-0.79 0.21,-0.08 0.38,-0.18 0.57,-0.3 0.55,-0.36 0.97,-0.76 1.43,-1.23 0.83,-0.87 1.57,-1.95 2.37,-2.74 0.19,-0.16 0.36,-0.23 0.6,-0.26 0.24,-0.02 0.42,0.02 0.64,0.13 0.2,0.13 0.33,0.27 0.43,0.49 0.09,0.23 0.11,0.41 0.06,0.65 0,0 -0.01,0.05 -0.01,0.06z"/>
     <path class="fil2" d="M122.44 37.68c-4.12,-0.45 -7.46,-1.19 -11.44,-2.3 -16.32,-4.52 -17.62,-4.19 -33.77,-0.04 -6.75,1.72 -10.87,2.5 -17.89,2.67 -11.68,0.1 -16.8,-0.44 -27.96,-2.77 -0.51,-0.11 -8.99,-1.9 -8.79,-2.35 0.81,-0.45 8.07,0.81 9.18,1.02 10.89,2.04 16.2,2.53 27.54,2.37 6.86,-0.2 10.87,-0.99 17.47,-2.69 16.48,-4.28 18.08,-4.62 34.73,-0.03 3.88,1.07 7.12,1.79 11.13,2.21 2.14,0.21 4.21,0.29 6.36,0.32 6.26,0.05 12.97,0.01 19.15,-1 2.92,-0.52 5.83,-0.93 8.74,-1.53 2.85,-0.62 5.61,-1.23 8.49,-1.69 3.35,-0.49 6.56,-0.73 9.93,-0.32 2.32,0.37 4,0.98 5.99,2.22 1.89,1.25 3.12,2.48 4.37,4.37 1.23,1.97 1.84,3.64 2.2,5.93 0.33,2.5 0.16,4.42 -0.48,6.85 -2.04,6.32 -4.6,7.66 -8.85,12.09 -0.33,0.35 -0.62,0.7 -0.91,1.09 -1.71,2.43 -2.35,4.27 -3.28,7 -0.36,1.1 -0.75,2.37 -1.35,3.37 -0.26,0.43 -0.51,0.78 -0.93,1.06 -0.29,0.19 -0.51,0.27 -0.85,0.32 -0.59,0.03 0.07,-0.31 0.41,-0.73 0.23,-0.33 0.38,-0.66 0.53,-1.03 0.39,-1.08 0.67,-2.25 0.96,-3.35 0.94,-3.56 1.81,-5.91 4.23,-8.81 0.13,-0.15 0.27,-0.3 0.4,-0.44 3.8,-3.95 6.18,-5.48 7.92,-11.05 0.55,-2.17 0.69,-3.88 0.38,-6.1 -0.33,-2 -0.87,-3.46 -1.96,-5.18 -1.1,-1.63 -2.17,-2.7 -3.82,-3.78 -1.74,-1.07 -3.21,-1.6 -5.23,-1.91 -3.15,-0.38 -6.23,-0.13 -9.36,0.33 -2.85,0.46 -5.57,1.07 -8.38,1.68 -2.93,0.61 -5.86,1.02 -8.81,1.54 -6.35,1.03 -13.08,1.07 -19.51,1 -2.22,-0.03 -4.33,-0.13 -6.54,-0.34z"/>
     <path class="fil2" d="M3.62 53.41c3.59,6.39 7.25,5.96 11.07,15.18 0.46,1.3 0.75,2.71 1.17,4.05 0.2,0.62 0.41,1.2 0.74,1.77 0.11,0.18 0.21,0.33 0.36,0.48 0.08,0.07 0.15,0.13 0.24,0.16 -0.17,-0.04 -0.31,-0.03 -0.49,0.03 -0.16,0.06 -0.28,0.15 -0.38,0.3 0.27,-0.4 0.33,-0.76 0.33,-1.23 -0.01,-0.66 -0.13,-1.23 -0.31,-1.87 -0.12,-0.44 -0.26,-0.86 -0.41,-1.3 -0.14,-0.41 -0.88,-2.56 -0.18,-2.81 0.48,-0.08 1.37,2.08 1.49,2.38 0.18,0.44 0.34,0.86 0.49,1.31 0.25,0.77 0.42,1.43 0.46,2.25 0.02,0.85 -0.1,1.47 -0.56,2.19 -0.1,0.14 -0.21,0.22 -0.37,0.29 -0.16,0.05 -0.29,0.06 -0.46,0.02 -0.38,-0.1 -0.64,-0.25 -0.94,-0.51 -0.29,-0.26 -0.47,-0.5 -0.68,-0.82 -0.42,-0.68 -0.69,-1.35 -0.95,-2.1 -0.44,-1.3 -0.75,-2.72 -1.21,-3.96 -3.71,-8.7 -7.39,-8.39 -11.12,-14.96 -0.59,-1.19 -0.96,-2.25 -1.3,-3.53 -0.81,-3.43 -0.89,-6.09 0.24,-9.45 1.05,-2.7 2.34,-4.46 4.49,-6.39 2.61,-2.15 4.98,-2.96 8.3,-3.34 1.42,-0.13 2.69,-0.14 4.11,-0.05 1.44,0.13 3.73,0.17 4.76,1.37 0.46,0.65 -5.24,0.21 -5.5,0.2 -1.09,0.01 -2.09,0.07 -3.17,0.2 -2.9,0.43 -4.97,1.15 -7.23,3.06 -1.86,1.71 -3,3.25 -3.92,5.62 -0.98,2.95 -0.9,5.29 -0.2,8.3 0.29,1.15 0.62,2.09 1.13,3.16z"/>
     <path class="fil2" d="M19.28 70.63c0.46,0.46 0.89,0.82 1.43,1.18 0.2,0.12 0.38,0.22 0.58,0.31 0.05,0.03 0.21,0.09 0.27,0.11 0.11,0.04 0.39,0.52 0.44,0.63 0.11,0.25 0.13,0.62 -0.18,0.73 -0.27,0.09 -0.48,0.12 -0.77,0.11 -0.45,-0.03 -0.79,-0.14 -1.2,-0.33 -0.74,-0.37 -1.3,-0.83 -1.92,-1.38 -0.07,-0.06 -0.14,-0.12 -0.21,-0.18 -0.71,-0.68 -1.94,-1.98 -2.33,-2.89 -0.07,-0.26 0.27,-0.59 0.42,-0.78 0.21,-0.27 0.46,-0.48 0.8,-0.26 0.76,0.56 1.79,1.85 2.5,2.58 0.05,0.05 0.11,0.12 0.17,0.17z"/>
     <path class="fil2" d="M18.65 69.19c-0.87,-1.07 -2.16,-3.24 -2.29,-4.62 -0.03,-0.31 0.38,-0.48 0.62,-0.53 0.19,-0.04 0.59,-0.06 0.7,0.13 0.74,1.26 1.49,2.72 2.46,3.81 0.01,0.01 0.11,0.1 0.11,0.11 0.67,0.64 1.23,1.13 1.8,1.87 0.35,0.47 0.58,0.87 0.74,1.44 0.07,0.25 0.1,0.45 0.1,0.7 -0.05,0.71 -0.28,0.84 -0.9,0.77 -0.35,-0.04 -0.56,-0.35 -0.69,-0.64 -0.04,-0.09 -0.08,-0.16 -0.12,-0.24 -0.19,-0.31 -0.39,-0.57 -0.63,-0.84 -0.56,-0.63 -1.18,-1.16 -1.74,-1.78 -0.05,-0.06 -0.11,-0.12 -0.16,-0.18z"/>
     <path class="fil2" d="M24.16 68.4c0.07,0.02 0.14,0.03 0.22,0.02 -0.22,0.03 -0.38,0.1 -0.55,0.25 -0.16,0.17 -0.24,0.32 -0.28,0.55 0.06,-0.58 -0.02,-0.98 -0.25,-1.51 -0.27,-0.57 -0.59,-1 -0.99,-1.49 -0.65,-0.76 -1.44,-1.51 -1.96,-2.34 -0.21,-0.35 -0.04,-0.72 0.3,-0.88 0.23,-0.12 0.58,-0.16 0.79,0.03 0.75,0.69 1.47,1.28 2.19,2.02 0.57,0.62 0.98,1.14 1.35,1.9 0.4,0.87 0.54,1.57 0.45,2.53 -0.04,0.23 -0.12,0.4 -0.29,0.57 -0.18,0.16 -0.35,0.24 -0.58,0.26 -0.3,0.03 -0.53,0.02 -0.82,-0.04 -0.17,-0.03 -0.31,-0.07 -0.47,-0.13 -0.44,-0.16 -0.78,-0.34 -1.17,-0.58 -0.81,-0.54 -1.46,-1.11 -2.16,-1.78 -0.9,-0.87 -1.76,-1.78 -2.66,-2.65 -0.46,-0.44 -0.34,-0.58 -0.24,-1.12 0.12,-0.68 0.95,-0.3 1.31,-0.08 1.05,0.68 1.99,1.6 2.92,2.44 0.62,0.56 1.23,1.09 1.92,1.56 0.24,0.16 0.48,0.3 0.75,0.41 0.05,0.02 0.16,0.05 0.22,0.06z"/>
     <path class="fil2" d="M25.2 64.15c0,-0.03 -0.01,-0.06 -0.02,-0.08 -0.04,-0.11 -0.11,-0.19 -0.18,-0.27 -0.3,-0.31 -0.68,-0.54 -1.05,-0.76 -0.82,-0.46 -1.75,-0.87 -2.44,-1.49 -0.25,-0.23 -0.07,-0.62 0.11,-0.83 0.13,-0.15 0.43,-0.4 0.64,-0.33 0.88,0.32 1.72,0.65 2.56,1.06 0.6,0.31 1.08,0.6 1.57,1.09 0.25,0.27 0.42,0.5 0.57,0.84 0.07,0.18 0.11,0.34 0.14,0.53 0.03,0.21 0.04,0.38 0.01,0.59 -0.03,0.21 -0.1,0.36 -0.24,0.53 -0.15,0.16 -0.29,0.25 -0.5,0.31 -0.59,0.15 -1.07,0.12 -1.66,0.01 -0.58,-0.11 -1.07,-0.28 -1.62,-0.49 -0.69,-0.27 -1.36,-0.57 -2.01,-0.92 -0.49,-0.26 -0.41,-0.52 -0.39,-0.99 0.03,-0.56 0.55,-0.58 0.99,-0.49 0.71,0.15 1.38,0.38 2.07,0.6 0.45,0.14 0.89,0.28 1.35,0.37 0.23,0.04 0.55,0.09 0.79,0.04 -0.2,0.05 -0.33,0.13 -0.46,0.28 -0.13,0.15 -0.2,0.29 -0.23,0.49 0,0 0,-0.07 0,-0.09z"/>
     <path class="fil2" d="M24.73 59.93c0.34,0.02 0.64,0.03 0.97,0.02 0.11,0 0.3,-0.06 0.23,0.03 -0.04,0.04 -0.06,0.08 -0.08,0.14 -0.01,0.01 -0.03,0.08 0.01,0.07 0.04,-0.01 0.08,-0.1 0.11,-0.14 0.1,-0.18 0.58,-0.18 0.76,-0.15 0.15,0.02 0.58,0.13 0.61,0.32 0.02,0.12 0.02,0.22 0.02,0.35 -0.03,0.16 -0.06,0.28 -0.14,0.43 -0.09,0.17 -0.19,0.28 -0.35,0.4 -0.33,0.25 -0.64,0.32 -1.04,0.38 -0.41,0.06 -0.82,0.06 -1.23,0.06 -0.1,0 -0.2,0 -0.3,0 -0.8,-0.02 -1.51,-0.07 -2.27,-0.32 -0.36,-0.13 -0.35,-0.55 -0.38,-0.85 -0.04,-0.38 0.09,-0.66 0.48,-0.75 0.82,-0.15 1.52,-0.08 2.34,-0.01 0.08,0 0.18,0.02 0.26,0.02z"/>
    </g>
   </g>
   <path class="fil3" d="M26.76 59.9c-2.15,-1.88 -6.76,-1.26 -9.73,-2.14 -8.12,-2.39 -10.34,-10.23 -7.91,-14.29 3.91,-6.54 22.52,0.47 26.93,3.17 3.76,2.31 11.21,6.72 14.23,9.39 1.11,0.8 3,2.24 3.72,3.24 0.7,0.75 1.29,1.15 1.96,1.98 0.64,0.8 1.32,1.46 2.02,2.27 30.56,35.62 1.06,32.77 17.3,53.65 1.41,1.81 2.35,2.17 3.06,5.27 1.34,5.8 0.32,11.09 1.22,15.78 0.43,2.2 1.11,4.51 1.65,6.87 0.59,2.57 0.51,4.71 2.13,6.24 1.14,1.07 4.97,3.11 4.64,-0.86m12.14 -0.04c-0.35,3.89 3.22,2.18 4.5,0.98 1.87,-1.74 1.57,-3.4 2.2,-6.14 0.53,-2.32 1.13,-4.43 1.63,-6.76 0.96,-4.45 -0.02,-10.18 1.21,-15.7 0.32,-1.48 0.63,-2.32 1.01,-2.97m0 0c0.49,-0.84 1.1,-1.36 2.07,-2.54 9.9,-12.17 2.79,-18.44 2.65,-25.98 -0.09,-5.07 2.18,-9.34 4.08,-12.96 2.34,-4.48 5.47,-8.49 8.6,-12.39 2.18,-2.71 3.44,-4.24 6.06,-6.72l0.44 -0.5c0.18,-0.18 0.23,-0.19 0.45,-0.4 0.41,-0.39 0.52,-0.54 0.88,-0.85 0.73,-0.62 1.34,-0.98 2.07,-1.76l6.9 -4.69c2.27,-1.51 5.03,-3.22 7.31,-4.49 3.83,-2.14 12.71,-5.46 17.76,-5.73m0 0c3.67,-0.21 7.31,0 9.03,2.64 2.31,3.54 0.55,11.8 -7.74,14.21m0 0c-3.57,1.04 -6.17,0.38 -9.66,2.01 -0.23,0.43 -0.14,0.27 -0.22,0.77 1.42,0.98 3.4,0.2 5.13,0.24 -0.9,0.76 -5.2,2.04 -4.51,3.65 0.27,0.31 0.95,0.16 1.39,0.05 1.45,-0.36 2.74,-1.25 4.22,-1.38m0 0c-0.56,0.55 -5.51,4.97 -3.8,6.39 0,0 -0.04,0.32 0.82,-0.11 0.52,-0.25 0.64,-0.38 1.02,-0.71 1.06,-0.92 4.73,-4.29 5.39,-4.51 -0.52,4.19 -5.63,6.37 -5.01,8.88m0 0c2.8,0.48 5.28,-3.88 6.14,-4.47 -0.46,2.34 -2.5,5.22 -1.14,7.46m0 0c2.82,-0.69 2.11,-8.24 6.92,-13.5 3.07,-3.36 6.94,-5.86 8.58,-11.78 2.48,-8.99 -3.07,-16.98 -11.32,-18.14 -2.99,-0.42 -6.81,-0.12 -9.65,0.32 -2.99,0.46 -5.58,1.06 -8.43,1.67 -2.97,0.64 -5.73,0.99 -8.78,1.53 -5.31,0.95 -13.59,1.06 -19.33,0.99 -6.99,-0.1 -11.51,-0.86 -17.72,-2.62 -16.52,-4.67 -18.42,-4.13 -34.28,-0.03 -6.36,1.64 -10.55,2.54 -17.67,2.67 -18.42,0.34 -20.61,-1.54 -36.73,-4.21m0 0c-5.82,-0.96 -12.23,-1.07 -16.6,2.78 -3.53,3.11 -6.21,7.91 -4.46,14.86 2.24,8.91 8.38,8.27 12.26,18.44 0.7,1.84 1.4,6.6 3.24,6.99 1.47,-2 -0.79,-5.67 -1.24,-7.76m0 0c0.81,0.69 4.07,5.71 6.22,4.73m0 0c0.5,-1.58 -1.62,-3.23 -2.46,-4.17 -0.79,-0.89 -2.26,-3.41 -2.54,-4.69m0 0c1.88,0.72 5.31,5.65 7.51,5.37 0.46,-3 -3.12,-4.99 -3.84,-6.42m0 0c1.43,0.29 4.14,1.83 5.49,1.43 0.31,-1.91 -3.42,-2.76 -4.53,-3.71m0 0c0.99,-0.01 1.78,0.11 2.74,0.19 2.44,0.22 2.28,-0.24 2.38,-0.99"/>
   <path class="fil4" d="M134.46 61.8c1.02,0.14 3.53,2.8 4.15,3.48 3.53,3.92 4.63,11.04 9.54,13.85 0.82,0.47 1.84,0.8 3.03,0.82 1.54,0.04 2.19,-0.6 3.19,0.23 4.04,3.31 10.83,2.71 14.66,0.03 1.27,-0.89 1.52,-1.59 2.3,-1.71 -1.36,-2.24 0.68,-5.12 1.14,-7.45 -0.86,0.58 -3.35,4.94 -6.14,4.46 -0.63,-2.51 4.48,-4.69 5,-8.88 -0.65,0.22 -4.33,3.59 -5.38,4.51 -0.38,0.33 -0.5,0.46 -1.03,0.71 -0.86,0.43 -0.81,0.11 -0.81,0.11 -1.72,-1.42 3.24,-5.84 3.79,-6.39 -1.47,0.13 -2.76,1.02 -4.22,1.39 -0.44,0.11 -1.11,0.25 -1.39,-0.06 -0.68,-1.61 3.62,-2.89 4.52,-3.65 -1.73,-0.04 -3.71,0.74 -5.13,-0.24 0.07,-0.5 -0.01,-0.34 0.21,-0.77 -4.17,1.65 -4.67,0.9 -7.33,4.14 -0.69,0.84 -1.53,2.83 -1.87,3.96 -0.5,1.69 -0.63,2.99 -0.6,4.94 -2.42,-0.21 -3.82,-1.43 -4.83,-2.99 -3.3,-5.1 -2.77,-8.71 -8.16,-12.84 -0.8,-0.62 -0.56,-0.28 -0.8,-1.16 -0.73,0.78 -1.34,1.14 -2.08,1.76 -0.36,0.31 -0.46,0.47 -0.87,0.85 -0.23,0.21 -0.27,0.22 -0.45,0.4l-0.44 0.5z"/>
   <g>
    <path class="fil2" d="M166.89 68.43c-0.26,0.23 -0.53,0.47 -0.79,0.7 -0.45,0.39 -0.64,0.55 -1.18,0.82 -0.34,0.16 -0.65,0.3 -1.03,0.29 -0.1,0 -0.18,-0.02 -0.28,-0.05 -0.11,-0.04 -0.19,-0.09 -0.29,-0.17 -0.14,-0.15 -0.22,-0.29 -0.25,-0.5 0.01,0.09 0.03,0.16 0.08,0.24 0.04,0.07 0.08,0.12 0.14,0.18 -0.17,-0.16 -0.28,-0.29 -0.39,-0.5 -0.1,-0.2 -0.15,-0.36 -0.18,-0.58 -0.04,-0.42 0.01,-0.73 0.14,-1.13 0.3,-0.79 0.72,-1.41 1.24,-2.08 0.9,-1.13 1.81,-2.04 2.85,-3.03 -0.11,0.11 -0.16,0.21 -0.2,0.36 -0.02,0.15 0,0.27 0.06,0.41 0.07,0.13 0.15,0.22 0.28,0.29 0.13,0.07 0.25,0.09 0.4,0.08 -1.36,0.22 -2.57,0.96 -3.96,1.35 -0.3,0.07 -0.57,0.13 -0.89,0.15 -0.2,0 -0.37,-0.01 -0.57,-0.05 -0.26,-0.07 -0.44,-0.17 -0.62,-0.36 -0.07,-0.08 -0.11,-0.14 -0.15,-0.23 -0.14,-0.36 -0.17,-0.65 -0.08,-1.02 0.1,-0.33 0.23,-0.56 0.45,-0.82 0.43,-0.48 0.9,-0.79 1.45,-1.12 0.89,-0.5 2.01,-0.94 2.81,-1.45 -0.13,0.09 -0.2,0.19 -0.25,0.33 -0.05,0.15 -0.05,0.27 -0.01,0.42 0.05,0.14 0.12,0.24 0.24,0.33 0.13,0.09 0.24,0.13 0.4,0.13 -0.85,0.02 -1.68,0.17 -2.53,0.24 -0.5,0.03 -0.91,0.03 -1.4,-0.05 -0.54,-0.09 -0.93,-0.23 -1.4,-0.53 -0.13,-0.1 -0.21,-0.19 -0.28,-0.34 -0.06,-0.14 -0.07,-0.27 -0.05,-0.43 0.05,-0.36 0.02,-0.44 0.2,-0.8 -0.06,0.13 -0.08,0.24 -0.06,0.38 0.02,0.15 0.07,0.25 0.16,0.36 0.1,0.1 0.2,0.16 0.34,0.19 0.14,0.03 0.25,0.03 0.39,-0.02 -1.34,0.51 -2.84,0.89 -4.1,1.41 -1.23,0.57 -1.94,1.42 -2.8,2.45 -0.72,0.95 -1.38,2.56 -1.74,3.7 -0.5,1.76 -0.6,2.85 -0.58,4.67 0,0.12 -0.02,0.2 -0.06,0.31 -0.05,0.11 -0.1,0.18 -0.18,0.26 -0.09,0.07 -0.16,0.12 -0.27,0.16 -0.11,0.03 -0.2,0.04 -0.31,0.03 -1.26,-0.14 -2.16,-0.42 -3.22,-1.12 -0.9,-0.65 -1.44,-1.27 -2.04,-2.19 -3.29,-5.46 -2.75,-8.41 -7.95,-12.76 -0.19,-0.14 -0.42,-0.3 -0.59,-0.45 -0.04,-0.04 -0.08,-0.08 -0.11,-0.12 -0.17,-0.25 -0.19,-0.49 -0.26,-0.78 0.02,0.09 0.06,0.15 0.13,0.22 0.06,0.06 0.13,0.1 0.22,0.12 0.09,0.03 0.16,0.02 0.25,0 0.09,-0.03 0.15,-0.06 0.22,-0.13 -0.72,0.71 -1.32,1.06 -2.11,1.64 -0.32,0.24 -0.61,0.5 -0.92,0.75 -0.19,0.15 -0.33,0.21 -0.51,0.34 0,0.01 0.02,-0.01 0.02,-0.01 -0.15,0.11 -0.31,0.25 -0.48,0.34 0.01,-0.02 0.01,-0.02 0,-0.04 0,-0.01 0,-0.01 -0.01,-0.02 -0.01,0 -0.02,0 -0.02,0 -0.02,0.01 -0.02,0.04 -0.03,0.05 -0.01,0.02 -0.02,0.02 -0.03,0.02 -0.02,0 -0.03,-0.02 -0.04,-0.03 -0.01,-0.01 -0.01,-0.04 -0.02,-0.05 0,-0.01 0.02,-0.05 0.02,-0.05 -0.01,-0.03 0.25,-0.47 0.28,-0.5 0,-0.01 0.01,-0.02 0.01,-0.02 0,-0.02 0.37,-0.41 0.41,-0.45 0.28,-0.32 0.5,-0.62 0.82,-0.93 0.64,-0.6 1.28,-1.07 1.9,-1.72 0.07,-0.07 0.13,-0.11 0.22,-0.14 0.1,-0.02 0.17,-0.02 0.26,0 0.09,0.03 0.16,0.06 0.23,0.13 0.07,0.07 0.1,0.13 0.13,0.22 0.01,0.03 0.16,0.51 0.11,0.43 -0.02,-0.02 0.01,0 0.02,0.01 0.16,0.12 0.33,0.24 0.5,0.37 5.59,4.53 4.92,7.29 8.35,12.9 0.51,0.76 0.96,1.29 1.72,1.82 0.87,0.57 1.61,0.79 2.63,0.9 -0.07,-0.01 -0.13,0 -0.21,0.02 -0.07,0.03 -0.12,0.06 -0.18,0.11 -0.06,0.05 -0.09,0.1 -0.12,0.17 -0.03,0.08 -0.05,0.14 -0.04,0.21 -0.03,-1.96 0.07,-3.16 0.6,-5.05 0.43,-1.37 1.11,-3.03 1.97,-4.17 1.02,-1.23 1.82,-2.15 3.28,-2.83 1.28,-0.54 2.79,-0.93 4.14,-1.45 0.14,-0.05 0.26,-0.06 0.4,-0.03 0.15,0.04 0.25,0.1 0.35,0.2 0.1,0.12 0.15,0.22 0.17,0.37 0.02,0.15 0,0.26 -0.06,0.4 -0.07,0.14 -0.04,0.15 -0.08,0.4 0.02,-0.12 0,-0.2 -0.04,-0.31 -0.05,-0.1 -0.11,-0.17 -0.2,-0.24 0.29,0.19 0.53,0.27 0.87,0.33 0.38,0.05 0.71,0.05 1.09,0.02 0.88,-0.07 1.71,-0.22 2.61,-0.24 0.16,0 0.28,0.04 0.41,0.13 0.13,0.1 0.2,0.2 0.25,0.35 0.04,0.16 0.04,0.29 -0.01,0.44 -0.05,0.15 -0.13,0.25 -0.26,0.34 -0.12,0.16 -2.49,1.26 -2.89,1.51 -0.39,0.23 -0.79,0.48 -1.09,0.82 -0.07,0.09 -0.14,0.18 -0.17,0.28 -0.01,0.06 -0.01,0.09 0.02,0.15 -0.03,-0.07 -0.07,-0.12 -0.12,-0.17 -0.02,-0.03 -0.06,-0.04 -0.03,-0.04 0.05,0.02 0.11,0.01 0.17,0.01 0.21,-0.01 0.42,-0.06 0.62,-0.11 1.5,-0.42 2.5,-1.12 4.11,-1.39 0.17,-0.01 0.29,0.01 0.44,0.09 0.14,0.08 0.23,0.17 0.3,0.32 0.07,0.14 0.08,0.27 0.06,0.43 -0.04,0.16 -0.1,0.27 -0.21,0.39 -0.99,0.94 -1.86,1.81 -2.72,2.88 -0.39,0.52 -0.78,1.06 -1,1.68 -0.06,0.16 -0.1,0.33 -0.08,0.51 0,0.04 0.01,0.07 0.03,0.11 0.02,0.04 0.04,0.06 0.07,0.09 0.07,0.06 0.12,0.12 0.16,0.2 0.05,0.08 0.07,0.16 0.09,0.25 -0.02,-0.14 -0.08,-0.24 -0.18,-0.35 -0.06,-0.05 -0.11,-0.08 -0.19,-0.11 -0.03,-0.02 -0.09,-0.02 -0.13,-0.03 -0.08,0 0.26,-0.1 0.35,-0.15 0.43,-0.22 0.53,-0.31 0.88,-0.62 0.26,-0.23 0.52,-0.46 0.78,-0.69 1.22,-1.1 3.29,-3.05 4.61,-3.87 0.14,-0.07 0.25,-0.1 0.41,-0.09 0.15,0.01 0.26,0.05 0.38,0.13 0.12,0.09 0.2,0.18 0.26,0.32 0.06,0.14 0.07,0.26 0.05,0.41 -0.19,1.2 -0.56,2.02 -1.21,3.03 -0.58,0.86 -1.18,1.55 -1.88,2.32 -0.54,0.58 -1.09,1.17 -1.53,1.83 -0.15,0.24 -0.27,0.45 -0.34,0.72 -0.06,0.21 -0.07,0.36 -0.02,0.57 -0.04,-0.14 -0.09,-0.23 -0.19,-0.33 -0.11,-0.1 -0.21,-0.15 -0.35,-0.17 0.56,0.07 0.97,-0.06 1.47,-0.31 0.6,-0.33 1.05,-0.71 1.53,-1.19 0.85,-0.86 1.57,-1.9 2.37,-2.69 0.14,-0.12 0.27,-0.17 0.45,-0.2 0.18,-0.01 0.31,0.02 0.47,0.1 0.16,0.1 0.25,0.2 0.33,0.37 0.06,0.16 0.08,0.31 0.04,0.48 -0.31,1.29 -0.85,2.44 -1.25,3.7 -0.16,0.56 -0.28,1.05 -0.3,1.64 0,0.52 0.08,0.89 0.33,1.35 0.06,0.12 0.09,0.22 0.1,0.35 0,0.14 -0.01,0.24 -0.07,0.36 -0.05,0.12 -0.12,0.2 -0.22,0.29 -0.1,0.08 -0.19,0.13 -0.32,0.16 -0.23,0.06 -0.41,0.24 -0.58,0.4 -0.47,0.46 -0.84,0.79 -1.38,1.18 -2.42,1.6 -4.77,2.22 -7.64,2.35 -1.51,0.03 -2.72,-0.11 -4.17,-0.52 -1.46,-0.44 -2.51,-0.96 -3.71,-1.92 -0.13,-0.11 -0.26,-0.19 -0.43,-0.24 -0.15,-0.04 -0.29,-0.03 -0.45,-0.01 -0.7,0.08 -1.13,0.19 -1.88,0.18 -1.28,-0.06 -2.23,-0.3 -3.35,-0.93 -1.4,-0.84 -2.27,-1.7 -3.25,-2.99 -0.91,-1.25 -1.57,-2.44 -2.26,-3.82 -0.53,-1.07 -1.04,-2.16 -1.58,-3.24 -0.74,-1.47 -1.44,-2.76 -2.5,-4.03 -0.54,-0.66 -1.15,-1.31 -1.74,-1.92 -0.54,-0.57 -1.25,-1.34 -1.81,-1.87 -0.78,-0.73 1.85,0.86 2.36,1.28 0.67,0.59 1.3,1.2 1.93,1.84 1.54,1.68 2.46,3.51 3.48,5.53 0.31,0.62 0.62,1.25 0.94,1.87 0.67,1.29 1.31,2.43 2.19,3.6 0.88,1.13 1.65,1.89 2.89,2.62 0.91,0.5 1.68,0.69 2.73,0.73 0.65,0 1.08,-0.11 1.71,-0.19 0.34,-0.04 0.59,-0.03 0.92,0.04 0.39,0.1 0.65,0.26 0.96,0.51 1.05,0.82 1.97,1.26 3.23,1.64 1.31,0.36 2.39,0.47 3.75,0.45 2.57,-0.13 4.7,-0.69 6.86,-2.12 0.49,-0.35 0.8,-0.64 1.22,-1.05 0.4,-0.39 0.69,-0.62 1.25,-0.76 -0.11,0.02 -0.18,0.06 -0.27,0.12 -0.08,0.08 -0.14,0.14 -0.18,0.24 -0.04,0.1 -0.06,0.19 -0.06,0.3 0.01,0.11 0.04,0.19 0.09,0.28 -0.39,-0.7 -0.51,-1.28 -0.52,-2.08 0.03,-0.74 0.16,-1.33 0.37,-2.04 0.37,-1.21 0.92,-2.38 1.21,-3.6 -0.03,0.15 -0.01,0.27 0.04,0.41 0.07,0.14 0.14,0.22 0.27,0.3 0.13,0.08 0.25,0.1 0.4,0.09 0.15,-0.02 0.25,-0.07 0.37,-0.17 -0.77,0.75 -1.5,1.8 -2.33,2.65 -0.6,0.59 -1.13,1.03 -1.87,1.44 -0.8,0.4 -1.46,0.57 -2.36,0.45 -0.17,-0.03 -0.29,-0.09 -0.41,-0.2 -0.12,-0.12 -0.19,-0.23 -0.23,-0.4 -0.09,-0.46 -0.08,-0.81 0.04,-1.26 0.12,-0.43 0.28,-0.74 0.52,-1.11 0.5,-0.75 1.08,-1.37 1.68,-2.02 0.64,-0.71 1.21,-1.35 1.75,-2.14 0.53,-0.82 0.84,-1.49 1,-2.45 -0.02,0.13 0,0.23 0.05,0.35 0.05,0.12 0.11,0.2 0.22,0.28 0.11,0.07 0.21,0.11 0.34,0.12 0.13,0 0.23,-0.02 0.35,-0.08 -1.16,0.72 -3.26,2.69 -4.35,3.67z"/>
   </g>
   <path class="fil3" d="M134.13 59.25c1.02,0.14 3.54,2.8 4.16,3.48 3.52,3.92 4.63,11.04 9.53,13.85 0.83,0.47 1.85,0.8 3.03,0.82 1.54,0.04 2.19,-0.6 3.2,0.22 4.04,3.32 10.83,2.72 14.65,0.04 1.28,-0.89 1.52,-1.59 2.3,-1.71 -1.36,-2.24 0.68,-5.12 1.14,-7.46 -0.86,0.59 -3.34,4.95 -6.14,4.47 -0.62,-2.51 4.49,-4.69 5.01,-8.88 -0.66,0.22 -4.33,3.59 -5.39,4.51 -0.38,0.33 -0.5,0.46 -1.02,0.71 -0.86,0.43 -0.82,0.11 -0.82,0.11 -1.71,-1.42 3.24,-5.84 3.8,-6.39 -1.48,0.13 -2.77,1.02 -4.22,1.38 -0.44,0.11 -1.12,0.26 -1.39,-0.05 -0.69,-1.61 3.61,-2.89 4.51,-3.65 -1.73,-0.04 -3.71,0.74 -5.13,-0.24 0.08,-0.5 -0.01,-0.34 0.22,-0.77 -4.18,1.65 -4.68,0.9 -7.34,4.14 -0.68,0.83 -1.53,2.82 -1.86,3.96 -0.5,1.69 -0.64,2.99 -0.6,4.94 -2.43,-0.21 -3.82,-1.43 -4.83,-2.99 -3.31,-5.1 -2.78,-8.71 -8.16,-12.85 -0.81,-0.61 -0.56,-0.27 -0.81,-1.15 -0.73,0.78 -1.34,1.14 -2.07,1.76 -0.36,0.31 -0.47,0.46 -0.88,0.85 -0.22,0.21 -0.27,0.22 -0.45,0.4l-0.44 0.5z"/>
   <path class="fil4" d="M27.08 62.45c-0.1,0.75 0.07,1.21 -2.37,1 -0.96,-0.09 -1.76,-0.21 -2.74,-0.2 1.11,0.95 4.84,1.8 4.53,3.71 -1.36,0.4 -4.06,-1.14 -5.5,-1.43 0.73,1.43 4.3,3.42 3.85,6.42 -2.2,0.28 -5.63,-4.64 -7.51,-5.37 0.27,1.28 1.74,3.8 2.53,4.69 0.85,0.94 2.97,2.59 2.47,4.17 -2.15,0.98 -5.41,-4.03 -6.23,-4.73 0.46,2.09 2.71,5.76 1.24,7.76 1.47,0.24 1.2,1.66 4.66,2.89 8.14,2.92 11.65,-1.07 13.01,-1.46 1.14,-0.33 3.26,0.7 5.87,-0.92 5.03,-3.12 5.78,-11.33 11.21,-15.59 0.69,-0.54 1.3,-1.43 2.22,-1.57 -0.72,-1 -2.61,-2.44 -3.71,-3.24 -0.14,0.16 -2.72,2.33 -4.04,3.79 -1.07,1.18 -1.96,3.46 -2.55,4.97 -1.31,3.31 -3.33,7.78 -7.33,7.92 -0.2,-7.08 -2.78,-11.71 -9.61,-12.81z"/>
   <g>
    <path class="fil2" d="M33.56 77.11c0.3,-0.18 0.6,-0.35 0.93,-0.46 0.85,-0.2 1.74,-0.02 2.6,0 1.23,0.01 2.02,-0.2 3.09,-0.83 1.28,-0.83 2.04,-1.71 2.89,-2.95 0.89,-1.34 1.58,-2.7 2.3,-4.13 1.7,-3.38 2.98,-5.98 5.96,-8.47 0.33,-0.26 0.63,-0.59 0.95,-0.87 0.48,-0.41 0.85,-0.67 1.47,-0.82 -0.12,0.03 -0.2,0.07 -0.29,0.15 -0.09,0.08 -0.14,0.15 -0.19,0.27 -0.04,0.11 -0.05,0.2 -0.03,0.32 0.02,0.12 0.06,0.21 0.13,0.3 -0.88,-1.06 -2.35,-2.16 -3.47,-2.98 0.14,0.09 0.27,0.13 0.43,0.12 0.17,-0.02 0.29,-0.07 0.41,-0.18 -1.36,1.25 -2.69,2.34 -3.97,3.71 -1.1,1.32 -1.8,3.16 -2.43,4.75 -0.78,1.95 -1.5,3.57 -2.74,5.28 -0.67,0.87 -1.27,1.49 -2.19,2.09 -0.98,0.61 -1.8,0.88 -2.95,0.95 -0.1,0 -0.18,-0.01 -0.28,-0.05 -0.09,-0.03 -0.16,-0.07 -0.23,-0.14 -0.08,-0.07 -0.13,-0.14 -0.17,-0.23 -0.04,-0.09 -0.06,-0.17 -0.06,-0.27 -0.13,-3.05 -0.48,-5.66 -2.15,-8.27 -0.52,-0.74 -1,-1.26 -1.69,-1.83 -0.33,-0.27 -0.66,-0.49 -1.02,-0.72 -1.61,-0.96 -2.77,-1.14 -4.06,-1.83 0.01,0 0.01,0 0.02,-0.01 0.01,0 0.01,-0.01 0.01,-0.02 0,0 -0.01,-0.01 -0.01,-0.01 -0.01,-0.01 -0.03,-0.01 -0.05,-0.01 -0.01,-0.01 -0.01,-0.02 -0.02,-0.03 0,-0.01 0.01,-0.02 0.01,-0.03 0,-0.02 0.02,-0.02 0.03,-0.03 0.01,-0.01 0.02,-0.01 0.04,-0.01 1.39,-0.17 3.31,0.53 4.52,1.15 0.45,0.25 0.83,0.5 1.24,0.82 0.75,0.61 1.27,1.17 1.84,1.95 1.87,2.8 2.3,5.54 2.46,8.84 0,-0.06 -0.01,-0.12 -0.04,-0.18 -0.03,-0.06 -0.06,-0.1 -0.11,-0.15 -0.05,-0.04 -0.09,-0.07 -0.15,-0.09 -0.07,-0.02 -0.12,-0.03 -0.19,-0.03 0.93,-0.07 1.57,-0.29 2.36,-0.78 0.77,-0.53 1.29,-1.07 1.85,-1.82 1.15,-1.61 1.83,-3.18 2.54,-5 0.71,-1.8 1.41,-3.66 2.66,-5.16 1.31,-1.42 2.63,-2.5 4.01,-3.8 0.13,-0.11 0.25,-0.16 0.42,-0.18 0.17,-0.01 0.3,0.03 0.44,0.12 1.28,0.94 2.74,2.03 3.75,3.25 0.07,0.1 0.11,0.19 0.13,0.31 0.02,0.13 0.01,0.22 -0.03,0.34 -0.05,0.11 -0.1,0.19 -0.2,0.28 -0.09,0.08 -0.18,0.12 -0.3,0.15 -0.35,0.08 -0.59,0.28 -0.86,0.51 -0.34,0.31 -0.65,0.64 -1.01,0.93 -2.76,2.32 -3.99,4.87 -5.57,8.02 -0.75,1.5 -1.45,2.89 -2.38,4.29 -0.98,1.42 -1.84,2.4 -3.3,3.35 -1.32,0.78 -2.32,1.05 -3.84,1.05 -0.53,-0.01 -1.75,-0.15 -2.19,-0.05 -0.1,0.02 -0.5,0.26 -0.6,0.32 -1.08,0.65 -2.1,1.27 -3.33,1.66 -1.4,0.45 -2.53,0.6 -4,0.59 -2.02,-0.06 -3.6,-0.43 -5.5,-1.08 -2.35,-0.92 -3.92,-2.69 -4.48,-2.84 -0.13,-0.03 -0.23,-0.08 -0.33,-0.17 -0.11,-0.09 -0.17,-0.17 -0.23,-0.3 -0.05,-0.13 -0.06,-0.23 -0.05,-0.37 0.02,-0.14 0.05,-0.24 0.13,-0.35 0.26,-0.42 0.31,-0.8 0.31,-1.29 -0.02,-0.64 -0.15,-1.19 -0.33,-1.8 -0.41,-1.29 -0.97,-2.52 -1.33,-3.81 -0.05,-0.19 -0.03,-0.33 0.04,-0.51 0.08,-0.17 0.17,-0.28 0.34,-0.37 0.16,-0.09 0.31,-0.12 0.49,-0.09 0.19,0.03 0.32,0.1 0.45,0.23 0.92,1 1.64,2.01 2.63,3.01 0.48,0.48 0.97,0.91 1.57,1.24 0.21,0.11 0.39,0.19 0.62,0.22 0.16,0.02 0.27,0.02 0.42,-0.04 -0.09,0.04 -0.16,0.09 -0.23,0.17 -0.07,0.08 -0.11,0.15 -0.14,0.24 0.07,-0.26 0.03,-0.46 -0.06,-0.71 -0.14,-0.36 -0.33,-0.64 -0.56,-0.94 -0.54,-0.66 -1.13,-1.18 -1.7,-1.8 -1.06,-1.28 -2.19,-3.29 -2.66,-4.87 -0.03,-0.16 -0.03,-0.28 0.02,-0.43 0.05,-0.15 0.12,-0.25 0.24,-0.36 0.12,-0.1 0.23,-0.15 0.39,-0.17 0.15,-0.02 0.27,0 0.42,0.06 1.31,0.68 2.67,2.17 3.76,3.2 0.6,0.57 1.19,1.1 1.88,1.57 0.26,0.17 0.5,0.31 0.79,0.42 0.19,0.07 0.36,0.12 0.56,0.1 -0.15,0.02 -0.26,0.07 -0.37,0.17 -0.11,0.11 -0.16,0.22 -0.19,0.37 0.07,-0.62 -0.01,-1.06 -0.24,-1.63 -0.27,-0.59 -0.59,-1.03 -1.01,-1.52 -0.76,-0.86 -1.82,-1.75 -2.41,-2.67 -0.08,-0.14 -0.11,-0.25 -0.1,-0.4 0.01,-0.15 0.05,-0.26 0.13,-0.39 0.09,-0.12 0.19,-0.19 0.33,-0.24 0.14,-0.05 0.26,-0.06 0.41,-0.03 0.93,0.25 1.86,0.67 2.77,1 0.45,0.17 0.87,0.31 1.34,0.41 0.3,0.06 0.61,0.11 0.91,0.04 -0.11,0.03 -0.19,0.08 -0.27,0.17 -0.08,0.09 -0.11,0.17 -0.13,0.29 0.01,-0.13 0.01,-0.22 -0.04,-0.35 -0.05,-0.15 -0.12,-0.25 -0.22,-0.37 0,0 -0.01,-0.01 -0.01,-0.01 -0.3,-0.34 -0.67,-0.57 -1.06,-0.81 -0.88,-0.5 -1.98,-0.94 -2.78,-1.52 -0.1,-0.08 -0.17,-0.17 -0.21,-0.29 -0.04,-0.13 -0.04,-0.24 0,-0.37 0.05,-0.12 0.11,-0.21 0.22,-0.29 0.11,-0.07 0.21,-0.1 0.34,-0.11 0.92,0.05 1.7,0.17 2.6,0.31 0.43,0.05 0.87,0.1 1.3,0.15 0.21,0.01 0.4,0.01 0.61,-0.01 0.06,-0.02 0.1,-0.04 0.15,-0.07 0.06,-0.04 0.09,-0.07 0.13,-0.13 0.04,-0.02 0.12,-0.22 0.14,-0.27 0.2,-0.49 0.18,0.23 0.16,0.36 -0.02,0.11 -0.05,0.18 -0.1,0.28 -0.07,0.1 -0.14,0.17 -0.24,0.24 -0.25,0.17 -0.51,0.21 -0.81,0.25 -0.47,0.06 -0.94,0.05 -1.41,0.02 -0.86,-0.05 -1.67,-0.12 -2.54,-0.12 0.1,0 0.17,-0.02 0.25,-0.08 0.08,-0.06 0.13,-0.12 0.16,-0.21 0.03,-0.09 0.03,-0.17 0,-0.26 -0.03,-0.1 -0.08,-0.16 -0.15,-0.22 0.77,0.5 1.88,0.91 2.73,1.37 0.54,0.3 0.97,0.58 1.39,1.03 0.2,0.24 0.33,0.44 0.45,0.73 0.11,0.32 0.14,0.57 0.1,0.91 -0.02,0.13 -0.06,0.23 -0.15,0.33 -0.09,0.1 -0.18,0.15 -0.31,0.19 -0.01,0 -0.08,0.02 -0.09,0.02 -0.48,0.1 -0.88,0.06 -1.36,-0.03 -0.52,-0.11 -1,-0.26 -1.51,-0.43 -0.85,-0.31 -1.79,-0.72 -2.65,-0.93 0.11,0.02 0.2,0.02 0.31,-0.02 0.11,-0.04 0.18,-0.1 0.25,-0.19 0.07,-0.09 0.1,-0.18 0.11,-0.29 0,-0.12 -0.02,-0.21 -0.08,-0.31 0.49,0.73 1.66,1.75 2.31,2.47 0.52,0.6 0.9,1.12 1.24,1.84 0.34,0.81 0.46,1.46 0.36,2.34 -0.03,0.17 -0.09,0.29 -0.22,0.42 -0.12,0.11 -0.25,0.17 -0.42,0.19 -0.42,0.03 -0.74,-0.03 -1.14,-0.17 -0.4,-0.15 -0.71,-0.33 -1.07,-0.56 -0.76,-0.51 -1.4,-1.08 -2.08,-1.7 -0.86,-0.81 -2.39,-2.42 -3.39,-2.93 0.11,0.06 0.21,0.07 0.34,0.05 0.12,-0.02 0.21,-0.05 0.31,-0.13 0.09,-0.08 0.15,-0.17 0.19,-0.29 0.03,-0.12 0.04,-0.21 0.01,-0.34 0.4,1.32 1.47,3.22 2.36,4.28 0.6,0.65 1.18,1.16 1.76,1.86 0.34,0.43 0.58,0.81 0.78,1.32 0.21,0.58 0.25,1.03 0.09,1.62 -0.03,0.12 -0.08,0.2 -0.16,0.29 -0.08,0.09 -0.16,0.14 -0.27,0.19 -0.41,0.17 -0.74,0.2 -1.17,0.15 -0.41,-0.06 -0.72,-0.18 -1.09,-0.37 -0.76,-0.41 -1.31,-0.89 -1.92,-1.49 -1,-1.02 -1.73,-2.02 -2.66,-3.03 0.11,0.11 0.22,0.16 0.38,0.19 0.15,0.02 0.27,0 0.41,-0.07 0.14,-0.08 0.22,-0.17 0.28,-0.31 0.06,-0.15 0.07,-0.27 0.03,-0.42 0.35,1.25 0.92,2.49 1.32,3.76 0.22,0.75 0.36,1.39 0.39,2.18 0.01,0.82 -0.11,1.42 -0.56,2.12 0.07,-0.1 0.1,-0.19 0.11,-0.3 0.01,-0.12 0,-0.21 -0.04,-0.32 -0.05,-0.11 -0.1,-0.18 -0.19,-0.26 -0.09,-0.07 -0.17,-0.11 -0.29,-0.13 1.48,0.42 2.03,1.86 4.67,2.9 1.74,0.6 3.2,0.95 5.05,1.01 1.3,0.01 2.29,-0.12 3.53,-0.52 1.23,-0.42 1.96,-0.86 3.05,-1.52z"/>
   </g>
   <path class="fil3" d="M26.76 59.9c-0.1,0.75 0.06,1.21 -2.38,0.99 -0.96,-0.08 -1.75,-0.2 -2.74,-0.19 1.11,0.95 4.84,1.8 4.53,3.71 -1.35,0.4 -4.06,-1.14 -5.49,-1.43 0.72,1.43 4.3,3.42 3.84,6.42 -2.2,0.28 -5.63,-4.65 -7.51,-5.37 0.28,1.28 1.75,3.8 2.54,4.69 0.84,0.94 2.96,2.59 2.46,4.17 -2.15,0.98 -5.41,-4.04 -6.22,-4.73 0.45,2.09 2.71,5.76 1.24,7.76 1.47,0.24 1.2,1.65 4.65,2.89 8.15,2.92 11.66,-1.08 13.01,-1.46 1.14,-0.33 3.26,0.7 5.87,-0.92 5.03,-3.12 5.79,-11.33 11.21,-15.59 0.7,-0.54 1.3,-1.43 2.23,-1.57 -0.72,-1 -2.61,-2.44 -3.72,-3.24 -0.13,0.16 -2.71,2.32 -4.03,3.78 -1.07,1.19 -1.96,3.47 -2.56,4.98 -1.3,3.31 -3.33,7.78 -7.32,7.92 -0.21,-7.09 -2.78,-11.71 -9.61,-12.81z"/>
   <path class="fil5" d="M56.86 44.93l-16.09 -4.6c-1.27,-0.38 -1.8,-0.29 -3.38,-0.86l-0.47 -0.18c-2.42,-0.97 -10.37,-2.56 -13.18,-2.98 -2.14,-0.31 -4.32,-0.5 -6.54,-0.37 -2.19,0.13 -4.14,0.75 -3.81,3.32 1.44,0.94 3.16,0.83 5.21,1.01 5.36,0.47 10.29,2.06 15.29,3.76 3.29,1.12 6.32,2.06 9.5,3.21 2.96,1.08 6.39,2.88 9.78,3.12l3.37 0.7c3.41,0 12.25,1.66 15.12,3.96 4.19,3.37 8.7,11.48 11.53,16.72 2.08,3.88 3.19,10.74 4.13,15.06 0.49,2.23 1.35,5.94 1.47,8.15 0.01,0.31 -0.03,0.43 0.05,0.74 0.12,0.43 0.09,0.27 0.25,0.5 -0.17,1.07 0.38,6.54 0.39,8.39 0,2.54 -0.29,6.01 -1.96,7.14 -2.11,0.25 -4.42,-1.86 -6.54,-2.26 -3.63,-0.69 -3.39,4.99 -1.16,8.72 1.3,2.17 4.22,8.67 4.43,8.93 0.22,0.8 0.33,1.18 0.76,1.72 0,0.99 0.55,1.97 0.42,6.47 -0.27,7.04 -1.04,7.56 1.93,14.44 1.91,3.97 3.93,3.17 7.66,3.21 5.74,0.01 6.41,-1.96 7.66,-7.24 1.16,-4.88 0.78,-5.72 0.57,-10.47 -0.09,-2.14 -0.03,-3.93 0.53,-6 0.73,-2.51 3,-7.14 4.21,-9.41 2.08,-3.9 3.86,-6.15 1.47,-10.32 -4.07,-0.29 -5.8,2.78 -8.44,2.14 -4.46,-4.96 0.43,-25.92 2.02,-32.28 1.55,-6.21 2.45,-7.87 5.61,-13.17 8.68,-14.57 10.11,-12.99 26.64,-15.8 1.24,-0.21 2.68,-0.43 3.9,-0.77l6.79 -2.62c4.57,-1.71 9.36,-3.12 14.11,-4.61 4.51,-1.42 7.19,-2.02 11.88,-2.28 1.73,-0.09 2.79,-0.07 3.5,-1.29 -0.04,-2.68 -2.96,-2.99 -5.64,-2.93 -6.89,0.15 -14.67,2.46 -21.03,4.22 -2.28,0.63 -4.23,1.27 -6.38,1.97 -3.3,1.08 -16.92,4.57 -20.17,5 -10.65,1.43 -36.74,1.47 -48.79,0.71 -2.47,-0.16 -5.26,-0.36 -7.54,-0.79 -1.63,-0.32 -5.69,-1.43 -6.87,-1.43 -0.22,-0.16 0.04,-0.04 -0.46,-0.27 -0.04,-0.01 -0.43,-0.16 -0.48,-0.18 -0.44,-0.12 -0.76,-0.15 -1.25,-0.2z"/>
   <g>
    <g>
     <path class="fil2" d="M102.62 127.39c0.05,-0.23 0.11,-0.46 0.18,-0.68 0.99,-3.09 2.72,-6.58 4.27,-9.45 0.84,-1.54 1.89,-3.18 2.41,-4.85 0.21,-0.78 0.26,-1.36 0.16,-2.17 -0.05,-0.36 -0.12,-0.67 -0.22,-1.02 -0.06,-0.21 -0.58,-1.72 -0.31,-1.86 0.45,-0.08 1.1,1.27 1.23,1.58 0.14,0.38 0.24,0.73 0.32,1.14 0.16,0.96 0.13,1.67 -0.09,2.61 -0.5,1.86 -1.5,3.48 -2.4,5.16 -1.46,2.8 -3.18,6.24 -4.1,9.23 -0.06,0.21 -0.11,0.41 -0.16,0.61 -0.77,4.13 0.06,7.93 0.05,12.1 -0.15,2.87 -1.1,5.23 -2.15,7.86 -0.32,0.78 -0.68,2.1 -1.5,2.5 -0.66,0.26 0.61,-3.28 0.61,-3.3 0.81,-2.35 1.62,-4.57 1.71,-7.08 -0.04,-4.39 -0.88,-7.96 -0.01,-12.38z"/>
     <path class="fil2" d="M101.47 79.68c0.19,-0.79 0.38,-1.58 0.58,-2.37 1.58,-6.11 2.48,-7.89 5.69,-13.23 1.96,-3.21 3.94,-6.47 6.54,-9.22 1.18,-1.2 2.17,-2.01 3.65,-2.82 0.32,-0.16 2.54,-1.14 2.84,-0.68 -0.04,0.3 -2.1,1.36 -2.41,1.54 -1.33,0.8 -2.23,1.58 -3.29,2.71 -2.44,2.76 -4.37,5.97 -6.26,9.12 -3.12,5.25 -3.96,6.92 -5.49,12.9 -0.19,0.79 -0.38,1.57 -0.56,2.36 -1.08,4.71 -1.99,9.28 -2.64,14.08 -0.39,3.1 -0.66,6.03 -0.55,9.16 0.07,1.23 0.18,2.33 0.48,3.52 0.24,0.87 0.51,1.6 1.09,2.3 -0.08,-0.09 -0.17,-0.15 -0.29,-0.18 0.58,0.13 0.97,0.09 1.53,-0.07 0.6,-0.19 1.13,-0.47 1.7,-0.74 0.01,-0.01 0.03,-0.02 0.05,-0.03 1.48,-0.68 3.33,-1.5 4.9,-0.66 0.09,0.05 -3.16,0.98 -4.41,1.64 -0.23,0.12 -0.47,0.25 -0.71,0.37 -0.39,0.2 -0.75,0.37 -1.17,0.51 -0.78,0.25 -1.35,0.31 -2.16,0.15 -0.14,-0.03 -0.23,-0.09 -0.33,-0.19 -0.74,-0.85 -1.09,-1.69 -1.41,-2.76 -0.35,-1.29 -0.49,-2.46 -0.57,-3.79 -0.16,-3.22 0.1,-6.22 0.5,-9.41 0.66,-4.85 1.58,-9.45 2.7,-14.21z"/>
     <path class="fil2" d="M148.55 43.66c3.66,-1.23 7.33,-2.33 11.01,-3.46 4.6,-1.4 7.25,-1.97 12.05,-2.18 0.57,-0.02 1.16,-0.03 1.72,-0.1 0.11,-0.02 0.21,-0.03 0.31,-0.05 0.24,-0.05 0.43,-0.1 0.65,-0.2 0.16,-0.05 0.71,-0.46 0.84,-0.37 0.2,0.21 -0.26,0.82 -0.39,0.96 -0.27,0.25 -0.51,0.38 -0.86,0.5 -0.05,0.03 -0.34,0.1 -0.42,0.11 -0.59,0.11 -1.19,0.14 -1.79,0.18 -4.65,0.36 -7.29,0.97 -11.74,2.36 -3.66,1.15 -7.32,2.26 -10.95,3.51 -1.04,0.36 -2.06,0.73 -3.09,1.12 -2.26,0.87 -4.52,1.74 -6.78,2.61 -0.03,0.01 -0.05,0.01 -0.08,0.02 -1.31,0.36 -2.6,0.56 -3.95,0.78 -3.78,0.62 -7.62,1.09 -11.38,1.76 -0.82,0.15 -2.1,0.56 -2.88,0.14 -0.62,-0.41 2.89,-1.27 3.1,-1.32 3.57,-0.77 7.32,-1.28 10.94,-1.9 1.29,-0.22 2.55,-0.42 3.81,-0.77 0.02,0 -0.03,0.01 -0.05,0.02 -0.01,0 4.66,-1.79 6.79,-2.6 1.03,-0.4 2.1,-0.76 3.14,-1.12z"/>
     <path class="fil2" d="M94.7 47.37c-7.2,0.01 -14.42,-0.06 -21.6,-0.49 -2.58,-0.16 -5.09,-0.34 -7.64,-0.8 -1.95,-0.39 -4.89,-1.28 -6.73,-1.4 -0.17,-0.01 -0.3,-0.05 -0.44,-0.15 -0.45,-0.36 0.24,0.07 -0.3,-0.17l-0.39 -0.15c-0.4,-0.11 -0.71,-0.14 -1.13,-0.18 -0.04,-0.01 -0.08,-0.01 -0.13,-0.03 -5.36,-1.48 -10.71,-3.06 -16.07,-4.58 -1.2,-0.35 -2.16,-0.45 -3.41,-0.88 -0.17,-0.07 -0.33,-0.13 -0.49,-0.19 -3.54,-1.29 -9.23,-2.36 -13.03,-3 -0.08,-0.02 -0.15,-0.03 -0.22,-0.04 -0.49,-0.07 -6.14,-0.69 -6.24,-0.85 0.64,-0.65 5.62,-0.19 6.48,-0.08 0.03,0 0.09,0.01 0.12,0.02 3.87,0.56 9.68,1.63 13.3,2.89 0.16,0.06 0.31,0.12 0.47,0.18 1.21,0.41 2.17,0.5 3.35,0.83 5.36,1.49 10.73,3 16.09,4.5 -0.03,-0.01 -0.06,-0.01 -0.09,-0.02 0.49,0.05 0.86,0.09 1.34,0.22 0.18,0.06 0.39,0.14 0.56,0.21 0.27,0.12 0.45,0.23 0.55,0.32 -0.09,-0.07 -0.18,-0.1 -0.3,-0.11 2.01,0.12 4.86,0.99 6.95,1.41 2.49,0.44 4.95,0.61 7.48,0.76 7.16,0.41 14.34,0.47 21.51,0.45 8.81,-0.06 18.41,-0.16 27.14,-1.22 5.92,-0.97 14.26,-3.16 20.06,-4.92 2.14,-0.69 4.24,-1.35 6.41,-1.95 5.9,-1.6 11.29,-3.1 17.39,-3.84 1.28,-0.13 2.51,-0.22 3.8,-0.23 1.36,0.01 2.69,0.06 3.97,0.58 0.58,0.26 1.02,0.55 1.39,1.09 0.33,0.57 0.35,0.91 0.27,1.55 -0.11,0.62 -0.18,-0.46 -0.75,-1.17 -0.35,-0.37 -0.71,-0.55 -1.19,-0.72 -1.2,-0.37 -2.43,-0.36 -3.67,-0.32 -1.79,0.07 -3.46,0.26 -5.23,0.52 -5.42,0.88 -10.37,2.3 -15.64,3.77 -2.14,0.61 -4.23,1.28 -6.35,1.97 -5.8,1.81 -14.34,4.04 -20.28,5.02 -8.78,1.07 -18.45,1.15 -27.31,1.2z"/>
     <path class="fil2" d="M71.09 52.35c0.24,0.15 0.45,0.3 0.67,0.47 4.99,4.36 8.56,11.01 11.7,16.78 2.34,4.71 3.1,10 4.19,15.1 0.57,2.64 1.26,5.5 1.45,8.19 0,0.2 -0.03,0.4 0.02,0.6 0.12,0.41 -0.12,-0.07 0.14,0.27 0.05,0.08 0.08,0.15 0.11,0.24 0.02,0.1 0.02,0.17 0.01,0.26 -0.19,2.21 0.32,5.76 0.33,8.21 -0.01,0.89 -0.05,1.74 -0.15,2.63 -0.06,0.53 -0.15,1.02 -0.27,1.53 -0.18,0.68 -0.38,1.26 -0.75,1.86 -0.13,0.19 -1.05,1.37 -1.34,1.07 0,-0.02 0.66,-1.18 0.75,-1.37 0.22,-0.59 0.35,-1.13 0.47,-1.75 0.09,-0.51 0.15,-1 0.2,-1.52 0.07,-0.83 0.09,-1.62 0.08,-2.45 -0.08,-2.54 -0.6,-6 -0.44,-8.37 -0.01,0.06 -0.01,0.11 0.01,0.17 0.01,0.06 0.04,0.11 0.07,0.16 -0.23,-0.3 -0.21,-0.25 -0.31,-0.63 -0.1,-0.38 -0.07,-0.5 -0.08,-0.86 -0.21,-2.6 -0.91,-5.42 -1.49,-7.98 -1.08,-4.9 -1.87,-10.24 -4.12,-14.75 -3.02,-5.5 -6.64,-12.22 -11.4,-16.35 -0.18,-0.14 -0.36,-0.26 -0.55,-0.38 -1.98,-1.14 -4.34,-1.77 -6.56,-2.3 -2.41,-0.53 -5.14,-1.04 -7.61,-1.08 -0.05,0 -0.1,0 -0.15,-0.01 -1.12,-0.23 -2.24,-0.46 -3.36,-0.69 0.03,0.01 0.06,0.01 0.09,0.01 -3.82,-0.39 -6.47,-1.81 -9.97,-3.12 -3.14,-1.12 -6.32,-2.12 -9.48,-3.19 -5.25,-1.77 -9.57,-3.17 -15.13,-3.78 -0.87,-0.08 -1.75,-0.12 -2.62,-0.21 -0.07,-0.01 -0.14,-0.02 -0.22,-0.03 -1,-0.15 -1.72,-0.34 -2.58,-0.89 -0.08,-0.05 -0.13,-0.1 -0.18,-0.18 -0.05,-0.08 -0.07,-0.15 -0.08,-0.24 -0.06,-0.66 -0.03,-1.19 0.23,-1.81 0.25,-0.52 0.54,-0.83 1.02,-1.14 1.13,-0.56 1.77,-0.59 2.92,-0.34 0.59,0.14 -1.6,0.52 -2.45,1.03 -0.31,0.24 -0.48,0.45 -0.63,0.81 -0.16,0.46 -0.15,0.85 -0.09,1.33 -0.01,-0.07 -0.02,-0.12 -0.06,-0.18 -0.04,-0.05 -0.07,-0.09 -0.13,-0.13 0.73,0.43 1.34,0.56 2.17,0.66 0.45,0.05 0.89,0.07 1.35,0.1 0.48,0.02 0.97,0.05 1.45,0.08 5.7,0.54 10.07,1.9 15.45,3.68 3.18,1.05 6.36,2.04 9.52,3.16 3.29,1.22 6.04,2.67 9.6,3.03 0.03,0.01 0.06,0.01 0.09,0.02 1.12,0.23 2.25,0.46 3.37,0.69 -0.05,-0.01 -0.08,-0.02 -0.13,-0.02 2.59,0.05 5.39,0.56 7.92,1.13 2.39,0.57 4.81,1.24 6.95,2.48z"/>
     <path class="fil2" d="M84.48 124.38c0,0 -0.01,-0.01 -0.01,-0.01 0.06,0.08 0.1,0.15 0.12,0.25 0.17,0.6 0.23,0.93 0.62,1.42 0.11,0.15 0.16,0.29 0.16,0.47 0.11,2.33 0.48,3.56 0.42,6.42 -0.08,2.22 -0.31,4.41 -0.34,6.63 -0.07,2.68 1.38,6.08 2.22,8.64 0.1,0.3 0.55,1.82 0.12,2.02 -0.33,0.07 -0.95,-1.52 -1.03,-1.73 -1.18,-3.01 -2.39,-5.63 -2.54,-8.93 0.01,-2.24 0.22,-4.43 0.29,-6.67 0.05,-2.89 -0.33,-4 -0.45,-6.37 0,0.14 0.04,0.24 0.12,0.36 -0.53,-0.68 -0.64,-1.1 -0.87,-1.91 0.02,0.07 0.05,0.13 0.09,0.19 0,0 -0.01,-0.02 -0.01,-0.02 -1.57,-2.63 -2.85,-6.01 -4.49,-8.85 -1.14,-2 -1.79,-4.03 -1.7,-6.35 0.04,-0.51 0.11,-0.91 0.27,-1.39 0.17,-0.46 0.35,-0.79 0.67,-1.15 0.35,-0.36 0.67,-0.55 1.15,-0.69 0.53,-0.14 0.95,-0.13 1.48,-0.03 1.21,0.28 2.14,0.81 3.22,1.38 0.06,0.04 0.12,0.07 0.18,0.1 0.52,0.27 1.01,0.52 1.55,0.75 0.7,0.28 0.8,0.26 1.41,0.66 0.51,0.36 -1.25,0.29 -1.68,0.2 -0.63,-0.15 -1.17,-0.37 -1.75,-0.64 -0.23,-0.1 -0.46,-0.21 -0.68,-0.32 -0.81,-0.38 -1.59,-0.76 -2.48,-0.93 -0.32,-0.05 -0.59,-0.06 -0.91,0.03 -0.23,0.07 -0.38,0.17 -0.55,0.35 -0.19,0.22 -0.29,0.43 -0.38,0.7 -0.12,0.37 -0.16,0.68 -0.19,1.06 -0.05,2.02 0.56,3.84 1.56,5.57 1.68,2.89 2.86,5.94 4.41,8.79z"/>
    </g>
   </g>
   <path class="fil3" d="M100.32 150.2c0.92,-3.05 2.9,-7.05 2.96,-10.42 0.06,-4.31 -1.01,-8.86 0.17,-12.88 0.74,-2.49 3,-7.07 4.21,-9.32 2.09,-3.87 3.87,-6.09 1.47,-10.23m0 0c-4.07,-0.29 -5.8,2.76 -8.44,2.12 -4.46,-4.91 0.43,-25.68 2.02,-31.99 1.55,-6.15 2.45,-7.79 5.61,-13.05 5.15,-8.56 7.75,-11.5 12.46,-13.05m0 0c3.24,-1.06 7.46,-1.47 14.19,-2.6 1.23,-0.21 2.67,-0.43 3.89,-0.77l6.8 -2.59c4.56,-1.7 9.36,-3.1 14.1,-4.57 4.52,-1.41 7.2,-2 11.89,-2.26 1.72,-0.1 2.78,-0.07 3.5,-1.29m0 0c-0.05,-2.64 -2.97,-2.95 -5.65,-2.9 -6.89,0.16 -14.67,2.44 -21.02,4.19 -2.28,0.62 -4.23,1.25 -6.38,1.95 -3.31,1.07 -16.93,4.53 -20.18,4.96 -10.65,1.41 -36.74,1.46 -48.78,0.7 -2.48,-0.16 -5.27,-0.36 -7.55,-0.79 -1.63,-0.31 -5.69,-1.41 -6.87,-1.41 -0.22,-0.16 0.04,-0.04 -0.45,-0.26 -0.05,-0.02 -0.43,-0.17 -0.48,-0.18 -0.45,-0.13 -0.76,-0.16 -1.25,-0.21l-16.09 -4.55c-1.28,-0.38 -1.81,-0.29 -3.39,-0.85l-0.47 -0.19c-2.42,-0.96 -10.37,-2.53 -13.17,-2.94 -2.14,-0.32 -4.32,-0.51 -6.55,-0.38m0 0c-2.18,0.13 -4.13,0.75 -3.81,3.29 1.44,0.94 3.16,0.82 5.22,1 5.36,0.47 10.28,2.05 15.28,3.74 3.29,1.1 6.33,2.03 9.5,3.17 2.96,1.07 6.4,2.86 9.79,3.09l3.37 0.7c3.4,0 12.24,1.64 15.11,3.93 4.2,3.34 8.71,11.37 11.53,16.57 2.09,3.84 3.19,10.64 4.14,14.91 0.49,2.22 1.34,5.89 1.47,8.08 0.01,0.31 -0.04,0.43 0.05,0.74 0.12,0.42 0.09,0.26 0.25,0.49 -0.18,1.06 0.38,6.48 0.38,8.32 0.01,2.51 -0.29,5.95 -1.96,7.08m0 0c-2.11,0.24 -4.42,-1.85 -6.54,-2.25 -3.63,-0.68 -3.38,4.95 -1.16,8.64 1.3,2.16 4.22,8.6 4.44,8.85 0.21,0.8 0.32,1.17 0.76,1.7 -0.01,0.99 0.54,1.96 0.42,6.42 -0.07,2.22 -0.33,4.42 -0.33,6.65 0,3.52 2.13,7.56 2.99,10.67"/>
   <g>
    <g>
     <path class="fil2" d="M93.92 127.69c0.48,-0.03 0.96,-0.08 1.44,-0.13 1.56,-0.27 3.83,-1.08 5.33,-1.75 0.23,-0.11 0.6,-0.15 0.74,0.17 0.13,0.33 -0.21,0.7 -0.4,0.83 -1.55,1 -3.86,1.88 -5.58,2.23 -0.49,0.07 -0.98,0.12 -1.47,0.17 -2.45,0.22 -4.62,0.01 -6.84,-1.46 -0.49,-0.33 -0.82,-0.51 -0.81,-1.23 0,-0.52 1.18,0.08 1.32,0.15 2.16,0.96 4,1.17 6.27,1.02z"/>
    </g>
    <path class="fil3" d="M86.31 126.53c3.08,2.06 5.49,2.21 9.1,1.81 0.54,-0.06 4.31,-1.08 6.03,-2.34"/>
    <g>
     <path class="fil2" d="M94.07 133.46c2.18,-0.15 4.37,-1.09 6.48,-1.75 0.22,-0.07 0.71,-0.09 0.8,0.28 0.07,0.34 -0.37,0.67 -0.56,0.77 -2.09,1.06 -4.41,1.99 -6.66,2.22 -0.05,0 -0.15,0 -0.19,0.01 -2.49,0.13 -4.23,-0.48 -6.4,-2.03 -0.49,-0.38 -0.87,-0.61 -0.85,-1.35 0.01,-0.54 1.3,0.24 1.42,0.31 2.06,1.08 3.55,1.61 5.78,1.55 0.01,0.01 0.16,-0.01 0.18,-0.01z"/>
    </g>
    <path class="fil3" d="M86.67 131.62c5.51,4.09 8.92,2.8 14.68,0.39"/>
    <g>
     <path class="fil2" d="M94.24 138.51c1.43,-0.04 2.73,-0.18 4.14,-0.51 0.87,-0.22 1.65,-0.47 2.45,-0.95 0.2,-0.12 0.48,-0.11 0.63,0.13 0.17,0.27 -0.02,0.64 -0.2,0.81 -0.82,0.74 -1.7,1.09 -2.66,1.38 -1.47,0.42 -2.85,0.58 -4.34,0.66 -0.02,0 -0.05,0 -0.06,0 -2.34,0.07 -4.99,-0.05 -7.2,-1.16 -0.44,-0.27 -0.6,-0.38 -0.52,-0.98 0.05,-0.48 0.71,-0.24 0.93,-0.18 2.27,0.63 4.44,0.82 6.77,0.81 0,0 0.05,-0.01 0.06,-0.01z"/>
    </g>
    <path class="fil3" d="M86.46 137.9c3.12,1.88 12.49,2.08 15.01,-0.7"/>
    <g>
     <path class="fil2" d="M93.71 144.22c1.78,-0.04 3.33,-0.44 5.06,-0.93 0.32,-0.07 0.75,-0.27 1.08,-0.39 0.12,-0.04 0.25,-0.09 0.37,-0.13 0.09,-0.03 0.16,-0.04 0.25,-0.02 0.11,0 0.19,0.02 0.27,0.1 0.05,0.02 0.08,0.07 0.11,0.1 0.06,0.06 0.09,0.13 0.06,0.22 -0.02,0.04 -0.05,0.12 -0.05,0.16 -0.01,0.05 -0.02,0.08 -0.04,0.11 -0.03,0.1 -0.08,0.16 -0.15,0.22 -0.02,0.04 -0.16,0.13 -0.2,0.15 -0.11,0.06 -0.22,0.12 -0.33,0.18 -0.36,0.2 -0.76,0.43 -1.13,0.58 -1.83,0.67 -3.39,1.07 -5.29,1.17 -0.45,0.01 -0.87,0 -1.32,-0.05 -1.93,-0.26 -3.29,-0.88 -4.96,-2.15 -0.46,-0.38 -0.78,-0.58 -0.73,-1.29 0.02,-0.54 1.17,0.18 1.31,0.25 1.58,0.88 2.78,1.4 4.5,1.65 0.14,0.06 0.99,0.07 1.19,0.07z"/>
    </g>
    <path class="fil3" d="M86.68 142.26c4.16,3.15 7.18,3.38 12.22,1.74 0.45,-0.15 1.85,-0.9 2,-0.81"/>
    <g>
     <path class="fil2" d="M94.23 148.68c1.81,0.13 3.17,0.02 4.95,-0.37 0,0 -0.03,0.01 -0.03,0.01 0,0 0.03,-0.01 0.04,-0.01 0.08,-0.03 0.14,-0.04 0.22,-0.03 -0.02,0.03 -0.04,0.06 -0.05,0.1 -0.01,0.04 -0.01,0.08 0.01,0.11 0.11,-0.04 0.2,-0.05 0.31,0.01 0.08,0.05 0.17,0.19 0.18,0.29 0,0.07 -0.04,0.14 -0.05,0.2 -0.04,0.06 -0.08,0.11 -0.13,0.15 -0.03,0.06 -0.13,0.15 -0.18,0.18 -0.01,0.01 -0.02,0.02 -0.03,0.03 0,0 -0.04,0.02 -0.04,0.02 -1.73,0.86 -3.45,0.9 -5.27,0.82 -1.73,-0.09 -3.72,-0.47 -5.35,-1.25 -0.44,-0.23 -0.56,-0.32 -0.56,-0.89 0,-0.5 0.7,-0.34 0.91,-0.29 1.7,0.37 3.35,0.77 5.07,0.92z"/>
    </g>
    <path class="fil3" d="M88.24 148.06c3.22,1.23 7.83,2.12 11.08,0.84l0.3 -0.16 0.08 -0.23"/>
   </g>
   <g>
    <path class="fil2" d="M93.87 121.65c1.31,-0.03 2.39,-0.18 3.67,-0.48 1.59,-0.36 3.13,-0.67 4.67,-1.24 0.26,-0.1 0.68,-0.13 0.85,0.14 0.17,0.29 -0.19,0.64 -0.42,0.77 -1.53,0.84 -3.12,1.21 -4.79,1.64 -1.37,0.34 -2.54,0.51 -3.96,0.57 -1.1,0.03 -2.03,-0.03 -3.12,-0.22 -2.02,-0.39 -3.52,-0.97 -5.29,-2.02 -0.56,-0.37 -0.95,-0.56 -0.88,-1.22 0.04,-0.5 1.43,0.2 1.59,0.27 1.67,0.73 3.04,1.22 4.84,1.55 0.99,0.17 1.84,0.24 2.84,0.24z"/>
   </g>
   <path class="fil3" d="M84.57 119.6c4.17,2.53 8.34,3.43 13.14,2.28 1.66,-0.4 3.93,-0.87 5.36,-1.79"/>
   <g>
    <path class="fil2" d="M95.75 115.17c1.2,0.01 2.29,-0.06 3.48,-0.21 2.45,-0.37 4.25,-0.92 6.48,-2 0.25,-0.12 0.42,-0.17 0.69,-0.18 0.03,0.02 0.12,0.01 0.15,0.01 0.04,0.01 0.08,0.02 0.12,0.04 0.05,0.02 0.11,0.04 0.11,0.11 0,0.05 0.02,0.08 0.01,0.13 0.01,0.02 0,0.08 -0.01,0.09 0,0.02 -0.04,0.12 -0.04,0.13 -0.13,0.24 -0.32,0.4 -0.54,0.55 -2.21,1.41 -4.2,2.04 -6.78,2.46 -1.26,0.18 -2.41,0.26 -3.68,0.28 -1.49,0 -2.82,-0.1 -4.3,-0.32 -2.17,-0.36 -4.19,-0.95 -6.32,-1.49 -0.67,-0.17 -1.13,-0.2 -1.35,-0.84 -0.21,-0.54 1.66,-0.29 1.79,-0.27 2.04,0.3 4.09,0.93 6.1,1.18 1.4,0.17 2.67,0.32 4.09,0.33z"/>
   </g>
   <path class="fil3" d="M83.74 113.95c2.39,0.26 5.25,1.2 7.81,1.59 5.07,0.79 10.65,0.39 15.05,-2.46 0.02,-0.02 0.16,-0.11 0.19,-0.12"/>
  </g>
 </g>
</svg>
